<svg xmlns="http://www.w3.org/2000/svg" width="23.91" height="24.997" viewBox="0 0 23.91 24.997">
  <g id="Group_7336" data-name="Group 7336" transform="translate(0.001)">
    <path id="Path_3318" data-name="Path 3318" d="M34.91,11.953A11.955,11.955,0,1,0,19.319,23.344a.482.482,0,0,0,.146.022.528.528,0,0,0,.268-.073.5.5,0,0,0,.221-.278l3.019-9.569a1.494,1.494,0,0,0-.015-2.989,1.474,1.474,0,0,0-.641.149L18.328,6.617a.5.5,0,0,0-.7.7l3.986,3.991a1.466,1.466,0,0,0,.419,1.8l-2.877,9.118a10.97,10.97,0,1,1,8.256-.274L27.1,20.5a.5.5,0,0,0-.819-.268l-3,2.676a.5.5,0,0,0,.18.847l3.827,1.221a.5.5,0,0,0,.64-.578l-.306-1.437A11.916,11.916,0,0,0,34.91,11.953Zm-11.955-.5a.5.5,0,1,1-.5.5A.5.5,0,0,1,22.955,11.454ZM24.6,23.065,26.3,21.544l.471,2.219Z" transform="translate(-11.001 0)" fill="#111c4e"/>
    <path id="Path_3319" data-name="Path 3319" d="M245.672,41.256v1a.5.5,0,1,0,1,0v-1a.5.5,0,1,0-1,0Z" transform="translate(-234.216 -38.768)" fill="#111c4e"/>
    <path id="Path_3320" data-name="Path 3320" d="M52.311,234.617a.5.5,0,1,0,0,1h1a.5.5,0,1,0,0-1Z" transform="translate(-49.821 -223.163)" fill="#111c4e"/>
    <path id="Path_3321" data-name="Path 3321" d="M420.615,235.613a.5.5,0,0,0,0-1h-1a.5.5,0,0,0,0,1Z" transform="translate(-399.197 -223.163)" fill="#111c4e"/>
  </g>
</svg>
