<svg xmlns="http://www.w3.org/2000/svg" width="96.042" height="55.449" viewBox="0 0 96.042 55.449">
  <g id="Group_5388" data-name="Group 5388" transform="translate(8753.693 -4506.112)">
    <g id="Group_5384" data-name="Group 5384" transform="translate(-8753.693 4506.112)">
      <path id="Path_20230" data-name="Path 20230" d="M650.185,238.648c0-8.072-4.73-23.911-20.548-23.181-3.435-15.916-10.694-20.571-23.615-20.689-12.619-.115-14.941,9.235-15.912,8.83-13.576-5.65-26.165,7.135-23.407,21.97-7.054.783-12.559,7.292-12.559,15.206,0,.036,0,.071,0,.107.033,5.174,3.914,9.334,8.649,9.334h76.747c5.723,0,10.5-4.939,10.642-11.19Q650.185,238.843,650.185,238.648Z" transform="translate(-554.143 -194.777)" fill="#e9f6b2"/>
    </g>
  </g>
</svg>
