<svg xmlns="http://www.w3.org/2000/svg" width="58.067" height="42.843" viewBox="0 0 58.067 42.843">
  <g id="Group_6509" data-name="Group 6509" transform="translate(-388.943 -171.641)">
    <path id="Path_19562" data-name="Path 19562" d="M448.912,196.521H398.319c-2.064,0-3.736.843-3.736,1.883s1.671,1.884,3.736,1.884h50.594c2.066,0,3.737-.843,3.737-1.884S450.978,196.521,448.912,196.521Z" transform="translate(-5.64 -5.322)" fill="#fff"/>
    <path id="Path_19564" data-name="Path 19564" d="M398.319,175.41h50.594c2.066,0,3.737-.843,3.737-1.884s-1.671-1.884-3.737-1.884H398.319c-2.064,0-3.736.843-3.736,1.884S396.254,175.41,398.319,175.41Z" transform="translate(-5.64 0)" fill="#fff"/>
    <path id="Path_19566" data-name="Path 19566" d="M448.912,221.349H398.319c-2.064,0-3.736.843-3.736,1.884s1.671,1.883,3.736,1.883h50.594c2.066,0,3.737-.843,3.737-1.883S450.978,221.349,448.912,221.349Z" transform="translate(-5.64 -10.633)" fill="#fff"/>
  </g>
</svg>
