<svg xmlns="http://www.w3.org/2000/svg" width="16.967" height="24.997" viewBox="0 0 16.967 24.997">
  <g id="Group_7337" data-name="Group 7337" transform="translate(0.001)">
    <g id="Group_292" data-name="Group 292" transform="translate(-0.001)">
      <path id="Path_166" data-name="Path 166" d="M87.44,0a8.493,8.493,0,0,0-8.483,8.483c0,1.88,1.107,4.739,3.483,9,1.621,2.905,3.235,5.36,3.3,5.463l1.167,1.768a.636.636,0,0,0,1.061,0l1.166-1.768c.067-.1,1.67-2.535,3.3-5.463,2.376-4.258,3.483-7.117,3.483-9A8.493,8.493,0,0,0,87.44,0Zm3.891,16.861c-1.611,2.887-3.188,5.282-3.255,5.382l-.636.964-.636-.964c-.067-.1-1.656-2.518-3.255-5.383-2.2-3.95-3.322-6.768-3.322-8.377a7.212,7.212,0,1,1,14.424,0C94.653,10.092,93.535,12.911,91.331,16.861Z" transform="translate(-78.957 0)" fill="#111c4e"/>
      <path id="Path_167" data-name="Path 167" d="M157.995,73.291a4.7,4.7,0,1,0,4.7,4.7A4.709,4.709,0,0,0,157.995,73.291Zm0,8.136a3.432,3.432,0,1,1,3.432-3.432A3.436,3.436,0,0,1,157.995,81.427Z" transform="translate(-149.511 -69.564)" fill="#111c4e"/>
    </g>
  </g>
</svg>
