<svg xmlns="http://www.w3.org/2000/svg" width="69.58" height="56.853" viewBox="0 0 69.58 56.853">
  <g id="Group_5373" data-name="Group 5373" transform="translate(622.832 -4105.746) rotate(90)">
    <g id="Group_5372" data-name="Group 5372" transform="translate(4105.746 553.251)">
      <path id="Path_20231" data-name="Path 20231" d="M0,0H51.761V52.61H0Z" transform="translate(2.546 7.637)" fill="#989898"/>
      <g id="Group_5362" data-name="Group 5362" transform="translate(0 0)">
        <rect id="Rectangle_1316" data-name="Rectangle 1316" width="56.852" height="16.122" fill="#dadada"/>
        <rect id="Rectangle_1317" data-name="Rectangle 1317" width="54.307" height="12.728" rx="6.364" transform="translate(0.849 1.697)" fill="#fff"/>
        <g id="Group_5360" data-name="Group 5360" transform="translate(6.182 6.556)">
          <circle id="Ellipse_1612" data-name="Ellipse 1612" cx="1.377" cy="1.377" r="1.377" fill="#dadada"/>
          <circle id="Ellipse_1613" data-name="Ellipse 1613" cx="1.377" cy="1.377" r="1.377" transform="translate(4.4)" fill="#dadada"/>
          <circle id="Ellipse_1614" data-name="Ellipse 1614" cx="1.377" cy="1.377" r="1.377" transform="translate(8.8)" fill="#dadada"/>
        </g>
        <g id="Group_5361" data-name="Group 5361" transform="translate(22.062 3.394)">
          <rect id="Rectangle_1318" data-name="Rectangle 1318" width="1.697" height="9.334" transform="translate(0 0)" fill="#dadada"/>
          <rect id="Rectangle_1319" data-name="Rectangle 1319" width="2.546" height="9.334" transform="translate(2.546 0)" fill="#dadada"/>
          <rect id="Rectangle_1320" data-name="Rectangle 1320" width="2.546" height="9.334" transform="translate(5.94 0)" fill="#dadada"/>
          <rect id="Rectangle_1321" data-name="Rectangle 1321" width="2.546" height="9.334" transform="translate(9.334 0)" fill="#e9e9e9"/>
          <rect id="Rectangle_1322" data-name="Rectangle 1322" width="2.546" height="9.334" transform="translate(12.728 0)" fill="#dadada"/>
          <rect id="Rectangle_1323" data-name="Rectangle 1323" width="2.546" height="9.334" transform="translate(16.122 0)" fill="#e9e9e9"/>
          <rect id="Rectangle_1324" data-name="Rectangle 1324" width="1.697" height="9.334" transform="translate(19.516 0)" fill="#dadada"/>
          <rect id="Rectangle_1325" data-name="Rectangle 1325" width="1.697" height="9.334" transform="translate(22.911 0)" fill="#dadada"/>
          <rect id="Rectangle_1326" data-name="Rectangle 1326" width="1.697" height="9.334" transform="translate(26.305 0)" fill="#dadada"/>
        </g>
      </g>
      <g id="Group_5390" data-name="Group 5390" transform="translate(0 17.819)">
        <rect id="Rectangle_1316-2" data-name="Rectangle 1316" width="56.852" height="16.122" fill="#dadada"/>
        <rect id="Rectangle_1317-2" data-name="Rectangle 1317" width="54.307" height="12.728" rx="6.364" transform="translate(0.849 1.697)" fill="#fff"/>
        <g id="Group_5360-2" data-name="Group 5360" transform="translate(6.182 6.556)">
          <circle id="Ellipse_1612-2" data-name="Ellipse 1612" cx="1.377" cy="1.377" r="1.377" fill="#dadada"/>
          <circle id="Ellipse_1613-2" data-name="Ellipse 1613" cx="1.377" cy="1.377" r="1.377" transform="translate(4.4)" fill="#dadada"/>
          <circle id="Ellipse_1614-2" data-name="Ellipse 1614" cx="1.377" cy="1.377" r="1.377" transform="translate(8.8)" fill="#dadada"/>
        </g>
        <g id="Group_5361-2" data-name="Group 5361" transform="translate(22.062 3.394)">
          <rect id="Rectangle_1318-2" data-name="Rectangle 1318" width="1.697" height="9.334" transform="translate(0 0)" fill="#dadada"/>
          <rect id="Rectangle_1319-2" data-name="Rectangle 1319" width="2.546" height="9.334" transform="translate(2.546 0)" fill="#dadada"/>
          <rect id="Rectangle_1320-2" data-name="Rectangle 1320" width="2.546" height="9.334" transform="translate(5.94 0)" fill="#dadada"/>
          <rect id="Rectangle_1321-2" data-name="Rectangle 1321" width="2.546" height="9.334" transform="translate(9.334 0)" fill="#e9e9e9"/>
          <rect id="Rectangle_1322-2" data-name="Rectangle 1322" width="2.546" height="9.334" transform="translate(12.728 0)" fill="#dadada"/>
          <rect id="Rectangle_1323-2" data-name="Rectangle 1323" width="2.546" height="9.334" transform="translate(16.122 0)" fill="#e9e9e9"/>
          <rect id="Rectangle_1324-2" data-name="Rectangle 1324" width="1.697" height="9.334" transform="translate(19.516 0)" fill="#dadada"/>
          <rect id="Rectangle_1325-2" data-name="Rectangle 1325" width="1.697" height="9.334" transform="translate(22.911 0)" fill="#dadada"/>
          <rect id="Rectangle_1326-2" data-name="Rectangle 1326" width="1.697" height="9.334" transform="translate(26.305 0)" fill="#dadada"/>
        </g>
      </g>
      <g id="Group_5391" data-name="Group 5391" transform="translate(0 35.639)">
        <rect id="Rectangle_1316-3" data-name="Rectangle 1316" width="56.852" height="16.122" fill="#dadada"/>
        <rect id="Rectangle_1317-3" data-name="Rectangle 1317" width="54.307" height="12.728" rx="6.364" transform="translate(0.849 1.697)" fill="#fff"/>
        <g id="Group_5360-3" data-name="Group 5360" transform="translate(6.182 6.556)">
          <circle id="Ellipse_1612-3" data-name="Ellipse 1612" cx="1.377" cy="1.377" r="1.377" fill="#dadada"/>
          <circle id="Ellipse_1613-3" data-name="Ellipse 1613" cx="1.377" cy="1.377" r="1.377" transform="translate(4.4)" fill="#dadada"/>
          <circle id="Ellipse_1614-3" data-name="Ellipse 1614" cx="1.377" cy="1.377" r="1.377" transform="translate(8.8)" fill="#dadada"/>
        </g>
        <g id="Group_5361-3" data-name="Group 5361" transform="translate(22.062 3.394)">
          <rect id="Rectangle_1318-3" data-name="Rectangle 1318" width="1.697" height="9.334" transform="translate(0 0)" fill="#dadada"/>
          <rect id="Rectangle_1319-3" data-name="Rectangle 1319" width="2.546" height="9.334" transform="translate(2.546 0)" fill="#dadada"/>
          <rect id="Rectangle_1320-3" data-name="Rectangle 1320" width="2.546" height="9.334" transform="translate(5.94 0)" fill="#dadada"/>
          <rect id="Rectangle_1321-3" data-name="Rectangle 1321" width="2.546" height="9.334" transform="translate(9.334 0)" fill="#e9e9e9"/>
          <rect id="Rectangle_1322-3" data-name="Rectangle 1322" width="2.546" height="9.334" transform="translate(12.728 0)" fill="#dadada"/>
          <rect id="Rectangle_1323-3" data-name="Rectangle 1323" width="2.546" height="9.334" transform="translate(16.122 0)" fill="#e9e9e9"/>
          <rect id="Rectangle_1324-3" data-name="Rectangle 1324" width="1.697" height="9.334" transform="translate(19.516 0)" fill="#dadada"/>
          <rect id="Rectangle_1325-3" data-name="Rectangle 1325" width="1.697" height="9.334" transform="translate(22.911 0)" fill="#dadada"/>
          <rect id="Rectangle_1326-3" data-name="Rectangle 1326" width="1.697" height="9.334" transform="translate(26.305 0)" fill="#dadada"/>
        </g>
      </g>
      <g id="Group_5392" data-name="Group 5392" transform="translate(0 53.458)">
        <rect id="Rectangle_1316-4" data-name="Rectangle 1316" width="56.852" height="16.122" fill="#dadada"/>
        <rect id="Rectangle_1317-4" data-name="Rectangle 1317" width="54.307" height="12.728" rx="6.364" transform="translate(0.849 1.697)" fill="#fff"/>
        <g id="Group_5360-4" data-name="Group 5360" transform="translate(6.182 6.556)">
          <circle id="Ellipse_1612-4" data-name="Ellipse 1612" cx="1.377" cy="1.377" r="1.377" fill="#dadada"/>
          <circle id="Ellipse_1613-4" data-name="Ellipse 1613" cx="1.377" cy="1.377" r="1.377" transform="translate(4.4)" fill="#dadada"/>
          <circle id="Ellipse_1614-4" data-name="Ellipse 1614" cx="1.377" cy="1.377" r="1.377" transform="translate(8.8)" fill="#dadada"/>
        </g>
        <g id="Group_5361-4" data-name="Group 5361" transform="translate(22.062 3.394)">
          <rect id="Rectangle_1318-4" data-name="Rectangle 1318" width="1.697" height="9.334" transform="translate(0 0)" fill="#dadada"/>
          <rect id="Rectangle_1319-4" data-name="Rectangle 1319" width="2.546" height="9.334" transform="translate(2.546 0)" fill="#dadada"/>
          <rect id="Rectangle_1320-4" data-name="Rectangle 1320" width="2.546" height="9.334" transform="translate(5.94 0)" fill="#dadada"/>
          <rect id="Rectangle_1321-4" data-name="Rectangle 1321" width="2.546" height="9.334" transform="translate(9.334 0)" fill="#e9e9e9"/>
          <rect id="Rectangle_1322-4" data-name="Rectangle 1322" width="2.546" height="9.334" transform="translate(12.728 0)" fill="#dadada"/>
          <rect id="Rectangle_1323-4" data-name="Rectangle 1323" width="2.546" height="9.334" transform="translate(16.122 0)" fill="#e9e9e9"/>
          <rect id="Rectangle_1324-4" data-name="Rectangle 1324" width="1.697" height="9.334" transform="translate(19.516 0)" fill="#dadada"/>
          <rect id="Rectangle_1325-4" data-name="Rectangle 1325" width="1.697" height="9.334" transform="translate(22.911 0)" fill="#dadada"/>
          <rect id="Rectangle_1326-4" data-name="Rectangle 1326" width="1.697" height="9.334" transform="translate(26.305 0)" fill="#dadada"/>
        </g>
      </g>
    </g>
  </g>
</svg>
