<svg id="Layer_1" data-name="Layer 1" xmlns="http://www.w3.org/2000/svg" viewBox="0 0 96.15 96.15"><defs><style>.cls-1{fill:none;stroke:#111c4e;stroke-width:4px;}.cls-2{fill:#111c4e;}.cls-3{fill:#b6e000;}</style></defs><g id="Group_8174" data-name="Group 8174"><circle id="Ellipse_1827" data-name="Ellipse 1827" class="cls-1" cx="48.07" cy="48.07" r="46.07"/><path id="Path_24079" data-name="Path 24079" class="cls-2" d="M53.7,54.58H60a.74.74,0,0,0,.73-.74h0V47.11Zm8.77-8.85v8.09A2.52,2.52,0,0,1,60,56.39H52.52v34a.72.72,0,0,0,.72.72H82.73a.72.72,0,0,0,.72-.72V46.45a.72.72,0,0,0-.72-.72Zm-.19-1.8H82.73a2.52,2.52,0,0,1,2.52,2.52V90.34a2.53,2.53,0,0,1-2.52,2.53H53.24a2.52,2.52,0,0,1-2.52-2.53V56.13a2.47,2.47,0,0,1,.68-1.73l9-9.67a2.54,2.54,0,0,1,1.85-.8" transform="translate(-19.91 -19.91)"/><path id="Path_24080" data-name="Path 24080" class="cls-2" d="M78.71,64.05a.91.91,0,0,1,0,1.81H57.27a.91.91,0,1,1,0-1.81Z" transform="translate(-19.91 -19.91)"/><path id="Path_24081" data-name="Path 24081" class="cls-3" d="M78.71,69.83a.91.91,0,0,1,0,1.81H57.27a.91.91,0,1,1,0-1.81Z" transform="translate(-19.91 -19.91)"/><path id="Path_24082" data-name="Path 24082" class="cls-2" d="M78.71,75.61a.91.91,0,0,1,0,1.81H57.27a.91.91,0,1,1,0-1.81Z" transform="translate(-19.91 -19.91)"/><path id="Path_24083" data-name="Path 24083" class="cls-2" d="M78.71,81.39a.91.91,0,0,1,0,1.81H57.27a.91.91,0,1,1,0-1.81Z" transform="translate(-19.91 -19.91)"/></g></svg>