<svg id="Layer_1" data-name="Layer 1" xmlns="http://www.w3.org/2000/svg" xmlns:xlink="http://www.w3.org/1999/xlink" viewBox="0 0 109.9 96.15"><defs><style>.cls-1,.cls-12,.cls-13,.cls-2,.cls-5{fill:none;}.cls-12,.cls-13,.cls-2,.cls-5{stroke:#111c4e;}.cls-2{stroke-width:4px;}.cls-3{fill:#fff;}.cls-4{fill:#80707a;}.cls-12,.cls-5{stroke-linecap:round;stroke-linejoin:round;}.cls-5{stroke-width:1.68px;}.cls-6{clip-path:url(#clip-path);}.cls-7{fill:#d1d4d4;}.cls-8{fill:#b8bfbd;}.cls-9{fill:#b6e000;}.cls-10{fill:#ff0063;}.cls-11{fill:#c9fa00;}.cls-12{stroke-width:0.67px;}</style><clipPath id="clip-path" transform="translate(-19.91 -19.91)"><rect class="cls-1" x="37.63" y="51.91" width="60.72" height="34.85"/></clipPath></defs><g id="Group_8175" data-name="Group 8175"><circle id="Ellipse_1828" data-name="Ellipse 1828" class="cls-2" cx="48.07" cy="48.07" r="46.07"/><path id="Path_24084" data-name="Path 24084" class="cls-3" d="M100.76,94.91H35.21a3.18,3.18,0,0,1-3.15-3.22V48a3.18,3.18,0,0,1,3.15-3.22h65.55A3.2,3.2,0,0,1,103.92,48V91.69a3.2,3.2,0,0,1-3.16,3.22" transform="translate(-19.91 -19.91)"/><path id="Path_24085" data-name="Path 24085" class="cls-4" d="M99,91.68H37a1.85,1.85,0,0,1-1.86-1.85h0V50.14A1.86,1.86,0,0,1,37,48.28H99a1.86,1.86,0,0,1,1.86,1.86h0V89.83A1.85,1.85,0,0,1,99,91.68h0" transform="translate(-19.91 -19.91)"/><path id="Path_24086" data-name="Path 24086" class="cls-3" d="M99,91H37a1.86,1.86,0,0,1-1.86-1.86h0V49.5A1.86,1.86,0,0,1,37,47.64H99a1.85,1.85,0,0,1,1.86,1.85h0V89.18A1.86,1.86,0,0,1,99,91h0" transform="translate(-19.91 -19.91)"/><path id="Rectangle_3445" data-name="Rectangle 3445" class="cls-5" d="M37,47.64H99a1.85,1.85,0,0,1,1.86,1.85V89.18A1.87,1.87,0,0,1,99,91H37a1.87,1.87,0,0,1-1.86-1.86V49.49A1.86,1.86,0,0,1,37,47.64Z" transform="translate(-19.91 -19.91)"/><g id="Group_8026" data-name="Group 8026"><g class="cls-6"><g id="Group_8025" data-name="Group 8025"><path id="Path_24095" data-name="Path 24095" class="cls-7" d="M37.58,88.53l-1.18.33h1.18Z" transform="translate(-19.91 -19.91)"/><path id="Path_24096" data-name="Path 24096" class="cls-8" d="M37.58,87.58,33,88.86H36.4l1.18-.33Z" transform="translate(-19.91 -19.91)"/></g></g></g><rect id="Rectangle_3449" data-name="Rectangle 3449" class="cls-9" x="17.71" y="32" width="22.82" height="7.23"/><rect id="Rectangle_3450" data-name="Rectangle 3450" class="cls-9" x="40.53" y="32" width="22.96" height="7.23"/><rect id="Rectangle_3451" data-name="Rectangle 3451" class="cls-9" x="63.49" y="32" width="14.94" height="7.23"/><rect id="Rectangle_3452" data-name="Rectangle 3452" class="cls-10" x="17.71" y="45.62" width="22.82" height="3.44"/><rect id="Rectangle_3453" data-name="Rectangle 3453" class="cls-10" x="40.53" y="51.02" width="37.91" height="3.44"/><rect id="Rectangle_3454" data-name="Rectangle 3454" class="cls-11" x="29.05" y="56.43" width="22.96" height="3.44"/><rect id="Rectangle_3455" data-name="Rectangle 3455" class="cls-10" x="52.1" y="61.79" width="26.33" height="3.44"/><g id="Group_8028" data-name="Group 8028"><g class="cls-6"><g id="Group_8027" data-name="Group 8027"><rect id="Rectangle_3456" data-name="Rectangle 3456" class="cls-10" x="40.53" y="67.23" width="34.58" height="3.44"/><path id="Path_24097" data-name="Path 24097" class="cls-12" d="M48.92,64.52H37.42V59.1h11.5Zm11.49,43.24h-23V51.21h23ZM118,64.52h-11.5V59.1H118Zm-23,0H83.49V59.1H95Zm-23,0H60.5V59.1H72Zm57.47,43.24h-23V51.21h23Zm-23,0h-23V51.21h23Zm-23,0h-23V51.21h23Zm46,.08h-92v-5.42h92Zm0-5.42h-92V97h92Zm0-5.41h-92V91.59h92Zm0-5.42h-92V86.17h92Zm-69,16.17h-23V59.1h23Zm69-21.57h-92V80.77h92Zm0-5.42h-92V75.35h92Zm0-5.42h-92V69.93h92Zm0-5.41h-92V64.52h92Zm0-10.84h-92V51.21h92Z" transform="translate(-19.91 -19.91)"/></g></g></g><rect id="Rectangle_3458" data-name="Rectangle 3458" class="cls-13" x="17.71" y="32" width="60.72" height="34.85"/></g></svg>