<svg id="Layer_1" data-name="Layer 1" xmlns="http://www.w3.org/2000/svg" viewBox="0 0 97.21 96.17"><defs><style>.cls-1,.cls-3{fill:none;stroke:#111c4e;}.cls-1{stroke-width:4px;}.cls-2{fill:#fff;}.cls-3{stroke-miterlimit:10;stroke-width:1.47px;}</style></defs><g id="Group_8179" data-name="Group 8179"><circle id="Ellipse_1824" data-name="Ellipse 1824" class="cls-1" cx="48.08" cy="48.08" r="46.07"/><path id="Path_24106" data-name="Path 24106" class="cls-2" d="M54.21,60.2a1.86,1.86,0,0,1-1.88-1.87h0V48.46a1.88,1.88,0,0,1,3.73-.34h10.3a16.05,16.05,0,0,1,16.08,16v7.5a1.87,1.87,0,0,1,0,3.73v.35a5.8,5.8,0,0,0,5.82,5.78h12.67a1.88,1.88,0,0,1,3.76.17v9.88a1.88,1.88,0,0,1-3.76.17H88.26a16.07,16.07,0,0,1-16.09-16v-.35a1.87,1.87,0,0,1,0-3.73v-7.5a5.8,5.8,0,0,0-5.81-5.79H56.09a1.87,1.87,0,0,1-1.88,1.87" transform="translate(-8.22 -8.22)"/><path id="Path_24107" data-name="Path 24107" class="cls-3" d="M54.21,60.2a1.86,1.86,0,0,1-1.88-1.87h0V48.46a1.88,1.88,0,0,1,3.73-.34h10.3a16.05,16.05,0,0,1,16.08,16v7.5a1.87,1.87,0,0,1,0,3.73v.35a5.8,5.8,0,0,0,5.82,5.78h12.67a1.88,1.88,0,0,1,3.76.17v9.88a1.88,1.88,0,0,1-3.76.17H88.26a16.07,16.07,0,0,1-16.09-16v-.35a1.87,1.87,0,0,1,0-3.73v-7.5a5.8,5.8,0,0,0-5.81-5.79H56.09A1.87,1.87,0,0,1,54.21,60.2Z" transform="translate(-8.22 -8.22)"/></g></svg>