<svg id="Layer_1" data-name="Layer 1" xmlns="http://www.w3.org/2000/svg" viewBox="0 0 96.17 96.17"><defs><style>.cls-1,.cls-3{fill:none;stroke:#111c4e;}.cls-1{stroke-width:4px;}.cls-2{fill:#fff;}.cls-3{stroke-linecap:round;stroke-linejoin:round;stroke-width:3px;}.cls-4{fill:#ff0063;}</style></defs><g id="Group_8177" data-name="Group 8177"><circle id="Ellipse_1830" data-name="Ellipse 1830" class="cls-1" cx="48.08" cy="48.08" r="46.07"/><path id="Path_24103" data-name="Path 24103" class="cls-2" d="M65.89,93.13C40.45,94.54,26,64.34,43,45.43a28.63,28.63,0,0,1,43.1,37.68l7.3,5.82L72.14,93.75l0-21.87,7.3,5.9A20.09,20.09,0,0,0,49.33,51.13C37.44,64.41,47.58,85.59,65.41,84.6" transform="translate(-16.41 -16.41)"/><path id="Path_24104" data-name="Path 24104" class="cls-3" d="M65.89,93.13C40.45,94.54,26,64.34,43,45.43a28.63,28.63,0,0,1,43.1,37.68l7.3,5.82L72.14,93.75l0-21.87,7.3,5.9A20.09,20.09,0,0,0,49.33,51.13C37.44,64.41,47.58,85.59,65.41,84.6" transform="translate(-16.41 -16.41)"/><path id="Path_24105" data-name="Path 24105" class="cls-4" d="M70,70.68V57.83h-.27l-5,1.85v1.83l3.12-1V70.68Zm-9.36-7.8V65.6a5.29,5.29,0,0,1-.5,2.68,1.64,1.64,0,0,1-1.5.81,1.68,1.68,0,0,1-1.52-.82,5.24,5.24,0,0,1-.51-2.67V62.88a5.12,5.12,0,0,1,.5-2.64,1.87,1.87,0,0,1,2.58-.45,2.13,2.13,0,0,1,.45.45,5.12,5.12,0,0,1,.5,2.64m2.19,2.41V63.2a6.46,6.46,0,0,0-1.1-4.2,4.35,4.35,0,0,0-6.15-.06l-.06.06a6.46,6.46,0,0,0-1.1,4.2v2.09a6.54,6.54,0,0,0,1.11,4.23,3.85,3.85,0,0,0,3.11,1.33q4.18,0,4.19-5.56" transform="translate(-16.41 -16.41)"/></g></svg>