<svg id="Layer_1" data-name="Layer 1" xmlns="http://www.w3.org/2000/svg" viewBox="0 0 96.17 96.17"><defs><style>.cls-1,.cls-4{fill:none;stroke:#111c4e;}.cls-1{stroke-width:4px;}.cls-2{fill:#111c4e;}.cls-3{fill:#cae947;}.cls-4{stroke-width:2px;}</style></defs><g id="Group_8178" data-name="Group 8178"><circle id="Ellipse_1825" data-name="Ellipse 1825" class="cls-1" cx="48.08" cy="48.08" r="46.07"/><path id="Path_23940" data-name="Path 23940" class="cls-2" d="M44.14,62.15a.94.94,0,0,0-1.87,0,12,12,0,0,0,3.55,8.56.93.93,0,0,0,1.32-1.31,10.17,10.17,0,0,1-3-7.25" transform="translate(-16.41 -16.41)"/><path id="Path_23941" data-name="Path 23941" class="cls-2" d="M89.28,99.69l-2-2,2.63-2.63,2,2ZM72.16,77.3l2,2L71.5,81.91l-2-2Zm-4.61-.66,1.32-1.32,1.31,1.32L68.87,78Zm-25.68-2a17.7,17.7,0,1,1,25,0h0a17.71,17.71,0,0,1-25,0m30.95,8.56,2.63-2.63L88.62,93.76,86,96.39ZM93.89,96.4,90.6,93.1h0L72.82,75.32a1,1,0,0,0-1.32,0L70,73.85a19.58,19.58,0,1,0-4,4l1.47,1.48a.93.93,0,0,0,0,1.31h0L85.33,98.37h0l3.29,3.29a.92.92,0,0,0,1.32,0l4-4a.93.93,0,0,0,0-1.31h0" transform="translate(-16.41 -16.41)"/><path id="Path_23942" data-name="Path 23942" class="cls-3" d="M53.83,75.63A13.68,13.68,0,1,0,40.15,62h0A13.69,13.69,0,0,0,53.83,75.63" transform="translate(-16.41 -16.41)"/><path id="Path_23943" data-name="Path 23943" class="cls-4" d="M53.83,75.63A13.68,13.68,0,1,0,40.15,62h0A13.69,13.69,0,0,0,53.83,75.63Z" transform="translate(-16.41 -16.41)"/><rect id="Rectangle_3422" data-name="Rectangle 3422" class="cls-2" x="79.26" y="79.99" width="3.73" height="18.63" transform="translate(-55.8 67.13) rotate(-45.01)"/><path id="Path_23944" data-name="Path 23944" class="cls-2" d="M45.65,61.67a.93.93,0,1,0-1.86,0h0a12,12,0,0,0,3.55,8.56.93.93,0,1,0,1.32-1.31h0a10.25,10.25,0,0,1-3-7.24" transform="translate(-16.41 -16.41)"/></g></svg>