<svg id="Layer_1" data-name="Layer 1" xmlns="http://www.w3.org/2000/svg" viewBox="0 0 96.17 96.17"><defs><style>.cls-1,.cls-3{fill:none;}.cls-1{stroke:#111c4e;stroke-width:4px;}.cls-2{fill:#111c4e;}.cls-3{stroke:#fff;stroke-miterlimit:10;stroke-width:0.3px;}</style></defs><g id="Group_8180" data-name="Group 8180"><circle id="Ellipse_1826" data-name="Ellipse 1826" class="cls-1" cx="48.08" cy="48.08" r="46.07"/><path id="Path_23945" data-name="Path 23945" class="cls-2" d="M52.09,62.13H60.7V60.55H52.09Zm10.82,2h-13V58.56h13Z" transform="translate(-8.22 -8.22)"/><path id="Path_23946" data-name="Path 23946" class="cls-3" d="M52.09,62.13H60.7V60.55H52.09Zm10.82,2h-13V58.56h13Z" transform="translate(-8.22 -8.22)"/><path id="Path_23947" data-name="Path 23947" class="cls-2" d="M62.91,59H60.7V56.41H52.09V59H49.88V54.42h13Z" transform="translate(-8.22 -8.22)"/><path id="Path_23948" data-name="Path 23948" class="cls-3" d="M62.91,59H60.7V56.41H52.09V59H49.88V54.42h13Z" transform="translate(-8.22 -8.22)"/><path id="Path_23949" data-name="Path 23949" class="cls-2" d="M62.91,54.83H60.7V52.26H52.09v2.57H49.88V50.27h13Z" transform="translate(-8.22 -8.22)"/><path id="Path_23950" data-name="Path 23950" class="cls-3" d="M62.91,54.83H60.7V52.26H52.09v2.57H49.88V50.27h13Z" transform="translate(-8.22 -8.22)"/><path id="Path_23951" data-name="Path 23951" class="cls-2" d="M56.4,47.31c-6.11,0-11.08,4.47-11.08,10s5,10,11.08,10,11.07-4.48,11.07-10-5-10-11.07-10m0,21.94c-7.33,0-13.29-5.37-13.29-12s6-12,13.29-12,13.29,5.37,13.29,12-6,12-13.29,12m-2.91,4.56a21,21,0,0,0,5.76,0l-.42-2.74,6.64-2.47,1.84,2.2a17.56,17.56,0,0,0,4.08-3.66L69,65.49l2.76-6,3,.39a15.08,15.08,0,0,0,0-5.19l-3,.38-2.74-6,2.44-1.65a17.78,17.78,0,0,0-4.06-3.68L65.51,46,58.88,43.5l.43-2.74a20.58,20.58,0,0,0-5.76,0L54,43.49,47.33,46l-1.84-2.2a17.56,17.56,0,0,0-4.08,3.66l2.44,1.66-2.76,6-3-.38a15.28,15.28,0,0,0-.23,2.62A14.78,14.78,0,0,0,38,59.86l3-.38,2.74,6-2.44,1.65a17.57,17.57,0,0,0,4.06,3.68l1.85-2.2,6.63,2.48ZM56.4,76A24,24,0,0,1,52,75.58l-1-.2.49-3.07L48,71l-2.08,2.47L45.08,73a19.92,19.92,0,0,1-6.15-5.55l-.56-.78,2.75-1.86-1.43-3.13-3.42.43-.21-.91a16.8,16.8,0,0,1,0-7.85l.21-.9,3.41.43,1.44-3.12-2.73-1.87.56-.78a19.72,19.72,0,0,1,6.17-5.54L46,41l2.06,2.48,3.48-1.29-.47-3.08,1-.19a23,23,0,0,1,8.71,0l1,.2-.48,3.07,3.47,1.3,2.07-2.46.87.5a19.79,19.79,0,0,1,6.14,5.56l.56.78-2.74,1.86,1.43,3.12,3.41-.42.22.91a16.89,16.89,0,0,1,0,7.84l-.22.91-3.4-.43-1.45,3.12,2.74,1.87-.56.78A19.93,19.93,0,0,1,67.66,73l-.86.5L64.73,71l-3.47,1.29.47,3.07-1,.19A23.17,23.17,0,0,1,56.4,76" transform="translate(-8.22 -8.22)"/><path id="Path_23952" data-name="Path 23952" class="cls-3" d="M56.4,47.31c-6.11,0-11.08,4.47-11.08,10s5,10,11.08,10,11.07-4.48,11.07-10S62.5,47.31,56.4,47.31Zm0,21.94c-7.33,0-13.29-5.37-13.29-12s6-12,13.29-12,13.29,5.37,13.29,12-6,12-13.29,12ZM53.49,73.8a20.21,20.21,0,0,0,5.76,0l-.42-2.73,6.64-2.47,1.84,2.2a17.79,17.79,0,0,0,4.08-3.66L69,65.49l2.76-6,3,.39a15.08,15.08,0,0,0,0-5.19l-3,.38-2.74-6,2.44-1.66a18,18,0,0,0-4.06-3.67L65.51,46,58.88,43.5l.43-2.74a20.58,20.58,0,0,0-5.76,0L54,43.49,47.33,46l-1.84-2.2a17.56,17.56,0,0,0-4.08,3.66l2.44,1.66-2.76,6-3-.38a15.25,15.25,0,0,0-.23,2.61A14.62,14.62,0,0,0,38,59.85l3-.37,2.74,6-2.44,1.65a17.57,17.57,0,0,0,4.06,3.68l1.85-2.2,6.63,2.48ZM56.4,76A23.15,23.15,0,0,1,52,75.58l-1-.2.49-3.07L48,71l-2.08,2.47L45.08,73a19.92,19.92,0,0,1-6.15-5.55l-.56-.78,2.75-1.86-1.43-3.13-3.42.42-.21-.9a16.8,16.8,0,0,1,0-7.85l.21-.91,3.41.44,1.44-3.13-2.73-1.86.56-.78a19.72,19.72,0,0,1,6.17-5.54L46,41l2.06,2.48,3.48-1.3-.47-3.07,1-.19a23,23,0,0,1,8.71,0l1,.2-.48,3.07,3.47,1.3,2.07-2.46.87.5a19.79,19.79,0,0,1,6.14,5.56l.56.78-2.74,1.86,1.43,3.12,3.41-.42.22.91a16.89,16.89,0,0,1,0,7.84l-.22.91-3.4-.44-1.45,3.13,2.74,1.87-.56.77A19.83,19.83,0,0,1,67.66,73l-.86.5L64.73,71l-3.47,1.29.47,3.07-1,.19A22.35,22.35,0,0,1,56.4,76Z" transform="translate(-8.22 -8.22)"/><path id="Path_23953" data-name="Path 23953" class="cls-2" d="M86.59,38a1.83,1.83,0,1,0,2,1.83,2,2,0,0,0-2-1.83m0,5.64a3.84,3.84,0,1,1,4.24-3.81,4,4,0,0,1-4.24,3.81" transform="translate(-8.22 -8.22)"/><path id="Path_23954" data-name="Path 23954" class="cls-3" d="M86.59,38a1.83,1.83,0,1,0,2,1.83A2,2,0,0,0,86.59,38Zm0,5.64a3.84,3.84,0,1,1,4.24-3.81A4,4,0,0,1,86.59,43.6Z" transform="translate(-8.22 -8.22)"/><path id="Path_23955" data-name="Path 23955" class="cls-2" d="M26,38a1.83,1.83,0,1,0,2,1.83A1.94,1.94,0,0,0,26,38m0,5.64a3.84,3.84,0,1,1,4.24-3.81A4,4,0,0,1,26,43.6" transform="translate(-8.22 -8.22)"/><path id="Path_23956" data-name="Path 23956" class="cls-3" d="M26,38a1.83,1.83,0,1,0,2,1.83A1.94,1.94,0,0,0,26,38Zm0,5.64a3.84,3.84,0,1,1,4.24-3.81A4,4,0,0,1,26,43.6Z" transform="translate(-8.22 -8.22)"/><path id="Path_23957" data-name="Path 23957" class="cls-2" d="M86.59,73a1.83,1.83,0,1,0,2,1.83,1.94,1.94,0,0,0-2-1.83m0,5.64a3.84,3.84,0,1,1,4.24-3.81,4,4,0,0,1-4.24,3.81" transform="translate(-8.22 -8.22)"/><path id="Path_23958" data-name="Path 23958" class="cls-3" d="M86.59,73a1.83,1.83,0,1,0,2,1.83A1.94,1.94,0,0,0,86.59,73Zm0,5.64a3.84,3.84,0,1,1,4.24-3.81,4,4,0,0,1-4.24,3.81Z" transform="translate(-8.22 -8.22)"/><path id="Path_23959" data-name="Path 23959" class="cls-2" d="M26,73a1.83,1.83,0,1,0,2,1.83A1.93,1.93,0,0,0,26,73m0,5.64a3.84,3.84,0,1,1,4.24-3.81A4,4,0,0,1,26,78.59" transform="translate(-8.22 -8.22)"/><path id="Path_23960" data-name="Path 23960" class="cls-3" d="M26,73a1.83,1.83,0,1,0,2,1.83A1.93,1.93,0,0,0,26,73Zm0,5.64a3.84,3.84,0,1,1,4.24-3.81A4,4,0,0,1,26,78.59Z" transform="translate(-8.22 -8.22)"/><path id="Path_23961" data-name="Path 23961" class="cls-2" d="M86.59,55.46A1.83,1.83,0,0,0,87,59.11a1.84,1.84,0,0,0,1.65-1.83,1.94,1.94,0,0,0-2-1.82m0,5.64a3.84,3.84,0,1,1,4.24-3.82,4.06,4.06,0,0,1-4.24,3.82" transform="translate(-8.22 -8.22)"/><path id="Path_23962" data-name="Path 23962" class="cls-3" d="M86.59,55.46A1.83,1.83,0,0,0,87,59.11a1.84,1.84,0,0,0,1.65-1.83A1.94,1.94,0,0,0,86.59,55.46Zm0,5.64a3.84,3.84,0,1,1,4.24-3.82A4.06,4.06,0,0,1,86.59,61.1Z" transform="translate(-8.22 -8.22)"/><path id="Path_23963" data-name="Path 23963" class="cls-2" d="M56.3,28.18a1.83,1.83,0,1,0,2,1.82,1.93,1.93,0,0,0-2-1.82m0,5.64A3.84,3.84,0,1,1,60.54,30a4.06,4.06,0,0,1-4.24,3.82" transform="translate(-8.22 -8.22)"/><path id="Path_23964" data-name="Path 23964" class="cls-3" d="M56.3,28.18a1.83,1.83,0,1,0,2,1.82A1.93,1.93,0,0,0,56.3,28.18Zm0,5.64A3.84,3.84,0,1,1,60.54,30,4.06,4.06,0,0,1,56.3,33.82Z" transform="translate(-8.22 -8.22)"/><path id="Path_23965" data-name="Path 23965" class="cls-2" d="M26,55.46a1.83,1.83,0,1,0,2,1.82,1.93,1.93,0,0,0-2-1.82m0,5.64a3.84,3.84,0,1,1,4.24-3.82A4.06,4.06,0,0,1,26,61.1" transform="translate(-8.22 -8.22)"/><path id="Path_23966" data-name="Path 23966" class="cls-3" d="M26,55.46a1.83,1.83,0,1,0,2,1.82A1.93,1.93,0,0,0,26,55.46Zm0,5.64a3.84,3.84,0,1,1,4.24-3.82A4.06,4.06,0,0,1,26,61.1Z" transform="translate(-8.22 -8.22)"/><rect id="Rectangle_3425" data-name="Rectangle 3425" class="cls-2" x="47.07" y="24.6" width="2.21" height="6.73"/><rect id="Rectangle_3426" data-name="Rectangle 3426" class="cls-3" x="47.07" y="24.6" width="2.21" height="6.73"/><path id="Path_23967" data-name="Path 23967" class="cls-2" d="M71,45.39,69.44,44l5.75-5.18h8.27v2H76.11Z" transform="translate(-8.22 -8.22)"/><path id="Path_23968" data-name="Path 23968" class="cls-3" d="M71,45.39,69.44,44l5.75-5.18h8.27v2H76.11Z" transform="translate(-8.22 -8.22)"/><path id="Path_23969" data-name="Path 23969" class="cls-2" d="M83.46,75.76H75.19l-5.75-5.18L71,69.17l5.1,4.59h7.35Z" transform="translate(-8.22 -8.22)"/><path id="Path_23970" data-name="Path 23970" class="cls-3" d="M83.46,75.76H75.19l-5.75-5.18L71,69.17l5.1,4.59h7.35Z" transform="translate(-8.22 -8.22)"/><path id="Path_23971" data-name="Path 23971" class="cls-2" d="M41.78,45.39l-5.1-4.59H29.33v-2H37.6L43.35,44Z" transform="translate(-8.22 -8.22)"/><path id="Path_23972" data-name="Path 23972" class="cls-3" d="M41.78,45.39l-5.1-4.59H29.33v-2H37.6L43.35,44Z" transform="translate(-8.22 -8.22)"/><path id="Path_23973" data-name="Path 23973" class="cls-2" d="M37.6,75.76H29.33v-2h7.35l5.1-4.59,1.57,1.41Z" transform="translate(-8.22 -8.22)"/><path id="Path_23974" data-name="Path 23974" class="cls-3" d="M37.6,75.76H29.33v-2h7.35l5.1-4.59,1.57,1.41Z" transform="translate(-8.22 -8.22)"/><rect id="Rectangle_3427" data-name="Rectangle 3427" class="cls-2" x="67.87" y="48.07" width="7.38" height="1.99"/><rect id="Rectangle_3428" data-name="Rectangle 3428" class="cls-3" x="67.87" y="48.07" width="7.38" height="1.99"/><rect id="Rectangle_3429" data-name="Rectangle 3429" class="cls-2" x="20.92" y="48.07" width="7.38" height="1.99"/><rect id="Rectangle_3430" data-name="Rectangle 3430" class="cls-3" x="20.92" y="48.07" width="7.38" height="1.99"/></g></svg>