<svg id="Layer_1" data-name="Layer 1" xmlns="http://www.w3.org/2000/svg" viewBox="0 0 96.17 96.17"><defs><style>.cls-1{fill:none;stroke:#111c4e;stroke-width:4px;}.cls-2{fill:#111c4e;}.cls-3{fill:#b6e000;}</style></defs><g id="Group_8176" data-name="Group 8176"><circle id="Ellipse_1829" data-name="Ellipse 1829" class="cls-1" cx="48.08" cy="48.08" r="46.07"/><path id="Path_24098" data-name="Path 24098" class="cls-2" d="M44,45.73h6.25A.74.74,0,0,0,51,45h0V38.26Zm8.78-8.85V45a2.54,2.54,0,0,1-2.48,2.57H42.84V81.49a.73.73,0,0,0,.72.73H73a.73.73,0,0,0,.72-.73V37.6a.72.72,0,0,0-.72-.72Zm-.2-1.81H73a2.54,2.54,0,0,1,2.53,2.53V81.49A2.53,2.53,0,0,1,73,84H43.56A2.53,2.53,0,0,1,41,81.49V47.28a2.47,2.47,0,0,1,.68-1.73l9-9.67a2.48,2.48,0,0,1,1.84-.81" transform="translate(-10.23 -10.19)"/><path id="Path_24099" data-name="Path 24099" class="cls-2" d="M69,55.2A.91.91,0,0,1,69,57H47.58a.91.91,0,1,1,0-1.81Z" transform="translate(-10.23 -10.19)"/><path id="Path_24100" data-name="Path 24100" class="cls-3" d="M69,61a.91.91,0,0,1,0,1.81H47.58a.91.91,0,1,1,0-1.81Z" transform="translate(-10.23 -10.19)"/><path id="Path_24101" data-name="Path 24101" class="cls-2" d="M69,66.76a.91.91,0,0,1,0,1.81H47.58a.91.91,0,1,1,0-1.81Z" transform="translate(-10.23 -10.19)"/><path id="Path_24102" data-name="Path 24102" class="cls-2" d="M69,72.54a.91.91,0,0,1,0,1.81H47.58a.91.91,0,1,1,0-1.81Z" transform="translate(-10.23 -10.19)"/></g></svg>