<svg xmlns="http://www.w3.org/2000/svg" xmlns:xlink="http://www.w3.org/1999/xlink" width="1923.421" height="218.449" viewBox="0 0 1923.421 218.449">
  <defs>
    <linearGradient id="linear-gradient" x1="0.5" x2="0.5" y2="1" gradientUnits="objectBoundingBox">
      <stop offset="0" stop-color="#fdfdff" stop-opacity="0"/>
      <stop offset="1" stop-color="#e2eaf9"/>
    </linearGradient>
  </defs>
  <path id="Subtract" d="M0,0V161.337l9.538.457,1.244.06h.02c47.6,2.283,101.554,4.872,160.965,7.466,68.636,3,132.08,5.455,193.958,7.514,36.293,1.208,72.585,2.293,107.868,3.224,38.366,1.013,76.836,1.88,114.34,2.576,40.287.748,80.735,1.322,120.222,1.707,42.047.41,84.275.618,125.513.618,42.205,0,84.607-.218,126.027-.647,43.521-.451,87.226-1.149,129.9-2.074,22.089-.479,44.374-1.029,66.237-1.634,22.343-.619,44.886-1.314,67.005-2.066,22.589-.768,45.369-1.617,67.707-2.523,22.8-.925,45.792-1.936,68.342-3,22.991-1.09,46.176-2.271,68.91-3.511,23.167-1.264,46.521-2.624,69.412-4.043,23.316-1.445,46.815-2.993,69.847-4.6,23.441-1.635,47.065-3.378,70.215-5.181,23.551-1.834,47.276-3.781,70.517-5.788,23.636-2.041,47.44-4.2,70.752-6.419,23.7-2.255,47.556-4.636,70.92-7.076,23.731-2.478,47.626-5.088,71.022-7.757v-94.3c-48.747,1.746-98.867,3.284-148.97,4.572-48.345,1.242-97.974,2.285-147.51,3.1-47.71.783-96.617,1.375-145.362,1.76-46.846.369-94.8.556-142.527.556-45.138,0-91.276-.167-137.133-.5-43.861-.316-88.626-.789-133.052-1.407-42.355-.589-85.526-1.324-128.314-2.186-40.636-.818-81.991-1.772-122.917-2.835-141.556-3.676-284.4-8.8-424.551-15.235-55.063-2.527-109.836-5.265-162.8-8.137-42.37-2.3-83.686-4.685-122.8-7.1C69.758,4.779,43.182,3.01,27.015,1.9,9.67.718.389.029,0,0Z" transform="matrix(1, 0.017, -0.017, 1, 3.228, 0)" opacity="0.39" fill="url(#linear-gradient)"/>
</svg>
