<svg xmlns="http://www.w3.org/2000/svg" width="182.123" height="72.436" viewBox="0 0 182.123 72.436">
  <g id="Group_5" data-name="Group 5" transform="translate(-1087.95 -1584.214)">
    <path id="Path_1" data-name="Path 1" d="M1247.953,1647.9v-18.13h5.016v37.513h-5.016v-7.471l-5.381-17.084v24.556h-5.016v-37.513h5.016Z" transform="translate(-89.769 -27.333)" fill="#fff"/>
    <g id="Group_1" data-name="Group 1" transform="translate(1167.641 1602.434)">
      <path id="Path_2" data-name="Path 2" d="M1294.456,1662.735h2.56q1.986,0,1.986-2.194v-24.034a1.964,1.964,0,0,0-2.247-2.194h-2.35a1.94,1.94,0,0,0-2.195,2.194v24.034a1.963,1.963,0,0,0,2.246,2.194m-1.2,4.545q-6.062,0-6.061-6.374v-24.712q0-6.426,6.008-6.426h4.807q6.007,0,6.008,6.426v24.712q0,6.375-6.061,6.374Z" transform="translate(-1287.194 -1629.768)" fill="#fff"/>
      <path id="Path_3" data-name="Path 3" d="M1347.7,1653.539v-4.545h7.627v18.286H1345.5q-5.8,0-5.8-6.322v-24.764q0-6.427,5.8-6.427h3.448q6.373,0,6.374,6.531v4.075h-5.016v-3.343q0-2.717-2.142-2.717h-1.254q-2.195,0-2.194,2.717v22.988q0,2.717,2.194,2.717h3.4v-9.2Z" transform="translate(-1318.702 -1629.767)" fill="#fff"/>
      <path id="Path_4" data-name="Path 4" d="M1399.058,1648.994v-12.487a1.94,1.94,0,0,0-2.194-2.194h-1.359a1.939,1.939,0,0,0-2.194,2.194v12.487Zm-5.747,18.286h-5.016v-31.086q0-6.426,6.008-6.426h3.761q6.008,0,6.008,6.426v31.086h-5.015v-13.74h-5.747Z" transform="translate(-1347.858 -1629.768)" fill="#fff"/>
    </g>
    <path id="Path_5" data-name="Path 5" d="M1449.034,1651.815l4.65-22.048h5.538v37.512h-5.015l.522-24.556-3.761,17.763H1447.1l-3.762-17.763.523,24.556h-5.016v-37.512h5.538Z" transform="translate(-210.549 -27.334)" fill="#fff"/>
    <path id="Path_6" data-name="Path 6" d="M1505.543,1667.28h-5.016v-13.793l-6.165-23.72h4.963l3.762,16.3h.157l3.4-16.3h4.963l-6.061,23.72Z" transform="translate(-243.861 -27.334)" fill="#fff"/>
    <g id="Group_2" data-name="Group 2" transform="translate(1087.95 1584.214)">
      <path id="Path_7" data-name="Path 7" d="M1176.045,1647.439a6.384,6.384,0,0,0,4.52-7.679,6.113,6.113,0,0,0-7.381-4.7,6.384,6.384,0,0,0-4.52,7.679,6.113,6.113,0,0,0,7.381,4.7" transform="translate(-1136.278 -1614.615)" fill="#b6e000"/>
      <path id="Path_8" data-name="Path 8" d="M1186.545,1680.628c.022-.132.052-.263.072-.4.084-.544.14-1.093.191-1.644.023-.244.054-.486.07-.73.032-.48.039-.964.046-1.448,0-.306.017-.611.012-.917-.008-.475-.042-.952-.074-1.428-.021-.3-.034-.6-.064-.906-.054-.548-.138-1.1-.224-1.645-.034-.21-.059-.421-.1-.631-.13-.721-.294-1.441-.481-2.161,0-.011-.005-.023-.008-.034-.06-.23-.1-.462-.168-.691l-.045.012a28.947,28.947,0,0,0-1.433-3.89l-14.816,6.789s3.579.349,4.118.418a13.936,13.936,0,0,1-4.952,15.772c-.111.081-.2.167-.2.164l.008.012a14.042,14.042,0,0,1-1.531.931c-.122.062-.224.134-.226.13l5.588,11.789a1.242,1.242,0,0,1,.22-.156,26.441,26.441,0,0,0,3.191-1.964l.01.015.052-.058a26.549,26.549,0,0,0,10.746-17.332" transform="translate(-1135.225 -1632.16)" fill="#b6e000"/>
      <path id="Path_9" data-name="Path 9" d="M1116.456,1641.527a13.435,13.435,0,0,1-15.868-10.82,13.956,13.956,0,0,1,10.4-16.508,12.824,12.824,0,0,1,5.359-.022l2.482-12.876a24.489,24.489,0,0,0-10.32.045,28.781,28.781,0,0,0-8.165,3.426v-16.226l-12.394-4.333v44.674a22.77,22.77,0,0,0,.394,4.495c2.93,14.644,16.662,24.045,30.738,21,.132-.029.229-.075.361-.106l-2.585-12.852c-.13.033-.269.077-.4.106" transform="translate(-1087.95 -1584.214)" fill="#ff0063"/>
      <path id="Path_10" data-name="Path 10" d="M1534.6,1717.482a2.173,2.173,0,1,0-2.173-2.173,2.173,2.173,0,0,0,2.173,2.173" transform="translate(-1354.652 -1661.572)" fill="#b6e000"/>
      <path id="Path_11" data-name="Path 11" d="M1351.384,1748.107h-2.94v-4.254h2.777v-.64h-2.777v-3.777h2.94v-.64h-3.607v9.95h3.607Zm-7.484.64v-.64h-2.8v-9.31h-.667v9.95Zm-11.03-9.337h.742a2.1,2.1,0,0,1,1.569.521,2.418,2.418,0,0,1,.507,1.725,2.711,2.711,0,0,1-.49,1.817,2.131,2.131,0,0,1-1.661.552h-.667Zm2.825.075a2.876,2.876,0,0,0-2.13-.687H1332.2v9.95h.667v-4.11h.708a2.789,2.789,0,0,0,2.086-.722,3.132,3.132,0,0,0,.7-2.259,3.006,3.006,0,0,0-.674-2.171m-12.34.949a1.755,1.755,0,0,1,1.643-1.14,1.731,1.731,0,0,1,1.613,1.126,10.489,10.489,0,0,1-.01,6.7,1.727,1.727,0,0,1-3.239-.01,10.38,10.38,0,0,1-.007-6.676m3.763-.456a2.306,2.306,0,0,0-2.12-1.324,2.342,2.342,0,0,0-2.164,1.259,7.937,7.937,0,0,0-.721,3.832,8.068,8.068,0,0,0,.728,3.8,2.377,2.377,0,0,0,4.27.01,10.129,10.129,0,0,0,.007-7.578m-8.936,8.129h-2.94v-4.254h2.776v-.64h-2.776v-3.777h2.94v-.64h-3.607v9.95h3.607Zm-11.166-8.7h.742a2.1,2.1,0,0,1,1.569.521,2.418,2.418,0,0,1,.507,1.725,2.711,2.711,0,0,1-.49,1.817,2.131,2.131,0,0,1-1.66.552h-.667Zm2.825.075a2.876,2.876,0,0,0-2.13-.687h-1.361v9.95h.667v-4.11h.708a2.789,2.789,0,0,0,2.086-.722,3.132,3.132,0,0,0,.7-2.259,3.006,3.006,0,0,0-.673-2.171m-16.063,4.982.851-3.709a10.735,10.735,0,0,0,.19-1.184q.075.558.211,1.184l.878,3.709Zm3.845,4.281-2.45-9.95h-.687l-2.4,9.95h.694l.864-3.607h2.416l.878,3.607Zm-10.138-9.31h1.98v-.64h-4.628v.64h1.98v9.31h.667Zm-9.1,5.03.851-3.709a10.763,10.763,0,0,0,.19-1.184q.075.558.211,1.184l.878,3.709Zm3.845,4.281-2.45-9.95h-.688l-2.4,9.95h.694l.864-3.607h2.416l.878,3.607Zm-10.1-1.742a2.011,2.011,0,0,1-1.9,1.13h-1.062v-8.725h1.116a1.983,1.983,0,0,1,1.831,1.1,6.663,6.663,0,0,1,.62,3.206,7.118,7.118,0,0,1-.606,3.287m.514-6.966a2.591,2.591,0,0,0-2.331-1.242h-1.81v9.95h1.769q3.165,0,3.165-5.07a6.81,6.81,0,0,0-.793-3.638m-13.535,8.068h-2.94v-4.254h2.777v-.64h-2.777v-3.777h2.94v-.64h-3.607v9.95h3.607Zm-8.294-9.31h-.667v4.417h-3.471V1738.8h-.667v9.95h.667v-4.893h3.471v4.893h.667Zm-10.5.64h1.981v-.64h-4.628v.64h1.981v9.31h.667Z" transform="translate(-1177.79 -1676.883)" fill="#fff"/>
      <path id="Path_12" data-name="Path 12" d="M1351.384,1748.107h-2.94v-4.254h2.777v-.64h-2.777v-3.777h2.94v-.64h-3.607v9.95h3.607Zm-7.484.64v-.64h-2.8v-9.31h-.667v9.95Zm-11.03-9.337h.742a2.1,2.1,0,0,1,1.569.521,2.418,2.418,0,0,1,.507,1.725,2.711,2.711,0,0,1-.49,1.817,2.131,2.131,0,0,1-1.661.552h-.667Zm2.825.075a2.876,2.876,0,0,0-2.13-.687H1332.2v9.95h.667v-4.11h.708a2.789,2.789,0,0,0,2.086-.722,3.132,3.132,0,0,0,.7-2.259A3.006,3.006,0,0,0,1335.7,1739.484Zm-12.34.949a1.755,1.755,0,0,1,1.643-1.14,1.731,1.731,0,0,1,1.613,1.126,10.489,10.489,0,0,1-.01,6.7,1.727,1.727,0,0,1-3.239-.01,10.38,10.38,0,0,1-.007-6.676Zm3.763-.456a2.306,2.306,0,0,0-2.12-1.324,2.342,2.342,0,0,0-2.164,1.259,7.937,7.937,0,0,0-.721,3.832,8.068,8.068,0,0,0,.728,3.8,2.377,2.377,0,0,0,4.27.01,10.129,10.129,0,0,0,.007-7.578Zm-8.936,8.129h-2.94v-4.254h2.776v-.64h-2.776v-3.777h2.94v-.64h-3.607v9.95h3.607Zm-11.166-8.7h.742a2.1,2.1,0,0,1,1.569.521,2.418,2.418,0,0,1,.507,1.725,2.711,2.711,0,0,1-.49,1.817,2.131,2.131,0,0,1-1.66.552h-.667Zm2.825.075a2.876,2.876,0,0,0-2.13-.687h-1.361v9.95h.667v-4.11h.708a2.789,2.789,0,0,0,2.086-.722,3.132,3.132,0,0,0,.7-2.259A3.006,3.006,0,0,0,1309.841,1739.484Zm-16.063,4.982.851-3.709a10.735,10.735,0,0,0,.19-1.184q.075.558.211,1.184l.878,3.709Zm3.845,4.281-2.45-9.95h-.687l-2.4,9.95h.694l.864-3.607h2.416l.878,3.607Zm-10.138-9.31h1.98v-.64h-4.628v.64h1.98v9.31h.667Zm-9.1,5.03.851-3.709a10.763,10.763,0,0,0,.19-1.184q.075.558.211,1.184l.878,3.709Zm3.845,4.281-2.45-9.95h-.688l-2.4,9.95h.694l.864-3.607h2.416l.878,3.607Zm-10.1-1.742a2.011,2.011,0,0,1-1.9,1.13h-1.062v-8.725h1.116a1.983,1.983,0,0,1,1.831,1.1,6.663,6.663,0,0,1,.62,3.206A7.118,7.118,0,0,1,1272.136,1747Zm.514-6.966a2.591,2.591,0,0,0-2.331-1.242h-1.81v9.95h1.769q3.165,0,3.165-5.07A6.81,6.81,0,0,0,1272.65,1740.039Zm-13.535,8.068h-2.94v-4.254h2.777v-.64h-2.777v-3.777h2.94v-.64h-3.607v9.95h3.607Zm-8.294-9.31h-.667v4.417h-3.471V1738.8h-.667v9.95h.667v-4.893h3.471v4.893h.667Zm-10.5.64h1.981v-.64h-4.628v.64h1.981v9.31h.667Z" transform="translate(-1177.79 -1676.883)" fill="none" stroke="#fff" stroke-width="0.871"/>
    </g>
  </g>
</svg>
