<svg xmlns="http://www.w3.org/2000/svg" xmlns:xlink="http://www.w3.org/1999/xlink" width="750" height="1570" viewBox="0 0 750 1570">
  <defs>
    <clipPath id="clip-path">
      <rect id="Rectangle_3484" data-name="Rectangle 3484" width="750" height="1570" transform="translate(0 9151)" fill="#fff" stroke="#707070" stroke-width="1"/>
    </clipPath>
    <linearGradient id="linear-gradient" x1="-0.171" y1="0.956" x2="0.97" y2="0.045" gradientUnits="objectBoundingBox">
      <stop offset="0" stop-color="#e9f6b2" stop-opacity="0"/>
      <stop offset="0.495" stop-color="#e9f6b2"/>
      <stop offset="1" stop-color="#e9f6b2" stop-opacity="0"/>
    </linearGradient>
    <linearGradient id="linear-gradient-2" x1="-0.171" y1="0.044" x2="0.97" y2="0.955" xlink:href="#linear-gradient"/>
    <linearGradient id="linear-gradient-3" x1="1" y1="0.5" x2="-0.049" y2="0.5" gradientUnits="objectBoundingBox">
      <stop offset="0" stop-color="#e9f6b2" stop-opacity="0.239"/>
      <stop offset="0.459" stop-color="#e9f6b2"/>
      <stop offset="1" stop-color="#e9f6b2"/>
    </linearGradient>
    <linearGradient id="linear-gradient-6" x1="0.5" x2="0.5" y2="1" gradientUnits="objectBoundingBox">
      <stop offset="0" stop-color="#fdfdff" stop-opacity="0"/>
      <stop offset="1" stop-color="#e2eaf9"/>
    </linearGradient>
    <linearGradient id="linear-gradient-7" y1="0.5" x2="1.049" y2="0.5" gradientUnits="objectBoundingBox">
      <stop offset="0" stop-color="#e9f6b2" stop-opacity="0.129"/>
      <stop offset="0.459" stop-color="#e9f6b2"/>
      <stop offset="1" stop-color="#e9f6b2" stop-opacity="0"/>
    </linearGradient>
    <linearGradient id="linear-gradient-8" x1="-0.027" y1="0.913" x2="0.963" gradientUnits="objectBoundingBox">
      <stop offset="0" stop-color="#ebf7b8" stop-opacity="0"/>
      <stop offset="0.489" stop-color="#ebf7b7"/>
      <stop offset="1" stop-color="#eaf7b6" stop-opacity="0.078"/>
    </linearGradient>
    <linearGradient id="linear-gradient-9" x1="-0.027" y1="0.087" x2="0.963" y2="1" xlink:href="#linear-gradient-8"/>
    <linearGradient id="linear-gradient-12" x1="1" y1="0.6" x2="0.064" y2="0.588" gradientUnits="objectBoundingBox">
      <stop offset="0" stop-color="#fff"/>
      <stop offset="1" stop-color="#fff" stop-opacity="0"/>
    </linearGradient>
    <linearGradient id="linear-gradient-13" y1="0.4" x2="0.064" y2="0.412" xlink:href="#linear-gradient-12"/>
    <linearGradient id="linear-gradient-14" x1="0" y1="0.6" x2="0.936" y2="0.588" xlink:href="#linear-gradient-12"/>
    <filter id="Ellipse_1578" x="330.596" y="736.512" width="198.489" height="198.488" filterUnits="userSpaceOnUse">
      <feOffset input="SourceAlpha"/>
      <feGaussianBlur stdDeviation="15" result="blur"/>
      <feFlood flood-color="#090b43" flood-opacity="0.102"/>
      <feComposite operator="in" in2="blur"/>
      <feComposite in="SourceGraphic"/>
    </filter>
    <filter id="Ellipse_1574" x="151" y="736.512" width="198.489" height="198.488" filterUnits="userSpaceOnUse">
      <feOffset input="SourceAlpha"/>
      <feGaussianBlur stdDeviation="15" result="blur-2"/>
      <feFlood flood-color="#090b43" flood-opacity="0.102"/>
      <feComposite operator="in" in2="blur-2"/>
      <feComposite in="SourceGraphic"/>
    </filter>
    <filter id="Ellipse_1573" x="318.596" y="853.437" width="222.871" height="222.871" filterUnits="userSpaceOnUse">
      <feOffset input="SourceAlpha"/>
      <feGaussianBlur stdDeviation="15" result="blur-3"/>
      <feFlood flood-color="#090b43" flood-opacity="0.102"/>
      <feComposite operator="in" in2="blur-3"/>
      <feComposite in="SourceGraphic"/>
    </filter>
    <filter id="Ellipse_1575" x="151" y="864.629" width="198.489" height="198.488" filterUnits="userSpaceOnUse">
      <feOffset input="SourceAlpha"/>
      <feGaussianBlur stdDeviation="15" result="blur-4"/>
      <feFlood flood-color="#090b43" flood-opacity="0.102"/>
      <feComposite operator="in" in2="blur-4"/>
      <feComposite in="SourceGraphic"/>
    </filter>
    <clipPath id="clip-path-2">
      <path id="Path_21432" data-name="Path 21432" d="M0-52.4H87.764v-78.37H0Z" transform="translate(0 130.774)" fill="none"/>
    </clipPath>
    <clipPath id="clip-path-4">
      <path id="Path_21425" data-name="Path 21425" d="M0-40H96.3v-99.3H0Z" transform="translate(0 139.302)" fill="none"/>
    </clipPath>
    <clipPath id="clip-path-5">
      <path id="Path_21416" data-name="Path 21416" d="M0-58.275H93.22v-71.776H0Z" transform="translate(0 130.051)" fill="none"/>
    </clipPath>
    <clipPath id="clip-path-6">
      <path id="Path_22038" data-name="Path 22038" d="M0,0H212.751V-237.47H0Z" transform="translate(0 237.47)" fill="none"/>
    </clipPath>
    <clipPath id="clip-path-7">
      <rect id="Rectangle_1594" data-name="Rectangle 1594" width="212.265" height="167.605" fill="none"/>
    </clipPath>
    <filter id="Ellipse_1576" x="461.756" y="1025.291" width="198.489" height="198.488" filterUnits="userSpaceOnUse">
      <feOffset input="SourceAlpha"/>
      <feGaussianBlur stdDeviation="15" result="blur-5"/>
      <feFlood flood-color="#090b43" flood-opacity="0.102"/>
      <feComposite operator="in" in2="blur-5"/>
      <feComposite in="SourceGraphic"/>
    </filter>
    <clipPath id="clip-path-8">
      <path id="Path_21464" data-name="Path 21464" d="M0,0H53.285V-40.471H0Z" transform="translate(0 40.471)" fill="none"/>
    </clipPath>
    <filter id="Ellipse_1577" x="7.626" y="1013.101" width="222.871" height="222.871" filterUnits="userSpaceOnUse">
      <feOffset input="SourceAlpha"/>
      <feGaussianBlur stdDeviation="15" result="blur-6"/>
      <feFlood flood-color="#090b43" flood-opacity="0.102"/>
      <feComposite operator="in" in2="blur-6"/>
      <feComposite in="SourceGraphic"/>
    </filter>
  </defs>
  <g id="Mask_Group_121" data-name="Mask Group 121" transform="translate(0 -9151)" clip-path="url(#clip-path)">
    <g id="Group_8232" data-name="Group 8232">
      <g id="Group_6913" data-name="Group 6913" transform="translate(387.158 10485.198) rotate(-90)">
        <path id="Path_20226-4" data-name="Path 20226-4" d="M644.87,110.638c89.422-52.575,130.981-68.364,212.252-76.049,48.254-5.27,63.662-2.92,63.662-2.92L919.768.063S873.134-.978,827.323,5.4C771.111,13.22,735.216,27.565,697.29,44.1c-70.42,34.446-126.076,78.076-207.376,92.359C374.087,156.812,20.348,153.681,20.348,153.681L0,185.768s435.131,7.826,538.773-24.644C586.174,147.421,612.426,129.713,644.87,110.638Z" transform="matrix(0.999, 0.035, -0.035, 0.999, 6.512, 0)" fill="url(#linear-gradient)"/>
        <g id="Group_6912" data-name="Group 6912" transform="translate(48.008 57.445)">
          <ellipse id="Ellipse_1604-4" data-name="Ellipse 1604-4" cx="2" cy="2" rx="2" ry="2" transform="matrix(0.999, 0.035, -0.035, 0.999, 587.827, 59.363)" fill="#b6e000"/>
          <ellipse id="Ellipse_1594-4" data-name="Ellipse 1594-4" cx="2" cy="2" rx="2" ry="2" transform="matrix(0.999, 0.035, -0.035, 0.999, 450.956, 109.75)" fill="#b6e000"/>
          <ellipse id="Ellipse_1594-4-2" data-name="Ellipse 1594-4" cx="2" cy="2" rx="2" ry="2" transform="matrix(0.999, 0.035, -0.035, 0.999, 423.413, 113.764)" fill="#b6e000"/>
          <ellipse id="Ellipse_1594-4-3" data-name="Ellipse 1594-4" cx="2" cy="2" rx="2" ry="2" transform="matrix(0.999, 0.035, -0.035, 0.999, 396.413, 114.695)" fill="#b6e000"/>
          <ellipse id="Ellipse_1594-4-4" data-name="Ellipse 1594-4" cx="2" cy="2" rx="2" ry="2" transform="matrix(0.999, 0.035, -0.035, 0.999, 368.413, 115.833)" fill="#b6e000"/>
          <ellipse id="Ellipse_1594-4-5" data-name="Ellipse 1594-4" cx="2" cy="2" rx="2" ry="2" transform="matrix(0.999, 0.035, -0.035, 0.999, 283.413, 117.901)" fill="#b6e000"/>
          <ellipse id="Ellipse_1594-4-6" data-name="Ellipse 1594-4" cx="2" cy="2" rx="2" ry="2" transform="matrix(0.999, 0.035, -0.035, 0.999, 339.55, 117.225)" fill="#b6e000"/>
          <ellipse id="Ellipse_1594-4-7" data-name="Ellipse 1594-4" cx="2" cy="2" rx="2" ry="2" transform="matrix(0.999, 0.035, -0.035, 0.999, 254.55, 118.293)" fill="#b6e000"/>
          <ellipse id="Ellipse_1594-4-8" data-name="Ellipse 1594-4" cx="2" cy="2" rx="2" ry="2" transform="matrix(0.999, 0.035, -0.035, 0.999, 169.413, 117.131)" fill="#b6e000"/>
          <ellipse id="Ellipse_1594-4-9" data-name="Ellipse 1594-4" cx="2" cy="2" rx="2" ry="2" transform="matrix(0.999, 0.035, -0.035, 0.999, 84.276, 115.17)" fill="#b6e000"/>
          <ellipse id="Ellipse_1594-4-10" data-name="Ellipse 1594-4" cx="2" cy="2" rx="2" ry="2" transform="matrix(0.999, 0.035, -0.035, 0.999, 0.14, 112.729)" fill="#b6e000"/>
          <ellipse id="Ellipse_1594-4-11" data-name="Ellipse 1594-4" cx="2" cy="2" rx="2" ry="2" transform="matrix(0.999, 0.035, -0.035, 0.999, 311.413, 117.832)" fill="#b6e000"/>
          <ellipse id="Ellipse_1594-4-12" data-name="Ellipse 1594-4" cx="2" cy="2" rx="2" ry="2" transform="matrix(0.999, 0.035, -0.035, 0.999, 226.413, 117.9)" fill="#b6e000"/>
          <ellipse id="Ellipse_1594-4-13" data-name="Ellipse 1594-4" cx="2" cy="2" rx="2" ry="2" transform="matrix(0.999, 0.035, -0.035, 0.999, 141.276, 116.739)" fill="#b6e000"/>
          <ellipse id="Ellipse_1594-4-14" data-name="Ellipse 1594-4" cx="2" cy="2" rx="2" ry="2" transform="matrix(0.999, 0.035, -0.035, 0.999, 56.14, 113.777)" fill="#b6e000"/>
          <ellipse id="Ellipse_1594-4-15" data-name="Ellipse 1594-4" cx="2" cy="2" rx="2" ry="2" transform="matrix(0.999, 0.035, -0.035, 0.999, 198.413, 117.9)" fill="#b6e000"/>
          <ellipse id="Ellipse_1594-4-16" data-name="Ellipse 1594-4" cx="2" cy="2" rx="2" ry="2" transform="matrix(0.999, 0.035, -0.035, 0.999, 113.276, 115.739)" fill="#b6e000"/>
          <ellipse id="Ellipse_1594-4-17" data-name="Ellipse 1594-4" cx="2" cy="2" rx="2" ry="2" transform="matrix(0.999, 0.035, -0.035, 0.999, 28.14, 112.777)" fill="#b6e000"/>
          <ellipse id="Ellipse_1603-4" data-name="Ellipse 1603-4" cx="2" cy="2" rx="2" ry="2" transform="matrix(0.999, 0.035, -0.035, 0.999, 616.3, 44.273)" fill="#b6e000"/>
          <ellipse id="Ellipse_1595-4" data-name="Ellipse 1595-4" cx="2" cy="2" rx="2" ry="2" transform="matrix(0.999, 0.035, -0.035, 0.999, 479.007, 105.293)" fill="#b6e000"/>
          <ellipse id="Ellipse_1602-4" data-name="Ellipse 1602-4" cx="2" cy="2" rx="2" ry="2" transform="matrix(0.999, 0.035, -0.035, 0.999, 644.771, 31.156)" fill="#b6e000"/>
          <ellipse id="Ellipse_1596-4" data-name="Ellipse 1596-4" cx="2" cy="2" rx="2" ry="2" transform="matrix(0.999, 0.035, -0.035, 0.999, 506.413, 97.063)" fill="#b6e000"/>
          <ellipse id="Ellipse_1601-4" data-name="Ellipse 1601-4" cx="2" cy="2" rx="2" ry="2" transform="matrix(0.999, 0.035, -0.035, 0.999, 673.14, 18.139)" fill="#b6e000"/>
          <ellipse id="Ellipse_1597-4" data-name="Ellipse 1597-4" cx="2" cy="2" rx="2" ry="2" transform="matrix(0.999, 0.035, -0.035, 0.999, 533.413, 87.156)" fill="#b6e000"/>
          <ellipse id="Ellipse_1599-4" data-name="Ellipse 1599-4" cx="2" cy="2" rx="2" ry="2" transform="matrix(0.999, 0.035, -0.035, 0.999, 701.507, 8.137)" fill="#b6e000"/>
          <ellipse id="Ellipse_1598-4" data-name="Ellipse 1598-4" cx="2" cy="2" rx="2" ry="2" transform="matrix(0.999, 0.035, -0.035, 0.999, 560.413, 73.926)" fill="#b6e000"/>
          <ellipse id="Ellipse_1600-4" data-name="Ellipse 1600-4" cx="2" cy="2" rx="2" ry="2" transform="matrix(0.999, 0.035, -0.035, 0.999, 728.77, 0)" fill="#b6e000"/>
        </g>
      </g>
      <g id="Group_6914" data-name="Group 6914" transform="translate(74.691 10485.198) rotate(-90)">
        <path id="Path_20226-4-2" data-name="Path 20226-4" d="M644.869,75.958c89.422,52.575,130.981,68.364,212.252,76.049,48.254,5.27,63.662,2.92,63.662,2.92l-1.016,31.606s-46.634,1.041-92.445-5.334c-56.212-7.823-92.107-22.168-130.033-38.708-70.42-34.446-126.076-78.076-207.376-92.359C374.087,29.784,20.348,32.915,20.348,32.915L0,.828S435.131-7,538.773,25.472C586.173,39.175,612.425,56.883,644.869,75.958Z" transform="matrix(0.999, -0.035, 0.035, 0.999, 0, 32.135)" fill="url(#linear-gradient-2)"/>
        <g id="Group_6912-2" data-name="Group 6912" transform="translate(48.008 38.743)">
          <ellipse id="Ellipse_1604-4-2" data-name="Ellipse 1604-4" cx="2" cy="2" rx="2" ry="2" transform="matrix(0.999, -0.035, 0.035, 0.999, 587.687, 59.07)" fill="#b6e000"/>
          <ellipse id="Ellipse_1594-4-18" data-name="Ellipse 1594-4" cx="2" cy="2" rx="2" ry="2" transform="matrix(0.999, -0.035, 0.035, 0.999, 450.816, 8.682)" fill="#b6e000"/>
          <ellipse id="Ellipse_1594-4-19" data-name="Ellipse 1594-4" cx="2" cy="2" rx="2" ry="2" transform="matrix(0.999, -0.035, 0.035, 0.999, 423.273, 4.669)" fill="#b6e000"/>
          <ellipse id="Ellipse_1594-4-20" data-name="Ellipse 1594-4" cx="2" cy="2" rx="2" ry="2" transform="matrix(0.999, -0.035, 0.035, 0.999, 396.273, 3.737)" fill="#b6e000"/>
          <ellipse id="Ellipse_1594-4-21" data-name="Ellipse 1594-4" cx="2" cy="2" rx="2" ry="2" transform="matrix(0.999, -0.035, 0.035, 0.999, 368.273, 2.6)" fill="#b6e000"/>
          <ellipse id="Ellipse_1594-4-22" data-name="Ellipse 1594-4" cx="2" cy="2" rx="2" ry="2" transform="matrix(0.999, -0.035, 0.035, 0.999, 283.273, 0.531)" fill="#b6e000"/>
          <ellipse id="Ellipse_1594-4-23" data-name="Ellipse 1594-4" cx="2" cy="2" rx="2" ry="2" transform="matrix(0.999, -0.035, 0.035, 0.999, 339.41, 1.208)" fill="#b6e000"/>
          <ellipse id="Ellipse_1594-4-24" data-name="Ellipse 1594-4" cx="2" cy="2" rx="2" ry="2" transform="matrix(0.999, -0.035, 0.035, 0.999, 254.41, 0.14)" fill="#b6e000"/>
          <ellipse id="Ellipse_1594-4-25" data-name="Ellipse 1594-4" cx="2" cy="2" rx="2" ry="2" transform="matrix(0.999, -0.035, 0.035, 0.999, 169.273, 1.301)" fill="#b6e000"/>
          <ellipse id="Ellipse_1594-4-26" data-name="Ellipse 1594-4" cx="2" cy="2" rx="2" ry="2" transform="matrix(0.999, -0.035, 0.035, 0.999, 84.137, 3.263)" fill="#b6e000"/>
          <ellipse id="Ellipse_1594-4-27" data-name="Ellipse 1594-4" cx="2" cy="2" rx="2" ry="2" transform="matrix(0.999, -0.035, 0.035, 0.999, 0, 5.704)" fill="#b6e000"/>
          <ellipse id="Ellipse_1594-4-28" data-name="Ellipse 1594-4" cx="2" cy="2" rx="2" ry="2" transform="matrix(0.999, -0.035, 0.035, 0.999, 311.273, 0.601)" fill="#b6e000"/>
          <ellipse id="Ellipse_1594-4-29" data-name="Ellipse 1594-4" cx="2" cy="2" rx="2" ry="2" transform="matrix(0.999, -0.035, 0.035, 0.999, 226.273, 0.532)" fill="#b6e000"/>
          <ellipse id="Ellipse_1594-4-30" data-name="Ellipse 1594-4" cx="2" cy="2" rx="2" ry="2" transform="matrix(0.999, -0.035, 0.035, 0.999, 141.137, 1.694)" fill="#b6e000"/>
          <ellipse id="Ellipse_1594-4-31" data-name="Ellipse 1594-4" cx="2" cy="2" rx="2" ry="2" transform="matrix(0.999, -0.035, 0.035, 0.999, 56, 4.655)" fill="#b6e000"/>
          <ellipse id="Ellipse_1594-4-32" data-name="Ellipse 1594-4" cx="2" cy="2" rx="2" ry="2" transform="matrix(0.999, -0.035, 0.035, 0.999, 198.273, 0.532)" fill="#b6e000"/>
          <ellipse id="Ellipse_1594-4-33" data-name="Ellipse 1594-4" cx="2" cy="2" rx="2" ry="2" transform="matrix(0.999, -0.035, 0.035, 0.999, 113.137, 2.694)" fill="#b6e000"/>
          <ellipse id="Ellipse_1594-4-34" data-name="Ellipse 1594-4" cx="2" cy="2" rx="2" ry="2" transform="matrix(0.999, -0.035, 0.035, 0.999, 28, 5.655)" fill="#b6e000"/>
          <ellipse id="Ellipse_1603-4-2" data-name="Ellipse 1603-4" cx="2" cy="2" rx="2" ry="2" transform="matrix(0.999, -0.035, 0.035, 0.999, 616.16, 74.159)" fill="#b6e000"/>
          <ellipse id="Ellipse_1595-4-2" data-name="Ellipse 1595-4" cx="2" cy="2" rx="2" ry="2" transform="matrix(0.999, -0.035, 0.035, 0.999, 478.867, 13.139)" fill="#b6e000"/>
          <ellipse id="Ellipse_1602-4-2" data-name="Ellipse 1602-4" cx="2" cy="2" rx="2" ry="2" transform="matrix(0.999, -0.035, 0.035, 0.999, 644.631, 87.276)" fill="#b6e000"/>
          <ellipse id="Ellipse_1596-4-2" data-name="Ellipse 1596-4" cx="2" cy="2" rx="2" ry="2" transform="matrix(0.999, -0.035, 0.035, 0.999, 506.273, 21.37)" fill="#b6e000"/>
          <ellipse id="Ellipse_1601-4-2" data-name="Ellipse 1601-4" cx="2" cy="2" rx="2" ry="2" transform="matrix(0.999, -0.035, 0.035, 0.999, 672.999, 100.294)" fill="#b6e000"/>
          <ellipse id="Ellipse_1597-4-2" data-name="Ellipse 1597-4" cx="2" cy="2" rx="2" ry="2" transform="matrix(0.999, -0.035, 0.035, 0.999, 533.273, 31.276)" fill="#b6e000"/>
          <ellipse id="Ellipse_1599-4-2" data-name="Ellipse 1599-4" cx="2" cy="2" rx="2" ry="2" transform="matrix(0.999, -0.035, 0.035, 0.999, 701.367, 110.295)" fill="#b6e000"/>
          <ellipse id="Ellipse_1598-4-2" data-name="Ellipse 1598-4" cx="2" cy="2" rx="2" ry="2" transform="matrix(0.999, -0.035, 0.035, 0.999, 560.273, 44.507)" fill="#b6e000"/>
          <ellipse id="Ellipse_1600-4-2" data-name="Ellipse 1600-4" cx="2" cy="2" rx="2" ry="2" transform="matrix(0.999, -0.035, 0.035, 0.999, 728.63, 118.433)" fill="#b6e000"/>
        </g>
      </g>
      <rect id="Rectangle_3398" data-name="Rectangle 3398" width="627" height="253" transform="translate(33 10264)" fill="#fff"/>
      <rect id="Rectangle_3396" data-name="Rectangle 3396" width="199.26" height="32" transform="translate(441.288 9949.807) rotate(90)" fill="url(#linear-gradient-3)"/>
      <rect id="Rectangle_3397" data-name="Rectangle 3397" width="199.26" height="32" transform="translate(269 9949.807) rotate(90)" fill="url(#linear-gradient-3)"/>
      <rect id="Rectangle_3395" data-name="Rectangle 3395" width="199.26" height="32" transform="translate(441.288 10003.162) rotate(180)" fill="url(#linear-gradient-3)"/>
      <path id="Subtract" d="M0,0V691.421l11.61,1.96,1.515.256.024,0c57.94,9.786,123.61,20.877,195.925,32,83.543,12.844,160.767,23.377,236.084,32.2,44.175,5.176,88.349,9.825,131.3,13.818,46.7,4.342,93.524,8.056,139.174,11.038,49.037,3.2,98.27,5.665,146.333,7.315,51.179,1.757,102.579,2.648,152.774,2.648,51.372,0,102.983-.933,153.4-2.772,52.974-1.933,106.171-4.923,158.115-8.887,26.886-2.052,54.012-4.408,80.623-7,27.2-2.653,54.635-5.632,81.558-8.854,27.5-3.291,55.223-6.929,82.413-10.812,27.75-3.963,55.738-8.295,83.186-12.876,27.985-4.671,56.2-9.733,83.877-15.047,28.2-5.415,56.625-11.244,84.488-17.325,28.379-6.194,56.983-12.826,85.018-19.711,28.532-7.008,57.287-14.478,85.466-22.2,28.666-7.859,57.544-16.2,85.833-24.8,28.769-8.745,57.743-18,86.119-27.51,28.842-9.665,57.885-19.868,86.324-30.324,28.885-10.62,57.97-21.8,86.448-33.244V147.137c-59.335,7.483-120.341,14.074-181.325,19.592-58.845,5.324-119.254,9.791-179.548,13.276-58.072,3.357-117.6,5.894-176.933,7.541-57.021,1.582-115.389,2.384-173.483,2.384-54.942,0-111.1-.718-166.918-2.133-53.387-1.354-107.875-3.382-161.95-6.028-51.554-2.523-104.1-5.674-156.182-9.367-49.461-3.507-99.8-7.594-149.614-12.149-172.3-15.753-346.164-37.719-516.761-65.289C407.864,84.134,341.194,72.4,276.729,60.095,225.156,50.25,174.868,40.015,127.26,29.676c-42.351-9.2-74.7-16.777-94.378-21.516C11.77,3.076.473.124,0,0Z" transform="matrix(0.998, -0.07, 0.07, 0.998, -360.785, 9981.859)" opacity="0.39" fill="url(#linear-gradient-6)"/>
      <rect id="Rectangle_1305" data-name="Rectangle 1305" width="461" height="32" transform="translate(326.658 9726.309) rotate(-90)" fill="url(#linear-gradient-7)"/>
      <g id="Group_5340" data-name="Group 5340" transform="translate(339.658 9697.309) rotate(-90)">
        <ellipse id="Ellipse_1593" data-name="Ellipse 1593" cx="2" cy="2" rx="2" ry="2" transform="translate(397 0)" fill="#b6e000"/>
        <ellipse id="Ellipse_1604" data-name="Ellipse 1604" cx="2" cy="2" rx="2" ry="2" transform="translate(238 0)" fill="#b6e000"/>
        <ellipse id="Ellipse_1610" data-name="Ellipse 1610" cx="2" cy="2" rx="2" ry="2" transform="translate(79 0)" fill="#b6e000"/>
        <ellipse id="Ellipse_1594" data-name="Ellipse 1594" cx="2" cy="2" rx="2" ry="2" transform="translate(371 0)" fill="#b6e000"/>
        <ellipse id="Ellipse_1603" data-name="Ellipse 1603" cx="2" cy="2" rx="2" ry="2" transform="translate(212 0)" fill="#b6e000"/>
        <ellipse id="Ellipse_1609" data-name="Ellipse 1609" cx="2" cy="2" rx="2" ry="2" transform="translate(53 0)" fill="#b6e000"/>
        <ellipse id="Ellipse_1595" data-name="Ellipse 1595" cx="2" cy="2" rx="2" ry="2" transform="translate(344 0)" fill="#b6e000"/>
        <ellipse id="Ellipse_1602" data-name="Ellipse 1602" cx="2" cy="2" rx="2" ry="2" transform="translate(185 0)" fill="#b6e000"/>
        <ellipse id="Ellipse_1608" data-name="Ellipse 1608" cx="2" cy="2" rx="2" ry="2" transform="translate(26 0)" fill="#b6e000"/>
        <ellipse id="Ellipse_1596" data-name="Ellipse 1596" cx="2" cy="2" rx="2" ry="2" transform="translate(318 0)" fill="#b6e000"/>
        <ellipse id="Ellipse_1601" data-name="Ellipse 1601" cx="2" cy="2" rx="2" ry="2" transform="translate(159 0)" fill="#b6e000"/>
        <ellipse id="Ellipse_1607" data-name="Ellipse 1607" cx="2" cy="2" rx="2" ry="2" transform="translate(0 0)" fill="#b6e000"/>
        <ellipse id="Ellipse_1597" data-name="Ellipse 1597" cx="2" cy="2" rx="2" ry="2" transform="translate(291 0)" fill="#b6e000"/>
        <ellipse id="Ellipse_1599" data-name="Ellipse 1599" cx="2" cy="2" rx="2" ry="2" transform="translate(132 0)" fill="#b6e000"/>
        <ellipse id="Ellipse_1598" data-name="Ellipse 1598" cx="2" cy="2" rx="2" ry="2" transform="translate(265 0)" fill="#b6e000"/>
        <ellipse id="Ellipse_1600" data-name="Ellipse 1600" cx="2" cy="2" rx="2" ry="2" transform="translate(106 0)" fill="#b6e000"/>
      </g>
      <g id="Group_5342" data-name="Group 5342" transform="translate(168.059 9733.996) rotate(-90)">
        <path id="Path_20226" data-name="Path 20226" d="M285.125,76.332C195.7,128.907,144.933,148.327,63.662,156.011,15.408,161.281,0,158.931,0,158.931l1.016,31.606s46.634,1.041,92.445-5.334c56.212-7.823,92.107-22.168,130.033-38.708C262.351,129.548,289.381,109.1,359.623,74.2c2.048-1.018,4.118-2.014,6.459-3.107,55.673-26,124.59-37.016,124.59-37.016L491.688,0A1061.221,1061.221,0,0,0,382.011,29.475C351.457,39.407,317.568,57.258,285.125,76.332Z" transform="translate(0 0)" fill="url(#linear-gradient-8)"/>
        <ellipse id="Ellipse_1593-2" data-name="Ellipse 1593" cx="2" cy="2" rx="2" ry="2" transform="translate(433.688 28.8)" fill="#b6e000"/>
        <ellipse id="Ellipse_1604-2" data-name="Ellipse 1604" cx="2" cy="2" rx="2" ry="2" transform="translate(274.688 98.8)" fill="#b6e000"/>
        <ellipse id="Ellipse_1594-2" data-name="Ellipse 1594" cx="2" cy="2" rx="2" ry="2" transform="translate(407.688 35.8)" fill="#b6e000"/>
        <ellipse id="Ellipse_1603-2" data-name="Ellipse 1603" cx="2" cy="2" rx="2" ry="2" transform="translate(248.688 112.8)" fill="#b6e000"/>
        <ellipse id="Ellipse_1595-2" data-name="Ellipse 1595" cx="2" cy="2" rx="2" ry="2" transform="translate(380.688 44.8)" fill="#b6e000"/>
        <ellipse id="Ellipse_1602-2" data-name="Ellipse 1602" cx="2" cy="2" rx="2" ry="2" transform="translate(221.688 126.8)" fill="#b6e000"/>
        <ellipse id="Ellipse_1596-2" data-name="Ellipse 1596" cx="2" cy="2" rx="2" ry="2" transform="translate(354.688 55.8)" fill="#b6e000"/>
        <ellipse id="Ellipse_1601-2" data-name="Ellipse 1601" cx="2" cy="2" rx="2" ry="2" transform="translate(195.688 137.8)" fill="#b6e000"/>
        <ellipse id="Ellipse_1597-2" data-name="Ellipse 1597" cx="2" cy="2" rx="2" ry="2" transform="translate(327.688 68.8)" fill="#b6e000"/>
        <ellipse id="Ellipse_1599-2" data-name="Ellipse 1599" cx="2" cy="2" rx="2" ry="2" transform="translate(168.688 148.8)" fill="#b6e000"/>
        <ellipse id="Ellipse_1598-2" data-name="Ellipse 1598" cx="2" cy="2" rx="2" ry="2" transform="translate(301.688 82.8)" fill="#b6e000"/>
        <ellipse id="Ellipse_1600-2" data-name="Ellipse 1600" cx="2" cy="2" rx="2" ry="2" transform="translate(142.688 156.8)" fill="#b6e000"/>
      </g>
      <g id="Group_5343" data-name="Group 5343" transform="translate(327.658 9733.996) rotate(-90)">
        <path id="Path_20226-2" data-name="Path 20226" d="M285.125,114.267C195.7,61.693,144.933,42.273,63.662,34.588,15.408,29.319,0,31.669,0,31.669L1.016.063S47.65-.978,93.461,5.4c56.212,7.823,92.107,22.168,130.033,38.708C262.351,61.052,289.381,81.5,359.623,116.4c2.048,1.018,4.118,2.014,6.459,3.107,55.673,26,124.59,37.016,124.59,37.016l1.016,34.078a1061.221,1061.221,0,0,1-109.676-29.475C351.457,151.193,317.568,133.342,285.125,114.267Z" fill="url(#linear-gradient-9)"/>
        <ellipse id="Ellipse_1593-3" data-name="Ellipse 1593" cx="2" cy="2" rx="2" ry="2" transform="translate(433.688 157.8)" fill="#b6e000"/>
        <ellipse id="Ellipse_1604-3" data-name="Ellipse 1604" cx="2" cy="2" rx="2" ry="2" transform="translate(274.688 87.8)" fill="#b6e000"/>
        <ellipse id="Ellipse_1594-3" data-name="Ellipse 1594" cx="2" cy="2" rx="2" ry="2" transform="translate(407.688 150.8)" fill="#b6e000"/>
        <ellipse id="Ellipse_1603-3" data-name="Ellipse 1603" cx="2" cy="2" rx="2" ry="2" transform="translate(248.688 73.8)" fill="#b6e000"/>
        <ellipse id="Ellipse_1595-3" data-name="Ellipse 1595" cx="2" cy="2" rx="2" ry="2" transform="translate(380.688 141.8)" fill="#b6e000"/>
        <ellipse id="Ellipse_1602-3" data-name="Ellipse 1602" cx="2" cy="2" rx="2" ry="2" transform="translate(221.688 59.8)" fill="#b6e000"/>
        <ellipse id="Ellipse_1596-3" data-name="Ellipse 1596" cx="2" cy="2" rx="2" ry="2" transform="translate(354.688 130.8)" fill="#b6e000"/>
        <ellipse id="Ellipse_1601-3" data-name="Ellipse 1601" cx="2" cy="2" rx="2" ry="2" transform="translate(195.688 48.8)" fill="#b6e000"/>
        <ellipse id="Ellipse_1597-3" data-name="Ellipse 1597" cx="2" cy="2" rx="2" ry="2" transform="translate(327.688 117.8)" fill="#b6e000"/>
        <ellipse id="Ellipse_1599-3" data-name="Ellipse 1599" cx="2" cy="2" rx="2" ry="2" transform="translate(168.688 37.8)" fill="#b6e000"/>
        <ellipse id="Ellipse_1598-3" data-name="Ellipse 1598" cx="2" cy="2" rx="2" ry="2" transform="translate(301.688 103.8)" fill="#b6e000"/>
        <ellipse id="Ellipse_1600-3" data-name="Ellipse 1600" cx="2" cy="2" rx="2" ry="2" transform="translate(142.688 29.8)" fill="#b6e000"/>
      </g>
      <text id="מערכות_צד_ג_" data-name="מערכות צד ג׳" transform="translate(188 10372)" fill="#111c4e" font-size="25" font-family="Rubik-Medium, Rubik" font-weight="500"><tspan x="-138.45" y="0">מערכות צד ג׳</tspan></text>
      <text id="M_L_כלי_חיזוי" data-name="M/L כלי חיזוי" transform="translate(561 10372)" fill="#111c4e" font-size="25" font-family="Rubik-Medium, Rubik" font-weight="500"><tspan x="-68.788" y="0">M/L </tspan><tspan y="0">כלי חיזוי</tspan></text>
      <rect id="Rectangle_1311" data-name="Rectangle 1311" width="519.421" height="32" transform="translate(322.329 10089.162) rotate(-90)" fill="url(#linear-gradient-3)"/>
      <rect id="Rectangle_3394" data-name="Rectangle 3394" width="199.26" height="32" transform="translate(441.288 10105.162) rotate(180)" fill="url(#linear-gradient-3)"/>
      <g id="Group_5357" data-name="Group 5357" transform="translate(335.329 9977.162) rotate(-90)">
        <ellipse id="Ellipse_1593-4" data-name="Ellipse 1593" cx="2" cy="2" rx="2" ry="2" transform="translate(0 0)" fill="#b6e000"/>
        <ellipse id="Ellipse_1604-4-3" data-name="Ellipse 1604" cx="2" cy="2" rx="2" ry="2" transform="translate(159 0)" fill="#b6e000"/>
        <ellipse id="Ellipse_1610-2" data-name="Ellipse 1610" cx="2" cy="2" rx="2" ry="2" transform="translate(318 0)" fill="#b6e000"/>
        <ellipse id="Ellipse_1594-4-35" data-name="Ellipse 1594" cx="2" cy="2" rx="2" ry="2" transform="translate(26 0)" fill="#b6e000"/>
        <ellipse id="Ellipse_1603-4-3" data-name="Ellipse 1603" cx="2" cy="2" rx="2" ry="2" transform="translate(185 0)" fill="#b6e000"/>
        <ellipse id="Ellipse_1609-2" data-name="Ellipse 1609" cx="2" cy="2" rx="2" ry="2" transform="translate(344 0)" fill="#b6e000"/>
        <ellipse id="Ellipse_1595-4-3" data-name="Ellipse 1595" cx="2" cy="2" rx="2" ry="2" transform="translate(53 0)" fill="#b6e000"/>
        <ellipse id="Ellipse_1602-4-3" data-name="Ellipse 1602" cx="2" cy="2" rx="2" ry="2" transform="translate(212 0)" fill="#b6e000"/>
        <ellipse id="Ellipse_1608-2" data-name="Ellipse 1608" cx="2" cy="2" rx="2" ry="2" transform="translate(371 0)" fill="#b6e000"/>
        <ellipse id="Ellipse_1596-4-3" data-name="Ellipse 1596" cx="2" cy="2" rx="2" ry="2" transform="translate(79 0)" fill="#b6e000"/>
        <ellipse id="Ellipse_1601-4-3" data-name="Ellipse 1601" cx="2" cy="2" rx="2" ry="2" transform="translate(238 0)" fill="#b6e000"/>
        <ellipse id="Ellipse_1607-2" data-name="Ellipse 1607" cx="2" cy="2" rx="2" ry="2" transform="translate(397 0)" fill="#b6e000"/>
        <ellipse id="Ellipse_1597-4-3" data-name="Ellipse 1597" cx="2" cy="2" rx="2" ry="2" transform="translate(106 0)" fill="#b6e000"/>
        <ellipse id="Ellipse_1599-4-3" data-name="Ellipse 1599" cx="2" cy="2" rx="2" ry="2" transform="translate(265 0)" fill="#b6e000"/>
        <ellipse id="Ellipse_1598-4-3" data-name="Ellipse 1598" cx="2" cy="2" rx="2" ry="2" transform="translate(132 0)" fill="#b6e000"/>
        <ellipse id="Ellipse_1600-4-3" data-name="Ellipse 1600" cx="2" cy="2" rx="2" ry="2" transform="translate(291 0)" fill="#b6e000"/>
      </g>
      <g id="Group_6922" data-name="Group 6922" transform="translate(335.329 10133.162) rotate(-90)">
        <ellipse id="Ellipse_1610-3" data-name="Ellipse 1610" cx="2" cy="2" rx="2" ry="2" transform="translate(53 0)" fill="#b6e000"/>
        <ellipse id="Ellipse_1609-3" data-name="Ellipse 1609" cx="2" cy="2" rx="2" ry="2" transform="translate(79 0)" fill="#b6e000"/>
        <ellipse id="Ellipse_1608-3" data-name="Ellipse 1608" cx="2" cy="2" rx="2" ry="2" transform="translate(106 0)" fill="#b6e000"/>
        <ellipse id="Ellipse_1607-3" data-name="Ellipse 1607" cx="2" cy="2" rx="2" ry="2" transform="translate(132 0)" fill="#b6e000"/>
        <ellipse id="Ellipse_1599-5" data-name="Ellipse 1599" cx="2" cy="2" rx="2" ry="2" transform="translate(0 0)" fill="#b6e000"/>
        <ellipse id="Ellipse_1600-5" data-name="Ellipse 1600" cx="2" cy="2" rx="2" ry="2" transform="translate(26 0)" fill="#b6e000"/>
      </g>
      <rect id="Rectangle_1313" data-name="Rectangle 1313" width="142.416" height="446.342" transform="translate(91.658 9822.873) rotate(-90)" fill="url(#linear-gradient-12)"/>
      <rect id="Rectangle_3393" data-name="Rectangle 3393" width="197.909" height="129.159" transform="translate(400 9936.572) rotate(90)" fill="url(#linear-gradient-13)"/>
      <rect id="Rectangle_1314" data-name="Rectangle 1314" width="124" height="197" transform="translate(244.658 9568.309) rotate(-90)" fill="url(#linear-gradient-14)"/>
      <text id="דשבורדים" transform="translate(481.596 10211.549)" fill="#111c4e" font-size="25" font-family="Rubik-Medium, Rubik" font-weight="500" opacity="0.5"><tspan x="-103.025" y="0">דשבורדים</tspan></text>
      <text id="_.אפל_מובייל" data-name=".אפל
מובייל" transform="translate(250 9887)" fill="#111c4e" font-size="25" font-family="Rubik-Medium, Rubik" font-weight="500" opacity="0.5"><tspan x="-24.813" y="0">.</tspan><tspan y="0">אפל</tspan><tspan y="0"></tspan><tspan x="-31.6" y="25">מובייל</tspan></text>
      <text id="דוחות" transform="translate(219 10188.549)" fill="#111c4e" font-size="25" font-family="Rubik-Medium, Rubik" font-weight="500" opacity="0.5"><tspan x="1.525" y="23">דוחות</tspan></text>
      <text id="APPLICATION" transform="translate(444.909 9156.5)" fill="#111c4e" font-size="25" font-family="Rubik-Medium, Rubik" font-weight="500" opacity="0.5"><tspan x="0.532" y="23">Application</tspan></text>
      <text id="FILES" transform="translate(157.497 9159.092)" fill="#111c4e" font-size="25" font-family="Rubik-Medium, Rubik" font-weight="500" opacity="0.5"><tspan x="6.818" y="23">Files</tspan></text>
      <text id="DB" transform="translate(335.158 9151)" fill="#111c4e" font-size="25" font-family="Rubik-Medium, Rubik" font-weight="500" opacity="0.5"><tspan x="8.638" y="23">DB</tspan></text>
      <text id="אזור_תחקור_עצמי" data-name="אזור תחקור
עצמי" transform="translate(366.596 9864.873)" fill="#111c4e" font-size="25" font-family="Rubik-Medium, Rubik" font-weight="500" opacity="0.5"><tspan x="3.225" y="23">אזור תחקור</tspan><tspan y="23"></tspan><tspan x="37.575" y="48">עצמי</tspan></text>
      <g id="Group_5269" data-name="Group 5269" transform="translate(375.596 9932.512)">
        <g transform="matrix(1, 0, 0, 1, -375.6, -781.51)" filter="url(#Ellipse_1578)">
          <circle id="Ellipse_1578-2" data-name="Ellipse 1578" cx="54.244" cy="54.244" r="54.244" transform="translate(375.6 781.51)" fill="#fff"/>
        </g>
        <g id="Group_5194" data-name="Group 5194" transform="translate(22 16.598)">
          <g id="Group_5264" data-name="Group 5264" transform="translate(0 0)">
            <g id="Group_5265" data-name="Group 5265" transform="translate(0)">
              <g id="Group_5245" data-name="Group 5245" transform="translate(10.352 0)">
                <path id="Path_20221" data-name="Path 20221" d="M23.575,0A23.575,23.575,0,1,1,0,23.575,23.575,23.575,0,0,1,23.575,0Z" transform="translate(0 45.89) rotate(-76.717)" fill="#ff0063"/>
              </g>
              <g id="Group_5246" data-name="Group 5246" transform="translate(12.202 0.142)">
                <ellipse id="Ellipse_1572" data-name="Ellipse 1572" cx="22.876" cy="22.876" rx="22.876" ry="22.876" transform="translate(0 10.511) rotate(-13.283)" fill="#b6e000"/>
                <path id="Path_20150" data-name="Path 20150" d="M1572.3,468.88a23.431,23.431,0,1,1,23.432-23.431A23.458,23.458,0,0,1,1572.3,468.88Zm0-45.751a22.319,22.319,0,1,0,22.32,22.319A22.345,22.345,0,0,0,1572.3,423.129Z" transform="translate(-1544.776 -417.929)" fill="#ff0063"/>
              </g>
              <path id="Path_20160" data-name="Path 20160" d="M15.6,0A15.6,15.6,0,1,1,4.214,26.262,15.441,15.441,0,0,1,0,15.6,15.6,15.6,0,0,1,15.6,0Z" transform="translate(18.251 22.593) rotate(-31.717)" fill="#fff"/>
              <g id="Group_5266" data-name="Group 5266" transform="translate(0 43.249)">
                <path id="Path_20163" data-name="Path 20163" d="M976.375,243.574a2.353,2.353,0,0,0,3.328,0l21.308-21.308-3.328-3.328-21.308,21.308A2.353,2.353,0,0,0,976.375,243.574Z" transform="translate(-975.194 -218.447)" fill="#fff" stroke="#ff0063" stroke-width="1"/>
                <path id="Path_20164" data-name="Path 20164" d="M977.03,243.745a2.844,2.844,0,0,1-2.011-4.856l21.308-21.308a.491.491,0,0,1,.695,0l3.328,3.328a.491.491,0,0,1,0,.695l-21.308,21.308A2.827,2.827,0,0,1,977.03,243.745Zm19.644-25.122-20.961,20.961a1.862,1.862,0,0,0,2.633,2.633l20.961-20.961Z" transform="translate(-974.185 -217.438)" stroke="#ff0063" stroke-width="1"/>
              </g>
              <g id="Group_5267" data-name="Group 5267" transform="translate(12.675 55.818)">
                <path id="Path_20165" data-name="Path 20165" d="M1014.394,259.12l1.8-1.8Z" transform="translate(-1013.903 -256.832)" fill="#fff"/>
                <path id="Path_20166" data-name="Path 20166" d="M1013.386,258.6a.491.491,0,0,1-.347-.839l1.8-1.8a.491.491,0,1,1,.694.695l-1.8,1.8A.491.491,0,0,1,1013.386,258.6Z" transform="translate(-1012.894 -255.824)"/>
              </g>
              <g id="Group_5268" data-name="Group 5268" transform="translate(1.141 59.988)">
                <path id="Path_20167" data-name="Path 20167" d="M981.542,273.415l-2.019,2.018a1.213,1.213,0,1,0,1.715,1.715l7.091-7.091Z" transform="translate(-978.677 -269.567)" fill="#fff"/>
                <path id="Path_20168" data-name="Path 20168" d="M979.372,276.986a1.7,1.7,0,0,1-1.205-2.909l2.018-2.018a.491.491,0,0,1,.694.694l-2.018,2.018a.722.722,0,0,0,1.021,1.021l7.091-7.091a.491.491,0,0,1,.694.695l-7.091,7.091A1.7,1.7,0,0,1,979.372,276.986Z" transform="translate(-977.669 -268.559)" fill="#ff0063"/>
              </g>
            </g>
            <path id="Path_20175" data-name="Path 20175" d="M1109.764,119.213a.345.345,0,0,1-.151-.035,12.416,12.416,0,0,0-3.508-1.087.349.349,0,0,1,.106-.69,13.11,13.11,0,0,1,3.7,1.149.349.349,0,0,1-.152.664Z" transform="translate(-1063.63 -101.986)" fill="#ff0063"/>
            <path id="Path_20176" data-name="Path 20176" d="M1056.3,155.428a13.156,13.156,0,0,1-12.912-10.641.349.349,0,1,1,.685-.133,12.455,12.455,0,1,0,21.034-11.186.349.349,0,1,1,.494-.494,13.153,13.153,0,0,1-9.3,22.454Z" transform="translate(-1015.729 -113.861)" fill="#ff0063"/>
          </g>
        </g>
      </g>
      <g id="Group_5273" data-name="Group 5273" transform="translate(196 9932.512)">
        <g transform="matrix(1, 0, 0, 1, -196, -781.51)" filter="url(#Ellipse_1574)">
          <circle id="Ellipse_1574-2" data-name="Ellipse 1574" cx="54.244" cy="54.244" r="54.244" transform="translate(196 781.51)" fill="#fff"/>
        </g>
        <g id="Group_5209" data-name="Group 5209" transform="translate(33 19.383)">
          <g id="Group_5200" data-name="Group 5200">
            <g id="Group_5199" data-name="Group 5199">
              <path id="Path_20082" data-name="Path 20082" d="M1755.5,277.988l-1.732.13-32.426-.13a2.68,2.68,0,0,1-2.656-2.715l.226-67.913a2.7,2.7,0,0,1,2.674-2.715l32.4-.387c3.724,0,4.423,1.6,4.418,3.1l-.226,67.913A2.7,2.7,0,0,1,1755.5,277.988Z" transform="translate(-1716.515 -204.25)" fill="#ff0063"/>
              <path id="Path_20083" data-name="Path 20083" d="M1735.835,279.387h-34.158a2.688,2.688,0,0,1-2.657-2.728l.2-68.228a2.707,2.707,0,0,1,2.673-2.728h34.158a2.687,2.687,0,0,1,2.657,2.728l-.2,68.228A2.707,2.707,0,0,1,1735.835,279.387Z" transform="translate(-1698.942 -205.543)" fill="#b6e000"/>
              <path id="Path_20084" data-name="Path 20084" d="M1717.744,321.013l.191-65.146a.624.624,0,0,1,.616-.63h34.273a.62.62,0,0,1,.612.63l-.191,65.146a.624.624,0,0,1-.616.63h-34.273A.62.62,0,0,1,1717.744,321.013Z" transform="translate(-1715.673 -249.803)" fill="#b6e000"/>
              <path id="Path_20085" data-name="Path 20085" d="M1881.239,221.141a1.022,1.022,0,1,1,1.02-1.022A1.016,1.016,0,0,1,1881.239,221.141Z" transform="translate(-1861.201 -217.511)" fill="#caddff"/>
              <path id="Path_20086" data-name="Path 20086" d="M1698.447,248.036h0a.158.158,0,0,1-.156-.16l.12-40.786a2.869,2.869,0,0,1,2.831-2.887H1735.4a2.765,2.765,0,0,1,1.989.841,2.894,2.894,0,0,1,.825,2.047l.042,25.411a.159.159,0,0,1-.157.16h0a.158.158,0,0,1-.157-.16l-.042-25.412a2.574,2.574,0,0,0-.734-1.822,2.456,2.456,0,0,0-1.766-.747H1701.24a2.551,2.551,0,0,0-2.517,2.569l-.12,40.786A.158.158,0,0,1,1698.447,248.036Z" transform="translate(-1698.29 -204.203)"/>
              <path id="Path_20087" data-name="Path 20087" d="M1801.587,896.57h-21.338a.16.16,0,1,1,0-.319h21.338a.16.16,0,0,1,0,.319Z" transform="translate(-1771.681 -822.567)"/>
              <path id="Path_20088" data-name="Path 20088" d="M1743.25,320.462h-26.237a.754.754,0,0,1-.543-.23.791.791,0,0,1-.226-.56l.191-65.146a.783.783,0,0,1,.773-.789h34.278a.755.755,0,0,1,.544.23.794.794,0,0,1,.225.56l-.066,22.343a.158.158,0,0,1-.156.159h0a.158.158,0,0,1-.156-.16l.066-22.343a.473.473,0,0,0-.134-.333.447.447,0,0,0-.322-.136h-34.278a.467.467,0,0,0-.459.471l-.191,65.146a.472.472,0,0,0,.134.333.448.448,0,0,0,.322.136h26.237a.16.16,0,0,1,0,.319Z" transform="translate(-1714.332 -248.463)" fill="#5479f7"/>
            </g>
          </g>
          <g id="Group_5208" data-name="Group 5208" transform="translate(4.03 7.251)">
            <g id="Group_5201" data-name="Group 5201" transform="translate(5.676 50.958)">
              <path id="Path_20089" data-name="Path 20089" d="M1812.981,758.118h-17.91a1.733,1.733,0,0,1-1.736-1.617l-.179-3.981a1.555,1.555,0,0,1,1.59-1.617h17.91a1.733,1.733,0,0,1,1.736,1.617l.179,3.981A1.555,1.555,0,0,1,1812.981,758.118Z" transform="translate(-1793.155 -750.903)" fill="#ff0063"/>
            </g>
            <g id="Group_5207" data-name="Group 5207" transform="translate(0 0)">
              <path id="Path_20090" data-name="Path 20090" d="M1767.314,412.385h-30.254c-.314,0-.552-.307-.555-.718l-.362-43.9c0-.5.33-.938.709-.938h30.254c.314,0,.551.307.555.718l.362,43.9C1768.027,411.944,1767.694,412.385,1767.314,412.385Z" transform="translate(-1736.143 -366.829)" fill="#fff"/>
            </g>
            <path id="Path_20108" data-name="Path 20108" d="M1799.03,303.408h-23.315a.373.373,0,0,1-.337-.406l.021-1.9a.383.383,0,0,1,.345-.406h23.315a.372.372,0,0,1,.336.406l-.021,1.9A.383.383,0,0,1,1799.03,303.408Z" transform="translate(-1771.201 -297.677)" fill="#ff0063"/>
          </g>
        </g>
      </g>
      <g id="Group_5274" data-name="Group 5274" transform="matrix(0.966, 0.259, -0.259, 0.966, 391.675, 10049.437)">
        <g transform="matrix(0.97, -0.26, 0.26, 0.97, -610.86, -766.45)" filter="url(#Ellipse_1573)">
          <ellipse id="Ellipse_1573-2" data-name="Ellipse 1573" cx="54.244" cy="54.244" rx="54.244" ry="54.244" transform="matrix(0.97, 0.26, -0.26, 0.97, 391.67, 898.44)" fill="#fff"/>
        </g>
        <g id="Group_5311" data-name="Group 5311" transform="translate(12.954 28.633)">
          <g id="Group_5039" data-name="Group 5039" transform="translate(3.196 0)">
            <path id="Path_19922" data-name="Path 19922" d="M20.576,26.847a14.954,14.954,0,0,1,11.465-7.324L32.384,0C18.208.048,5.7,8.034,0,19.839Z" transform="translate(0.454 0.454)" fill="#b6e000"/>
            <path id="Path_19923" data-name="Path 19923" d="M21.03,27.754a.456.456,0,0,1-.146-.024L.308,20.722A.454.454,0,0,1,.045,20.1C5.914,7.935,18.786.047,32.837,0a.5.5,0,0,1,.325.135.451.451,0,0,1,.13.327l-.342,19.522a.455.455,0,0,1-.408.444,14.476,14.476,0,0,0-11.117,7.1A.457.457,0,0,1,21.03,27.754ZM1.089,20.03l19.738,6.722a15.389,15.389,0,0,1,11.221-7.181L32.376.912C19.03,1.125,6.842,8.574,1.089,20.03Z" transform="translate(0)"/>
          </g>
          <path id="Path_19924" data-name="Path 19924" d="M.454,3.287a.454.454,0,0,1-.17-.875A34.767,34.767,0,0,1,10.34,0a.458.458,0,0,1,.491.413.454.454,0,0,1-.414.491A33.876,33.876,0,0,0,.624,3.253.45.45,0,0,1,.454,3.287Z" transform="translate(22.803 2.928)"/>
          <path id="Path_19925" data-name="Path 19925" d="M.453,7.024A.454.454,0,0,1,.13,6.253,33.4,33.4,0,0,1,8.489.052a.454.454,0,1,1,.422.8A32.516,32.516,0,0,0,.778,6.888.454.454,0,0,1,.453,7.024Z" transform="translate(11.51 6.719)"/>
          <g id="Group_5040" data-name="Group 5040" transform="translate(19.757 35.498)">
            <path id="Path_19926" data-name="Path 19926" d="M31.362,0A14.679,14.679,0,0,1,17.2,11.68a15.26,15.26,0,0,1-6.024-1.024L0,27.957A36.606,36.606,0,0,0,17.2,31.1C35.046,30.072,49.079,16.636,50.637.462Z" transform="translate(0.454 0.454)" fill="#b6e000"/>
            <path id="Path_19927" data-name="Path 19927" d="M15.511,32.067A37.147,37.147,0,0,1,.267,28.824a.454.454,0,0,1-.194-.66l11.174-17.3a.454.454,0,0,1,.546-.177,14.748,14.748,0,0,0,5.846.993C24.446,11.468,30.221,6.713,31.37.373A.447.447,0,0,1,31.827,0L51.1.462a.454.454,0,0,1,.441.5C49.937,17.641,35.377,30.987,17.679,32Q16.6,32.066,15.511,32.067ZM1.123,28.21a36.411,36.411,0,0,0,16.5,2.888C34.709,30.117,48.791,17.37,50.589,1.357L32.188.917a15.162,15.162,0,0,1-14.521,11.67,15.642,15.642,0,0,1-5.856-.923Z" transform="translate(0)"/>
          </g>
          <path id="Path_19928" data-name="Path 19928" d="M11.271,2.662A34.2,34.2,0,0,1,.309.884.454.454,0,0,1,.6.024a33.291,33.291,0,0,0,10.672,1.73c.661,0,1.331-.019,1.99-.057a.454.454,0,1,1,.052.906C12.637,2.642,11.949,2.662,11.271,2.662Z" transform="translate(23.961 62.104)"/>
          <path id="Path_19929" data-name="Path 19929" d="M.453,24.875a.454.454,0,0,1-.119-.892C12.016,20.8,21.038,11.527,23.317.363a.454.454,0,0,1,.889.182C21.859,12.041,12.582,21.585.573,24.859A.447.447,0,0,1,.453,24.875Z" transform="translate(43.851 38.683)"/>
          <g id="Group_5041" data-name="Group 5041" transform="translate(0 23.465)">
            <path id="Path_19930" data-name="Path 19930" d="M16.259,38.17,27.536,20.818a13.275,13.275,0,0,1-5.173-13.9L1.709,0A31.82,31.82,0,0,0,0,10.3,32.374,32.374,0,0,0,16.259,38.17Z" transform="translate(0.454 0.454)" fill="#b6e000"/>
            <path id="Path_19931" data-name="Path 19931" d="M16.713,39.078a.453.453,0,0,1-.231-.063A32.787,32.787,0,0,1,0,10.751,32.285,32.285,0,0,1,1.733.307.454.454,0,0,1,2.306.023L22.961,6.948a.454.454,0,0,1,.3.537,12.825,12.825,0,0,0,5,13.424.453.453,0,0,1,.11.612L17.094,38.872A.455.455,0,0,1,16.713,39.078ZM2.449,1.029A31.366,31.366,0,0,0,.908,10.751,31.855,31.855,0,0,0,16.571,38.009L27.38,21.378a13.713,13.713,0,0,1-5.095-13.7Z" transform="translate(0)"/>
          </g>
        </g>
        <g id="Group_5312" data-name="Group 5312" transform="translate(54.595 15.097)">
          <path id="Path_19932" data-name="Path 19932" d="M0,32.319A14,14,0,0,1,12.126,44.585l31.519.913v-.04C43.646,22.335,25.223,2.547.565,0Z" transform="translate(0.454 0.454)" fill="#ff0063"/>
          <path id="Path_19933" data-name="Path 19933" d="M44.1,46.405h-.009l-31.519-.914a.453.453,0,0,1-.439-.41A13.524,13.524,0,0,0,.387,33.222.454.454,0,0,1,0,32.765L.565.445A.454.454,0,0,1,1.065,0,49.62,49.62,0,0,1,32.137,15.155,44.782,44.782,0,0,1,44.554,45.912a.5.5,0,0,1-.137.346A.482.482,0,0,1,44.1,46.405ZM12.988,44.6l30.656.889C43.422,22.686,25.4,3.664,1.464.959L.914,32.388A14.429,14.429,0,0,1,12.988,44.6Z" transform="translate(0)"/>
        </g>
      </g>
      <g id="Group_5272" data-name="Group 5272" transform="translate(196 10060.629)">
        <g transform="matrix(1, 0, 0, 1, -196, -909.63)" filter="url(#Ellipse_1575)">
          <circle id="Ellipse_1575-2" data-name="Ellipse 1575" cx="54.244" cy="54.244" r="54.244" transform="translate(196 909.63)" fill="#fff"/>
        </g>
        <g id="Group_5235" data-name="Group 5235" transform="translate(26.833 15.386)">
          <g id="Group_5234" data-name="Group 5234" transform="translate(0)">
            <g id="Group_5220" data-name="Group 5220">
              <g id="Group_5216" data-name="Group 5216" transform="translate(0 6.075)">
                <g id="Group_5212" data-name="Group 5212">
                  <path id="Path_20109" data-name="Path 20109" d="M348.642,336.46h49.121a2.375,2.375,0,0,0,2.451-2.284l.123-63.893c-.032-1.711-.913-2.684-2.438-2.684H348.776a2.441,2.441,0,0,0-2.448,1.951l-.129,64.626A2.364,2.364,0,0,0,348.642,336.46Z" transform="translate(-346.2 -267.599)" fill="#b6e000"/>
                </g>
                <g id="Group_5213" data-name="Group 5213" transform="translate(3.327 1.23)">
                  <path id="Path_20110" data-name="Path 20110" d="M371.352,329.421h43.409a2.16,2.16,0,0,0,2.167-2.146l.149-60.037c-.027-1.608-.805-2.522-2.153-2.522h-43.41a2.194,2.194,0,0,0-2.164,1.833l-.154,60.726A2.147,2.147,0,0,0,371.352,329.421Z" transform="translate(-369.196 -264.716)" fill="#fff"/>
                </g>
                <g id="Group_5214" data-name="Group 5214" transform="translate(3.186 21.301)">
                  <path id="Path_20111" data-name="Path 20111" d="M369.994,523.107a2.29,2.29,0,0,1-1.633-.676,2.259,2.259,0,0,1-.665-1.611l.108-42.347a.141.141,0,0,1,.141-.141h0a.141.141,0,0,1,.141.141l-.108,42.347a1.979,1.979,0,0,0,.583,1.412,2.009,2.009,0,0,0,1.433.593l30-.05h0a.141.141,0,0,1,0,.282Z" transform="translate(-367.696 -478.332)"/>
                </g>
                <g id="Group_5215" data-name="Group 5215" transform="translate(3.366 1.089)">
                  <path id="Path_20112" data-name="Path 20112" d="M369.755,265.2a.141.141,0,0,1-.138-.172,2.321,2.321,0,0,1,2.276-1.812h38.065a.141.141,0,0,1,0,.282H371.893a2.041,2.041,0,0,0-2,1.592A.141.141,0,0,1,369.755,265.2Z" transform="translate(-369.614 -263.217)"/>
                </g>
              </g>
              <g id="Group_5219" data-name="Group 5219" transform="translate(16.771 0)">
                <g id="Group_5217" data-name="Group 5217" transform="translate(0 5.279)">
                  <path id="Path_20113" data-name="Path 20113" d="M514.718,251.173h20.2a.941.941,0,0,0,.944-.935l.012-4.648a.936.936,0,0,0-.94-.935h-20.2a.941.941,0,0,0-.944.935l-.012,4.648A.936.936,0,0,0,514.718,251.173Z" transform="translate(-513.637 -244.514)" fill="#b6e000"/>
                  <path id="Path_20114" data-name="Path 20114" d="M533.554,249.955h-20.2a1.077,1.077,0,0,1-.768-.318,1.064,1.064,0,0,1-.313-.759l.012-4.648a1.084,1.084,0,0,1,1.085-1.076h20.2a1.076,1.076,0,0,1,.768.318,1.063,1.063,0,0,1,.313.758l-.012,4.649A1.083,1.083,0,0,1,533.554,249.955Zm-20.179-6.518a.8.8,0,0,0-.8.794l-.012,4.649a.784.784,0,0,0,.23.559.8.8,0,0,0,.568.235h20.2a.8.8,0,0,0,.8-.794l.012-4.648a.784.784,0,0,0-.231-.559.8.8,0,0,0-.568-.235Z" transform="translate(-512.278 -243.155)"/>
                </g>
                <g id="Group_5218" data-name="Group 5218" transform="translate(7.26 0)">
                  <path id="Path_20115" data-name="Path 20115" d="M594.846,188.466a3.771,3.771,0,0,0-3.782,3.752l-.014,5.623a.916.916,0,0,0,.92.915h5.7a.921.921,0,0,0,.924-.915l.014-5.623A3.748,3.748,0,0,0,594.846,188.466Zm.2,5.139a1.524,1.524,0,1,1,1.327-1.314A1.527,1.527,0,0,1,595.043,193.6Z" transform="translate(-590.909 -188.325)" fill="#b6e000"/>
                  <path id="Path_20116" data-name="Path 20116" d="M596.31,197.538h-5.7a1.057,1.057,0,0,1-.754-.312,1.044,1.044,0,0,1-.307-.745l.014-5.623a3.923,3.923,0,0,1,6.694-2.746,3.849,3.849,0,0,1,1.132,2.747l-.014,5.623A1.064,1.064,0,0,1,596.31,197.538Zm-2.824-10.29a3.636,3.636,0,0,0-3.64,3.611l-.014,5.623a.764.764,0,0,0,.225.545.777.777,0,0,0,.554.229h5.7a.781.781,0,0,0,.784-.775l.014-5.623a3.57,3.57,0,0,0-1.049-2.547A3.607,3.607,0,0,0,593.486,187.248Zm0,5.151a1.67,1.67,0,0,1-1.19-.493,1.652,1.652,0,0,1-.469-1.388,1.682,1.682,0,0,1,2.856-.956,1.653,1.653,0,0,1,.469,1.388,1.687,1.687,0,0,1-1.449,1.435A1.76,1.76,0,0,1,593.485,192.4Zm.2-.153h0Zm-.193-2.895a1.46,1.46,0,0,0-.181.011,1.4,1.4,0,0,0-1.2,1.192,1.373,1.373,0,0,0,.389,1.153,1.4,1.4,0,0,0,2.377-.793,1.372,1.372,0,0,0-.389-1.153A1.391,1.391,0,0,0,593.492,189.351Z" transform="translate(-589.55 -186.966)"/>
                </g>
              </g>
            </g>
            <g id="Group_5233" data-name="Group 5233" transform="translate(11.702 15.809)">
              <g id="Group_5221" data-name="Group 5221" transform="translate(0.604 0)">
                <path id="Path_20117" data-name="Path 20117" d="M486.268,357.391H465.532a.767.767,0,0,1-.771-.767l0-.639a.772.772,0,0,1,.775-.767h20.736a.767.767,0,0,1,.771.767l0,.639A.772.772,0,0,1,486.268,357.391Z" transform="translate(-464.761 -355.218)" fill="#ff0063"/>
              </g>
              <g id="Group_5232" data-name="Group 5232" transform="translate(0 5.982)">
                <g id="Group_5222" data-name="Group 5222" transform="translate(0.096)">
                  <path id="Path_20118" data-name="Path 20118" d="M489.283,420.423H460.127a.767.767,0,1,1,0-1.534h29.156a.767.767,0,1,1,0,1.534Z" transform="translate(-459.356 -418.889)" fill="#ff0063"/>
                </g>
                <g id="Group_5223" data-name="Group 5223" transform="translate(0.09 3.954)">
                  <path id="Path_20119" data-name="Path 20119" d="M485.1,462.5H460.065a.767.767,0,1,1,0-1.534H485.1a.767.767,0,1,1,0,1.534Z" transform="translate(-459.294 -460.968)" fill="#ff0063"/>
                </g>
                <g id="Group_5224" data-name="Group 5224" transform="translate(0.107 9.362)">
                  <path id="Path_20120" data-name="Path 20120" d="M487.251,520.06H460.24a.767.767,0,1,1,0-1.534h27.011a.767.767,0,1,1,0,1.534Z" transform="translate(-459.469 -518.526)" fill="#ff0063"/>
                </g>
                <g id="Group_5225" data-name="Group 5225" transform="translate(0.129 13.241)">
                  <path id="Path_20121" data-name="Path 20121" d="M475.664,561.35H460.47a.767.767,0,1,1,0-1.534h15.195a.767.767,0,1,1,0,1.534Z" transform="translate(-459.699 -559.816)" fill="#ff0063"/>
                </g>
                <g id="Group_5226" data-name="Group 5226" transform="translate(0.051 18.24)">
                  <path id="Path_20122" data-name="Path 20122" d="M488.8,614.547H459.644a.767.767,0,1,1,0-1.534H488.8a.767.767,0,1,1,0,1.534Z" transform="translate(-458.873 -613.013)" fill="#ff0063"/>
                </g>
                <g id="Group_5227" data-name="Group 5227" transform="translate(0.045 22.193)">
                  <path id="Path_20123" data-name="Path 20123" d="M484.614,656.625H459.581a.767.767,0,1,1,0-1.534h25.034a.767.767,0,1,1,0,1.534Z" transform="translate(-458.81 -655.091)" fill="#ff0063"/>
                </g>
                <g id="Group_5228" data-name="Group 5228" transform="translate(0 27.601)">
                  <path id="Path_20124" data-name="Path 20124" d="M487.665,714.183H459.1a.767.767,0,1,1,0-1.534h28.563a.767.767,0,1,1,0,1.534Z" transform="translate(-458.331 -712.649)" fill="#ff0063"/>
                </g>
                <g id="Group_5229" data-name="Group 5229" transform="translate(0.084 31.211)">
                  <path id="Path_20125" data-name="Path 20125" d="M475.187,752.6H459.993a.767.767,0,1,1,0-1.534h15.195a.767.767,0,1,1,0,1.534Z" transform="translate(-459.222 -751.069)" fill="#ff0063"/>
                </g>
                <g id="Group_5230" data-name="Group 5230" transform="translate(0.099 36.389)">
                  <path id="Path_20126" data-name="Path 20126" d="M489.312,807.712H460.156a.767.767,0,1,1,0-1.534h29.156a.767.767,0,1,1,0,1.534Z" transform="translate(-459.385 -806.178)" fill="#ff0063"/>
                </g>
                <g id="Group_5231" data-name="Group 5231" transform="translate(0.093 40.343)">
                  <path id="Path_20127" data-name="Path 20127" d="M485.127,849.79H460.094a.767.767,0,1,1,0-1.534h25.034a.767.767,0,1,1,0,1.534Z" transform="translate(-459.323 -848.256)" fill="#ff0063"/>
                </g>
              </g>
            </g>
          </g>
        </g>
      </g>
      <g id="Group_6472" data-name="Group 6472" transform="translate(460.533 9204)">
        <g id="Group_6462" data-name="Group 6462" transform="translate(0)" clip-path="url(#clip-path-2)">
          <g id="Group_6456" data-name="Group 6456" transform="translate(0 -0.001)">
            <path id="Path_21426" data-name="Path 21426" d="M-4.688,0A7.011,7.011,0,0,0-11.7,7.012V57.76a7.011,7.011,0,0,0,7.012,7.011H54.587A7.011,7.011,0,0,0,61.6,57.76V7.012A7.011,7.011,0,0,0,54.587,0Z" transform="translate(11.7)" fill="#d4ed6b"/>
          </g>
          <g id="Group_6457" data-name="Group 6457" transform="translate(8.202 6.989)">
            <path id="Path_21427" data-name="Path 21427" d="M-4.688,0A7.011,7.011,0,0,0-11.7,7.012V57.76a7.011,7.011,0,0,0,7.012,7.011H54.587A7.011,7.011,0,0,0,61.6,57.76V7.012A7.011,7.011,0,0,0,54.587,0Z" transform="translate(11.7)" fill="#b6e000"/>
          </g>
          <g id="Group_6458" data-name="Group 6458" transform="translate(16.314 12.417)">
            <path id="Path_21428" data-name="Path 21428" d="M-23.859-44.1H6.2a5.5,5.5,0,0,0,5.712-5.7v-54.573a5.489,5.489,0,0,0-5.691-5.678q-30.035,0-60.069,0a5.483,5.483,0,0,0-5.689,5.678q0,27.265,0,54.53A5.494,5.494,0,0,0-53.787-44.1h29.927" transform="translate(59.541 110.055)" fill="#fff"/>
          </g>
          <g id="Group_6459" data-name="Group 6459" transform="translate(16.314 12.417)">
            <path id="Path_21429" data-name="Path 21429" d="M-23.859-44.1H-53.787a5.494,5.494,0,0,1-5.753-5.745q0-27.265,0-54.53a5.483,5.483,0,0,1,5.689-5.678q30.034,0,60.069,0a5.489,5.489,0,0,1,5.691,5.678V-49.8A5.5,5.5,0,0,1,6.2-44.1Z" transform="translate(59.541 110.055)" fill="#101c4e"/>
          </g>
          <g id="Group_6460" data-name="Group 6460" transform="translate(19.063 15.165)">
            <path id="Path_21430" data-name="Path 21430" d="M-22.056,0H-52.023a2.762,2.762,0,0,0-3.019,3.01q0,27.219,0,54.438a2.764,2.764,0,0,0,3.02,3.008H7.956a2.759,2.759,0,0,0,2.955-2.947q0-27.283,0-54.566A2.755,2.755,0,0,0,7.953,0H-22.056" transform="translate(55.042 0)" fill="#2b2e34"/>
          </g>
          <g id="Group_6461" data-name="Group 6461" transform="translate(19.063 15.165)">
            <path id="Path_21431" data-name="Path 21431" d="M-22.056,0H7.953A2.755,2.755,0,0,1,10.91,2.943q0,27.284,0,54.567a2.759,2.759,0,0,1-2.955,2.947H-52.02a2.764,2.764,0,0,1-3.02-3.009q0-27.218,0-54.437A2.762,2.762,0,0,1-52.023,0h29.966" transform="translate(55.042 0)" fill="#fff"/>
          </g>
        </g>
        <path id="Path_21433" data-name="Path 21433" d="M44.644-90.543h-8.19v2.695h8.19Z" transform="translate(-14.608 114.653)" fill="#101c4e"/>
        <g id="Group_6471" data-name="Group 6471" transform="translate(0)" clip-path="url(#clip-path-2)">
          <g id="Group_6463" data-name="Group 6463" transform="translate(36.65 16.996)">
            <path id="Path_21434" data-name="Path 21434" d="M-14.111-17.746c.536.537,1.086,1.091,1.638,1.642a.993.993,0,0,0,1.611.009q1.925-1.922,3.846-3.846a.99.99,0,0,0,0-1.59c-.559-.559-1.121-1.115-1.658-1.65.23-.572.455-1.106.655-1.65a.285.285,0,0,1,.324-.221c.731.009,1.463.005,2.194,0a.968.968,0,0,0,1.069-1.058q0-2.779,0-5.56a.977.977,0,0,0-1.081-1.077c-.731,0-1.463.005-2.193-.007a.348.348,0,0,1-.27-.144c-.241-.558-.46-1.125-.694-1.712.545-.545,1.106-1.1,1.664-1.663A.986.986,0,0,0-7-37.837q-1.932-1.935-3.867-3.868a.99.99,0,0,0-1.589.005c-.56.559-1.118,1.118-1.654,1.656-.569-.23-1.1-.458-1.646-.657a.282.282,0,0,1-.222-.322c.008-.731.005-1.462,0-2.193a.971.971,0,0,0-1.058-1.068q-2.78,0-5.56,0a.969.969,0,0,0-1.076,1.079c0,.732,0,1.463-.007,2.194a.351.351,0,0,1-.143.271c-.558.242-1.126.461-1.716.7-.544-.546-1.1-1.107-1.66-1.666a.984.984,0,0,0-1.568-.008q-1.935,1.932-3.867,3.867a.987.987,0,0,0,0,1.589c.559.559,1.12,1.115,1.658,1.65-.23.572-.457,1.106-.657,1.649a.283.283,0,0,1-.322.222c-.721-.009-1.442,0-2.163,0a.975.975,0,0,0-1.1,1.086q0,2.765,0,5.53a.976.976,0,0,0,1.079,1.078c.731,0,1.463,0,2.194.007a.35.35,0,0,1,.271.143c.241.559.46,1.126.695,1.715-.543.543-1.1,1.1-1.661,1.661a.982.982,0,0,0-.011,1.567q1.932,1.935,3.868,3.867a.987.987,0,0,0,1.589,0c.559-.559,1.115-1.121,1.652-1.66.59.236,1.15.451,1.7.691a.377.377,0,0,1,.161.288c.013.731.005,1.462.008,2.193a.972.972,0,0,0,1.058,1.069q2.795,0,5.589,0a.964.964,0,0,0,1.046-1.05q0-1.112,0-2.224c0-.137.008-.231.174-.292.553-.2,1.1-.433,1.693-.672" transform="translate(35.214 44.285)" fill="#fff"/>
          </g>
          <g id="Group_6464" data-name="Group 6464" transform="translate(36.65 16.996)">
            <path id="Path_21435" data-name="Path 21435" d="M-14.111-17.746c-.6.24-1.14.47-1.693.672-.167.061-.175.155-.174.292q0,1.112,0,2.224a.964.964,0,0,1-1.046,1.05q-2.795,0-5.589,0a.972.972,0,0,1-1.058-1.069c0-.731.005-1.462-.008-2.193a.377.377,0,0,0-.161-.288c-.549-.24-1.109-.455-1.7-.691-.536.539-1.092,1.1-1.652,1.66a.987.987,0,0,1-1.589,0q-1.935-1.932-3.868-3.867a.982.982,0,0,1,.011-1.567c.559-.56,1.118-1.118,1.661-1.661-.235-.588-.454-1.156-.695-1.715a.35.35,0,0,0-.271-.143c-.731-.012-1.463,0-2.194-.007a.976.976,0,0,1-1.079-1.078q0-2.765,0-5.53a.975.975,0,0,1,1.1-1.086c.721,0,1.442-.006,2.163,0a.283.283,0,0,0,.322-.222c.2-.544.427-1.077.657-1.649-.538-.535-1.1-1.092-1.658-1.65a.987.987,0,0,1,0-1.589q1.932-1.934,3.867-3.867a.984.984,0,0,1,1.568.008c.56.559,1.116,1.12,1.66,1.666.59-.237,1.158-.456,1.716-.7a.351.351,0,0,0,.143-.271c.012-.731.005-1.462.007-2.194A.969.969,0,0,1-22.6-44.284q2.779,0,5.56,0a.971.971,0,0,1,1.058,1.068c0,.731.005,1.462,0,2.193a.282.282,0,0,0,.222.322c.544.2,1.077.427,1.646.657.536-.538,1.094-1.1,1.654-1.656a.99.99,0,0,1,1.589-.005Q-8.936-39.772-7-37.837a.986.986,0,0,1-.007,1.569c-.558.56-1.118,1.118-1.664,1.663.234.586.453,1.154.694,1.712a.348.348,0,0,0,.27.144c.731.012,1.462.005,2.193.007a.977.977,0,0,1,1.081,1.077q0,2.78,0,5.56A.968.968,0,0,1-5.5-25.049c-.731,0-1.463.006-2.194,0a.285.285,0,0,0-.324.221c-.2.544-.425,1.078-.655,1.65.537.535,1.1,1.091,1.658,1.65a.99.99,0,0,1,0,1.59q-1.922,1.925-3.846,3.846a.993.993,0,0,1-1.611-.009c-.552-.551-1.1-1.105-1.638-1.642" transform="translate(35.214 44.285)" fill="#101c4e"/>
          </g>
          <g id="Group_6465" data-name="Group 6465" transform="translate(38.595 18.938)">
            <path id="Path_21436" data-name="Path 21436" d="M-10.276-17.986c0-.736,0-1.436,0-2.138a1.032,1.032,0,0,1,.831-1.118c.823-.3,1.641-.628,2.434-1,.667-.315.976-.309,1.5.216.486.486.968.976,1.427,1.441l2.738-2.739c-.508-.5-1.039-1.019-1.559-1.546a.925.925,0,0,1-.165-1.23,11.569,11.569,0,0,0,1.1-2.655.956.956,0,0,1,1.019-.756c.651,0,1.3,0,1.953,0,.086,0,.171-.011.253-.017v-3.829H.941c-.651,0-1.3,0-1.953,0a.929.929,0,0,1-.943-.695A12.143,12.143,0,0,0-3.1-36.823.911.911,0,0,1-2.93-37.98c.319-.332.648-.655.975-.979.21-.208.424-.412.6-.584L-4.1-42.28c-.469.475-.96.974-1.456,1.471a1.028,1.028,0,0,1-1.4.207c-.8-.373-1.626-.716-2.459-1.021-.624-.228-.862-.487-.862-1.156,0-.7,0-1.4,0-2.106h-3.847c0,.717,0,1.416,0,2.115a1.047,1.047,0,0,1-.846,1.14q-1.262.466-2.486,1.03a1.033,1.033,0,0,1-1.38-.2c-.5-.5-1-1-1.456-1.459l-2.728,2.724c.488.486,1.01,1,1.522,1.519a.933.933,0,0,1,.174,1.231A11.905,11.905,0,0,0-22.428-34.1a.951.951,0,0,1-1,.74c-.311,0-.621,0-.932,0h-1.281v3.847c.732,0,1.442,0,2.152,0a1.027,1.027,0,0,1,1.094.823c.307.832.639,1.658,1.015,2.461a1.049,1.049,0,0,1-.2,1.454c-.493.494-.989.986-1.469,1.465l2.732,2.726c.507-.509,1.025-1.037,1.551-1.557a.9.9,0,0,1,1.149-.212,13.042,13.042,0,0,0,2.82,1.167.919.919,0,0,1,.677.954c0,.621,0,1.242,0,1.863v.382Z" transform="translate(25.643 44.885)" fill="#2b2e34"/>
          </g>
          <g id="Group_6466" data-name="Group 6466" transform="translate(38.595 18.938)">
            <path id="Path_21437" data-name="Path 21437" d="M-10.276-17.986h-3.847v-.382c0-.621,0-1.242,0-1.863a.919.919,0,0,0-.677-.954,13.042,13.042,0,0,1-2.82-1.167.9.9,0,0,0-1.149.212c-.526.52-1.044,1.048-1.551,1.557l-2.732-2.726c.481-.479.977-.971,1.469-1.465a1.049,1.049,0,0,0,.2-1.454c-.376-.8-.708-1.629-1.015-2.461a1.027,1.027,0,0,0-1.094-.823c-.71,0-1.42,0-2.152,0v-3.847h1.281c.31,0,.621,0,.932,0a.951.951,0,0,0,1-.74,11.905,11.905,0,0,1,1.105-2.684.933.933,0,0,0-.174-1.231c-.512-.522-1.034-1.033-1.522-1.519l2.728-2.724c.453.454.953.958,1.456,1.459a1.033,1.033,0,0,0,1.38.2q1.222-.564,2.486-1.03a1.047,1.047,0,0,0,.846-1.14c0-.7,0-1.4,0-2.115h3.847c0,.71,0,1.408,0,2.106,0,.669.238.928.862,1.156.833.3,1.655.647,2.459,1.021a1.028,1.028,0,0,0,1.4-.207c.5-.5.986-1,1.456-1.471l2.743,2.737c-.177.172-.392.376-.6.584-.327.324-.656.647-.975.979A.911.911,0,0,0-3.1-36.823a12.143,12.143,0,0,1,1.142,2.765.929.929,0,0,0,.943.695c.651.007,1.3,0,1.953,0H1.25v3.829c-.082.006-.168.017-.253.017-.651,0-1.3,0-1.953,0a.956.956,0,0,0-1.019.756,11.569,11.569,0,0,1-1.1,2.655.925.925,0,0,0,.165,1.23c.52.527,1.051,1.043,1.559,1.546l-2.738,2.739c-.46-.464-.941-.955-1.427-1.441-.524-.524-.832-.53-1.5-.216-.793.374-1.61.7-2.434,1a1.032,1.032,0,0,0-.831,1.118c0,.7,0,1.4,0,2.138" transform="translate(25.643 44.885)" fill="#fff"/>
          </g>
          <g id="Group_6467" data-name="Group 6467" transform="translate(45.307 25.653)">
            <path id="Path_21438" data-name="Path 21438" d="M-4.5-9a6.737,6.737,0,0,0,6.737-6.72,6.742,6.742,0,0,0-6.744-6.745,6.734,6.734,0,0,0-6.72,6.736A6.737,6.737,0,0,0-4.5-9" transform="translate(11.226 22.469)" fill="#fff"/>
          </g>
          <g id="Group_6468" data-name="Group 6468" transform="translate(45.307 25.653)">
            <path id="Path_21439" data-name="Path 21439" d="M-4.5-9a6.737,6.737,0,0,1-6.728-6.729,6.734,6.734,0,0,1,6.72-6.736,6.742,6.742,0,0,1,6.744,6.745A6.737,6.737,0,0,1-4.5-9" transform="translate(11.226 22.469)" fill="#101c4e"/>
          </g>
          <g id="Group_6469" data-name="Group 6469" transform="translate(47.23 27.577)">
            <path id="Path_21440" data-name="Path 21440" d="M-6.431-3.222a4.811,4.811,0,0,0-4.775-4.819A4.811,4.811,0,0,0-16.049-3.26,4.813,4.813,0,0,0-11.26,1.576a4.82,4.82,0,0,0,4.829-4.8" transform="translate(16.049 8.041)" fill="#2b2e34"/>
          </g>
          <g id="Group_6470" data-name="Group 6470" transform="translate(47.23 27.577)">
            <path id="Path_21441" data-name="Path 21441" d="M-6.431-3.222a4.82,4.82,0,0,1-4.829,4.8A4.813,4.813,0,0,1-16.049-3.26a4.811,4.811,0,0,1,4.843-4.781A4.811,4.811,0,0,1-6.431-3.222" transform="translate(16.049 8.041)" fill="#fff"/>
          </g>
        </g>
      </g>
      <g id="Group_6455" data-name="Group 6455" transform="translate(299.857 9194)">
        <g id="Group_6454" data-name="Group 6454" transform="translate(0)" clip-path="url(#clip-path-4)">
          <g id="Group_6448" data-name="Group 6448" transform="translate(0 0)">
            <path id="Path_21419" data-name="Path 21419" d="M-28.383-3.924c0-5.381-15.773-9.743-35.231-9.743S-98.845-9.305-98.845-3.924V54.532c0,5.381,15.774,9.743,35.231,9.743s35.231-4.362,35.231-9.743V-3.924Z" transform="translate(98.845 13.667)" fill="#b7bac9"/>
          </g>
          <g id="Group_6449" data-name="Group 6449" transform="translate(12.826 9.158)">
            <path id="Path_21420" data-name="Path 21420" d="M-28.383-3.924c0-5.381-15.773-9.743-35.231-9.743S-98.845-9.305-98.845-3.924V54.532c0,5.381,15.774,9.743,35.231,9.743s35.231-4.362,35.231-9.743V-3.924Z" transform="translate(98.845 13.667)" fill="#797f9b"/>
          </g>
          <g id="Group_6450" data-name="Group 6450" transform="translate(23.993 19.512)">
            <path id="Path_21421" data-name="Path 21421" d="M-28.383-3.924c0-5.381-15.773-9.743-35.231-9.743S-98.845-9.305-98.845-3.924V54.532c0,5.381,15.774,9.743,35.231,9.743s35.231-4.362,35.231-9.743V-3.924Z" transform="translate(98.845 13.667)" fill="#fff"/>
          </g>
          <g id="Group_6451" data-name="Group 6451" transform="translate(23.993 19.512)">
            <path id="Path_21422" data-name="Path 21422" d="M-28.383-3.924c0-5.381-15.773-9.743-35.231-9.743S-98.845-9.305-98.845-3.924V54.532c0,5.381,15.774,9.743,35.231,9.743s35.231-4.362,35.231-9.743V-3.924Z" transform="translate(98.845 13.667)" fill="none" stroke="#101c4e" stroke-width="5.184"/>
          </g>
          <g id="Group_6452" data-name="Group 6452" transform="translate(23.993 19.512)">
            <path id="Path_21423" data-name="Path 21423" d="M-28.383-4.105c0,5.628-15.773,10.191-35.231,10.191S-98.845,1.523-98.845-4.105-83.072-14.3-63.614-14.3-28.383-9.733-28.383-4.105" transform="translate(98.845 14.296)" fill="#101c4e"/>
          </g>
          <g id="Group_6453" data-name="Group 6453" transform="translate(23.993 19.512)">
            <path id="Path_21424" data-name="Path 21424" d="M-28.383-4.105c0,5.628-15.773,10.191-35.231,10.191S-98.845,1.523-98.845-4.105-83.072-14.3-63.614-14.3-28.383-9.733-28.383-4.105Z" transform="translate(98.845 14.296)" fill="none" stroke="#101c4e" stroke-width="5.184"/>
          </g>
        </g>
        <text id="DB-2" data-name="DB" transform="translate(54.641 65.705)" fill="#101c4e" font-size="11" font-family="Rubik-Medium, Rubik" font-weight="500" letter-spacing="-0.02em"><tspan x="0" y="0">DB</tspan></text>
      </g>
      <g id="Group_6447" data-name="Group 6447" transform="translate(138.887 9208)">
        <g id="Group_6444" data-name="Group 6444" transform="translate(0)" clip-path="url(#clip-path-5)">
          <g id="Group_6437" data-name="Group 6437" transform="translate(3.562 1.768)">
            <path id="Path_21409" data-name="Path 21409" d="M0-3.28V-5.555A1.773,1.773,0,0,1,1.779-7.321H39V-3.28Z" transform="translate(0 7.321)" fill="#ff91bb"/>
          </g>
          <g id="Group_6438" data-name="Group 6438" transform="translate(0 0)">
            <path id="Path_21410" data-name="Path 21410" d="M-34.553-1.436V.839A1.777,1.777,0,0,1-36.33,2.6h-39a1.778,1.778,0,0,0-1.785,1.768V52.1a1.778,1.778,0,0,0,1.785,1.768h73.68A1.777,1.777,0,0,0,.139,52.1V-1.436A1.774,1.774,0,0,0-1.646-3.2H-32.774a1.768,1.768,0,0,0-1.779,1.768" transform="translate(77.111 3.204)" fill="#ff91bb"/>
          </g>
          <g id="Group_6439" data-name="Group 6439" transform="translate(9.858 7.451)">
            <path id="Path_21411" data-name="Path 21411" d="M0-3.28V-5.555A1.773,1.773,0,0,1,1.779-7.321H39V-3.28Z" transform="translate(0 7.321)" fill="#ff0062"/>
          </g>
          <g id="Group_6440" data-name="Group 6440" transform="translate(6.295 5.682)">
            <path id="Path_21412" data-name="Path 21412" d="M-34.553-1.436V.839A1.777,1.777,0,0,1-36.33,2.6h-39a1.778,1.778,0,0,0-1.785,1.768V52.1a1.778,1.778,0,0,0,1.785,1.768h73.68A1.777,1.777,0,0,0,.139,52.1V-1.436A1.774,1.774,0,0,0-1.646-3.2H-32.774a1.768,1.768,0,0,0-1.779,1.768" transform="translate(77.111 3.204)" fill="#ff0062"/>
          </g>
          <g id="Group_6441" data-name="Group 6441" transform="translate(18.102 15.038)">
            <path id="Path_21413" data-name="Path 21413" d="M0-3.28V-5.555A1.773,1.773,0,0,1,1.779-7.321H39V-3.28Z" transform="translate(0 7.321)" fill="#ff0062"/>
          </g>
          <g id="Group_6442" data-name="Group 6442" transform="translate(14.54 13.269)">
            <path id="Path_21414" data-name="Path 21414" d="M-34.553-1.436V.839A1.777,1.777,0,0,1-36.33,2.6h-39a1.778,1.778,0,0,0-1.785,1.768V52.1a1.778,1.778,0,0,0,1.785,1.768h73.68A1.777,1.777,0,0,0,.139,52.1V-1.436A1.774,1.774,0,0,0-1.646-3.2H-32.774a1.768,1.768,0,0,0-1.779,1.768" transform="translate(77.111 3.204)" fill="#fff"/>
          </g>
          <g id="Group_6443" data-name="Group 6443" transform="translate(14.54 13.269)">
            <path id="Path_21415" data-name="Path 21415" d="M-34.553-1.436V.839A1.777,1.777,0,0,1-36.33,2.6h-39a1.778,1.778,0,0,0-1.785,1.768V52.1a1.778,1.778,0,0,0,1.785,1.768h73.68A1.777,1.777,0,0,0,.139,52.1V-1.436A1.774,1.774,0,0,0-1.646-3.2H-32.774A1.768,1.768,0,0,0-34.553-1.436Z" transform="translate(77.111 3.204)" fill="none" stroke="#101c4e" stroke-width="5.184"/>
          </g>
        </g>
        <g id="Group_6445" data-name="Group 6445" transform="translate(57.027 24.213)">
          <path id="Path_21417" data-name="Path 21417" d="M-20.906-8.362h-25.75m25.75-10.3H-34.771" transform="translate(46.656 18.662)" fill="none" stroke="#101c4e" stroke-width="5.184"/>
        </g>
        <g id="Group_6446" data-name="Group 6446" transform="translate(42.221 35.8)">
          <path id="Path_21418" data-name="Path 21418" d="M0-15.68v-3.862M0-23.4v-3.862M0-31.13v-3.862" transform="translate(0 34.992)" fill="none" stroke="#2b2b2b" stroke-width="7.776"/>
        </g>
        <text id="FILES-2" data-name="FILES" transform="translate(58.667 44.326)" fill="#ff0062" font-size="6" font-family="Rubik-Medium, Rubik" font-weight="500" letter-spacing="-0.02em"><tspan x="0" y="0">FILES</tspan></text>
      </g>
      <g id="Group_6802" data-name="Group 6802" transform="translate(233.158 9550.105)">
        <g id="Group_6801" data-name="Group 6801" transform="translate(0)" clip-path="url(#clip-path-6)">
          <g id="Group_6765" data-name="Group 6765" transform="translate(0 173.645)">
            <path id="Path_22005" data-name="Path 22005" d="M0,0C0,15.669-47.627,28.367-106.376,28.367S-212.751,15.669-212.751,0V35.459c0,15.672,47.626,28.366,106.375,28.366S0,51.131,0,35.459Z" transform="translate(212.751 0)" fill="#b6e000"/>
          </g>
          <g id="Group_6766" data-name="Group 6766" transform="translate(0 155.915)">
            <path id="Path_22006" data-name="Path 22006" d="M0,0C-19.5,6.485-49.453,10.638-83.047,10.638S-146.6,6.485-166.1,0c-14.6,4.857-23.328,11.021-23.328,17.729C-189.423,33.4-141.8,46.1-83.047,46.1S23.328,33.4,23.328,17.729C23.328,11.021,14.6,4.857,0,0" transform="translate(189.423 0)" fill="#e9f6b2"/>
          </g>
          <g id="Group_6767" data-name="Group 6767" transform="translate(0 124.831)">
            <path id="Path_22007" data-name="Path 22007" d="M0,0C0,15.669-47.627,28.367-106.376,28.367S-212.751,15.669-212.751,0V35.459c0,6.708,8.731,12.873,23.328,17.729,19.495-6.485,49.452-10.638,83.047-10.638S-42.823,46.7-23.328,53.188C-8.731,48.332,0,42.167,0,35.459Z" transform="translate(212.751 0)" fill="#b6e000"/>
          </g>
          <g id="Group_6768" data-name="Group 6768" transform="translate(23.328 167.381)">
            <path id="Path_22008" data-name="Path 22008" d="M0,0C-33.6,0-63.552,4.152-83.048,10.638-63.552,17.123-33.6,21.275,0,21.275s63.552-4.152,83.047-10.637C63.552,4.152,33.595,0,0,0" transform="translate(83.048 0)" fill="#8aaa00"/>
          </g>
          <g id="Group_6769" data-name="Group 6769" transform="translate(0 107.102)">
            <path id="Path_22009" data-name="Path 22009" d="M0,0C-19.5,6.486-49.452,10.638-83.047,10.638S-146.6,6.486-166.094,0c-14.6,4.857-23.328,11.021-23.328,17.729C-189.422,33.4-141.8,46.1-83.047,46.1S23.329,33.4,23.329,17.729C23.329,11.021,14.6,4.857,0,0" transform="translate(189.422 0)" fill="#e9f6b2"/>
          </g>
          <g id="Group_6770" data-name="Group 6770" transform="translate(0 77.181)">
            <path id="Path_22010" data-name="Path 22010" d="M0,0C0,15.669-47.627,28.367-106.376,28.367S-212.751,15.669-212.751,0V35.459c0,6.708,8.732,12.872,23.328,17.729,19.495-6.485,49.452-10.638,83.047-10.638S-42.824,46.7-23.329,53.188C-8.732,48.331,0,42.167,0,35.459Z" transform="translate(212.751 0)" fill="#b6e000"/>
          </g>
          <g id="Group_6771" data-name="Group 6771" transform="translate(23.329 119.731)">
            <path id="Path_22011" data-name="Path 22011" d="M0,0C-33.6,0-63.552,4.152-83.047,10.638-63.552,17.124-33.6,21.275,0,21.275s63.552-4.151,83.047-10.637C63.552,4.152,33.595,0,0,0" transform="translate(83.047 0)" fill="#8aaa00"/>
          </g>
          <g id="Group_6772" data-name="Group 6772" transform="translate(0 59.451)">
            <path id="Path_22012" data-name="Path 22012" d="M0,0C-19.494,6.485-49.452,10.638-83.047,10.638S-146.6,6.485-166.094,0c-14.6,4.856-23.328,11.021-23.328,17.729C-189.422,33.4-141.8,46.1-83.047,46.1S23.329,33.4,23.329,17.729C23.329,11.021,14.6,4.856,0,0" transform="translate(189.422 0)" fill="#e0f28f"/>
          </g>
          <g id="Group_6773" data-name="Group 6773" transform="translate(0 28.367)">
            <path id="Path_22013" data-name="Path 22013" d="M0,0C0,15.669-47.627,28.367-106.376,28.367S-212.751,15.669-212.751,0V35.458c0,6.709,8.732,12.873,23.328,17.73,19.495-6.485,49.452-10.638,83.047-10.638S-42.823,46.7-23.329,53.188C-8.732,48.331,0,42.167,0,35.458Z" transform="translate(212.751)" fill="#b6e000"/>
          </g>
          <g id="Group_6774" data-name="Group 6774" transform="translate(23.329 70.917)">
            <path id="Path_22014" data-name="Path 22014" d="M0,0C-33.6,0-63.552,4.152-83.047,10.638-63.552,17.123-33.6,21.275,0,21.275s63.552-4.152,83.047-10.637C63.552,4.152,33.595,0,0,0" transform="translate(83.047 0)" fill="#8aaa00"/>
          </g>
          <g id="Group_6775" data-name="Group 6775" transform="translate(0 0)">
            <path id="Path_22015" data-name="Path 22015" d="M0,0C-58.749,0-106.376,12.7-106.376,28.367S-58.749,56.734,0,56.734s106.376-12.7,106.376-28.367S58.749,0,0,0" transform="translate(106.376)" fill="#e9f6b2"/>
          </g>
          <g id="Group_6800" data-name="Group 6800" transform="translate(0.456 17.976)" opacity="0.59">
            <g id="Group_6799" data-name="Group 6799">
              <g id="Group_6798" data-name="Group 6798" clip-path="url(#clip-path-7)">
                <g id="Group_6776" data-name="Group 6776" transform="translate(81.763 75.964)">
                  <path id="Path_22016" data-name="Path 22016" d="M0,0A2.28,2.28,0,0,0-2.28,2.28V32.2A2.28,2.28,0,0,0,0,34.481H50.059a2.28,2.28,0,0,0,2.28-2.28V2.28A2.28,2.28,0,0,0,50.059,0Z" transform="translate(2.28 0)" fill="#fff"/>
                </g>
                <g id="Group_6777" data-name="Group 6777" transform="translate(81.763 75.964)">
                  <path id="Path_22017" data-name="Path 22017" d="M0,0A2.28,2.28,0,0,0-2.28,2.28V32.2A2.28,2.28,0,0,0,0,34.481H50.059a2.28,2.28,0,0,0,2.28-2.28V2.28A2.28,2.28,0,0,0,50.059,0Z" transform="translate(2.28 0)" fill="none" stroke="#101c4e" stroke-width="1.8"/>
                </g>
                <g id="Group_6778" data-name="Group 6778" transform="translate(88.189 13.899)">
                  <path id="Path_22018" data-name="Path 22018" d="M0,0A2.28,2.28,0,0,0-2.28,2.28V20.62A2.28,2.28,0,0,0,0,22.9H37.207a2.28,2.28,0,0,0,2.28-2.28V2.28A2.28,2.28,0,0,0,37.207,0Z" transform="translate(2.28 0)" fill="#fff"/>
                </g>
                <g id="Group_6779" data-name="Group 6779" transform="translate(88.189 13.899)">
                  <path id="Path_22019" data-name="Path 22019" d="M0,0A2.28,2.28,0,0,0-2.28,2.28V20.62A2.28,2.28,0,0,0,0,22.9H37.207a2.28,2.28,0,0,0,2.28-2.28V2.28A2.28,2.28,0,0,0,37.207,0Z" transform="translate(2.28 0)" fill="none" stroke="#101c4e" stroke-width="1.8"/>
                </g>
                <g id="Group_6780" data-name="Group 6780" transform="translate(152.597 52.382)">
                  <path id="Path_22020" data-name="Path 22020" d="M0,0A2.28,2.28,0,0,0-2.28,2.28V20.621A2.279,2.279,0,0,0,0,22.9H37.207a2.279,2.279,0,0,0,2.28-2.279V2.28A2.28,2.28,0,0,0,37.207,0Z" transform="translate(2.28 0)" fill="#fff"/>
                </g>
                <g id="Group_6781" data-name="Group 6781" transform="translate(152.597 52.382)">
                  <path id="Path_22021" data-name="Path 22021" d="M0,0A2.28,2.28,0,0,0-2.28,2.28V20.621A2.279,2.279,0,0,0,0,22.9H37.207a2.279,2.279,0,0,0,2.28-2.279V2.28A2.28,2.28,0,0,0,37.207,0Z" transform="translate(2.28 0)" fill="none" stroke="#101c4e" stroke-width="1.8"/>
                </g>
                <g id="Group_6782" data-name="Group 6782" transform="translate(138.967 142.805)">
                  <path id="Path_22022" data-name="Path 22022" d="M0,0A2.28,2.28,0,0,0-2.28,2.28V20.62A2.28,2.28,0,0,0,0,22.9H37.207a2.28,2.28,0,0,0,2.28-2.28V2.28A2.28,2.28,0,0,0,37.207,0Z" transform="translate(2.28 0)" fill="#fff"/>
                </g>
                <g id="Group_6783" data-name="Group 6783" transform="translate(138.967 142.805)">
                  <path id="Path_22023" data-name="Path 22023" d="M0,0A2.28,2.28,0,0,0-2.28,2.28V20.62A2.28,2.28,0,0,0,0,22.9H37.207a2.28,2.28,0,0,0,2.28-2.28V2.28A2.28,2.28,0,0,0,37.207,0Z" transform="translate(2.28 0)" fill="none" stroke="#101c4e" stroke-width="1.8"/>
                </g>
                <g id="Group_6784" data-name="Group 6784" transform="translate(35.332 142.805)">
                  <path id="Path_22024" data-name="Path 22024" d="M0,0A2.28,2.28,0,0,0-2.28,2.28V20.62A2.28,2.28,0,0,0,0,22.9H37.207a2.28,2.28,0,0,0,2.28-2.28V2.28A2.28,2.28,0,0,0,37.207,0Z" transform="translate(2.28 0)" fill="#fff"/>
                </g>
                <g id="Group_6785" data-name="Group 6785" transform="translate(35.332 142.805)">
                  <path id="Path_22025" data-name="Path 22025" d="M0,0A2.28,2.28,0,0,0-2.28,2.28V20.62A2.28,2.28,0,0,0,0,22.9H37.207a2.28,2.28,0,0,0,2.28-2.28V2.28A2.28,2.28,0,0,0,37.207,0Z" transform="translate(2.28 0)" fill="none" stroke="#101c4e" stroke-width="1.8"/>
                </g>
                <g id="Group_6786" data-name="Group 6786" transform="translate(17.9 52.382)">
                  <path id="Path_22026" data-name="Path 22026" d="M0,0A2.28,2.28,0,0,0-2.28,2.28V20.621A2.279,2.279,0,0,0,0,22.9H37.207a2.279,2.279,0,0,0,2.28-2.279V2.28A2.28,2.28,0,0,0,37.207,0Z" transform="translate(2.28 0)" fill="#fff"/>
                </g>
                <g id="Group_6787" data-name="Group 6787" transform="translate(17.9 52.382)">
                  <path id="Path_22027" data-name="Path 22027" d="M0,0A2.28,2.28,0,0,0-2.28,2.28V20.621A2.279,2.279,0,0,0,0,22.9H37.207a2.279,2.279,0,0,0,2.28-2.279V2.28A2.28,2.28,0,0,0,37.207,0Z" transform="translate(2.28 0)" fill="none" stroke="#101c4e" stroke-width="1.8"/>
                </g>
                <g id="Group_6788" data-name="Group 6788" transform="translate(109.243 46.407)">
                  <path id="Path_22028" data-name="Path 22028" d="M0,0V-6.138" transform="translate(0 6.138)" fill="none" stroke="#101c4e" stroke-miterlimit="10" stroke-width="2.4"/>
                </g>
                <g id="Group_6789" data-name="Group 6789" transform="translate(104.864 48.021)">
                  <path id="Path_22029" data-name="Path 22029" d="M0,0,4.379-12.033S0-7.509-4.379-12.033L0,0" transform="translate(4.379 12.033)" fill="#101c4e"/>
                </g>
                <g id="Group_6790" data-name="Group 6790" transform="translate(47.664 78.948)">
                  <path id="Path_22030" data-name="Path 22030" d="M0,0-22.887-12.843" transform="translate(22.887 12.843)" fill="none" stroke="#101c4e" stroke-miterlimit="10" stroke-width="2.4"/>
                </g>
                <g id="Group_6791" data-name="Group 6791" transform="translate(64.463 85.759)">
                  <path id="Path_22031" data-name="Path 22031" d="M0,0-8.35-9.707s1.8,6.032-4.286,7.637L0,0" transform="translate(12.636 9.707)" fill="#101c4e"/>
                </g>
                <g id="Group_6792" data-name="Group 6792" transform="translate(147.595 80.396)">
                  <path id="Path_22032" data-name="Path 22032" d="M0,0,22.887-12.843" transform="translate(0 12.843)" fill="none" stroke="#101c4e" stroke-miterlimit="10" stroke-width="2.4"/>
                </g>
                <g id="Group_6793" data-name="Group 6793" transform="translate(141.047 87.207)">
                  <path id="Path_22033" data-name="Path 22033" d="M0,0,8.35-9.707s-1.8,6.032,4.286,7.637L0,0" transform="translate(0 9.707)" fill="#101c4e"/>
                </g>
                <g id="Group_6794" data-name="Group 6794" transform="translate(141.275 119.562)">
                  <path id="Path_22034" data-name="Path 22034" d="M0,0,16.7,19.44" fill="none" stroke="#101c4e" stroke-miterlimit="10" stroke-width="2.4"/>
                </g>
                <g id="Group_6795" data-name="Group 6795" transform="translate(136.383 113.866)">
                  <path id="Path_22035" data-name="Path 22035" d="M0,0,4.518,11.98S4.893,5.7,11.161,6.274L0,0" transform="translate(0 0)" fill="#101c4e"/>
                </g>
                <g id="Group_6796" data-name="Group 6796" transform="translate(59.108 120.15)">
                  <path id="Path_22036" data-name="Path 22036" d="M0,0-16.7,19.44" transform="translate(16.698)" fill="none" stroke="#101c4e" stroke-miterlimit="10" stroke-width="2.4"/>
                </g>
                <g id="Group_6797" data-name="Group 6797" transform="translate(69.537 114.454)">
                  <path id="Path_22037" data-name="Path 22037" d="M0,0-4.518,11.98s-.375-6.284-6.644-5.7L0,0" transform="translate(11.162 0)" fill="#101c4e"/>
                </g>
              </g>
            </g>
          </g>
        </g>
      </g>
      <g id="Group_6503" data-name="Group 6503" transform="translate(506.756 10221.291)">
        <g transform="matrix(1, 0, 0, 1, -506.76, -1070.29)" filter="url(#Ellipse_1576)">
          <circle id="Ellipse_1576-2" data-name="Ellipse 1576" cx="54.244" cy="54.244" r="54.244" transform="translate(506.76 1070.29)" fill="#fff"/>
        </g>
        <g id="Group_6502" data-name="Group 6502" transform="translate(28 34)">
          <path id="Path_21443" data-name="Path 21443" d="M31.731-11.206H21.7v-4.278h10.03ZM23.405-12.74h6.622v-1.209H23.405Z" transform="translate(0 40.471)" fill="#101c4e" stroke="#101c4e" stroke-width="0.143"/>
          <g id="Group_6473" data-name="Group 6473" transform="translate(21.701 21.797)">
            <path id="Path_21444" data-name="Path 21444" d="M0,0H-1.7V-1.977H-8.326V0h-1.7V-3.511H0Z" transform="translate(10.03 3.511)" fill="#101c4e"/>
          </g>
          <g id="Group_6474" data-name="Group 6474" transform="translate(21.701 21.797)">
            <path id="Path_21445" data-name="Path 21445" d="M0,0H-1.7V-1.977H-8.326V0h-1.7V-3.511H0Z" transform="translate(10.03 3.511)" fill="none" stroke="#101c4e" stroke-width="0.143"/>
          </g>
          <g id="Group_6475" data-name="Group 6475" transform="translate(21.701 18.607)">
            <path id="Path_21446" data-name="Path 21446" d="M0,0H-1.7V-1.976H-8.326V0h-1.7V-3.511H0Z" transform="translate(10.03 3.511)" fill="#101c4e"/>
          </g>
          <g id="Group_6476" data-name="Group 6476" transform="translate(21.701 18.607)">
            <path id="Path_21447" data-name="Path 21447" d="M0,0H-1.7V-1.976H-8.326V0h-1.7V-3.511H0Z" transform="translate(10.03 3.511)" fill="none" stroke="#101c4e" stroke-width="0.143"/>
          </g>
          <g id="Group_6493" data-name="Group 6493" clip-path="url(#clip-path-8)">
            <g id="Group_6477" data-name="Group 6477" transform="translate(10.715 9.592)">
              <path id="Path_21448" data-name="Path 21448" d="M0,0A17.832,17.832,0,0,1-3.375-.327l-.775-.15.371-2.362-2.67-1-1.595,1.9-.665-.39A15.261,15.261,0,0,1-13.439-6.6l-.43-.6,2.112-1.43-1.1-2.408-2.625.327-.165-.7a13.117,13.117,0,0,1-.351-3,13.118,13.118,0,0,1,.363-3.039l.167-.7,2.623.335,1.11-2.405-2.108-1.437.433-.6a15.268,15.268,0,0,1,4.746-4.259L-8-26.9-6.413-25l2.673-.993L-4.1-28.357l.776-.148a17.693,17.693,0,0,1,6.7.01l.775.151-.371,2.362,2.67,1,1.595-1.9.665.39a15.25,15.25,0,0,1,4.73,4.274l.43.6-2.111,1.43,1.1,2.408,2.626-.327.164.7a13.123,13.123,0,0,1,.351,3,13.118,13.118,0,0,1-.363,3.039l-.167.7-2.622-.334L11.738-8.6l2.108,1.437-.433.6A15.268,15.268,0,0,1,8.667-2.308L8-1.92l-1.588-1.9L3.74-2.829,4.1-.464l-.776.148A17.807,17.807,0,0,1,0,0M-2.238-1.7A15.676,15.676,0,0,0,2.2-1.689L1.871-3.8l5.111-1.9L8.4-4a13.6,13.6,0,0,0,3.139-2.817L9.658-8.1l2.124-4.6,2.336.3a11.61,11.61,0,0,0,.179-2.016,11.6,11.6,0,0,0-.171-1.977l-2.338.292L9.68-20.7l1.88-1.274A13.6,13.6,0,0,0,8.432-24.8l-1.42,1.691-5.1-1.913.33-2.1a15.676,15.676,0,0,0-4.433-.007l.324,2.106-5.111,1.9L-8.4-24.822A13.6,13.6,0,0,0-11.535-22l1.877,1.279-2.124,4.6-2.336-.3a11.6,11.6,0,0,0-.179,2.016,11.6,11.6,0,0,0,.171,1.977l2.339-.291,2.107,4.6-1.88,1.274A13.6,13.6,0,0,0-8.432-4.022l1.42-1.69L-1.907-3.8ZM0-5.2c-5.639,0-10.226-4.131-10.226-9.21S-5.639-23.621,0-23.621s10.227,4.132,10.227,9.21S5.639-5.2,0-5.2M0-22.087c-4.7,0-8.523,3.444-8.523,7.676S-4.7-6.735,0-6.735s8.523-3.443,8.523-7.676S4.7-22.087,0-22.087" transform="translate(16.001 28.82)" fill="#101c4e"/>
            </g>
            <g id="Group_6478" data-name="Group 6478" transform="translate(10.715 9.592)">
              <path id="Path_21449" data-name="Path 21449" d="M0,0A17.832,17.832,0,0,1-3.375-.327l-.775-.15.371-2.362-2.67-1-1.595,1.9-.665-.39A15.261,15.261,0,0,1-13.439-6.6l-.43-.6,2.112-1.43-1.1-2.408-2.625.327-.165-.7a13.117,13.117,0,0,1-.351-3,13.118,13.118,0,0,1,.363-3.039l.167-.7,2.623.335,1.11-2.405-2.108-1.437.433-.6a15.268,15.268,0,0,1,4.746-4.259L-8-26.9-6.413-25l2.673-.993L-4.1-28.357l.776-.148a17.693,17.693,0,0,1,6.7.01l.775.151-.371,2.362,2.67,1,1.595-1.9.665.39a15.25,15.25,0,0,1,4.73,4.274l.43.6-2.111,1.43,1.1,2.408,2.626-.327.164.7a13.123,13.123,0,0,1,.351,3,13.118,13.118,0,0,1-.363,3.039l-.167.7-2.622-.334L11.738-8.6l2.108,1.437-.433.6A15.268,15.268,0,0,1,8.667-2.308L8-1.92l-1.588-1.9L3.74-2.829,4.1-.464l-.776.148A17.807,17.807,0,0,1,0,0ZM-2.238-1.7A15.676,15.676,0,0,0,2.2-1.689L1.871-3.8l5.111-1.9L8.4-4a13.6,13.6,0,0,0,3.139-2.817L9.658-8.1l2.124-4.6,2.336.3a11.61,11.61,0,0,0,.179-2.016,11.6,11.6,0,0,0-.171-1.977l-2.338.292L9.68-20.7l1.88-1.274A13.6,13.6,0,0,0,8.432-24.8l-1.42,1.691-5.1-1.913.33-2.1a15.676,15.676,0,0,0-4.433-.007l.324,2.106-5.111,1.9L-8.4-24.822A13.6,13.6,0,0,0-11.535-22l1.877,1.279-2.124,4.6-2.336-.3a11.6,11.6,0,0,0-.179,2.016,11.6,11.6,0,0,0,.171,1.977l2.339-.291,2.107,4.6-1.88,1.274A13.6,13.6,0,0,0-8.432-4.022l1.42-1.69L-1.907-3.8ZM0-5.2c-5.639,0-10.226-4.131-10.226-9.21S-5.639-23.621,0-23.621s10.227,4.132,10.227,9.21S5.639-5.2,0-5.2ZM0-22.087c-4.7,0-8.523,3.444-8.523,7.676S-4.7-6.735,0-6.735s8.523-3.443,8.523-7.676S4.7-22.087,0-22.087Z" transform="translate(16.001 28.82)" fill="none" stroke="#101c4e" stroke-width="0.143"/>
            </g>
            <g id="Group_6479" data-name="Group 6479" transform="translate(46.69 7.603)">
              <path id="Path_21450" data-name="Path 21450" d="M0,0A3.116,3.116,0,0,1-3.262-2.938,3.116,3.116,0,0,1,0-5.875,3.117,3.117,0,0,1,3.262-2.938,3.117,3.117,0,0,1,0,0M0-4.341a1.489,1.489,0,0,0-1.558,1.4A1.488,1.488,0,0,0,0-1.535a1.488,1.488,0,0,0,1.558-1.4A1.489,1.489,0,0,0,0-4.341" transform="translate(3.262 5.875)" fill="#101c4e"/>
            </g>
            <g id="Group_6480" data-name="Group 6480" transform="translate(46.69 7.603)">
              <path id="Path_21451" data-name="Path 21451" d="M0,0A3.116,3.116,0,0,1-3.262-2.938,3.116,3.116,0,0,1,0-5.875,3.117,3.117,0,0,1,3.262-2.938,3.117,3.117,0,0,1,0,0ZM0-4.341a1.489,1.489,0,0,0-1.558,1.4A1.488,1.488,0,0,0,0-1.535a1.488,1.488,0,0,0,1.558-1.4A1.489,1.489,0,0,0,0-4.341Z" transform="translate(3.262 5.875)" fill="none" stroke="#101c4e" stroke-width="0.143"/>
            </g>
            <g id="Group_6481" data-name="Group 6481" transform="translate(0.071 7.603)">
              <path id="Path_21452" data-name="Path 21452" d="M0,0A3.117,3.117,0,0,1-3.262-2.938,3.117,3.117,0,0,1,0-5.875,3.116,3.116,0,0,1,3.262-2.938,3.116,3.116,0,0,1,0,0M0-4.341a1.489,1.489,0,0,0-1.558,1.4A1.488,1.488,0,0,0,0-1.535a1.488,1.488,0,0,0,1.558-1.4A1.489,1.489,0,0,0,0-4.341" transform="translate(3.262 5.875)" fill="#101c4e"/>
            </g>
            <g id="Group_6482" data-name="Group 6482" transform="translate(0.071 7.603)">
              <path id="Path_21453" data-name="Path 21453" d="M0,0A3.117,3.117,0,0,1-3.262-2.938,3.117,3.117,0,0,1,0-5.875,3.116,3.116,0,0,1,3.262-2.938,3.116,3.116,0,0,1,0,0ZM0-4.341a1.489,1.489,0,0,0-1.558,1.4A1.488,1.488,0,0,0,0-1.535a1.488,1.488,0,0,0,1.558-1.4A1.489,1.489,0,0,0,0-4.341Z" transform="translate(3.262 5.875)" fill="none" stroke="#101c4e" stroke-width="0.143"/>
            </g>
            <g id="Group_6483" data-name="Group 6483" transform="translate(46.69 34.525)">
              <path id="Path_21454" data-name="Path 21454" d="M0,0A3.116,3.116,0,0,1-3.262-2.937,3.116,3.116,0,0,1,0-5.875,3.117,3.117,0,0,1,3.262-2.937,3.117,3.117,0,0,1,0,0M0-4.34a1.488,1.488,0,0,0-1.558,1.4A1.489,1.489,0,0,0,0-1.534a1.489,1.489,0,0,0,1.558-1.4A1.488,1.488,0,0,0,0-4.34" transform="translate(3.262 5.875)" fill="#101c4e"/>
            </g>
            <g id="Group_6484" data-name="Group 6484" transform="translate(46.69 34.525)">
              <path id="Path_21455" data-name="Path 21455" d="M0,0A3.116,3.116,0,0,1-3.262-2.937,3.116,3.116,0,0,1,0-5.875,3.117,3.117,0,0,1,3.262-2.937,3.117,3.117,0,0,1,0,0ZM0-4.34a1.488,1.488,0,0,0-1.558,1.4A1.489,1.489,0,0,0,0-1.534a1.489,1.489,0,0,0,1.558-1.4A1.488,1.488,0,0,0,0-4.34Z" transform="translate(3.262 5.875)" fill="none" stroke="#101c4e" stroke-width="0.143"/>
            </g>
            <g id="Group_6485" data-name="Group 6485" transform="translate(0.071 34.525)">
              <path id="Path_21456" data-name="Path 21456" d="M0,0A3.117,3.117,0,0,1-3.262-2.937,3.117,3.117,0,0,1,0-5.875,3.116,3.116,0,0,1,3.262-2.937,3.116,3.116,0,0,1,0,0M0-4.34a1.488,1.488,0,0,0-1.558,1.4A1.489,1.489,0,0,0,0-1.534a1.489,1.489,0,0,0,1.558-1.4A1.488,1.488,0,0,0,0-4.34" transform="translate(3.262 5.875)" fill="#101c4e"/>
            </g>
            <g id="Group_6486" data-name="Group 6486" transform="translate(0.071 34.525)">
              <path id="Path_21457" data-name="Path 21457" d="M0,0A3.117,3.117,0,0,1-3.262-2.937,3.117,3.117,0,0,1,0-5.875,3.116,3.116,0,0,1,3.262-2.937,3.116,3.116,0,0,1,0,0ZM0-4.34a1.488,1.488,0,0,0-1.558,1.4A1.489,1.489,0,0,0,0-1.534a1.489,1.489,0,0,0,1.558-1.4A1.488,1.488,0,0,0,0-4.34Z" transform="translate(3.262 5.875)" fill="none" stroke="#101c4e" stroke-width="0.143"/>
            </g>
            <g id="Group_6487" data-name="Group 6487" transform="translate(46.69 21.064)">
              <path id="Path_21458" data-name="Path 21458" d="M0,0A3.116,3.116,0,0,1-3.262-2.938,3.116,3.116,0,0,1,0-5.875,3.117,3.117,0,0,1,3.262-2.938,3.117,3.117,0,0,1,0,0M0-4.34a1.488,1.488,0,0,0-1.558,1.4A1.489,1.489,0,0,0,0-1.534a1.489,1.489,0,0,0,1.558-1.4A1.488,1.488,0,0,0,0-4.34" transform="translate(3.262 5.875)" fill="#101c4e"/>
            </g>
            <g id="Group_6488" data-name="Group 6488" transform="translate(46.69 21.064)">
              <path id="Path_21459" data-name="Path 21459" d="M0,0A3.116,3.116,0,0,1-3.262-2.938,3.116,3.116,0,0,1,0-5.875,3.117,3.117,0,0,1,3.262-2.938,3.117,3.117,0,0,1,0,0ZM0-4.34a1.488,1.488,0,0,0-1.558,1.4A1.489,1.489,0,0,0,0-1.534a1.489,1.489,0,0,0,1.558-1.4A1.488,1.488,0,0,0,0-4.34Z" transform="translate(3.262 5.875)" fill="none" stroke="#101c4e" stroke-width="0.143"/>
            </g>
            <g id="Group_6489" data-name="Group 6489" transform="translate(23.38 0.071)">
              <path id="Path_21460" data-name="Path 21460" d="M0,0A3.117,3.117,0,0,1-3.262-2.938,3.117,3.117,0,0,1,0-5.875,3.117,3.117,0,0,1,3.262-2.938,3.117,3.117,0,0,1,0,0M0-4.34a1.488,1.488,0,0,0-1.558,1.4A1.489,1.489,0,0,0,0-1.534a1.489,1.489,0,0,0,1.558-1.4A1.488,1.488,0,0,0,0-4.34" transform="translate(3.262 5.875)" fill="#101c4e"/>
            </g>
            <g id="Group_6490" data-name="Group 6490" transform="translate(23.38 0.071)">
              <path id="Path_21461" data-name="Path 21461" d="M0,0A3.117,3.117,0,0,1-3.262-2.938,3.117,3.117,0,0,1,0-5.875,3.117,3.117,0,0,1,3.262-2.938,3.117,3.117,0,0,1,0,0ZM0-4.34a1.488,1.488,0,0,0-1.558,1.4A1.489,1.489,0,0,0,0-1.534a1.489,1.489,0,0,0,1.558-1.4A1.488,1.488,0,0,0,0-4.34Z" transform="translate(3.262 5.875)" fill="none" stroke="#101c4e" stroke-width="0.143"/>
            </g>
            <g id="Group_6491" data-name="Group 6491" transform="translate(0.071 21.064)">
              <path id="Path_21462" data-name="Path 21462" d="M0,0A3.117,3.117,0,0,1-3.262-2.937,3.117,3.117,0,0,1,0-5.875,3.116,3.116,0,0,1,3.262-2.937,3.116,3.116,0,0,1,0,0M0-4.34a1.488,1.488,0,0,0-1.558,1.4A1.489,1.489,0,0,0,0-1.534a1.489,1.489,0,0,0,1.558-1.4A1.488,1.488,0,0,0,0-4.34" transform="translate(3.262 5.875)" fill="#101c4e"/>
            </g>
            <g id="Group_6492" data-name="Group 6492" transform="translate(0.071 21.064)">
              <path id="Path_21463" data-name="Path 21463" d="M0,0A3.117,3.117,0,0,1-3.262-2.937,3.117,3.117,0,0,1,0-5.875,3.116,3.116,0,0,1,3.262-2.937,3.116,3.116,0,0,1,0,0ZM0-4.34a1.488,1.488,0,0,0-1.558,1.4A1.489,1.489,0,0,0,0-1.534a1.489,1.489,0,0,0,1.558-1.4A1.488,1.488,0,0,0,0-4.34Z" transform="translate(3.262 5.875)" fill="none" stroke="#101c4e" stroke-width="0.143"/>
            </g>
          </g>
          <path id="Path_21465" data-name="Path 21465" d="M27.568-30.113h-1.7v-5.179h1.7Z" transform="translate(0 40.471)" fill="#101c4e" stroke="#101c4e" stroke-width="0.143"/>
          <g id="Group_6494" data-name="Group 6494" transform="translate(36.758 9.782)">
            <path id="Path_21466" data-name="Path 21466" d="M0,0-1.205-1.085,3.217-5.068H9.579v1.535H3.923Z" transform="translate(1.205 5.068)" fill="#101c4e"/>
          </g>
          <g id="Group_6495" data-name="Group 6495" transform="translate(36.758 9.782)">
            <path id="Path_21467" data-name="Path 21467" d="M0,0-1.205-1.085,3.217-5.068H9.579v1.535H3.923Z" transform="translate(1.205 5.068)" fill="none" stroke="#101c4e" stroke-width="0.143"/>
          </g>
          <g id="Group_6496" data-name="Group 6496" transform="translate(36.758 33.152)">
            <path id="Path_21468" data-name="Path 21468" d="M0,0H-6.362l-4.422-3.982,1.2-1.086,3.923,3.534H0Z" transform="translate(10.784 5.068)" fill="#101c4e"/>
          </g>
          <g id="Group_6497" data-name="Group 6497" transform="translate(36.758 33.152)">
            <path id="Path_21469" data-name="Path 21469" d="M0,0H-6.362l-4.422-3.982,1.2-1.086,3.923,3.534H0Z" transform="translate(10.784 5.068)" fill="none" stroke="#101c4e" stroke-width="0.143"/>
          </g>
          <g id="Group_6498" data-name="Group 6498" transform="translate(5.891 9.782)">
            <path id="Path_21470" data-name="Path 21470" d="M0,0-3.923-3.533H-9.579V-5.068h6.362L1.205-1.085Z" transform="translate(9.579 5.068)" fill="#101c4e"/>
          </g>
          <g id="Group_6499" data-name="Group 6499" transform="translate(5.891 9.782)">
            <path id="Path_21471" data-name="Path 21471" d="M0,0-3.923-3.533H-9.579V-5.068h6.362L1.205-1.085Z" transform="translate(9.579 5.068)" fill="none" stroke="#101c4e" stroke-width="0.143"/>
          </g>
          <g id="Group_6500" data-name="Group 6500" transform="translate(5.891 33.152)">
            <path id="Path_21472" data-name="Path 21472" d="M0,0H-6.362V-1.534H-.706L3.217-5.068l1.2,1.086Z" transform="translate(6.362 5.068)" fill="#101c4e"/>
          </g>
          <g id="Group_6501" data-name="Group 6501" transform="translate(5.891 33.152)">
            <path id="Path_21473" data-name="Path 21473" d="M0,0H-6.362V-1.534H-.706L3.217-5.068l1.2,1.086Z" transform="translate(6.362 5.068)" fill="none" stroke="#101c4e" stroke-width="0.143"/>
          </g>
          <path id="Path_21474" data-name="Path 21474" d="M47.542-15.7H41.866v-1.535h5.676Z" transform="translate(0 40.471)" fill="#101c4e" stroke="#101c4e" stroke-width="0.143"/>
          <path id="Path_21475" data-name="Path 21475" d="M11.419-15.7H5.743v-1.535h5.676Z" transform="translate(0 40.471)" fill="#101c4e" stroke="#101c4e" stroke-width="0.143"/>
        </g>
      </g>
      <g id="Group_5270" data-name="Group 5270" transform="matrix(0.966, 0.259, -0.259, 0.966, 80.705, 10209.101)">
        <g transform="matrix(0.97, -0.26, 0.26, 0.97, -351.81, -1001.16)" filter="url(#Ellipse_1577)">
          <circle id="Ellipse_1577-2" data-name="Ellipse 1577" cx="54.244" cy="54.244" r="54.244" transform="matrix(0.97, 0.26, -0.26, 0.97, 80.7, 1058.1)" fill="#fff"/>
        </g>
      </g>
      <g id="Group_7632" data-name="Group 7632" transform="translate(92.368 10250.278)">
        <path id="Path_22431" data-name="Path 22431" d="M1160.75,928.4a2.227,2.227,0,0,0-3.15,0l-8.375,8.375-4.409-4.409-4.409-4.409,8.375-8.375a2.227,2.227,0,0,0,0-3.15l-.355-.355a2.227,2.227,0,0,0-3.15,0l-8.375,8.375-1.267-1.267a2.046,2.046,0,0,0-2.893,0l-4.546,4.546a15.035,15.035,0,0,0-1.931,18.89l-8.471,8.471,2.148,2.148,2.148,2.148,8.471-8.471a15.035,15.035,0,0,0,18.89-1.931l4.546-4.546a2.046,2.046,0,0,0,0-2.893l-1.267-1.267,8.375-8.375a2.227,2.227,0,0,0,0-3.15Z" transform="translate(-1117.795 -902.605)" fill="#111c4e"/>
        <path id="Path_22430" data-name="Path 22430" d="M1434.881,702.387l-2.148-2.148-2.148-2.148-8.471,8.471a15.035,15.035,0,0,0-18.89,1.931l-4.546,4.546a2.046,2.046,0,0,0,0,2.893l9.181,9.181,9.181,9.181a2.046,2.046,0,0,0,2.893,0l4.546-4.546a15.035,15.035,0,0,0,1.931-18.89Z" transform="translate(-1378.099 -698.091)" fill="#b6e000"/>
      </g>
    </g>
  </g>
</svg>
