<svg xmlns="http://www.w3.org/2000/svg" xmlns:xlink="http://www.w3.org/1999/xlink" width="264" height="264.088" viewBox="0 0 264 264.088">
  <defs>
    <clipPath id="clip-path">
      <path id="Path_19715" data-name="Path 19715" d="M76.6,252.829c8.017,18.374,24.941,31.711,36.651,37.376C159.412,312.53,229.1,310.8,278.813,271.659c11.634-9.159,68.936-57.188,54.663-123.308C320.857,89.9,255.3,46.972,204.777,41.88,162.916,37.662,105.489,56.253,92.347,94.1c-7.881,22.7,5.279,30.87-4.039,81.437C80.252,219.308,66.8,230.357,76.6,252.829Z" transform="translate(-73.162 -41.292)" fill="none"/>
    </clipPath>
    <linearGradient id="linear-gradient" x1="-447.182" y1="0.5" x2="-446.182" y2="0.5" gradientUnits="objectBoundingBox">
      <stop offset="0" stop-color="#081b42"/>
      <stop offset="1" stop-color="#102968"/>
    </linearGradient>
  </defs>
  <g id="Group_6520" data-name="Group 6520" transform="translate(-72.053 -41.292)">
    <path id="Path_19715-2" data-name="Path 19715" d="M75.494,253.427c8.017,18.372,24.941,31.711,36.651,37.376C158.3,313.127,228,311.4,277.7,272.255c11.634-9.159,68.936-57.187,54.663-123.307C319.748,90.5,254.2,47.57,203.668,42.478,161.807,38.259,104.38,56.85,91.238,94.7c-7.881,22.7,5.279,30.87-4.039,81.437C79.143,219.9,65.688,230.954,75.494,253.427Z" transform="translate(0 0.166)" fill="#caddff" opacity="0.2" style="isolation: isolate"/>
    <g id="Group_5016" data-name="Group 5016" transform="translate(94.192 90.873)">
      <g id="Group_5007" data-name="Group 5007" transform="translate(0.693 120.291)">
        <path id="Path_19852" data-name="Path 19852" d="M207.4,189.9,90.02,188.862l-.05,21.588H207.4Z" transform="translate(-89.901 -170.116)" fill="#cfea00"/>
        <path id="Path_19853" data-name="Path 19853" d="M188.067,223.1c.387-.109.888-.283,1.268-.395,23.36-6.933,24.219-18.105,1.685-26.008-22.171-7.775-58.545-8.663-81.959-2.087-.385.107-.764.217-1.141.329-23.357,6.933-24.026,18.959-1.49,26.863C128.6,229.573,164.655,229.671,188.067,223.1Z" transform="translate(-89.905 -169.741)" fill="#b6d515"/>
        <g id="Group_5006" data-name="Group 5006">
          <path id="Path_19854" data-name="Path 19854" d="M188.62,208.121c.386-.109.766-.22,1.144-.332,23.32-6.985,23.957-19.013,1.428-26.866-22.167-7.726-58.505-8.534-81.882-1.907-.383.109-.762.219-1.139.332-23.318,6.984-23.957,19.011-1.425,26.866C128.909,213.94,165.244,214.747,188.62,208.121Z" transform="translate(-89.821 -174.1)" fill="#b6d515"/>
          <path id="Path_19855" data-name="Path 19855" d="M151.56,213.13q-2.113,0-4.247-.049c-15.444-.359-29.868-2.614-40.617-6.36-10.936-3.813-16.9-8.781-16.778-13.991.119-5.356,6.59-10.223,18.224-13.707.378-.114.759-.224,1.147-.334,11.36-3.22,26.1-4.8,41.522-4.445,15.445.359,29.872,2.614,40.621,6.36,10.936,3.813,16.9,8.781,16.78,13.991-.12,5.355-6.593,10.223-18.228,13.707-.38.114-.761.225-1.148.335C178.522,211.564,165.421,213.13,151.56,213.13Zm-5.024-38.016c-13.349,0-26.55,1.452-37.01,4.417-.382.109-.758.219-1.134.331-11.077,3.319-17.5,8.015-17.6,12.888-.107,4.8,5.644,9.469,16.194,13.146,21.84,7.613,58.452,8.465,81.612,1.9.383-.11.761-.219,1.136-.331,11.079-3.319,17.5-8.017,17.6-12.889.106-4.8-5.644-9.469-16.194-13.146-11.979-4.174-28.4-6.317-44.609-6.317Zm42.181,33.1" transform="translate(-89.916 -174.196)"/>
        </g>
      </g>
      <g id="Group_5008" data-name="Group 5008" transform="translate(0.629 99.01)">
        <path id="Path_19856" data-name="Path 19856" d="M148.967,202.7a.437.437,0,0,1,0-.874c1.159,0,2.333-.019,3.489-.046a.43.43,0,0,1,.449.412v.017a.438.438,0,0,1-.427.449h0c-1.162.026-2.342.041-3.506.045Zm-3.5-.023h-.008c-1.166-.018-2.345-.047-3.5-.089a.435.435,0,0,1,.027-.87c1.155.042,2.333.072,3.489.091a.435.435,0,0,1,0,.869Zm10.492-.135a.437.437,0,0,1-.019-.873c1.167-.049,2.333-.11,3.484-.18a.433.433,0,0,1,.463.4v.008a.437.437,0,0,1-.409.464h0c-1.155.072-2.334.133-3.5.18Zm-17.485-.112h-.026c-1.167-.065-2.347-.142-3.5-.23a.437.437,0,1,1,.066-.872c1.15.089,2.321.164,3.484.228a.437.437,0,0,1,.412.461h0a.437.437,0,0,1-.437.414Zm24.464-.321a.437.437,0,0,1-.036-.873c1.167-.1,2.333-.2,3.471-.323a.437.437,0,0,1,.481.389h0a.437.437,0,0,1-.39.479h0c-1.146.12-2.32.229-3.491.326Zm-31.445-.211a.24.24,0,0,1-.042,0c-1.173-.114-2.347-.24-3.487-.378a.437.437,0,0,1-.382-.486h0a.435.435,0,0,1,.486-.382h0c1.135.135,2.3.262,3.468.376a.437.437,0,0,1-.042.872Zm38.4-.515a.438.438,0,0,1-.055-.872c1.167-.148,2.326-.309,3.455-.482a.437.437,0,0,1,.13.864c-1.135.173-2.3.336-3.475.484a.272.272,0,0,1-.056,0Zm-45.347-.32a.347.347,0,0,1-.063-.005c-1.167-.169-2.333-.352-3.466-.546a.436.436,0,0,1-.359-.5h0a.437.437,0,0,1,.5-.359h0c1.125.192,2.284.374,3.445.542a.437.437,0,0,1,.371.493v0a.435.435,0,0,1-.431.377Zm52.261-.734a.437.437,0,0,1-.078-.867h0c1.159-.208,2.311-.431,3.423-.663a.437.437,0,0,1,.179.855h0c-1.12.235-2.279.459-3.446.668a.324.324,0,0,1-.079.006Zm-59.156-.449a.533.533,0,0,1-.089-.009c-1.167-.234-2.319-.484-3.432-.744a.438.438,0,0,1-.327-.525h0a.437.437,0,0,1,.523-.327h0c1.1.258,2.25.5,3.405.737a.438.438,0,0,1-.083.868Zm66-.987a.438.438,0,0,1-.1-.863h0c1.149-.28,2.281-.578,3.368-.884a.436.436,0,0,1,.236.84c-1.1.311-2.243.61-3.4.892a.414.414,0,0,1-.1.014Zm-72.812-.61a.446.446,0,0,1-.115-.015c-.693-.188-1.382-.385-2.049-.584-.383-.115-.763-.23-1.14-.35l-.18-.058a.437.437,0,0,1-.285-.548h0a.437.437,0,0,1,.548-.285h0l.179.057q.56.176,1.129.345c.66.2,1.346.392,2.028.579a.437.437,0,0,1,.308.536v0a.44.44,0,0,1-.426.321Zm79.54-1.3a.438.438,0,0,1-.138-.854h0l.222-.074.031-.009c1.019-.259,2.063-.569,3.093-.92a.436.436,0,0,1,.285.824c-1.049.358-2.106.671-3.14.937l-.21.069a.435.435,0,0,1-.144.029Zm-86.2-.823a.439.439,0,0,1-.152-.028c-1.147-.428-2.243-.878-3.263-1.336a.438.438,0,0,1-.22-.578h0a.436.436,0,0,1,.578-.22h0c1,.449,2.083.9,3.209,1.314a.437.437,0,0,1,.257.562h0a.436.436,0,0,1-.409.285Zm92.82-1.43a.439.439,0,0,1-.171-.842h0c1.044-.444,2.1-.936,3.14-1.463a.437.437,0,0,1,.4.778h0c-1.06.538-2.136,1.038-3.2,1.488a.421.421,0,0,1-.167.038Zm-99.183-1.46a.415.415,0,0,1-.213-.055,27.9,27.9,0,0,1-2.991-1.912.437.437,0,0,1-.091-.611h0a.438.438,0,0,1,.611-.089,27.582,27.582,0,0,0,2.9,1.853.437.437,0,0,1,.169.594h0a.437.437,0,0,1-.385.221Zm105.421-1.694a.437.437,0,0,1-.222-.814h0c.987-.579,1.973-1.2,2.941-1.846a.438.438,0,0,1,.606.121h0a.439.439,0,0,1-.119.607h0c-.979.654-1.984,1.285-2.983,1.871a.446.446,0,0,1-.224.061ZM92.276,189.055a.437.437,0,0,1-.327-.146c-.268-.3-.519-.61-.744-.915a.437.437,0,0,1,.7-.521c.208.284.441.57.69.85a.437.437,0,0,1-.035.617h0a.435.435,0,0,1-.286.116Z" transform="translate(-89.517 -149.271)" fill="#fff"/>
        <path id="Path_19857" data-name="Path 19857" d="M147.91,196.444h0c-1.167-.006-2.344-.022-3.506-.05a.438.438,0,0,1-.428-.446v0a.438.438,0,0,1,.437-.427h.012c1.157.027,2.333.043,3.489.049a.437.437,0,0,1,.436.438h0a.438.438,0,0,1-.438.438Zm3.5-.018a.437.437,0,0,1-.008-.874c1.161-.018,2.333-.047,3.488-.089a.435.435,0,1,1,.027.87c-1.161.038-2.339.068-3.5.089Zm-10.492-.148H140.9c-1.167-.051-2.348-.114-3.5-.187a.438.438,0,0,1,.05-.874h.005c1.149.073,2.322.135,3.486.185a.438.438,0,0,1-.024.876Zm17.484-.089a.437.437,0,0,1-.024-.874c1.162-.063,2.334-.138,3.48-.224a.437.437,0,0,1,.066.872c-1.155.089-2.334.162-3.5.225Zm-24.469-.353h-.038c-1.166-.1-2.343-.211-3.492-.332a.437.437,0,0,1-.389-.481h0a.437.437,0,0,1,.481-.389h0c1.143.121,2.311.233,3.473.33a.437.437,0,0,1-.037.872Zm31.443-.167a.437.437,0,0,1-.043-.872h0c1.167-.111,2.333-.235,3.466-.369a.437.437,0,1,1,.1.868c-1.143.134-2.316.259-3.486.372Zm-38.4-.574a.422.422,0,0,1-.056,0c-1.167-.152-2.338-.318-3.474-.493a.437.437,0,1,1,.133-.864c1.129.175,2.29.339,3.454.49a.436.436,0,0,1,.376.49h0a.437.437,0,0,1-.431.382Zm45.343-.247a.437.437,0,0,1-.06-.87h0c1.167-.165,2.324-.345,3.447-.534a.437.437,0,0,1,.146.863c-1.13.189-2.3.371-3.469.538a.5.5,0,0,1-.063.005Zm-52.255-.827a.55.55,0,0,1-.079-.006c-1.166-.212-2.322-.442-3.443-.681a.436.436,0,0,1-.336-.518h0a.436.436,0,0,1,.516-.337h0c1.112.238,2.264.465,3.419.675a.439.439,0,0,1,.353.509h0a.435.435,0,0,1-.432.359Zm59.153-.335a.438.438,0,0,1-.086-.867h0c1.158-.229,2.3-.472,3.41-.725a.438.438,0,0,1,.524.328h0a.438.438,0,0,1-.327.524h0c-1.113.256-2.27.5-3.434.73a.38.38,0,0,1-.084.01Zm-65.994-1.127a.413.413,0,0,1-.1-.014c-1.159-.288-2.3-.593-3.395-.909a.436.436,0,1,1,.24-.837c1.083.313,2.214.616,3.362.9a.439.439,0,0,1-.1.864Zm72.812-.44a.44.44,0,0,1-.118-.863h.005c1.144-.305,2.27-.629,3.345-.962a.437.437,0,1,1,.259.835h0c-1.086.337-2.223.663-3.378.971a.423.423,0,0,1-.111.019Zm-79.522-1.507a.446.446,0,0,1-.141-.024c-1.15-.389-2.261-.8-3.3-1.216a.438.438,0,0,1,.325-.813h0c1.026.412,2.123.815,3.258,1.2a.437.437,0,0,1,.275.553h0A.439.439,0,0,1,106.508,190.612Zm86.206-.571a.437.437,0,0,1-.15-.849c1.131-.41,2.218-.84,3.23-1.274a.437.437,0,1,1,.346.8c-1.026.442-2.128.877-3.275,1.293a.473.473,0,0,1-.157.027Zm-92.687-2.051a.416.416,0,0,1-.192-.043c-1.12-.546-2.165-1.118-3.1-1.7a.438.438,0,0,1-.143-.6h0a.435.435,0,0,1,.6-.142h0c.915.566,1.934,1.124,3.028,1.658a.436.436,0,0,1,.2.584h0a.438.438,0,0,1-.4.244Zm99.095-.736a.438.438,0,0,1-.207-.823,30.311,30.311,0,0,0,2.955-1.772.437.437,0,1,1,.493.721,31.1,31.1,0,0,1-3.041,1.823.416.416,0,0,1-.2.05Zm-105-2.983a.443.443,0,0,1-.284-.1,14.257,14.257,0,0,1-2.449-2.636.437.437,0,1,1,.717-.5,13.328,13.328,0,0,0,2.3,2.469.436.436,0,0,1,.05.616h0a.435.435,0,0,1-.332.151Zm110.7-1.022a.438.438,0,0,1-.309-.746h0a10.387,10.387,0,0,0,1.991-2.679.437.437,0,0,1,.585-.2h0a.437.437,0,0,1,.2.585h0a11.218,11.218,0,0,1-2.154,2.909.432.432,0,0,1-.314.127ZM90.387,178.532a.437.437,0,0,1-.431-.367,6.67,6.67,0,0,1-.091-1.093,7.022,7.022,0,0,1,.5-2.565.436.436,0,1,1,.813.318,6.153,6.153,0,0,0-.438,2.243,5.787,5.787,0,0,0,.079.951.437.437,0,0,1-.359.5.489.489,0,0,1-.075.009Zm117.23-1.456a.436.436,0,0,1-.436-.41,6.826,6.826,0,0,0-1.021-3.087.437.437,0,0,1,.749-.451,7.688,7.688,0,0,1,1.145,3.484.437.437,0,0,1-.409.463Zm-114.973-4.9a.438.438,0,0,1-.325-.73h0a17.783,17.783,0,0,1,2.669-2.385.436.436,0,1,1,.52.7,17.078,17.078,0,0,0-2.537,2.265.435.435,0,0,1-.33.15Zm111.656-1.06A.44.44,0,0,1,204,171a21.11,21.11,0,0,0-2.7-2.094.437.437,0,0,1-.124-.606h0a.436.436,0,0,1,.6-.125h0a21.944,21.944,0,0,1,2.818,2.182.439.439,0,0,1-.3.759ZM98.192,167.967a.437.437,0,0,1-.213-.818h0c.968-.539,2.031-1.077,3.158-1.585a.438.438,0,0,1,.578.217h0a.437.437,0,0,1-.217.579h0c-1.106.5-2.146,1.021-3.092,1.55a.422.422,0,0,1-.216.055Zm100.325-.744a.439.439,0,0,1-.2-.049c-.971-.5-2.028-.987-3.14-1.457a.436.436,0,0,1-.233-.573h0a.436.436,0,0,1,.571-.234h0c1.134.477,2.211.977,3.2,1.485a.437.437,0,0,1,.189.588h0a.438.438,0,0,1-.394.238Zm-93.967-2.154a.438.438,0,0,1-.155-.847c.775-.29,1.589-.579,2.423-.856.3-.1.6-.2.9-.3a.436.436,0,0,1,.55.282h0a.436.436,0,0,1-.282.55h0q-.449.144-.9.293c-.822.273-1.626.559-2.39.846a.46.46,0,0,1-.155.029Zm87.528-.571a.43.43,0,0,1-.144-.026c-.7-.247-1.437-.49-2.177-.723-.375-.119-.749-.233-1.131-.346q-.663-.2-1.346-.389a.437.437,0,1,1,.235-.841q.684.192,1.356.392c.386.115.766.23,1.143.35.753.237,1.494.483,2.2.732a.437.437,0,0,1,.27.556h0a.439.439,0,0,1-.412.3Zm-80.872-1.568a.438.438,0,0,1-.116-.86h0c1.1-.3,2.243-.594,3.41-.868a.435.435,0,0,1,.525.325h0a.435.435,0,0,1-.325.525h0c-1.15.27-2.285.561-3.376.86a.436.436,0,0,1-.121.018Zm72.81-.78a.574.574,0,0,1-.1-.013c-1.1-.27-2.243-.521-3.4-.762a.436.436,0,0,1-.339-.516h0a.44.44,0,0,1,.516-.34c1.167.242,2.317.5,3.428.767a.436.436,0,0,1,.323.527h0a.437.437,0,0,1-.427.337Zm-66-.832a.437.437,0,0,1-.087-.865h0c1.12-.228,2.282-.449,3.45-.648a.438.438,0,0,1,.147.864h0c-1.159.2-2.312.418-3.425.643a.487.487,0,0,1-.086.008Zm59.156-.591a.387.387,0,0,1-.077-.006c-1.122-.2-2.28-.387-3.441-.561a.436.436,0,0,1-.368-.5h0a.437.437,0,0,1,.5-.368h0c1.167.179,2.333.364,3.464.564a.437.437,0,0,1,.36.5v.005a.438.438,0,0,1-.436.362Zm-52.264-.607a.438.438,0,0,1-.064-.87h0c1.136-.167,2.307-.325,3.477-.468a.435.435,0,0,1,.487.377v.005a.438.438,0,0,1-.381.487c-1.167.142-2.326.3-3.456.464a.415.415,0,0,1-.068.005Zm45.345-.429H170.2c-1.135-.142-2.3-.275-3.465-.392a.438.438,0,0,1-.391-.479h0a.437.437,0,0,1,.478-.391h0c1.171.12,2.344.253,3.486.395a.436.436,0,0,1-.055.868Zm-38.4-.422a.438.438,0,0,1-.043-.873h0c1.149-.115,2.324-.22,3.492-.311a.437.437,0,0,1,.069.872h0c-1.162.089-2.333.194-3.474.309Zm31.443-.289h-.036c-1.146-.09-2.319-.174-3.483-.243a.436.436,0,0,1-.41-.463h0a.43.43,0,0,1,.45-.412h.012c1.167.07,2.348.152,3.5.244a.438.438,0,0,1,.4.47h0a.438.438,0,0,1-.433.4Zm-24.472-.258a.437.437,0,0,1-.026-.874h0c1.155-.066,2.333-.123,3.5-.167a.436.436,0,0,1,.452.418v0a.437.437,0,0,1-.421.454c-1.167.043-2.333.1-3.484.166Zm17.484-.157h-.018c-1.154-.046-2.328-.082-3.489-.1a.437.437,0,0,1-.427-.446v0a.438.438,0,0,1,.447-.428h0c1.166.023,2.345.057,3.506.1a.439.439,0,0,1-.018.877Zm-10.5-.109a.439.439,0,0,1-.01-.878h0c1.124-.02,2.261-.032,3.383-.032h.124a.439.439,0,0,1,.436.438h0a.437.437,0,0,1-.437.437h-.123c-1.117,0-2.25.01-3.367.032Z" transform="translate(-89.866 -157.546)" fill="#fff"/>
      </g>
      <g id="Group_5009" data-name="Group 5009" transform="translate(0.596 76.556)">
        <path id="Path_19858" data-name="Path 19858" d="M207.478,155.129l.012,15.8c.008,4.787-5.531,9.586-16.652,13.3-22.245,7.425-58.549,7.738-81.8.8-.382-.115-.759-.229-1.134-.346-11.782-3.709-17.7-8.64-17.708-13.584l-.013-15.8c.006,4.944,5.922,9.875,17.708,13.583.375.119.752.234,1.134.348,23.255,6.944,59.558,6.63,81.8-.8C201.945,164.716,207.484,159.917,207.478,155.129Z" transform="translate(-89.745 -135.764)" fill="#b6d515" opacity="0.3" style="isolation: isolate"/>
        <path id="Path_19859" data-name="Path 19859" d="M148.664,178.875c-14.767,0-28.793-1.77-39.669-5.017-.385-.115-.763-.23-1.141-.349-11.57-3.643-17.966-8.6-18.013-13.951-.045-5.212,5.975-10.1,16.951-13.763,10.786-3.6,25.225-5.664,40.653-5.808,15.4-.144,30.106,1.633,41.407,5.008.386.114.764.231,1.143.35,11.575,3.641,17.971,8.6,18.017,13.952.045,5.211-5.974,10.1-16.951,13.762-10.786,3.6-25.226,5.664-40.657,5.808Q149.529,178.875,148.664,178.875ZM149.2,140.9c-15.365,0-30.732,1.921-42.135,5.727-10.587,3.534-16.394,8.124-16.353,12.926.042,4.874,6.384,9.657,17.4,13.124.373.118.748.233,1.129.346,23.041,6.879,59.621,6.525,81.539-.791,10.588-3.534,16.395-8.124,16.354-12.925-.042-4.874-6.386-9.658-17.407-13.127-.374-.118-.749-.231-1.13-.346h0c-11.055-3.3-25.226-4.935-39.4-4.935Z" transform="translate(-89.84 -139.979)" fill="#1417b1"/>
      </g>
      <circle id="Ellipse_1518" data-name="Ellipse 1518" cx="2.69" cy="2.69" r="2.69" transform="translate(38.216 164.912)" fill="#fff"/>
      <circle id="Ellipse_1519" data-name="Ellipse 1519" cx="2.689" cy="2.689" r="2.689" transform="translate(56.959 166.204)" fill="#fff"/>
      <circle id="Ellipse_1520" data-name="Ellipse 1520" cx="2.689" cy="2.689" r="2.689" transform="translate(75.792 164.913)" fill="#fff"/>
      <path id="Path_19860" data-name="Path 19860" d="M148.737,174.645c-14.767,0-28.793-1.769-39.669-5.017-.385-.115-.763-.23-1.14-.349-11.61-3.654-18.007-8.626-18.013-14l-.013-15.8a.437.437,0,0,1,.437-.437h0a.435.435,0,0,1,.437.436h0l.013,15.8c.008,4.888,6.349,9.69,17.4,13.166.373.118.746.233,1.127.345,23.043,6.88,59.621,6.525,81.54-.791,10.551-3.523,16.359-8.1,16.353-12.884l-.013-15.8a.437.437,0,0,1,.437-.437h0a.438.438,0,0,1,.438.436h0l.013,15.8c.006,5.193-6.012,10.063-16.952,13.715-10.788,3.6-25.226,5.664-40.657,5.808Q149.605,174.645,148.737,174.645Z" transform="translate(-89.227 -63.727)"/>
      <path id="Path_19861" data-name="Path 19861" d="M148.726,163.216c-14.767,0-28.794-1.769-39.67-5.017-.383-.115-.762-.23-1.139-.349-11.57-3.643-17.968-8.6-18.014-13.952-.045-5.211,5.974-10.1,16.951-13.763,10.786-3.6,25.224-5.662,40.653-5.808,15.393-.146,30.1,1.633,41.407,5.008.386.116.764.231,1.143.352,11.575,3.642,17.971,8.6,18.016,13.952.045,5.21-5.974,10.1-16.951,13.762-10.788,3.6-25.226,5.664-40.657,5.808Q149.593,163.216,148.726,163.216Zm.538-37.979c-15.366,0-30.733,1.922-42.135,5.727C96.542,134.5,90.734,139.09,90.776,143.89c.042,4.874,6.384,9.658,17.4,13.125.373.118.748.233,1.127.345,23.043,6.88,59.621,6.525,81.54-.791,10.587-3.534,16.395-8.125,16.353-12.925-.042-4.875-6.386-9.659-17.406-13.127-.376-.118-.749-.233-1.131-.346-11.051-3.3-25.223-4.935-39.4-4.935Z" transform="translate(-89.227 -67.778)"/>
      <path id="Path_19862" data-name="Path 19862" d="M207.432,123.031l.013,15.8c.008,4.787-5.531,9.586-16.653,13.3-22.245,7.425-58.547,7.738-81.8.795-.382-.114-.759-.229-1.134-.346-11.782-3.709-17.7-8.64-17.708-13.584l-.013-15.8c.006,4.944,5.922,9.875,17.708,13.583.374.118.752.234,1.134.348,23.255,6.943,59.557,6.63,81.8-.8C201.9,132.618,207.438,127.819,207.432,123.031Z" transform="translate(-89.162 -68.137)" fill="#b6d515" opacity="0.3" style="isolation: isolate"/>
      <path id="Path_19863" data-name="Path 19863" d="M148.629,141.946c-14.767,0-28.794-1.769-39.67-5.017-.385-.115-.763-.23-1.14-.349-11.608-3.653-18.007-8.625-18.013-14l-.012-15.8h0a.437.437,0,0,1,.436-.438h0a.437.437,0,0,1,.437.437h0c.008,4.888,6.349,9.691,17.4,13.166.372.118.746.233,1.127.345,23.041,6.88,59.62,6.525,81.539-.791,10.547-3.52,16.355-8.095,16.354-12.876v-.008a.436.436,0,0,1,.436-.437h0a.437.437,0,0,1,.437.436h0v.009l.012,15.792c.008,5.192-6.011,10.063-16.951,13.713-10.788,3.6-25.227,5.664-40.657,5.809ZM90.666,110.182l.01,12.4c.006,4.889,6.349,9.691,17.4,13.166.373.118.748.233,1.129.345,23.043,6.88,59.62,6.525,81.539-.791,10.552-3.523,16.359-8.1,16.353-12.884l-.009-12.4c-2.032,3.9-7.565,7.476-16.079,10.319-10.788,3.6-25.226,5.664-40.656,5.808-15.4.146-30.108-1.633-41.41-5.008-.385-.115-.763-.231-1.141-.349-9.111-2.873-15.015-6.554-17.132-10.606Z" transform="translate(-89.257 -72.823)" fill="#1417b1"/>
      <path id="Path_19864" data-name="Path 19864" d="M148.618,146.777c-14.765,0-28.793-1.77-39.669-5.018-.385-.115-.763-.23-1.14-.349-11.571-3.641-17.967-8.6-18.014-13.951-.045-5.211,5.975-10.1,16.952-13.763,10.785-3.6,25.223-5.662,40.653-5.808,15.4-.143,30.106,1.633,41.407,5.008.386.115.764.231,1.143.35,11.575,3.641,17.971,8.6,18.017,13.952.045,5.211-5.975,10.1-16.951,13.762-10.788,3.6-25.226,5.664-40.657,5.809Q149.484,146.775,148.618,146.777Zm.539-37.979c-15.366,0-30.735,1.921-42.135,5.727-10.588,3.534-16.395,8.125-16.354,12.926.042,4.874,6.384,9.658,17.4,13.124.373.118.746.233,1.126.346,23.043,6.88,59.621,6.525,81.54-.791,10.588-3.534,16.395-8.124,16.353-12.926-.042-4.874-6.386-9.658-17.406-13.125-.374-.118-.749-.233-1.131-.346C177.5,110.433,163.328,108.8,149.157,108.8Z" transform="translate(-89.257 -72.351)" fill="#1417b1"/>
      <g id="Group_5011" data-name="Group 5011">
        <rect id="Rectangle_1203" data-name="Rectangle 1203" width="118.251" height="16.036" transform="translate(0.479 19.45)" fill="#cfea00"/>
        <path id="Path_19865" data-name="Path 19865" d="M188.585,96.71c.383.115.759.23,1.136.349,23.2,7.3,23.668,19.335,1.06,26.882-22.245,7.425-58.549,7.739-81.8.8-.382-.114-.759-.229-1.134-.346-23.192-7.3-23.665-19.336-1.056-26.884C129.031,90.083,165.33,89.769,188.585,96.71Z" transform="translate(-89.162 -76.848)" fill="#b6d515" opacity="0.3" style="isolation: isolate"/>
        <g id="Group_5010" data-name="Group 5010">
          <path id="Path_19866" data-name="Path 19866" d="M189.032,85.125c.387.115.767.231,1.148.349,23.4,7.306,23.882,19.342,1.076,26.884-22.441,7.42-59.065,7.724-82.528.775-.385-.114-.766-.229-1.144-.348-23.4-7.306-23.879-19.341-1.071-26.882C128.948,78.484,165.57,78.179,189.032,85.125Z" transform="translate(-89.279 -80.073)" fill="#b6d515"/>
          <path id="Path_19867" data-name="Path 19867" d="M148.765,118.979c-14.915,0-29.083-1.774-40.067-5.026-.387-.114-.769-.23-1.15-.349-11.676-3.645-18.131-8.6-18.174-13.961-.043-5.21,6.029-10.095,17.1-13.754,10.88-3.6,25.444-5.653,41.009-5.8,15.53-.139,30.37,1.641,41.773,5.018.39.115.771.231,1.153.35,11.677,3.645,18.133,8.6,18.178,13.961.043,5.209-6.028,10.095-17.1,13.754-10.881,3.6-25.447,5.653-41.014,5.8C149.9,118.976,149.331,118.979,148.765,118.979ZM149.207,81c-15.489,0-30.974,1.917-42.463,5.717-10.678,3.53-16.537,8.119-16.5,12.92.04,4.875,6.441,9.663,17.561,13.134.376.118.754.231,1.138.345,11.167,3.307,25.488,4.946,39.8,4.946,15.489,0,30.972-1.919,42.464-5.717,10.678-3.532,16.537-8.119,16.5-12.921-.041-4.875-6.443-9.662-17.563-13.133-.378-.118-.755-.234-1.14-.348C177.838,82.638,163.52,81,149.207,81Z" transform="translate(-89.374 -80.083)"/>
        </g>
      </g>
      <path id="Path_19868" data-name="Path 19868" d="M148.644,254.609c-14.7,0-28.647-1.823-39.473-5.171-.385-.119-.763-.239-1.14-.359-11.6-3.783-17.993-8.937-17.994-14.512L89.7,97.745a.437.437,0,0,1,.436-.438h0a.437.437,0,0,1,.437.436l.337,136.823c0,5.091,6.34,10.078,17.392,13.681.373.123.748.24,1.127.359,23.032,7.123,59.607,6.714,81.534-.911,10.56-3.673,16.374-8.442,16.374-13.427l-.22-136.978a.436.436,0,0,1,.436-.437h0a.437.437,0,0,1,.437.436l.22,136.979c0,5.384-6.021,10.448-16.957,14.253-10.794,3.755-25.236,5.914-40.67,6.083C149.935,254.6,149.288,254.609,148.644,254.609Z" transform="translate(-89.283 -75.418)"/>
      <g id="Group_5012" data-name="Group 5012" transform="translate(77.73 68.252)">
        <path id="Path_19869" data-name="Path 19869" d="M151.2,148.786a.438.438,0,0,1-.068-.87h0q1.737-.268,3.448-.557a.438.438,0,0,1,.5.359h0a.437.437,0,0,1-.359.5h0q-1.714.286-3.457.559A.418.418,0,0,1,151.2,148.786Zm6.9-1.157a.437.437,0,0,1-.078-.867c1.2-.217,2.349-.436,3.429-.651a.437.437,0,1,1,.171.856h0c-1.084.217-2.243.437-3.445.654a.514.514,0,0,1-.077.006Zm6.86-1.375a.437.437,0,0,1-.1-.864c1.181-.27,2.32-.539,3.388-.814a.435.435,0,0,1,.532.311v0a.437.437,0,0,1-.314.532c-1.076.277-2.225.553-3.414.821a.36.36,0,0,1-.1.01Zm6.772-1.757a.437.437,0,0,1-.127-.855c1.158-.35,2.267-.718,3.3-1.092a.436.436,0,0,1,.56.261h0a.437.437,0,0,1-.261.56c-1.044.38-2.169.752-3.344,1.107a.433.433,0,0,1-.127.017Zm6.562-2.411a.438.438,0,0,1-.181-.836h0a32.878,32.878,0,0,0,3.069-1.572.438.438,0,1,1,.442.755,34.048,34.048,0,0,1-3.152,1.614.433.433,0,0,1-.179.038Z" transform="translate(-150.028 -131.774)" fill="#fff"/>
        <path id="Path_19870" data-name="Path 19870" d="M150.624,144.47a.437.437,0,0,1-.037-.873h0c1.167-.1,2.333-.221,3.47-.351a.435.435,0,0,1,.484.382h0a.436.436,0,0,1-.383.484h0c-1.144.133-2.32.252-3.5.359Zm6.952-.808a.438.438,0,0,1-.064-.87h0c1.166-.17,2.32-.359,3.438-.56a.437.437,0,0,1,.507.351h0a.438.438,0,0,1-.353.507c-1.127.2-2.294.394-3.468.565a.513.513,0,0,1-.063.005Zm6.883-1.242a.438.438,0,0,1-.093-.865c1.15-.251,2.289-.523,3.385-.808a.437.437,0,1,1,.221.845c-1.107.29-2.257.565-3.419.818a.461.461,0,0,1-.093.01Zm6.765-1.775a.437.437,0,0,1-.13-.854h0c1.127-.351,2.234-.729,3.289-1.121a.437.437,0,0,1,.562.257h0a.438.438,0,0,1-.258.562c-1.069.4-2.189.781-3.332,1.136a.454.454,0,0,1-.13.019Zm6.549-2.448a.438.438,0,0,1-.179-.837h0c1.077-.481,2.129-.994,3.112-1.525a.437.437,0,0,1,.414.771h0c-1,.539-2.068,1.062-3.17,1.552a.428.428,0,0,1-.178.04Zm6.147-3.319a.437.437,0,0,1-.24-.8h0c.256-.169.51-.341.761-.515a.437.437,0,0,1,.5.717q-.385.268-.781.528a.436.436,0,0,1-.242.069Z" transform="translate(-150.188 -133.482)" fill="#fff"/>
      </g>
      <g id="Group_5013" data-name="Group 5013" transform="translate(18.692 73.362)">
        <path id="Path_19871" data-name="Path 19871" d="M128.31,147.862h-.026c-1.177-.066-2.354-.155-3.5-.263a.437.437,0,1,1,.082-.87c1.138.107,2.3.2,3.47.262a.436.436,0,0,1-.028.872Zm-6.961-.662a.45.45,0,0,1-.059,0c-1.167-.158-2.334-.343-3.474-.547a.437.437,0,0,1-.353-.507h0a.438.438,0,0,1,.507-.353c1.125.2,2.282.385,3.436.538a.437.437,0,0,1-.058.869Zm-6.882-1.241a.4.4,0,0,1-.1-.01c-1.144-.259-2.292-.55-3.41-.86a.435.435,0,0,1-.3-.537h0a.437.437,0,0,1,.538-.3h0c1.106.307,2.243.593,3.372.85a.436.436,0,0,1,.328.523h0a.438.438,0,0,1-.428.34Zm-6.738-1.869a.409.409,0,0,1-.135-.023c-1.106-.364-2.221-.762-3.314-1.18a.437.437,0,0,1-.252-.565h0a.437.437,0,0,1,.565-.252c1.076.414,2.182.808,3.273,1.166a.438.438,0,0,1,.279.552h0a.437.437,0,0,1-.415.3Z" transform="translate(-103.998 -136.211)" fill="#fff"/>
        <path id="Path_19872" data-name="Path 19872" d="M128.307,143.3h-.026c-1.172-.066-2.351-.156-3.5-.27a.437.437,0,0,1-.394-.477h0a.438.438,0,0,1,.478-.392c1.14.11,2.308.2,3.469.268a.436.436,0,0,1,.412.461h0A.438.438,0,0,1,128.307,143.3Zm-6.958-.672a.475.475,0,0,1-.06,0c-1.167-.16-2.333-.346-3.471-.552a.438.438,0,0,1,.155-.861h0c1.129.2,2.284.389,3.434.547a.437.437,0,0,1,.373.492h0a.437.437,0,0,1-.432.373Zm-6.879-1.249a.492.492,0,0,1-.1-.01c-1.145-.261-2.292-.548-3.409-.856a.436.436,0,0,1-.305-.537h0a.437.437,0,0,1,.537-.305h0c1.1.3,2.243.589,3.371.846a.438.438,0,0,1,.331.523h0a.439.439,0,0,1-.431.341Zm-6.74-1.858a.411.411,0,0,1-.135-.022c-1.116-.364-2.232-.759-3.316-1.173a.437.437,0,0,1-.253-.564h0a.438.438,0,0,1,.565-.253h0c1.07.409,2.172.8,3.275,1.159a.436.436,0,0,1,.28.551h0a.437.437,0,0,1-.415.3Z" transform="translate(-103.998 -137.48)" fill="#fff"/>
      </g>
    </g>
    <g id="Group_5028" data-name="Group 5028" transform="translate(249.861 167.16)">
      <g id="Group_5022" data-name="Group 5022" transform="translate(0 0)">
        <rect id="Rectangle_1204" data-name="Rectangle 1204" width="77.218" height="37.832" rx="7.81" transform="translate(0.436 0.435)" fill="#b5d333" opacity="0.3" style="isolation: isolate"/>
        <path id="Path_19887" data-name="Path 19887" d="M285.577,178.473H214.845a3.686,3.686,0,0,1-3.68-3.679V143.448a3.686,3.686,0,0,1,3.68-3.68h70.732a3.686,3.686,0,0,1,3.678,3.68v31.347A3.686,3.686,0,0,1,285.577,178.473ZM214.845,140.64a2.808,2.808,0,0,0-2.806,2.806v31.347a2.808,2.808,0,0,0,2.806,2.806h70.732a2.809,2.809,0,0,0,2.806-2.806V143.445a2.81,2.81,0,0,0-2.806-2.806Z" transform="translate(-211.165 -139.768)"/>
      </g>
      <g id="Group_5023" data-name="Group 5023" transform="translate(2.567 2.095)">
        <path id="Path_19888" data-name="Path 19888" d="M285.651,144.811H213.61a.437.437,0,0,1-.437-.437h0a.437.437,0,0,1,.437-.437h72.041a.437.437,0,0,1,.437.437h0a.438.438,0,0,1-.437.437Z" transform="translate(-213.173 -140.703)" fill="#fff"/>
        <path id="Path_19889" data-name="Path 19889" d="M216.39,142.239a.832.832,0,0,1-.832.831h0a.831.831,0,0,1-.832-.831h0a.831.831,0,0,1,.832-.832h0a.832.832,0,0,1,.832.83Z" transform="translate(-212.741 -141.407)" fill="#fff"/>
        <path id="Path_19890" data-name="Path 19890" d="M218.992,142.239a.83.83,0,0,1-.83.831h0a.831.831,0,0,1,0-1.663h0a.831.831,0,0,1,.832.83Z" transform="translate(-212.017 -141.407)" fill="#fff"/>
        <path id="Path_19891" data-name="Path 19891" d="M221.594,142.239a.831.831,0,0,1-.832.831h0a.831.831,0,0,1-.831-.831h0a.831.831,0,0,1,.831-.832h0a.831.831,0,0,1,.832.832Z" transform="translate(-211.293 -141.407)" fill="#fff"/>
        <path id="Path_19892" data-name="Path 19892" d="M270.972,142.488h-4.589a.437.437,0,0,1-.437-.436h0a.437.437,0,0,1,.437-.437h4.587a.437.437,0,0,1,.437.436h0A.436.436,0,0,1,270.972,142.488Z" transform="translate(-198.494 -141.349)" fill="#ccdbf0"/>
        <path id="Path_19893" data-name="Path 19893" d="M274.327,142.488H230.078a.437.437,0,0,1-.437-.436h0a.437.437,0,0,1,.437-.437h44.249a.437.437,0,0,1,.438.436h0a.437.437,0,0,1-.437.436Z" transform="translate(-208.592 -141.349)" fill="#fff"/>
        <path id="Path_19894" data-name="Path 19894" d="M226.947,142.488H222.9a.437.437,0,0,1-.437-.436h0a.437.437,0,0,1,.437-.437h4.048a.436.436,0,1,1,0,.873Z" transform="translate(-210.589 -141.349)" fill="#fff"/>
      </g>
      <g id="Group_5027" data-name="Group 5027" transform="translate(5.163 10.693)">
        <rect id="Rectangle_1205" data-name="Rectangle 1205" width="21.585" height="21.045" transform="translate(0 0.064)" fill="#fff"/>
        <g id="Group_5024" data-name="Group 5024" transform="translate(25.419)">
          <rect id="Rectangle_1206" data-name="Rectangle 1206" width="4.656" height="4.656" fill="#fff"/>
          <rect id="Rectangle_1207" data-name="Rectangle 1207" width="34.266" height="4.587" transform="translate(8.037 0.064)" fill="#fff"/>
        </g>
        <g id="Group_5025" data-name="Group 5025" transform="translate(25.419 8.331)">
          <rect id="Rectangle_1208" data-name="Rectangle 1208" width="4.656" height="4.656" fill="#ccdbf0"/>
          <rect id="Rectangle_1209" data-name="Rectangle 1209" width="34.266" height="4.587" transform="translate(8.037 0.097)" fill="#fff"/>
        </g>
        <g id="Group_5026" data-name="Group 5026" transform="translate(25.419 16.522)">
          <rect id="Rectangle_1210" data-name="Rectangle 1210" width="4.656" height="4.656" transform="translate(0 0.14)" fill="#ccdbf0"/>
          <rect id="Rectangle_1211" data-name="Rectangle 1211" width="34.266" height="4.587" transform="translate(8.037)" fill="#fff"/>
        </g>
      </g>
    </g>
    <g id="Group_5034" data-name="Group 5034" transform="translate(199.702 186.598)">
      <g id="Group_5029" data-name="Group 5029" transform="translate(0 0)">
        <path id="Path_19895" data-name="Path 19895" d="M278.012,215.769H174.37a2.087,2.087,0,0,1-2.1-2.071c0-.022,0-.043,0-.066l1.255-56.176a2.2,2.2,0,0,1,2.2-2.136H279.364a2.087,2.087,0,0,1,2.1,2.069c0,.023,0,.045,0,.066l-1.257,56.176A2.2,2.2,0,0,1,278.012,215.769Z" transform="translate(-171.827 -154.88)" fill="#fff"/>
        <path id="Path_19896" data-name="Path 19896" d="M278.108,216.3H174.465a2.533,2.533,0,0,1-1.825-.763,2.5,2.5,0,0,1-.717-1.821l1.256-56.176a2.645,2.645,0,0,1,2.636-2.565H279.457a2.535,2.535,0,0,1,1.824.763A2.5,2.5,0,0,1,282,157.56l-1.256,56.176A2.646,2.646,0,0,1,278.108,216.3ZM175.814,155.852a1.766,1.766,0,0,0-1.763,1.709L172.8,213.737a1.634,1.634,0,0,0,.467,1.191,1.66,1.66,0,0,0,1.2.5H278.105a1.765,1.765,0,0,0,1.761-1.705l1.257-56.176a1.633,1.633,0,0,0-.467-1.19,1.659,1.659,0,0,0-1.2-.5Z" transform="translate(-171.922 -154.976)"/>
      </g>
      <g id="Group_5030" data-name="Group 5030" transform="translate(5.12 14.733)" opacity="0.3">
        <path id="Path_19897" data-name="Path 19897" d="M195.21,204.428H185.5l.444-19.9h9.713Z" transform="translate(-173.266 -161.489)" fill="#ec1965"/>
        <path id="Path_19898" data-name="Path 19898" d="M185.641,203.3h-9.713l.327-14.709h9.713Z" transform="translate(-175.928 -160.359)" fill="#ec1965"/>
        <path id="Path_19899" data-name="Path 19899" d="M204.815,206.6H195.1l.666-29.9h9.713Z" transform="translate(-170.594 -163.665)" fill="#ec1965"/>
        <path id="Path_19900" data-name="Path 19900" d="M214.841,205.32h-9.713l.539-24h9.713Z" transform="translate(-167.806 -162.381)" fill="#ec1965"/>
        <path id="Path_19901" data-name="Path 19901" d="M224.868,207.5h-9.713l.758-34.007h9.713Z" transform="translate(-165.017 -164.559)" fill="#ec1965"/>
        <path id="Path_19902" data-name="Path 19902" d="M234.9,205.189h-9.713l.555-24.849h9.713Z" transform="translate(-162.227 -162.654)" fill="#ec1965"/>
        <path id="Path_19903" data-name="Path 19903" d="M245.14,207.29h-9.713l.771-34.5h9.713Z" transform="translate(-159.378 -164.753)" fill="#ec1965"/>
        <path id="Path_19904" data-name="Path 19904" d="M254.954,209.04h-9.713l.95-42.537H255.9Z" transform="translate(-156.648 -166.503)" fill="#ec1965"/>
      </g>
      <g id="Group_5033" data-name="Group 5033" transform="translate(9.063 2.391)">
        <path id="Path_19905" data-name="Path 19905" d="M181.649,187.024a.437.437,0,0,1-.243-.8h0l22.365-14.814a.44.44,0,0,1,.543.047l9.127,8.7,17.485-11.594a.437.437,0,0,1,.548.054l9.915,9.761,29.067-19.215a.437.437,0,0,1,.606.124h0a.437.437,0,0,1-.124.606h0l-29.362,19.41a.439.439,0,0,1-.548-.052l-9.915-9.761-17.48,11.589a.438.438,0,0,1-.543-.047l-9.127-8.7-22.073,14.625A.434.434,0,0,1,181.649,187.024Z" transform="translate(-178.401 -156.222)"/>
        <path id="Path_19906" data-name="Path 19906" d="M202.6,169.553a3.15,3.15,0,0,1-2.953,3.016,2.63,2.63,0,0,1-2.82-2.429,2.675,2.675,0,0,1-.005-.286,3.153,3.153,0,0,1,2.953-3.018,2.632,2.632,0,0,1,2.82,2.43A2.667,2.667,0,0,1,202.6,169.553Z" transform="translate(-174.06 -154.07)" fill="#ec1965" opacity="0.3" style="isolation: isolate"/>
        <path id="Path_19907" data-name="Path 19907" d="M223.79,167.239a3.152,3.152,0,0,1-2.953,3.018,2.628,2.628,0,0,1-2.825-2.715,3.151,3.151,0,0,1,2.954-3.018,2.627,2.627,0,0,1,2.823,2.715Z" transform="translate(-168.165 -154.713)" fill="#ec1965"/>
        <path id="Path_19908" data-name="Path 19908" d="M210.112,176.377a3.151,3.151,0,0,1-2.953,3.018,2.627,2.627,0,0,1-2.825-2.715,3.153,3.153,0,0,1,2.953-3.019,2.632,2.632,0,0,1,2.818,2.43A2.688,2.688,0,0,1,210.112,176.377Z" transform="translate(-171.97 -152.172)" fill="#ec1965" opacity="0.3" style="isolation: isolate"/>
        <g id="Group_5031" data-name="Group 5031" transform="translate(0 27.107)">
          <path id="Path_19909" data-name="Path 19909" d="M185.135,181.119a3.151,3.151,0,0,1-2.953,3.016,2.627,2.627,0,0,1-2.825-2.715,3.151,3.151,0,0,1,2.953-3.018,2.627,2.627,0,0,1,2.825,2.716Z" transform="translate(-178.917 -177.96)" fill="#ec1965"/>
          <path id="Path_19910" data-name="Path 19910" d="M182.12,184.672a3.064,3.064,0,0,1-3.106-3.166,3.6,3.6,0,0,1,3.368-3.445,3.116,3.116,0,0,1,2.361.864,3.068,3.068,0,0,1,.925,2.3,3.6,3.6,0,0,1-3.368,3.445C182.239,184.671,182.18,184.672,182.12,184.672Zm.441-5.741h-.133a2.708,2.708,0,0,0-2.538,2.591,2.2,2.2,0,0,0,.66,1.65,2.242,2.242,0,0,0,1.7.619,2.712,2.712,0,0,0,2.538-2.591,2.2,2.2,0,0,0-.66-1.65,2.232,2.232,0,0,0-1.571-.617Z" transform="translate(-179.013 -178.055)" fill="#ec1965"/>
        </g>
        <path id="Path_19911" data-name="Path 19911" d="M231.809,174.92a3.154,3.154,0,0,1-2.954,3.019,2.628,2.628,0,0,1-2.825-2.715,3.152,3.152,0,0,1,2.953-3.018,2.63,2.63,0,0,1,2.82,2.428A2.657,2.657,0,0,1,231.809,174.92Z" transform="translate(-165.935 -152.577)" fill="#ec1965" opacity="0.3" style="isolation: isolate"/>
        <g id="Group_5032" data-name="Group 5032" transform="translate(88.971)">
          <path id="Path_19912" data-name="Path 19912" d="M254.741,159.911a3.15,3.15,0,0,1-2.954,3.016,2.631,2.631,0,0,1-2.82-2.428,2.68,2.68,0,0,1-.005-.286,3.154,3.154,0,0,1,2.953-3.018,2.634,2.634,0,0,1,2.821,2.431A2.662,2.662,0,0,1,254.741,159.911Z" transform="translate(-248.527 -156.752)" fill="#ec1965"/>
          <path id="Path_19913" data-name="Path 19913" d="M251.728,163.464a3.094,3.094,0,0,1-2.179-.869,3.057,3.057,0,0,1-.925-2.3,3.6,3.6,0,0,1,3.367-3.445,3.111,3.111,0,0,1,2.359.864,3.064,3.064,0,0,1,.925,2.3,3.6,3.6,0,0,1-3.367,3.445C251.844,163.463,251.785,163.464,251.728,163.464Zm.441-5.743h-.132a2.71,2.71,0,0,0-2.539,2.591,2.195,2.195,0,0,0,.658,1.65,2.247,2.247,0,0,0,1.705.619,2.711,2.711,0,0,0,2.538-2.591,2.2,2.2,0,0,0-.66-1.65,2.233,2.233,0,0,0-1.576-.617Z" transform="translate(-248.622 -156.847)"/>
        </g>
      </g>
    </g>
    <g id="Group_5049" data-name="Group 5049" transform="translate(198.726 76.863)">
      <g id="Group_5045" data-name="Group 5045" transform="translate(33.567)">
        <g id="Group_5038" data-name="Group 5038">
          <g id="Group_5035" data-name="Group 5035">
            <rect id="Rectangle_1212" data-name="Rectangle 1212" width="76.205" height="83.104" rx="11.362" transform="translate(0.437 0.432)" fill="#fff"/>
            <path id="Path_19914" data-name="Path 19914" d="M269.347,153.1H202.576a5.16,5.16,0,0,1-5.155-5.155V74.277a5.16,5.16,0,0,1,5.155-5.155h66.771a5.159,5.159,0,0,1,5.155,5.155v73.664A5.16,5.16,0,0,1,269.347,153.1Zm-66.771-83.1a4.285,4.285,0,0,0-4.281,4.281v73.666a4.286,4.286,0,0,0,4.281,4.281h66.771a4.285,4.285,0,0,0,4.281-4.281V74.272a4.285,4.285,0,0,0-4.281-4.281Z" transform="translate(-197.421 -69.122)"/>
          </g>
          <g id="Group_5037" data-name="Group 5037" transform="translate(3.75 2.852)">
            <path id="Path_19915" data-name="Path 19915" d="M269.558,76.049H200.792a.437.437,0,0,1-.437-.437h0a.437.437,0,0,1,.437-.437h68.766a.437.437,0,0,1,.437.436h0a.437.437,0,0,1-.437.437Z" transform="translate(-200.355 -70.29)"/>
            <g id="Group_5036" data-name="Group 5036" transform="translate(0.437)">
              <path id="Path_19916" data-name="Path 19916" d="M203.115,72.562a1.209,1.209,0,1,1-1.209-1.209A1.208,1.208,0,0,1,203.115,72.562Z" transform="translate(-200.697 -71.353)" fill="#9eb5de"/>
              <path id="Path_19917" data-name="Path 19917" d="M206.9,72.562a1.209,1.209,0,1,1-1.209-1.209A1.208,1.208,0,0,1,206.9,72.562Z" transform="translate(-199.644 -71.353)" fill="#9eb5de"/>
              <path id="Path_19918" data-name="Path 19918" d="M210.686,72.562a1.209,1.209,0,1,1-1.209-1.209A1.208,1.208,0,0,1,210.686,72.562Z" transform="translate(-198.591 -71.353)" fill="#9eb5de"/>
            </g>
            <path id="Path_19919" data-name="Path 19919" d="M256.076,72.833h-6.814a.438.438,0,0,1,0-.876h6.814a.437.437,0,0,1,.437.437h0a.437.437,0,0,1-.436.438Z" transform="translate(-186.872 -71.185)"/>
            <path id="Path_19920" data-name="Path 19920" d="M253.007,72.833H224.783a.437.437,0,0,1-.437-.437h0a.437.437,0,0,1,.437-.437h28.224a.437.437,0,0,1,.437.437h0a.438.438,0,0,1-.436.438Z" transform="translate(-193.682 -71.185)"/>
            <path id="Path_19921" data-name="Path 19921" d="M220.285,72.833h-6.011a.437.437,0,0,1-.437-.437h0a.437.437,0,0,1,.437-.437h6.011a.437.437,0,0,1,.437.437h0a.438.438,0,0,1-.436.438Z" transform="translate(-196.605 -71.185)"/>
          </g>
        </g>
        <g id="Group_5044" data-name="Group 5044" transform="translate(3.643 0.513)">
          <g id="Group_5042" data-name="Group 5042" transform="translate(0 13.041)">
            <g id="Group_5039" data-name="Group 5039" transform="translate(3.078)">
              <path id="Path_19922" data-name="Path 19922" d="M222.841,105.928a14.409,14.409,0,0,1,11.043-7.055l.331-18.8c-13.655.046-25.706,7.739-31.195,19.111Z" transform="translate(-202.584 -79.631)" fill="#b5d333"/>
              <path id="Path_19923" data-name="Path 19923" d="M222.936,106.46a.438.438,0,0,1-.141-.023l-19.82-6.75a.436.436,0,0,1-.252-.6c5.652-11.714,18.051-19.313,31.583-19.358a.48.48,0,0,1,.313.13.431.431,0,0,1,.125.314l-.33,18.8a.44.44,0,0,1-.392.428,13.941,13.941,0,0,0-10.708,6.837A.44.44,0,0,1,222.936,106.46Zm-19.208-7.44,19.011,6.474a14.82,14.82,0,0,1,10.809-6.916l.317-17.973C221.008,80.809,209.269,87.984,203.728,99.02Z" transform="translate(-202.679 -79.726)"/>
            </g>
            <path id="Path_19924" data-name="Path 19924" d="M217.893,85.1a.435.435,0,0,1-.164-.838,33.493,33.493,0,0,1,9.69-2.321.437.437,0,1,1,.075.87,32.608,32.608,0,0,0-9.434,2.262A.438.438,0,0,1,217.893,85.1Z" transform="translate(-195.491 -79.111)"/>
            <path id="Path_19925" data-name="Path 19925" d="M209.381,91.555a.43.43,0,0,1-.3-.125.435.435,0,0,1-.006-.617h0a32.159,32.159,0,0,1,8.051-5.973.436.436,0,1,1,.412.769,31.319,31.319,0,0,0-7.834,5.811A.44.44,0,0,1,209.381,91.555Z" transform="translate(-197.858 -78.318)"/>
            <g id="Group_5040" data-name="Group 5040" transform="translate(19.031 34.194)">
              <path id="Path_19926" data-name="Path 19926" d="M245.712,106.82a14.139,14.139,0,0,1-13.643,11.25,14.71,14.71,0,0,1-5.8-.987L215.5,133.748a35.272,35.272,0,0,0,16.566,3.025c17.193-.987,30.709-13.929,32.212-29.51Z" transform="translate(-215.066 -106.384)" fill="#b5d333"/>
              <path id="Path_19927" data-name="Path 19927" d="M230.1,137.366a35.778,35.778,0,0,1-14.684-3.124.437.437,0,0,1-.239-.275.432.432,0,0,1,.052-.358L226,116.943a.439.439,0,0,1,.525-.17,14.2,14.2,0,0,0,5.632.956,13.7,13.7,0,0,0,13.226-10.891.43.43,0,0,1,.44-.359l18.568.449a.449.449,0,0,1,.317.147.441.441,0,0,1,.107.332c-1.548,16.069-15.572,28.926-32.62,29.905Q231.146,137.366,230.1,137.366Zm-13.859-3.714a35.087,35.087,0,0,0,15.9,2.781c16.455-.945,30.019-13.224,31.751-28.649l-17.726-.424A14.605,14.605,0,0,1,232.177,118.6a15.092,15.092,0,0,1-5.642-.89Z" transform="translate(-215.16 -106.479)"/>
            </g>
            <path id="Path_19928" data-name="Path 19928" d="M229.187,129.094a32.947,32.947,0,0,1-10.559-1.713.437.437,0,0,1,.279-.828,32.086,32.086,0,0,0,10.28,1.667c.635,0,1.282-.019,1.916-.055a.436.436,0,0,1,.461.409v0a.437.437,0,0,1-.412.461C230.5,129.073,229.84,129.094,229.187,129.094Z" transform="translate(-195.248 -66.707)"/>
            <path id="Path_19929" data-name="Path 19929" d="M233.755,132.84a.438.438,0,0,1-.116-.86h0c11.253-3.068,19.943-12,22.139-22.753a.437.437,0,0,1,.856.175h0c-2.262,11.074-11.2,20.268-22.765,23.418A.444.444,0,0,1,233.755,132.84Z" transform="translate(-191.078 -71.617)"/>
            <g id="Group_5041" data-name="Group 5041" transform="translate(0 22.605)">
              <path id="Path_19930" data-name="Path 19930" d="M216.274,134.517,227.136,117.8a12.9,12.9,0,0,1-5.338-10.4,12.737,12.737,0,0,1,.359-2.99l-19.9-6.669a30.629,30.629,0,0,0-1.646,9.919A31.166,31.166,0,0,0,216.274,134.517Z" transform="translate(-200.175 -97.318)" fill="#b5d333"/>
              <path id="Path_19931" data-name="Path 19931" d="M216.369,135.05a.433.433,0,0,1-.222-.06,31.581,31.581,0,0,1-15.876-27.226,31.1,31.1,0,0,1,1.668-10.06.439.439,0,0,1,.553-.268l19.9,6.669a.438.438,0,0,1,.286.516,12.35,12.35,0,0,0,4.817,12.93.437.437,0,0,1,.106.591l-10.862,16.713A.438.438,0,0,1,216.369,135.05ZM202.629,98.4a30.264,30.264,0,0,0-1.485,9.365,30.687,30.687,0,0,0,15.089,26.257L226.641,118a13.216,13.216,0,0,1-4.908-13.2Z" transform="translate(-200.271 -97.412)"/>
            </g>
          </g>
          <g id="Group_5043" data-name="Group 5043" transform="translate(40.111)">
            <path id="Path_19932" data-name="Path 19932" d="M231.995,101a13.489,13.489,0,0,1,11.681,11.815l30.361.881v-.04c0-22.273-17.746-41.333-41.5-43.786Z" transform="translate(-231.558 -69.427)" fill="#ec1965"/>
            <path id="Path_19933" data-name="Path 19933" d="M274.128,114.227h-.009l-30.36-.881a.437.437,0,0,1-.423-.395,13.027,13.027,0,0,0-11.31-11.423.438.438,0,0,1-.372-.441l.543-31.135a.436.436,0,0,1,.482-.427,47.8,47.8,0,0,1,29.929,14.6,43.135,43.135,0,0,1,11.962,29.626.487.487,0,0,1-.132.332A.473.473,0,0,1,274.128,114.227Zm-29.968-1.745,29.529.856c-.215-21.961-17.577-40.286-40.63-42.889l-.53,30.275a13.9,13.9,0,0,1,11.634,11.758Z" transform="translate(-231.653 -69.523)"/>
          </g>
        </g>
      </g>
      <g id="Group_5048" data-name="Group 5048" transform="translate(0 32.404)">
        <rect id="Rectangle_1213" data-name="Rectangle 1213" width="46.829" height="59.891" rx="8.54" transform="translate(0.434 0.44)" fill="#fff"/>
        <g id="Group_5046" data-name="Group 5046" transform="translate(6.001 8.306)">
          <rect id="Rectangle_1214" data-name="Rectangle 1214" width="10.201" height="33.523" transform="translate(0 9.251)" fill="#ec1965" opacity="0.3" style="isolation: isolate"/>
          <rect id="Rectangle_1215" data-name="Rectangle 1215" width="10.201" height="42.773" transform="translate(12.747)" fill="#ec1965" opacity="0.3" style="isolation: isolate"/>
          <rect id="Rectangle_1216" data-name="Rectangle 1216" width="10.201" height="19.986" transform="translate(25.494 22.788)" fill="#b5d333" opacity="0.3" style="isolation: isolate"/>
        </g>
        <g id="Group_5047" data-name="Group 5047" transform="translate(7.498 6.735)">
          <path id="Path_19934" data-name="Path 19934" d="M177.462,129.054a.439.439,0,0,1-.437-.437v-21.2a.437.437,0,0,1,.437-.436h10.2a.437.437,0,0,1,.437.436h0v9.591a.437.437,0,0,1-.437.437h0a.437.437,0,0,1-.437-.437h0v-9.152H177.9v20.76A.438.438,0,0,1,177.462,129.054Z" transform="translate(-177.025 -97.729)"/>
          <path id="Path_19935" data-name="Path 19935" d="M197.637,138.3a.436.436,0,0,1-.437-.436h0V100.617h-9.328v30.1a.437.437,0,0,1-.436.437h0a.437.437,0,0,1-.437-.437h0V100.18a.438.438,0,0,1,.437-.437h10.2a.438.438,0,0,1,.437.437v37.685A.437.437,0,0,1,197.637,138.3Z" transform="translate(-174.251 -99.743)"/>
          <path id="Path_19936" data-name="Path 19936" d="M197.408,134.851a.437.437,0,0,1-.437-.437h0V118.005a.437.437,0,0,1,.436-.437h10.207a.438.438,0,0,1,.437.437h0v11.53a.438.438,0,0,1-.437.437h0a.437.437,0,0,1-.437-.437h0V118.442H197.85v15.972a.438.438,0,0,1-.438.437Z" transform="translate(-171.477 -94.785)"/>
        </g>
        <path id="Path_19937" data-name="Path 19937" d="M188.064,155.33a.437.437,0,0,1,0-.874h0l26.813-.089a3.111,3.111,0,0,0,3.11-3.109v-52.8a3.112,3.112,0,0,0-3.107-3.108H175.14a3.112,3.112,0,0,0-3.109,3.108v52.8a3.112,3.112,0,0,0,3.109,3.109h.38a.437.437,0,0,1,.437.437h0a.438.438,0,0,1-.437.437h-.378a3.988,3.988,0,0,1-3.983-3.984v-52.8a3.988,3.988,0,0,1,3.983-3.984H214.88a3.988,3.988,0,0,1,3.983,3.984v52.8a3.988,3.988,0,0,1-3.983,3.984l-26.813.089Z" transform="translate(-171.159 -94.474)"/>
      </g>
    </g>
    <g id="Group_6519" data-name="Group 6519" transform="translate(73.47 41.292)">
      <g id="Group_6518" data-name="Group 6518" clip-path="url(#clip-path)">
        <g id="Group_6517" data-name="Group 6517" transform="translate(85.977 113.246)">
          <path id="Path_21494" data-name="Path 21494" d="M183.528,156.575a14.329,14.329,0,0,1,.814-5.157c.923-2.192,4-6.042,5.187-6.025s1.467,1.011,1.058,2.1a27.725,27.725,0,0,1-2.089,3.566s6.044-2.873,6.56-3.132,4.4-1.435,4.4-1.435,2.983,1.518,2.753,3.832-4.688,5.641-5.449,6.74-4.722,2.146-4.722,2.146l-1.907,2.319Z" transform="translate(-128.44 -125.582)" fill="#f0af86"/>
          <path id="Path_21495" data-name="Path 21495" d="M155.269,150.807c1.961,2.15,19.93,16.487,21.92,19.906l15.83-17,6.77,6.335s-21.261,33.384-27.961,27.037-23.016-25.559-23.016-25.559Z" transform="translate(-138.096 -124.076)" fill="#ff0063"/>
          <g id="Group_6514" data-name="Group 6514" transform="translate(52.941 3.417)">
            <path id="Path_21496" data-name="Path 21496" d="M181.848,167.7l26.539,13.874,27.646-35.131-26.539-13.874Z" transform="translate(-181.848 -132.567)" fill="#30322f"/>
            <path id="Path_21497" data-name="Path 21497" d="M186.432,163.9l21.4,11.19,21.936-27.874-21.4-11.19Z" transform="translate(-180.573 -131.606)" fill="#fff"/>
            <path id="Path_21498" data-name="Path 21498" d="M204.534,156.884l3.408,1.782,6.322-8.033-3.408-1.782Z" transform="translate(-175.537 -128.037)" fill="#b5d333"/>
            <path id="Path_21499" data-name="Path 21499" d="M200.748,155.09l3.408,1.782,6.994-8.887-3.408-1.782Z" transform="translate(-176.591 -128.773)" fill="#b5d333"/>
            <path id="Path_21500" data-name="Path 21500" d="M197.175,154.164l3.408,1.782,10.4-13.216-3.408-1.782Z" transform="translate(-177.585 -130.235)" fill="#b5d333"/>
            <path id="Path_21501" data-name="Path 21501" d="M199.756,158.062l6.044,3.16,2-2.539-6.044-3.16Z" transform="translate(-176.867 -126.181)" fill="#ff0063"/>
            <path id="Path_21502" data-name="Path 21502" d="M192.111,155.561l14.552,7.608,1-1.27-14.552-7.608Z" transform="translate(-178.993 -126.524)" fill="#111c4e"/>
            <path id="Path_21503" data-name="Path 21503" d="M190.785,157.246l14.552,7.608,1-1.27-14.552-7.608Z" transform="translate(-179.362 -126.055)" fill="#111c4e"/>
          </g>
          <path id="Path_21504" data-name="Path 21504" d="M202.027,172.589a14.35,14.35,0,0,1,0-5.221c.57-2.31,3.013-6.594,4.185-6.761s1.605.771,1.371,1.908a27.741,27.741,0,0,1-1.506,3.849s5.522-3.782,5.991-4.117a28.679,28.679,0,0,0,2.3-2.8,2.9,2.9,0,0,1,2.509,2.63,30.2,30.2,0,0,1-1.7,8.924c-.58,1.205-4.328,2.857-4.328,2.857l-1.522,2.588Z" transform="translate(-123.364 -121.671)" fill="#f0af86"/>
          <path id="Path_21505" data-name="Path 21505" d="M151.157,299.042c-.334,7.018-.635,12.4-.635,12.4l.847.286V311.2a11.557,11.557,0,0,0,1.812-.772c.665-10.335,4.488-44.605,6.951-66.2,0,0-13.721-10.788-17.078-17.345.121.541,8.013,35.128,8.8,40.8C152.348,271.258,151.707,287.4,151.157,299.042Z" transform="translate(-139.697 -102.914)" fill="url(#linear-gradient)"/>
          <path id="Path_21506" data-name="Path 21506" d="M168.6,297.554s-1.364-.043-2.064-.153-1.913,2.4-1.963,3.53.568,3.753,1.343,4.222c0,0,13.272-.238,13.966-.281s6.552-.268,8.564-2.393.188-4.862-3.28-4.8c-3.443.065-8.575-.3-9.319-.381s-1.2,1.723-3.261,1.554S169.2,298.86,168.6,297.554Z" transform="translate(-133.713 -83.327)" fill="#1a2444"/>
          <path id="Path_21507" data-name="Path 21507" d="M174.863,287.45v14.205c0,1.044-1.862,1.892-4.158,1.892s-4.158-.847-4.158-1.892V287.45Z" transform="translate(-133.163 -86.067)" fill="#f0af86"/>
          <path id="Path_21508" data-name="Path 21508" d="M142.42,301.043s13.272-.238,13.965-.282,6.554-.267,8.566-2.394.188-4.862-3.28-4.8c-1.269.022-2.769-.009-4.192-.066-2.439-.1-4.66-.265-5.127-.314a.566.566,0,0,0-.385.114.357.357,0,0,1-.049.032c-.562.419-1.187,1.541-2.829,1.408-2.057-.169-3.387.006-3.985-1.3,0,0-.81-.026-1.5-.093-.207-.015-.4-.037-.562-.063-.7-.109-1.913,2.4-1.961,3.53S141.645,300.572,142.42,301.043Z" transform="translate(-140.248 -84.471)" fill="#1a2444"/>
          <path id="Path_21509" data-name="Path 21509" d="M143.053,283.339v14.2c0,1.045,1.862,1.89,4.16,1.89s4.157-.845,4.157-1.89v-14.2Z" transform="translate(-139.698 -87.21)" fill="#f0af86"/>
          <path id="Path_21510" data-name="Path 21510" d="M140.435,225.234c.032,1.065.952,2.66,2.385,4.514,5.313,6.87,17.646,17.285,17.646,17.285l.4,1.26c1.631,5.191,7.744,24.771,8.128,27.962.442,3.681,3.281,39.836,3.723,41.748a1.707,1.707,0,0,0,1.1,1.063c1.838.8,5.555.63,8.317-1.039.207-.123.41-.257.6-.4,0,0,6.31-41.317,6.387-51.719.028-3.907-1.529-26.046-2.469-39.064-.249-3.454-.458-6.268-.584-7.927-.073-1.051-.119-1.637-.119-1.637l-8.584-1-34.573-4.012s-.243.766-.57,1.971C141.492,216.924,140.333,221.78,140.435,225.234Z" transform="translate(-140.428 -106.978)" fill="#102968"/>
          <path id="Path_21511" data-name="Path 21511" d="M141.817,311.839a11,11,0,0,0,1.58.637,13.669,13.669,0,0,0,7.47.381c.279-.07.565-.15.847-.245a11.553,11.553,0,0,0,1.812-.772c.665-10.335,4.488-44.605,6.951-66.2,1.221-10.715,2.108-18.307,2.108-18.307l-20.218-5.524s.026,2.057.066,5.289c.13,10.638.414,34.008.414,38.639C142.847,271.776,141.817,311.839,141.817,311.839Z" transform="translate(-140.042 -104.326)" fill="#102968"/>
          <path id="Path_21512" data-name="Path 21512" d="M140.428,179.041l3.328,26.1s-2.814,19.831-2.945,23.8a4.337,4.337,0,0,0,1.409,2.775c3.819,4.185,15.1,9.6,29.873,9.7a26.494,26.494,0,0,0,7.456-1.521,24.027,24.027,0,0,0,6.517-3.5c.257-.2.387-.316.387-.316L184.222,221.3l.084-3.44.394-15.9.042-1.74v0l.05-2.069.02-.815.052-2.109.243-9.768.077-3.215.113-4.6.032-1.251.022-.842.109-4.379.046-1.862.087-3.572-.006,0v0l-.162-.1-4.4-2.74-5.01-2.74-.052-.028-1.982-1.083-1.949-1.067-1.384-.759-2.449-1.338-2.408-1.315-3.362-1.841-2.274-1.244-.555-.3-2.453-1.342-.183-.1-.056-.031-.4-.222-.046-.024-.042.024-.671.377-2.684,1.511-2,1.127-2.21,1.244-.193.109-1.722.97a12.758,12.758,0,0,0-5.263,5.643,12.682,12.682,0,0,0-1.241,5.481Z" transform="translate(-140.428 -124.452)" fill="#ff0063"/>
          <path id="Path_21513" data-name="Path 21513" d="M177.785,162.185c2.271,1.818,17.651,24.525,20.15,27.592l12.984-19.264,7.675,5.2s-15.792,36.293-23.4,31.07-26.721-21.656-26.721-21.656Z" transform="translate(-132.627 -120.911)" fill="#ff0063"/>
          <g id="Group_6516" data-name="Group 6516" transform="translate(10.064 0)">
            <g id="Group_6515" data-name="Group 6515">
              <path id="Path_21514" data-name="Path 21514" d="M167.122,145.752l1.89,15.978L152.3,158.894l2.834-14.2Z" transform="translate(-147.191 -125.776)" fill="#f0af86"/>
              <path id="Path_21515" data-name="Path 21515" d="M163.332,151.155l.643.867c-.013-.121-.024-.243-.032-.371v-12.77l5.582-1.608s.394,10.417.309,14.392-2.469,4.927-2.469,4.927l-4.144,2.261Z" transform="translate(-144.152 -127.84)" fill="#f0af86"/>
              <path id="Path_21516" data-name="Path 21516" d="M174.146,137.15h0a2.862,2.862,0,0,1-1.269,3.12,3.414,3.414,0,0,0-1.063.916c-.507.846.309,5.327-.479,6.342a37.59,37.59,0,0,0-2.367,4.4l-2.151,1.906s-5.067,4.544-7.518,4.659a8.651,8.651,0,0,1-4.64-1.36s-2.3-3.851-2.55-4.105-3.806-11.332-3.806-11.332l2.306-3.409c3.434-5.079,5.5-7.835,15.537-8.392l4.539,1.842C172.641,132.357,173.645,135.159,174.146,137.15Z" transform="translate(-148.302 -129.893)" fill="#251302"/>
            </g>
            <path id="Path_21517" data-name="Path 21517" d="M175.244,160.8l-6.217-4.9s-14.01,3.719-15.618-2.785l-2.647,2.365S150.147,164.7,175.244,160.8Z" transform="translate(-147.618 -123.433)" fill="#fff"/>
            <path id="Path_21518" data-name="Path 21518" d="M166.71,144.694s-.892-1.613-2.23-1.717-.876,3.919-.515,5.132,2.267.449,2.267.449Z" transform="translate(-144.051 -126.254)" fill="#f0af86"/>
          </g>
          <path id="Path_21519" data-name="Path 21519" d="M167.322,206.541a93.651,93.651,0,0,0,2.624,18.861,37.391,37.391,0,0,0,2.186,6.139,24.026,24.026,0,0,0,6.517-3.5c.257-.2.387-.316.387-.316L176.8,212.946l.084-3.44.394-15.9.042-1.74v0l.106-4.3-9.6-8.075s-.112,1.191-.249,3.239c-.049.717-.1,1.535-.151,2.449-.024.488-.052,1-.077,1.539-.056,1.157-.11,2.425-.152,3.777C167.058,195.118,167.019,200.755,167.322,206.541Z" transform="translate(-133.011 -116.096)" fill="#ff0063"/>
        </g>
      </g>
    </g>
  </g>
</svg>
