<svg xmlns="http://www.w3.org/2000/svg" width="237.796" height="255.818" viewBox="0 0 237.796 255.818">
  <g id="Group_6665" data-name="Group 6665" transform="translate(-323.501 -1882.304)">
    <path id="Path_21520" data-name="Path 21520" d="M363.671-2157.1a113.887,113.887,0,0,0-9.369,58.8c3.793,33.92,22.574,60.662,40.843,75.689,60.622,49.865,171.6,17.651,186.292-29.321,2.666-8.522,1.917-16.741.994-26.854-2.934-32.166-14.34-42.249-24.732-76.4-9.458-31.082-4.18-34.057-13.023-47.875-19.184-29.975-74.562-31.486-112.666-17.115C417.373-2214.66,381.857-2197.728,363.671-2157.1Z" transform="translate(-30.121 4121.8)" fill="#caddff" opacity="0.2"/>
    <g id="Group_6524" data-name="Group 6524" transform="translate(349.923 1882.307)">
      <rect id="Rectangle_1540" data-name="Rectangle 1540" width="36.815" height="42.784" transform="translate(169.364 54.425)" fill="#ff0063"/>
      <g id="Big_data_storage_1_" transform="translate(4.066 53.048)">
        <g id="Group_4791_1_" transform="translate(45.863 33.216)">
          <g id="Group_4786_1_" transform="translate(0 0)">
            <g id="Group_4784_1_">
              <g id="Group_4778_1_" transform="translate(69.876 20.451)">
                <path id="Path_19571_1_" d="M-63.2,42.193V20.049L-43.858,8.68V30.566Z" transform="translate(63.552 -8.331)" fill="#b5d333" opacity="0.3"/>
                <path id="Path_19572_1_" d="M-63.108,42.622a.417.417,0,0,1-.176-.041.336.336,0,0,1-.176-.3V20.14a.353.353,0,0,1,.176-.3L-43.942,8.473a.307.307,0,0,1,.338,0,.353.353,0,0,1,.176.3V30.657a.372.372,0,0,1-.162.3L-62.932,42.568A.3.3,0,0,1-63.108,42.622Zm.338-22.279V41.675L-44.1,30.481V9.38Z" transform="translate(63.46 -8.423)"/>
              </g>
              <path id="Path_19573_1_" d="M21.814,89.323,40.952,78.387,22.084,66.95,2.77,78.279Z" transform="translate(32.692 -3.609)" fill="#b5d333"/>
              <g id="Group_4779_1_" transform="translate(70.134 42.848)">
                <path id="Path_19574_1_" d="M-44.306,18.243-25.168,7.307-44.036-4.13-63.35,7.2Z" transform="translate(63.702 4.479)" fill="#ec1965"/>
                <path id="Path_19575_1_" d="M-44.214,18.673a.417.417,0,0,1-.176-.041L-63.434,7.588a.353.353,0,0,1-.176-.3.353.353,0,0,1,.176-.3L-44.12-4.337a.33.33,0,0,1,.352,0L-24.9,7.1a.34.34,0,0,1,.162.3.353.353,0,0,1-.176.3L-44.052,18.632A.289.289,0,0,1-44.214,18.673ZM-62.581,7.29l18.367,10.652L-25.766,7.4-43.957-3.633Z" transform="translate(63.61 4.387)"/>
              </g>
              <path id="Path_19576_1_" d="M49.371,50.715,68.5,61.949,50.25,72.56,31.044,61.313,11.8,72.642-23.15,52.271-3.795,41l16.472,9.732,1.895-1.137-.054-19.26L31.545,20.41,66.019,40.956Z" transform="translate(23.529 -20.061)" fill="#b6e000"/>
              <path id="Path_19577_1_" d="M4.72,46.933l16.31-9.569L4.734,27.93Z" transform="translate(33.381 -17.403)" fill="#b5d333" opacity="0.3"/>
              <path id="Path_19578_1_" d="M11.889,73.071a.417.417,0,0,1-.176-.041L-23.234,52.66a.353.353,0,0,1-.176-.3.353.353,0,0,1,.176-.3L-3.879,40.79a.33.33,0,0,1,.352,0l16.3,9.623,1.557-.934-.054-19.057a.353.353,0,0,1,.176-.3L31.475,20.2a.33.33,0,0,1,.352,0L66.3,40.749a.34.34,0,0,1,.162.3.353.353,0,0,1-.176.3L50.139,50.806,68.764,61.742a.34.34,0,0,1,0,.6L50.518,72.949a.33.33,0,0,1-.352,0L31.136,61.8,12.065,73.03A.417.417,0,0,1,11.889,73.071ZM-22.381,52.362,11.889,72.34,30.96,61.12a.33.33,0,0,1,.352,0l19.03,11.153L67.9,62.054,49.287,51.1a.34.34,0,0,1,0-.6l16.161-9.461L31.637,20.907l-16.675,9.7L15,49.669a.372.372,0,0,1-.162.3L12.945,51.1a.33.33,0,0,1-.352,0L-3.7,41.48Z" transform="translate(23.437 -20.153)"/>
              <g id="Group_4780_1_" transform="translate(54.058 41.565)">
                <path id="Path_19579_1_" d="M-54.15,85.444V40.832l19.5-11.356-.135-22.265L-16.55-3.4l.135,22.184L.031,9.364v44.53Z" transform="translate(54.502 3.735)" fill="#ec1965" opacity="0.3"/>
                <path id="Path_19580_1_" d="M-54.058,85.883a.417.417,0,0,1-.176-.041.353.353,0,0,1-.176-.3V40.92a.353.353,0,0,1,.176-.3l19.328-11.248-.135-22.062a.336.336,0,0,1,.176-.3L-16.634-3.6a.307.307,0,0,1,.338,0,.336.336,0,0,1,.176.3L-16,18.3-.067,9.18a.307.307,0,0,1,.338,0,.353.353,0,0,1,.176.3v44.53a.353.353,0,0,1-.176.3L-53.909,85.843A.329.329,0,0,1-54.058,85.883Zm.352-44.774V84.936L-.2,53.792V10.047l-15.931,9.123a.307.307,0,0,1-.338,0,.336.336,0,0,1-.176-.3l-.122-21.588L-34.324,7.5l.135,22.062a.336.336,0,0,1-.176.3Z" transform="translate(54.41 3.647)"/>
              </g>
              <g id="Group_4781_1_" transform="translate(0 31.738)">
                <path id="Path_19581_1_" d="M30.862,100.809V56.062L11.629,44.882l.027-22.373-.081-.054L-23.17,2.22V69.34Z" transform="translate(23.522 -1.871)" fill="#b5d333" opacity="0.3"/>
                <path id="Path_19582_1_" d="M30.954,101.252a.417.417,0,0,1-.176-.041L-23.254,69.729a.353.353,0,0,1-.176-.3V2.311a.353.353,0,0,1,.176-.3.307.307,0,0,1,.338,0L11.923,22.3a.353.353,0,0,1,.176.3l-.027,22.17L31.13,55.856a.353.353,0,0,1,.176.3V100.9a.353.353,0,0,1-.176.3A.272.272,0,0,1,30.954,101.252ZM-22.74,69.242,30.615,100.3V56.356L11.558,45.271a.353.353,0,0,1-.176-.3l.027-22.17L-22.74,2.907Z" transform="translate(23.43 -1.962)"/>
              </g>
              <g id="Group_4782_1_" transform="translate(34.873 40.892)">
                <path id="Path_19583_1_" d="M-43.15,30.483V8.339L-23.808-3.03V18.856Z" transform="translate(43.502 3.379)" fill="#b5d333" opacity="0.3"/>
                <path id="Path_19584_1_" d="M-43.058,30.912a.417.417,0,0,1-.176-.041.336.336,0,0,1-.176-.3V8.43a.353.353,0,0,1,.176-.3L-23.892-3.237a.307.307,0,0,1,.338,0,.353.353,0,0,1,.176.3V18.947a.372.372,0,0,1-.162.3L-42.882,30.858A.272.272,0,0,1-43.058,30.912Zm.338-22.279V29.965l18.665-11.207V-2.33Z" transform="translate(43.41 3.287)"/>
              </g>
              <g id="Group_4783_1_" transform="translate(54.317 41.068)">
                <path id="Path_19585_1_" d="M-35.084,30.244V8.1L-54.29-3.12V18.834Z" transform="translate(54.628 3.469)" fill="#b5d333" opacity="0.3"/>
                <path id="Path_19586_1_" d="M-35,30.673a.272.272,0,0,1-.176-.054l-19.206-11.41a.34.34,0,0,1-.162-.3V-3.029a.353.353,0,0,1,.176-.3.307.307,0,0,1,.338,0L-34.819,7.907a.353.353,0,0,1,.176.3v22.13a.336.336,0,0,1-.176.3A.375.375,0,0,1-35,30.673ZM-53.85,18.735l18.516,11V8.395L-53.85-2.433Z" transform="translate(54.54 3.377)"/>
              </g>
            </g>
            <g id="Group_4785_1_" transform="translate(0.031 9.948)">
              <path id="Path_19587_1_" d="M30.613,95.757a.417.417,0,0,1-.176-.041L-23.256,64.478A.35.35,0,0,1-23.378,64h0a.35.35,0,0,1,.474-.122L30.8,95.121a.35.35,0,0,1,.122.474h0A.419.419,0,0,1,30.613,95.757Z" transform="translate(23.424 3.014)"/>
              <path id="Path_19588_1_" d="M30.9,79.246a.417.417,0,0,1-.176-.041L-23.256,47.818a.35.35,0,0,1-.122-.474.35.35,0,0,1,.474-.122h0L31.087,78.6a.35.35,0,0,1,.122.474A.375.375,0,0,1,30.9,79.246Z" transform="translate(23.424 -2.875)"/>
              <path id="Path_19589_1_" d="M2.608,112.836a.335.335,0,0,1-.338-.338h0V45.918a.335.335,0,0,1,.338-.338h0a.335.335,0,0,1,.338.338h0V112.5a.32.32,0,0,1-.338.338Z" transform="translate(32.507 -3.439)"/>
              <path id="Path_19590_1_" d="M-10.922,105.116a.335.335,0,0,1-.338-.338h0V37.968a.335.335,0,0,1,.338-.338h0a.335.335,0,0,1,.338.338h0v66.809a.327.327,0,0,1-.338.338Z" transform="translate(27.725 -6.25)"/>
              <path id="Path_19591_1_" d="M17.2,95.768a.35.35,0,0,1-.176-.65h0L70.69,63.852a.35.35,0,0,1,.474.122h0a.35.35,0,0,1-.122.474h0L17.376,95.714A.3.3,0,0,1,17.2,95.768Z" transform="translate(37.664 3.003)"/>
              <path id="Path_19592_1_" d="M16.88,79.388a.35.35,0,0,1-.176-.65L70.8,47.2a.35.35,0,0,1,.474.122h0a.35.35,0,0,1-.122.474h0l-54.1,31.537A.3.3,0,0,1,16.88,79.388Z" transform="translate(37.55 -2.882)"/>
              <path id="Path_19593_1_" d="M31.2,112.74a.335.335,0,0,1-.338-.338h0V46.188a.335.335,0,0,1,.338-.338h0a.335.335,0,0,1,.338.338V112.4a.335.335,0,0,1-.338.338Z" transform="translate(42.614 -3.344)"/>
              <path id="Path_19594_1_" d="M44.728,105.034a.335.335,0,0,1-.338-.338V38.2a.338.338,0,0,1,.677,0h0v66.484a.331.331,0,0,1-.338.352Z" transform="translate(47.397 -6.168)"/>
              <path id="Path_19595_1_" d="M45.068,54.395a.417.417,0,0,1-.176-.041L-8.9,23.048a.35.35,0,0,1-.122-.474h0a.35.35,0,0,1,.474-.122h0L45.244,53.759a.35.35,0,0,1,.122.474h0A.372.372,0,0,1,45.068,54.395Z" transform="translate(28.501 -11.632)"/>
              <path id="Path_19596_1_" d="M2.95,54.4a.35.35,0,0,1-.176-.65h0L56.562,22.442a.35.35,0,0,1,.474.122h0a.35.35,0,0,1-.122.474h0l-53.8,31.32A.36.36,0,0,1,2.95,54.4Z" transform="translate(32.626 -11.635)"/>
              <path id="Path_19597_1_" d="M-10.59,46.448a.353.353,0,0,1-.3-.176.35.35,0,0,1,.122-.474h0L43.022,14.492a.35.35,0,0,1,.474.122h0a.35.35,0,0,1-.122.474h0L-10.414,46.394A.272.272,0,0,1-10.59,46.448Z" transform="translate(27.84 -14.446)"/>
              <path id="Path_19598_1_" d="M58.6,46.615a.417.417,0,0,1-.176-.041L4.634,15.268a.35.35,0,0,1-.122-.474h0a.35.35,0,0,1,.474-.122h0L58.774,45.979a.35.35,0,0,1,.122.474h0A.372.372,0,0,1,58.6,46.615Z" transform="translate(33.284 -14.382)"/>
            </g>
          </g>
          <g id="Group_4790_1_" transform="translate(39.372 48.403)">
            <g id="Group_4787_1_" transform="translate(0 0)">
              <path id="Path_19599_1_" d="M-7.971,3.806-26.852,14.783-45.72,3.792-26.636-7.32Z" transform="translate(46.072 7.655)" fill="#ec1965"/>
              <path id="Path_19600_1_" d="M-26.76,15.222a.417.417,0,0,1-.176-.041L-45.8,4.191a.353.353,0,0,1-.176-.3.353.353,0,0,1,.176-.3L-26.72-7.517a.33.33,0,0,1,.352,0L-7.7,3.609a.34.34,0,0,1,.162.3.353.353,0,0,1-.176.3L-26.6,15.181A.714.714,0,0,1-26.76,15.222ZM-44.951,3.88l18.191,10.6,18.2-10.584L-26.544-6.826Z" transform="translate(45.98 7.567)"/>
            </g>
            <g id="Group_4788_1_" transform="translate(18.861 11.078)">
              <path id="Path_19601_1_" d="M-56.54,19.586V-2.747L-37.577-13.67V8.392Z" transform="translate(56.892 14.019)" fill="#b5d333" opacity="0.3"/>
              <path id="Path_19602_1_" d="M-56.448,20.015a.417.417,0,0,1-.176-.041.353.353,0,0,1-.176-.3V-2.656a.353.353,0,0,1,.176-.3l18.963-10.923a.307.307,0,0,1,.338,0,.353.353,0,0,1,.176.3V8.483a.372.372,0,0,1-.162.3l-18.963,11.18A.272.272,0,0,1-56.448,20.015ZM-56.1-2.453V19.068L-37.824,8.294V-12.983Z" transform="translate(56.8 13.927)"/>
            </g>
            <g id="Group_4789_1_" transform="translate(0.084 11.054)">
              <path id="Path_19603_1_" d="M-26.973,19.6V-2.724L-45.76-13.66V8.47Z" transform="translate(46.112 14.022)" fill="#fff"/>
              <path id="Path_19604_1_" d="M-26.881,20.042a.272.272,0,0,1-.176-.054l-18.8-11.126a.34.34,0,0,1-.162-.3V-13.579a.353.353,0,0,1,.176-.3.307.307,0,0,1,.338,0L-26.719-2.94a.353.353,0,0,1,.176.3V19.677a.336.336,0,0,1-.176.3A.214.214,0,0,1-26.881,20.042ZM-45.33,8.375l18.11,10.72V-2.426L-45.33-12.97Z" transform="translate(46.02 13.927)"/>
            </g>
          </g>
        </g>
        <g id="Group_4792_1_" transform="translate(0 145.354)">
          <path id="Path_19605_1_" d="M22.107-44.047a.33.33,0,0,1,.352,0l18.624,11.1a.34.34,0,0,1,.162.3.353.353,0,0,1-.176.3L22.188-21.376a.384.384,0,0,1-.176.054.417.417,0,0,1-.176-.041L3.036-32.339a.353.353,0,0,1-.176-.3.353.353,0,0,1,.176-.3m.853.3L22.026-22.066,40.23-32.65,22.283-43.356" transform="translate(-2.86 44.097)" fill="#20225a"/>
          <path id="Path_19606_1_" d="M17.112-2a.417.417,0,0,1-.176-.041.353.353,0,0,1-.176-.3V-24.667a.353.353,0,0,1,.176-.3L35.817-35.847a.307.307,0,0,1,.338,0,.353.353,0,0,1,.176.3v22.076a.372.372,0,0,1-.162.3L17.288-2.036A.375.375,0,0,1,17.112-2Zm.352-22.468V-2.943L35.655-13.676V-34.953Z" transform="translate(2.054 46.996)" fill="#20225a"/>
          <path id="Path_19607_1_" d="M22.015-2.017a.272.272,0,0,1-.176-.054L3.052-13.2a.34.34,0,0,1-.162-.3V-35.489a.353.353,0,0,1,.176-.3.307.307,0,0,1,.338,0l18.787,10.8a.353.353,0,0,1,.176.3V-2.369a.336.336,0,0,1-.176.3A.272.272,0,0,1,22.015-2.017ZM3.567-13.684l18.11,10.72V-24.485L3.567-34.893Z" transform="translate(-2.849 47.017)" fill="#20225a"/>
        </g>
        <g id="Group_4793_1_" transform="translate(71.301 142.344)">
          <path id="Path_19608_1_" d="M-18.834-19.6a.417.417,0,0,1-.176-.041L-37.838-30.609a.372.372,0,0,1-.162-.3.353.353,0,0,1,.176-.3L-18.74-42.317a.33.33,0,0,1,.352,0L.236-31.218a.34.34,0,0,1,.162.3.353.353,0,0,1-.176.3L-18.658-19.646A.375.375,0,0,1-18.834-19.6Z" transform="translate(38 42.367)" fill="#20225a"/>
          <path id="Path_19609_1_" d="M-23.738-.269a.417.417,0,0,1-.176-.041.353.353,0,0,1-.176-.3V-22.927a.353.353,0,0,1,.176-.3L-5.033-34.107a.307.307,0,0,1,.338,0,.353.353,0,0,1,.176.3v22.062a.372.372,0,0,1-.162.3L-23.562-.323A.3.3,0,0,1-23.738-.269Zm.338-22.468V-1.217L-5.209-11.95V-33.227Z" transform="translate(42.917 45.27)" fill="#20225a"/>
          <path id="Path_19610_1_" d="M-18.835-.287a.272.272,0,0,1-.176-.054L-37.8-11.467a.34.34,0,0,1-.162-.3V-33.759a.353.353,0,0,1,.176-.3.307.307,0,0,1,.338,0l18.8,10.8a.353.353,0,0,1,.176.3V-.639a.336.336,0,0,1-.176.3A.408.408,0,0,1-18.835-.287ZM-37.283-11.954l18.11,10.72V-22.755l-18.11-10.408Z" transform="translate(38.014 45.287)" fill="#20225a"/>
        </g>
        <g id="Group_4794_1_" transform="translate(108.485 0)">
          <path id="Path_19611_1_" d="M-40.141,61.955a.417.417,0,0,1-.176-.041L-59.144,50.951a.353.353,0,0,1-.176-.3.353.353,0,0,1,.176-.3L-40.06,39.243a.33.33,0,0,1,.352,0l18.624,11.1a.34.34,0,0,1,.162.3.353.353,0,0,1-.176.3L-39.978,61.914A.289.289,0,0,1-40.141,61.955Zm-18.137-11.3,18.137,10.571,18.2-10.584L-39.884,39.947Z" transform="translate(59.32 -39.192)" fill="#20225a"/>
          <path id="Path_19612_1_" d="M-45.058,81.294a.417.417,0,0,1-.176-.041.353.353,0,0,1-.176-.3V58.623a.353.353,0,0,1,.176-.3l18.881-10.882a.307.307,0,0,1,.338,0,.353.353,0,0,1,.176.3V69.8a.372.372,0,0,1-.162.3L-44.882,81.24A.249.249,0,0,1-45.058,81.294Zm.352-22.468V80.347l18.191-10.733V48.337Z" transform="translate(64.237 -36.294)" fill="#20225a"/>
          <path id="Path_19613_1_" d="M-40.155,81.273a.272.272,0,0,1-.176-.054L-59.118,70.093a.34.34,0,0,1-.162-.3V47.8a.353.353,0,0,1,.176-.3.307.307,0,0,1,.338,0l18.787,10.8a.353.353,0,0,1,.176.3V80.921a.336.336,0,0,1-.176.3A.272.272,0,0,1-40.155,81.273ZM-58.6,69.606l18.11,10.72V58.8L-58.6,48.4Z" transform="translate(59.334 -36.273)" fill="#20225a"/>
        </g>
        <g id="Group_4837_1_" transform="translate(119.647 26.958)">
          <g id="Group_4831_1_" transform="translate(0 0)">
            <g id="Group_4828_1_">
              <g id="Group_4825_1_">
                <path id="Path_19662_1_" d="M-28.95,34.76-47.208,45.372-65.44,34.747-46.992,24Z" transform="translate(65.792 -23.651)" fill="#ec1965"/>
                <path id="Path_19663_1_" d="M-47.116,45.8a.417.417,0,0,1-.176-.041L-65.524,35.136a.353.353,0,0,1-.176-.3.353.353,0,0,1,.176-.3l18.448-10.747a.33.33,0,0,1,.352,0l18.042,10.76a.34.34,0,0,1,.162.3.353.353,0,0,1-.176.3L-46.954,45.761A.289.289,0,0,1-47.116,45.8ZM-64.671,34.838-47.116,45.07l17.582-10.219L-46.9,24.5Z" transform="translate(65.7 -23.743)"/>
              </g>
              <g id="Group_4826_1_" transform="translate(18.244 10.72)">
                <path id="Path_19664_1_" d="M-75.89,50.006V28.417L-57.564,17.86V39.191Z" transform="translate(76.242 -17.511)" fill="#ec1965" opacity="0.3"/>
                <path id="Path_19665_1_" d="M-75.8,50.435a.417.417,0,0,1-.176-.041.353.353,0,0,1-.176-.3V28.508a.353.353,0,0,1,.176-.3l18.326-10.557a.307.307,0,0,1,.338,0,.353.353,0,0,1,.176.3V39.282a.353.353,0,0,1-.176.3l-18.326,10.8A.332.332,0,0,1-75.8,50.435Zm.338-21.724V49.488l17.636-10.408V18.547Z" transform="translate(76.15 -17.602)"/>
              </g>
              <g id="Group_4827_1_" transform="translate(0.08 10.695)">
                <path id="Path_19666_1_" d="M-47.316,50.016V28.441L-65.48,17.87v21.4Z" transform="translate(65.832 -17.508)" fill="#fff"/>
                <path id="Path_19667_1_" d="M-47.238,50.462a.272.272,0,0,1-.176-.054l-18.164-10.76a.34.34,0,0,1-.162-.3v-21.4a.353.353,0,0,1,.176-.3.307.307,0,0,1,.338,0l18.164,10.571a.353.353,0,0,1,.176.3V50.1a.336.336,0,0,1-.176.3A.285.285,0,0,1-47.238,50.462ZM-65.05,39.16l17.474,10.354V28.738L-65.05,18.56Z" transform="translate(65.74 -17.603)"/>
              </g>
            </g>
          </g>
        </g>
      </g>
      <g id="Group_6523" data-name="Group 6523" transform="translate(0 -0.002)">
        <g id="XMLID_20_">
          <path id="XMLID_56_" d="M111.193,38.781s-.88-5.942-1.475-10.07S108.54,18,106.672,18.3s-1.475,3.384-.785,8.5c0,0-1.57-1.11-2.775-.027,0,0-1.746-.812-2.355.149a2.718,2.718,0,0,0-.393,1.908,1.008,1.008,0,0,0-1.421-.176c-.853.6-.46,2.26-.46,2.26s-.244,3.736.853,5.1a19.227,19.227,0,0,1,2.084,3.627l2.653.568Z" transform="translate(34.782 6.47)" fill="#f0af86"/>
          <path id="XMLID_55_" d="M135.733,132.121s1.15-.041,1.732-.122,1.611,2.017,1.651,2.964-.474,3.154-1.123,3.546c0,0-3.79.758-4.494.365-2.883-1.584-6.659-.568-7.255-.609s-5.509-.23-7.2-2.017-.162-4.088,2.761-4.033c2.9.054,7.2-.257,7.837-.325s1.015,1.448,2.734,1.313S135.232,133.217,135.733,132.121Z" transform="translate(41.833 46.626)" fill="#433d44"/>
          <path id="XMLID_54_" d="M126.96,124.08v11.938c0,.88,1.57,1.584,3.492,1.584s3.492-.717,3.492-1.584V124.08Z" transform="translate(44.881 43.866)" fill="#f0e986"/>
          <path id="XMLID_53_" d="M154.372,128.851s1.15-.041,1.732-.122,1.611,2.017,1.651,2.964-.474,3.154-1.123,3.546c0,0-3.79.758-4.494.365-2.883-1.584-6.659-.568-7.255-.609s-5.509-.23-7.2-2.017-.162-4.088,2.761-4.033c2.9.054,7.2-.257,7.837-.325s1.015,1.448,2.734,1.313C152.762,129.812,153.872,129.961,154.372,128.851Z" transform="translate(48.423 45.47)" fill="#1a2444"/>
          <path id="XMLID_52_" d="M145.6,120.82v11.938c0,.88,1.57,1.584,3.492,1.584s3.492-.717,3.492-1.584V120.82Z" transform="translate(51.47 42.713)" fill="#f0af86"/>
          <path id="XMLID_51_" d="M163.54,75.323c-.027.893-.8,2.233-2,3.79C157.07,84.892,146.7,93.636,146.7,93.636s-.122.379-.338,1.056c-1.367,4.358-6.51,20.817-6.835,23.5-.365,3.1-2.761,33.486-3.127,35.083a1.433,1.433,0,0,1-.92.893,8.656,8.656,0,0,1-6.984-.88c-.176-.108-.352-.217-.514-.338,0,0-5.306-34.717-5.373-43.461-.027-3.289,1.286-21.886,2.071-32.836.2-2.9.379-5.265.487-6.659.068-.88.095-1.381.095-1.381l7.214-.839,29.06-3.37s.2.65.474,1.651A36.472,36.472,0,0,1,163.54,75.323Z" transform="translate(43.343 22.769)" fill="#111c4e"/>
          <path id="XMLID_50_" d="M155.846,71.99s-.406,31.848-.406,36.924.866,38.751.866,38.751-4.927,2.6-9.84,0c-.839-12.994-7.607-71.018-7.607-71.018Z" transform="translate(49.087 25.452)" fill="#111c4e"/>
          <path id="XMLID_49_" d="M162.953,39.434l-2.8,21.94s2.369,16.662,2.477,20a3.619,3.619,0,0,1-1.178,2.328c-3.208,3.519-12.682,8.067-25.107,8.148a22.386,22.386,0,0,1-6.267-1.272,20.23,20.23,0,0,1-5.482-2.951,3.316,3.316,0,0,1-.325-.271l1.881-12.412-.068-2.9-.325-13.359-.041-1.462h0l-.041-1.732-.014-.69-.041-1.773-.2-8.2-.068-2.707-.095-3.871-.027-1.056-.014-.7-.095-3.682-.041-1.57-.068-3h0l.135-.081,3.7-2.3,4.209-2.3.041-.027,1.665-.907,1.638-.893,1.164-.636,2.057-1.123,2.017-1.11,2.829-1.543,1.908-1.042.46-.257,2.057-1.123.149-.081.041-.027.338-.189.041-.027.041.027.568.311,2.26,1.272,1.678.947,1.854,1.042.162.095,1.448.812a10.508,10.508,0,0,1,1.936,1.394,10.783,10.783,0,0,1,3.533,7.959v11Z" transform="translate(43.93 5.154)" fill="#ff0063"/>
          <g id="XMLID_42_" transform="translate(175.211)">
            <g id="XMLID_45_" transform="translate(1.029)">
              <path id="XMLID_48_" d="M134.647,11.683l-1.6,13.427L147.1,22.728,144.717,10.79Z" transform="translate(-129.206 3.818)" fill="#ffa681"/>
              <path id="XMLID_47_" d="M136.121,16.567l-.541.731c.014-.108.014-.2.027-.311V6.254L130.91,4.9s-.325,8.757-.257,12.1,2.071,4.142,2.071,4.142l3.479,1.895Z" transform="translate(-130.057 1.735)" fill="#ffa681"/>
              <path id="XMLID_46_" d="M130.21,1.449V6.633a7.365,7.365,0,0,1,2.423,1.57c.42.7-.257,4.48.406,5.333a31.528,31.528,0,0,1,1.99,3.7l1.6.162s.623-1.448.839-1.232,3.627,6.483,5.685,6.578a7.334,7.334,0,0,0,3.9-1.137s1.936-3.235,2.139-3.451,3.194-9.529,3.194-9.529l-1.935-2.869A13.106,13.106,0,0,0,137.356.19Z" transform="translate(-130.21 0.002)" fill="#251302"/>
            </g>
            <path id="XMLID_44_" d="M129.45,23.936l5.225-4.115S146.45,22.948,147.8,17.48l2.22,1.99C150.023,19.456,150.538,27.2,129.45,23.936Z" transform="translate(-129.45 6.183)" fill="#fff"/>
            <path id="XMLID_43_" d="M132.53,10.869s.744-1.354,1.881-1.448.731,3.289.433,4.318-1.908.379-1.908.379Z" transform="translate(-128.361 3.333)" fill="#ffa681"/>
          </g>
          <path id="XMLID_41_" d="M134.123,61.139a79.083,79.083,0,0,1-2.206,15.85,31.036,31.036,0,0,1-1.841,5.157,20.23,20.23,0,0,1-5.482-2.951,3.316,3.316,0,0,1-.325-.271l1.881-12.412-.068-2.9-.325-13.359-.041-1.462-.068-2.883L133.7,38.4s.095,1,.2,2.721c.041.6.081,1.286.122,2.057.027.406.041.839.068,1.3.041.975.095,2.044.122,3.181C134.34,51.543,134.367,56.28,134.123,61.139Z" transform="translate(43.93 13.578)" fill="#ff0063"/>
          <path id="XMLID_40_" d="M146.825,34.926s-15.944,22.807-27.882,28.112c-6.186,2.125-18.313-25.622-18.313-25.622l9.772-.88s7.119,11.721,8.175,11.721S133.344,24.68,133.344,24.68Z" transform="translate(35.573 8.728)" fill="#ff0063"/>
          <path id="XMLID_39_" d="M155.333,75.27s-9.177,11.451-15.213,15.173c.582,5.116,3.451,30.968,3.451,30.968S144.587,93.867,155.333,75.27Z" transform="translate(49.533 26.611)" fill="#111c4e"/>
          <g id="Group_6521" data-name="Group 6521" transform="translate(0 21.562)">
            <g id="XMLID_36_" transform="translate(10.653 160.541)">
              <path id="XMLID_38_" d="M8.411,138.725a45.246,45.246,0,0,0-.528,5.319c.108,1,2,1.57,3.018,2.017s1.99.176,2.707.447,2.856,3.3,6.578,4.25,5.062.839,5.563-.947-8.121-8.784-8.933-9.623a12.138,12.138,0,0,0-3.79-2.5C12.242,137.56,9.372,137.6,8.411,138.725Z" transform="translate(-7.871 -133.446)" fill="#1a2444"/>
              <path id="XMLID_37_" d="M14.131,140.414V134.54H8.46v5.874a1.414,1.414,0,0,0,.826,1.164,4.444,4.444,0,0,0,4.006,0A1.433,1.433,0,0,0,14.131,140.414Z" transform="translate(-7.663 -134.54)" fill="#efb387"/>
            </g>
            <g id="XMLID_33_" transform="translate(32.715 139.86)">
              <path id="XMLID_35_" d="M24.711,123.446a45.246,45.246,0,0,0-.528,5.319c.108,1,2,1.57,3.018,2.017s1.99.176,2.707.447,2.856,3.3,6.578,4.25,5.062.839,5.563-.947-8.121-8.784-8.933-9.623a12.138,12.138,0,0,0-3.79-2.5C28.542,122.268,25.659,122.323,24.711,123.446Z" transform="translate(-24.171 -118.167)" fill="#1a2444"/>
              <path id="XMLID_34_" d="M30.421,125.134V119.26H24.75v5.874a1.414,1.414,0,0,0,.826,1.164,4.444,4.444,0,0,0,4.006,0A1.405,1.405,0,0,0,30.421,125.134Z" transform="translate(-23.966 -119.26)" fill="#efb387"/>
            </g>
            <path id="XMLID_32_" d="M5.907,73.79s-1.1,8.432,0,12.506L6.9,89.179s1.1,64.914,1.286,68.189,6.551,2.585,7.837.8,4.561-36.436,5.955-42.987S25.75,94.837,25.75,94.837l8.243-20.343Z" transform="translate(1.916 4.526)" fill="#1a2444"/>
            <path id="XMLID_31_" d="M20.19,83.274l4.67,55.494s3.966,2.978,8.04.5c1.286-15.281,6.348-67.594,6.348-67.594L21.679,68.9Z" transform="translate(7.137 2.797)" fill="#1a2444"/>
            <path id="XMLID_30_" d="M32.142,28.63,49.223,56.58l19.693,14.9-3.817,7.3L40.71,65.594,25.74,41.2Z" transform="translate(9.099 -11.438)" fill="#b6e000"/>
            <path id="XMLID_29_" d="M3.99,43.478c2.342-3.83,8.405-8.216,11.992-9.948s14.889-6.862,18.665-7.35,6.118,4.142,7.3,7.728,1.57,30.928,1.57,36.585,1.381,14.983,1.475,16.364S30.532,97.78,17.972,96.575A26.384,26.384,0,0,1,6.345,91.892Z" transform="translate(1.41 -12.318)" fill="#b6e000"/>
            <g id="XMLID_25_" transform="translate(14.076)">
              <path id="XMLID_28_" d="M19.453,29.926c-1.218-.122-5.766-2.369-7.363-2.206l1.245,10.422c7.607,2.423,12.479-.907,12.479-.907l.568-6.064,1.15-3.682a5.378,5.378,0,0,1-.975,1.042C24.542,30.2,21.24,30.116,19.453,29.926Z" transform="translate(-9.803 -11.841)" fill="#ffa681"/>
              <path id="XMLID_27_" d="M27.863,32.252c.5-4.182.514-10.855.514-10.855s-14.415-3.059-17.068.541a49.751,49.751,0,0,1,1.381,6.943c.054.8.041,1.908.623,2.409,0,0,1.408,2.084,2.152,3.045a14.247,14.247,0,0,0,7.4,3.979A4.532,4.532,0,0,0,24.29,38.3C26.09,38.018,27.349,36.448,27.863,32.252Z" transform="translate(-10.078 -14.424)" fill="#ffa681"/>
              <path id="XMLID_26_" d="M11.537,21.087l-1.137,2.9,2.45,8.92.785-.095c.406-.907,1.651-3.045,1.651-3.045a9.112,9.112,0,0,1-.447-1.895l1.557-1.11,1.57,2.139,1.1-.717c-.189-1.326-.541-3.208-.582-3.465.014-.027,10.476.514,10.476.514a3.476,3.476,0,0,0,.176-4.345L24.287,16.54,20.145,16A8.111,8.111,0,0,0,11.537,21.087Z" transform="translate(-10.4 -15.928)" fill="#1a2444"/>
            </g>
            <path id="XMLID_24_" d="M9.637,36.31,5.4,39.883,0,78.106l.636,3.722L33.5,104.3l4.846-6.05L14.807,76.062,19.26,49.534Z" transform="translate(0 -8.723)" fill="#b6e000"/>
            <path id="XMLID_23_" d="M53.78,65.987l6.686,5.225a3.15,3.15,0,0,0,1.2.338l6.037.487a13.66,13.66,0,0,0,3.451-2.91h0a2.162,2.162,0,0,0-.961-2.951l-5.509-2.721.771-.42a.816.816,0,0,0,.2-1.286h0a4.019,4.019,0,0,0-3.885-1.11l-1.367.338-1.8-1.029Z" transform="translate(19.011 -0.367)" fill="#ffa681"/>
            <path id="XMLID_22_" d="M11.09,72.235,15.272,46.41s5.089,30.725,9.2,40.064l1.692.393Z" transform="translate(3.92 -5.153)" fill="#d3dd00"/>
            <path id="XMLID_21_" d="M24.75,88.12l6.686,5.225a3.15,3.15,0,0,0,1.2.338l6.037.474a13.66,13.66,0,0,0,3.451-2.91h0a2.162,2.162,0,0,0-.961-2.951l-5.509-2.721.771-.42a.816.816,0,0,0,.2-1.286h0a4.019,4.019,0,0,0-3.885-1.11l-1.367.338-1.8-1.029Z" transform="translate(8.749 7.453)" fill="#ffa681"/>
          </g>
        </g>
        <path id="Path_21521" data-name="Path 21521" d="M119.78,179.288s4.751,21.683,37.248,15.484h0s6.334-3.032,10.26-19.6h0l-27.1-10.544Z" transform="translate(42.343 58.2)" fill="#111c4e"/>
        <g id="Group_6522" data-name="Group 6522" transform="translate(120.914 142.714)">
          <path id="Path_21522" data-name="Path 21522" d="M140.515,140.839c.014.406.014.812.027,1.232-.271-.095-.541-.2-.812-.3.014-.379.041-.744.054-1.123C140.041,140.7,140.271,140.772,140.515,140.839Z" transform="translate(-71.519 -92.991)" fill="#040002"/>
          <g id="XMLID_16_" transform="translate(10.7 62.001)">
            <path id="XMLID_19_" d="M120.4,182.659s1.529-.054,2.314-.176.663,3.018.717,4.277a3.728,3.728,0,0,1-3.871,4.588c-3.424-.135-11.193-.46-11.8-.5-.772-.054-7.336-.3-9.583-2.68s-.217-5.441,3.668-5.373c3.857.068,9.6-.338,10.436-.433s1.354,1.935,3.654,1.746S119.735,184.12,120.4,182.659Z" transform="translate(-97.239 -140.249)" fill="#1a2444"/>
            <path id="XMLID_18_" d="M115.493,172.41l-7.065,14.252c-.514,1.042.92,2.829,3.235,3.966s5.076-.041,5.59-1.083l6.592-12.994Z" transform="translate(-93.321 -143.765)" fill="#f0af86"/>
            <path id="XMLID_17_" d="M163.941,164.069l-12.263,12.764L136.167,172.1,120.25,195.4s-7.336,3.384-11.41-5.2c2.775-10.436,8.067-30.44,15.809-37.871C129.873,147.313,164.307,161.145,163.941,164.069Z" transform="translate(-93.138 -151.246)" fill="#111c4e"/>
          </g>
          <path id="XMLID_15_" d="M166.708,154.923l-2.49,23.023s2.883,7.417,3.018,11.572c.027.812-1.651,1.435-2.639,2.518-3.993,4.372-14.889,5.576-30.318,5.685-3-.176-12.56-9.312-14.036-12.858-1.462-3.479,3.316-5.549,3.316-5.549l-.88-2.91-2.166-36.111,29.452-16.242,9.948,5.6a12.3,12.3,0,0,1,2.4,1.732,13.393,13.393,0,0,1,4.4,9.894Z" transform="translate(-78.506 -98.859)" fill="#ff0063"/>
          <path id="XMLID_14_" d="M97.463,140.847l-1.705-1.462a12.143,12.143,0,0,1-3-1.272c-.717-.609-1.922-3.181-2.22-3.573s-.812-.609-1.083-.947-.176-1.611,1.15-1.286a1.849,1.849,0,0,1,1.854-.731,1.86,1.86,0,0,1,1.732-.8,1.389,1.389,0,0,1,1.529-.311,10.134,10.134,0,0,1,3.059,2.788l-.365-.555a1.779,1.779,0,0,1,1.611.176,4.16,4.16,0,0,1,1.6,2.964,3.857,3.857,0,0,1-.379,1.678l.514.7Z" transform="translate(-89.334 -96.626)" fill="#f0af86"/>
          <path id="XMLID_13_" d="M138.917,156.274s-21.182,2.45-26.515.5C109,155.53,94.86,138.638,94.86,138.638l4.67-3.018,14.848,10.314,15.85-8.324s9.163,6.429,9.014,10.151Z" transform="translate(-87.38 -94.769)" fill="#ff0063"/>
          <path id="XMLID_12_" d="M156.1,146.833s-19.788-5.076-25.107-7.025c-3.4-1.245-18.936-10.611-18.936-10.611l2.152-5.157,18.746,4.927,14.442-.8s9.163,6.429,9.014,10.151Z" transform="translate(-81.3 -98.863)" fill="#ff0063"/>
          <g id="XMLID_3_" transform="translate(47.53)">
            <g id="XMLID_6_" transform="translate(1.381)">
              <path id="XMLID_9_" d="M131.361,121l-2.111,17.893,18.719-3.181-3.181-15.9Z" transform="translate(-124.134 -100.358)" fill="#f0af86"/>
              <path id="XMLID_8_" d="M133.335,127.508l-.717.975c.014-.135.027-.271.041-.42V113.77l-6.253-1.8s-.447,11.667-.352,16.12,2.761,5.522,2.761,5.522l4.642,2.531Z" transform="translate(-125.268 -103.13)" fill="#f0af86"/>
              <path id="XMLID_7_" d="M125.47,107.363v6.916s2.653,1.137,3.221,2.084-.352,5.969.541,7.106a42.75,42.75,0,0,1,2.653,4.927l2.409,2.139s5.671,5.089,8.419,5.211a9.628,9.628,0,0,0,5.2-1.529s2.572-4.318,2.856-4.6,4.264-12.7,4.264-12.7l-2.585-3.817a17.43,17.43,0,0,0-17.433-7.4Z" transform="translate(-125.47 -105.438)" fill="#251302"/>
            </g>
            <path id="XMLID_5_" d="M124.45,137.328l6.957-5.5s15.687,4.169,17.487-3.113l2.964,2.653C151.858,131.359,152.549,141.687,124.45,137.328Z" transform="translate(-124.45 -97.208)" fill="#fff"/>
            <path id="XMLID_4_" d="M128.55,119.923s1-1.8,2.5-1.922.975,4.385.582,5.752-2.545.5-2.545.5Z" transform="translate(-123.001 -100.999)" fill="#f0af86"/>
          </g>
          <path id="XMLID_2_" d="M116.3,126.843l-1.462-1.705a12.143,12.143,0,0,0-1.272-3c-.609-.717-3.181-1.922-3.573-2.22s-.609-.812-.947-1.083-1.611-.176-1.286,1.15a1.849,1.849,0,0,0-.731,1.854,1.86,1.86,0,0,0-.8,1.732,1.389,1.389,0,0,0-.311,1.529,10.134,10.134,0,0,0,2.788,3.059l-.555-.365a1.779,1.779,0,0,0,.176,1.611,4.16,4.16,0,0,0,2.964,1.6,3.858,3.858,0,0,0,1.678-.379l.7.514Z" transform="translate(-83.507 -100.746)" fill="#f0af86"/>
        </g>
      </g>
      <g id="Group_4812_1_" transform="translate(59.378 54.04)">
        <g id="Group_4809_1_" transform="translate(0 0)">
          <path id="Path_19636_1_" d="M21.16,38.78,2.9,49.392-15.33,38.767,3.118,28.02Z" transform="translate(15.682 -27.685)" fill="#ec1965"/>
          <path id="Path_19637_1_" d="M3.007,49.831a.417.417,0,0,1-.176-.041L-15.414,39.166a.353.353,0,0,1-.176-.3.353.353,0,0,1,.176-.3L3.034,27.823a.33.33,0,0,1,.352,0l18.042,10.76a.34.34,0,0,1,.162.3.353.353,0,0,1-.176.3L3.156,49.791A.243.243,0,0,1,3.007,49.831ZM-14.548,38.854,3.007,49.087,20.589,38.868,3.21,28.514Z" transform="translate(15.59 -27.772)"/>
        </g>
        <g id="Group_4810_1_" transform="translate(18.244 10.72)">
          <path id="Path_19638_1_" d="M-25.78,54.022V32.447L-7.454,21.89V43.221Z" transform="translate(26.132 -21.541)" fill="#ec1965" opacity="0.3"/>
          <path id="Path_19639_1_" d="M-25.688,54.465a.417.417,0,0,1-.176-.041.353.353,0,0,1-.176-.3V32.538a.353.353,0,0,1,.176-.3L-7.538,21.683a.307.307,0,0,1,.338,0,.353.353,0,0,1,.176.3V43.312a.353.353,0,0,1-.176.3L-25.526,54.424A.321.321,0,0,1-25.688,54.465Zm.338-21.724V53.518L-7.714,43.109V22.563Z" transform="translate(26.04 -21.633)"/>
        </g>
        <g id="Group_4811_1_" transform="translate(0.093 10.695)">
          <path id="Path_19640_1_" d="M2.794,54.046V32.471L-15.37,21.9V43.285Z" transform="translate(15.708 -21.538)" fill="#fff"/>
          <path id="Path_19641_1_" d="M2.882,54.492a.272.272,0,0,1-.176-.054l-18.164-10.76a.34.34,0,0,1-.162-.3v-21.4a.353.353,0,0,1,.176-.3.307.307,0,0,1,.338,0L3.058,32.254a.353.353,0,0,1,.176.3V54.127a.336.336,0,0,1-.176.3A.319.319,0,0,1,2.882,54.492Zm-17.826-11.3L2.53,53.545V32.755L-14.943,22.577Z" transform="translate(15.62 -21.633)"/>
        </g>
      </g>
    </g>
  </g>
</svg>
