<svg xmlns="http://www.w3.org/2000/svg" xmlns:xlink="http://www.w3.org/1999/xlink" width="257.689" height="234.839" viewBox="0 0 257.689 234.839">
  <defs>
    <clipPath id="clip-path">
      <path id="Path_19715" data-name="Path 19715" d="M21.71,575.793c-6.96,15.932-5.465,34.562-2.162,45.35,13.016,42.523,55.209,85.83,109.415,94.369,12.685,2,77.021,10.127,110.661-37.937,29.737-42.491,18.39-109.5-8.164-144.638-22-29.114-67.685-54.678-99.508-40.72-19.082,8.37-16.523,21.56-54.179,45.45C45.183,558.349,30.221,556.307,21.71,575.793Z" transform="translate(-16.776 -488.293)" fill="none"/>
    </clipPath>
    <linearGradient id="linear-gradient" x1="0.027" y1="0.885" x2="-0.265" y2="0.549" gradientUnits="objectBoundingBox">
      <stop offset="0" stop-color="#e310ff"/>
      <stop offset="1" stop-color="#ff2381"/>
    </linearGradient>
  </defs>
  <g id="Group_6552" data-name="Group 6552" transform="translate(-16.776 -481.533)">
    <path id="Path_19715-2" data-name="Path 19715" d="M21.71,575.793c-6.96,15.932-5.465,34.562-2.162,45.35,13.016,42.523,55.209,85.83,109.415,94.369,12.685,2,77.021,10.127,110.661-37.937,29.737-42.491,18.39-109.5-8.164-144.638-22-29.114-67.685-54.678-99.508-40.72-19.082,8.37-16.523,21.56-54.179,45.45C45.183,558.349,30.221,556.307,21.71,575.793Z" transform="translate(0 -0.913)" fill="#caddff" opacity="0.2" style="isolation: isolate"/>
    <g id="Group_6536" data-name="Group 6536" transform="translate(16.776 487.38)">
      <g id="Group_6535" data-name="Group 6535" clip-path="url(#clip-path)">
        <g id="Group_6534" data-name="Group 6534" transform="translate(25.242 78.526)">
          <g id="Group_6525" data-name="Group 6525" transform="translate(95.275 176.01)">
            <path id="Path_21523" data-name="Path 21523" d="M157.4,791.653s-1.372,6.548-1.295,8.1,2.91,2.6,4.425,3.376,3.021.452,4.1.937,4.059,5.317,9.667,7.108,7.668,1.764,8.595-.924-11.6-14.2-12.772-15.568-4.41-3.929-5.575-4.19S158.97,790.033,157.4,791.653Z" transform="translate(-156.105 -783.607)" fill="#1a2444"/>
            <path id="Path_21524" data-name="Path 21524" d="M166.665,792.07l.548-8.98-8.683-.53-.548,8.98a2.159,2.159,0,0,0,1.163,1.85,6.8,6.8,0,0,0,6.141.375A2.16,2.16,0,0,0,166.665,792.07Z" transform="translate(-156.358 -782.56)" fill="#efb387"/>
          </g>
          <path id="Path_21525" data-name="Path 21525" d="M80.459,699.224l58.348,22.818,8.706,51.213,10.344,1.271s5.007-62.652-.28-67.737-46.831-16.062-46.831-16.062Z" transform="translate(-50.617 -594.151)" fill="#1a2444"/>
          <g id="Group_6526" data-name="Group 6526" transform="translate(54.563 189.579)">
            <path id="Path_21526" data-name="Path 21526" d="M109.609,807.653s-.752,6.654-.529,8.189,3.141,2.314,4.723,2.946,3.051.165,4.167.547,4.541,4.914,10.293,6.169,7.8,1.035,8.471-1.73-12.881-13.054-14.179-14.306-4.759-3.5-5.945-3.648S111.016,805.892,109.609,807.653Z" transform="translate(-109.038 -799.264)" fill="#1a2444"/>
            <path id="Path_21527" data-name="Path 21527" d="M118.823,807.245l-.3-9-8.695.291.3,9a2.162,2.162,0,0,0,1.332,1.734,6.8,6.8,0,0,0,6.148-.206A2.165,2.165,0,0,0,118.823,807.245Z" transform="translate(-109.145 -798.247)" fill="#efb387"/>
          </g>
          <path id="Path_21528" data-name="Path 21528" d="M83.259,691.246l-29.576,2.2s-3.118,19.693,1.122,25.059c7.866,9.953,52.307,17.479,52.307,17.479L102.6,786.586l11.1,1.195s20.368-63.062,16.287-67.512C121.364,710.871,83.259,691.246,83.259,691.246Z" transform="translate(-46.852 -594.221)" fill="#1a2444"/>
          <path id="Path_21529" data-name="Path 21529" d="M52.139,630.052c3.6-5.874,8.706-8.092,14.2-10.745s24.6-4.806,30.377-5.564,7.436,6.054,9.236,11.549-1.008,16.782-1.008,25.451,3.933,28.744,4.076,30.876S87.86,690.354,68.6,688.506c-9.948-1.137-15.064-4.248-15.064-4.248Z" transform="translate(-46.793 -583.749)" fill="#ff2381"/>
          <g id="Group_6527" data-name="Group 6527" transform="translate(12.243)">
            <path id="Path_21530" data-name="Path 21530" d="M77.942,614.126c-1.861-.189-8.835-3.626-11.287-3.373l-.591,11.219c7.689,10.665,18.109,4.311,18.109,4.311L83.157,613.7A15.525,15.525,0,0,1,77.942,614.126Z" transform="translate(-60.916 -583.351)" fill="#ffa681"/>
            <path id="Path_21531" data-name="Path 21531" d="M90.256,611.3c.772-6.405.791-16.641.791-16.641s-22.09-4.692-26.162.832a77.782,77.782,0,0,1,2.12,10.649c.092,1.232.057,2.932.953,3.7,0,0,2.156,3.193,3.3,4.676,1.689,2.188,7.379,5.613,11.354,6.1a7.637,7.637,0,0,0,2.181-.017C87.548,620.144,89.479,617.729,90.256,611.3Z" transform="translate(-60.757 -580.93)" fill="#ffa681"/>
            <path id="Path_21532" data-name="Path 21532" d="M60.367,585.09l-.254,14.668,5.987,8.387,1.214-.154c.621-1.39,2.533-4.675,2.533-4.675a14.14,14.14,0,0,1-.677-2.906l2.378-1.7,2.4,3.282,1.683-1.094c-.282-2.039-.824-4.913-.889-5.307.015-.038,15.679-2.3,15.679-2.3,4.893-4.768,1.525-8.581,1.525-8.581l-1.635-1.368a3.716,3.716,0,0,0-2.235-1.633l-4.7-1.2C76.031,578.035,64.1,578.294,60.367,585.09Z" transform="translate(-60.113 -579.076)" fill="#1a2444"/>
          </g>
          <path id="Path_21533" data-name="Path 21533" d="M95.335,690.5,67.966,679.772l-3.719-37.316S73,664.74,76.94,668c3.46,2.864,25.559.239,30.881-.441,1.166,8.213,2.747,16.609,2.836,17.946.08,1.217-6.834,3.892-16.366,5.619Z" transform="translate(-48.428 -587.634)" fill="url(#linear-gradient)"/>
          <path id="Path_21534" data-name="Path 21534" d="M162.2,662.639l9.181,2.9a3.671,3.671,0,0,1,1.1.913l4.334,5.334a15.546,15.546,0,0,1-.5,5.1h0a2.466,2.466,0,0,1-3.381,1l-6.091-3.4.112.993a.923.923,0,0,1-1.07,1.013h0a4.589,4.589,0,0,1-3.535-2.911l-.56-1.49-2.127-1.022Z" transform="translate(-61.31 -590.359)" fill="#ffa681"/>
          <path id="Path_21535" data-name="Path 21535" d="M106.837,614.6l23.891,28.468,24.6,13.38-3.051,8.83L122.7,654.617,101.769,629.79Z" transform="translate(-53.494 -583.873)" fill="#ff2381"/>
          <g id="Group_6529" data-name="Group 6529" transform="translate(39.522 86.094)">
            <path id="Path_21536" data-name="Path 21536" d="M91.65,715.673l64.2-37.064,26.734,15.434-64.2,37.065Z" transform="translate(-91.65 -678.609)" fill="#3d51a3"/>
            <g id="Group_6528" data-name="Group 6528" transform="translate(23.424 13.434)">
              <path id="Path_21537" data-name="Path 21537" d="M185.486,696.457a.344.344,0,0,1,0-.652l2.649-1.53a1.249,1.249,0,0,1,1.131,0l2.084,1.2a.345.345,0,0,1,0,.653l-2.65,1.53a1.249,1.249,0,0,1-1.131,0Z" transform="translate(-127.711 -694.14)" fill="#fff"/>
              <path id="Path_21538" data-name="Path 21538" d="M180.368,699.411a.344.344,0,0,1,0-.652l2.65-1.53a1.249,1.249,0,0,1,1.131,0l2.084,1.2a.344.344,0,0,1,0,.652l-2.65,1.53a1.249,1.249,0,0,1-1.131,0Z" transform="translate(-127.02 -694.539)" fill="#fff"/>
              <path id="Path_21539" data-name="Path 21539" d="M175.252,702.366a.344.344,0,0,1,0-.652l2.65-1.531a1.257,1.257,0,0,1,1.131,0l2.084,1.2a.345.345,0,0,1,0,.654l-2.649,1.53a1.253,1.253,0,0,1-1.132,0Z" transform="translate(-126.329 -694.938)" fill="#fff"/>
              <path id="Path_21540" data-name="Path 21540" d="M170.135,705.32a.344.344,0,0,1,0-.652l2.65-1.53a1.25,1.25,0,0,1,1.13,0l2.085,1.2a.345.345,0,0,1,0,.653l-2.65,1.53a1.249,1.249,0,0,1-1.131,0Z" transform="translate(-125.639 -695.336)" fill="#fff"/>
              <path id="Path_21541" data-name="Path 21541" d="M165.018,708.275a.345.345,0,0,1,0-.653l2.65-1.529a1.244,1.244,0,0,1,1.13,0l2.085,1.2a.344.344,0,0,1,0,.652l-2.65,1.53a1.249,1.249,0,0,1-1.131,0Z" transform="translate(-124.948 -695.735)" fill="#fff"/>
              <path id="Path_21542" data-name="Path 21542" d="M159.9,711.229a.345.345,0,0,1,0-.653l2.649-1.53a1.251,1.251,0,0,1,1.131,0l2.085,1.2a.344.344,0,0,1,0,.652l-2.649,1.53a1.25,1.25,0,0,1-1.131,0Z" transform="translate(-124.257 -696.134)" fill="#fff"/>
              <path id="Path_21543" data-name="Path 21543" d="M154.784,714.183a.344.344,0,0,1,0-.652l2.65-1.53a1.25,1.25,0,0,1,1.13,0l2.085,1.2a.345.345,0,0,1,0,.653l-2.65,1.53a1.246,1.246,0,0,1-1.131,0Z" transform="translate(-123.566 -696.533)" fill="#fff"/>
              <path id="Path_21544" data-name="Path 21544" d="M149.667,717.138a.344.344,0,0,1,0-.652l2.65-1.531a1.252,1.252,0,0,1,1.13,0l2.085,1.2a.345.345,0,0,1,0,.653l-2.65,1.53a1.249,1.249,0,0,1-1.131,0Z" transform="translate(-122.875 -696.932)" fill="#fff"/>
              <path id="Path_21545" data-name="Path 21545" d="M144.549,720.092a.345.345,0,0,1,0-.653l2.65-1.529a1.246,1.246,0,0,1,1.13,0l2.084,1.2a.344.344,0,0,1,0,.653l-2.649,1.53a1.254,1.254,0,0,1-1.131,0Z" transform="translate(-122.184 -697.331)" fill="#fff"/>
              <path id="Path_21546" data-name="Path 21546" d="M139.432,723.046a.344.344,0,0,1,0-.652l2.65-1.53a1.249,1.249,0,0,1,1.131,0l2.085,1.2a.345.345,0,0,1,0,.653l-2.65,1.53a1.249,1.249,0,0,1-1.131,0Z" transform="translate(-121.493 -697.73)" fill="#fff"/>
              <path id="Path_21547" data-name="Path 21547" d="M134.315,726a.344.344,0,0,1,0-.651l2.649-1.53a1.249,1.249,0,0,1,1.131,0l2.085,1.2a.345.345,0,0,1,0,.653l-2.649,1.529a1.251,1.251,0,0,1-1.131,0Z" transform="translate(-120.802 -698.129)" fill="#fff"/>
              <path id="Path_21548" data-name="Path 21548" d="M129.2,728.955a.345.345,0,0,1,0-.653l2.65-1.529a1.247,1.247,0,0,1,1.13,0l2.084,1.2a.345.345,0,0,1,0,.653l-2.65,1.529a1.246,1.246,0,0,1-1.131,0Z" transform="translate(-120.112 -698.527)" fill="#fff"/>
              <path id="Path_21549" data-name="Path 21549" d="M124.081,731.909a.344.344,0,0,1,0-.652l2.65-1.53a1.25,1.25,0,0,1,1.13,0l2.085,1.2a.344.344,0,0,1,0,.651l-2.65,1.531a1.252,1.252,0,0,1-1.131,0Z" transform="translate(-119.421 -698.926)" fill="#fff"/>
              <path id="Path_21550" data-name="Path 21550" d="M118.964,734.863a.344.344,0,0,1,0-.652l2.649-1.53a1.254,1.254,0,0,1,1.131,0l2.085,1.2a.345.345,0,0,1,0,.653l-2.65,1.53a1.247,1.247,0,0,1-1.13,0Z" transform="translate(-118.73 -699.325)" fill="#fff"/>
            </g>
            <path id="Path_21551" data-name="Path 21551" d="M180.988,693.86a.344.344,0,0,1,0-.652l2.65-1.53a1.247,1.247,0,0,1,1.13,0l2.085,1.2a.345.345,0,0,1,0,.653l-2.65,1.53a1.249,1.249,0,0,1-1.131,0Z" transform="translate(-103.68 -680.355)" fill="#fff"/>
            <path id="Path_21552" data-name="Path 21552" d="M174.665,692.211a.344.344,0,0,1,0-.652l4.257-2.458a1.252,1.252,0,0,1,1.131,0l2.084,1.2a.344.344,0,0,1,0,.652l-4.257,2.458a1.246,1.246,0,0,1-1.131,0Z" transform="translate(-102.827 -680.007)" fill="#fff"/>
            <path id="Path_21553" data-name="Path 21553" d="M167.986,690.741a.345.345,0,0,1,0-.653l6.174-3.565a1.251,1.251,0,0,1,1.131,0l2.083,1.2a.344.344,0,0,1,0,.653l-6.173,3.564a1.254,1.254,0,0,1-1.131,0Z" transform="translate(-101.925 -679.659)" fill="#fff"/>
            <path id="Path_21554" data-name="Path 21554" d="M175.768,696.874a.344.344,0,0,1,0-.652l2.65-1.531a1.252,1.252,0,0,1,1.13,0l2.085,1.2a.345.345,0,0,1,0,.653l-2.65,1.529a1.248,1.248,0,0,1-1.131,0Z" transform="translate(-102.976 -680.762)" fill="#fff"/>
            <path id="Path_21555" data-name="Path 21555" d="M170.549,699.887a.344.344,0,0,1,0-.652l2.649-1.53a1.249,1.249,0,0,1,1.131,0l2.084,1.2a.345.345,0,0,1,0,.653l-2.649,1.53a1.251,1.251,0,0,1-1.131,0Z" transform="translate(-102.271 -681.169)" fill="#fff"/>
            <path id="Path_21556" data-name="Path 21556" d="M165.33,702.9a.344.344,0,0,1,0-.652l2.649-1.53a1.249,1.249,0,0,1,1.13,0l2.085,1.2a.345.345,0,0,1,0,.653l-2.649,1.53a1.253,1.253,0,0,1-1.131,0Z" transform="translate(-101.566 -681.576)" fill="#fff"/>
            <path id="Path_21557" data-name="Path 21557" d="M160.111,705.914a.345.345,0,0,1,0-.653l2.65-1.53a1.251,1.251,0,0,1,1.131,0l2.084,1.2a.344.344,0,0,1,0,.652l-2.65,1.531a1.253,1.253,0,0,1-1.131,0Z" transform="translate(-100.862 -681.983)" fill="#fff"/>
            <path id="Path_21558" data-name="Path 21558" d="M154.891,708.927a.344.344,0,0,1,0-.652l2.649-1.53a1.252,1.252,0,0,1,1.131,0l2.084,1.2a.345.345,0,0,1,0,.653l-2.65,1.53a1.253,1.253,0,0,1-1.131,0Z" transform="translate(-100.157 -682.389)" fill="#fff"/>
            <path id="Path_21559" data-name="Path 21559" d="M149.672,711.941a.345.345,0,0,1,0-.653l2.65-1.529a1.246,1.246,0,0,1,1.131,0l2.084,1.2a.344.344,0,0,1,0,.652l-2.65,1.53a1.246,1.246,0,0,1-1.13,0Z" transform="translate(-99.452 -682.796)" fill="#fff"/>
            <path id="Path_21560" data-name="Path 21560" d="M144.453,714.954a.344.344,0,0,1,0-.652l2.65-1.53a1.247,1.247,0,0,1,1.13,0l2.084,1.2a.345.345,0,0,1,0,.653l-2.65,1.529a1.246,1.246,0,0,1-1.131,0Z" transform="translate(-98.747 -683.203)" fill="#fff"/>
            <path id="Path_21561" data-name="Path 21561" d="M139.233,717.967a.344.344,0,0,1,0-.652l2.65-1.53a1.244,1.244,0,0,1,1.13,0l2.085,1.2a.345.345,0,0,1,0,.653l-2.65,1.53a1.249,1.249,0,0,1-1.131,0Z" transform="translate(-98.043 -683.61)" fill="#fff"/>
            <path id="Path_21562" data-name="Path 21562" d="M134.014,720.981a.344.344,0,0,1,0-.652l2.649-1.531a1.254,1.254,0,0,1,1.131,0l2.085,1.2a.345.345,0,0,1,0,.653l-2.649,1.53a1.256,1.256,0,0,1-1.131,0Z" transform="translate(-97.338 -684.017)" fill="#fff"/>
            <path id="Path_21563" data-name="Path 21563" d="M128.795,723.994a.344.344,0,0,1,0-.652l2.649-1.53a1.248,1.248,0,0,1,1.131,0l2.085,1.2a.345.345,0,0,1,0,.653l-2.649,1.53a1.253,1.253,0,0,1-1.131,0Z" transform="translate(-96.633 -684.424)" fill="#fff"/>
            <path id="Path_21564" data-name="Path 21564" d="M123.575,727.007a.344.344,0,0,1,0-.652l2.65-1.53a1.251,1.251,0,0,1,1.131,0l2.084,1.2a.344.344,0,0,1,0,.652l-2.649,1.53a1.248,1.248,0,0,1-1.131,0Z" transform="translate(-95.929 -684.831)" fill="#fff"/>
            <path id="Path_21565" data-name="Path 21565" d="M169.433,695.377a.345.345,0,0,1,0-.653l2.649-1.529a1.249,1.249,0,0,1,1.131,0l2.085,1.2a.345.345,0,0,1,0,.653l-2.65,1.529a1.247,1.247,0,0,1-1.13,0Z" transform="translate(-102.12 -680.56)" fill="#fff"/>
            <path id="Path_21566" data-name="Path 21566" d="M164.03,698.5a.344.344,0,0,1,0-.652l2.65-1.53a1.25,1.25,0,0,1,1.13,0l2.085,1.2a.345.345,0,0,1,0,.653l-2.65,1.529a1.246,1.246,0,0,1-1.131,0Z" transform="translate(-101.391 -680.981)" fill="#fff"/>
            <path id="Path_21567" data-name="Path 21567" d="M160.443,684a.344.344,0,0,1,0-.652l4.257-2.458a1.246,1.246,0,0,1,1.131,0l2.085,1.2a.345.345,0,0,1,0,.653l-4.257,2.458a1.251,1.251,0,0,1-1.131,0Z" transform="translate(-100.906 -678.898)" fill="#fff"/>
            <path id="Path_21568" data-name="Path 21568" d="M155.211,687.166a.345.345,0,0,1,0-.653l2.651-1.529a1.247,1.247,0,0,1,1.13,0l2.085,1.2a.345.345,0,0,1,0,.653l-2.65,1.53a1.251,1.251,0,0,1-1.131,0Z" transform="translate(-100.2 -679.451)" fill="#fff"/>
            <path id="Path_21569" data-name="Path 21569" d="M149.809,690.285a.344.344,0,0,1,0-.652l2.65-1.53a1.249,1.249,0,0,1,1.13,0l2.085,1.2a.345.345,0,0,1,0,.653l-2.65,1.53a1.246,1.246,0,0,1-1.131,0Z" transform="translate(-99.471 -679.873)" fill="#fff"/>
            <path id="Path_21570" data-name="Path 21570" d="M115.4,707.915a.345.345,0,0,1,0-.653l27.432-15.838a1.251,1.251,0,0,1,1.131,0l2.085,1.2a.344.344,0,0,1,0,.652L118.62,709.118a1.249,1.249,0,0,1-1.131,0Z" transform="translate(-94.826 -680.321)" fill="#fff"/>
            <path id="Path_21571" data-name="Path 21571" d="M158.627,701.616a.345.345,0,0,1,0-.653l2.649-1.529a1.246,1.246,0,0,1,1.131,0l2.085,1.2a.344.344,0,0,1,0,.652l-2.65,1.53a1.251,1.251,0,0,1-1.131,0Z" transform="translate(-100.661 -681.402)" fill="#fff"/>
            <path id="Path_21572" data-name="Path 21572" d="M153.224,704.735a.344.344,0,0,1,0-.652l2.65-1.53a1.247,1.247,0,0,1,1.13,0l2.085,1.2a.345.345,0,0,1,0,.653l-2.649,1.529a1.254,1.254,0,0,1-1.131,0Z" transform="translate(-99.932 -681.823)" fill="#fff"/>
            <path id="Path_21573" data-name="Path 21573" d="M147.822,707.854a.344.344,0,0,1,0-.652l2.649-1.53a1.251,1.251,0,0,1,1.131,0l2.085,1.2a.344.344,0,0,1,0,.652l-2.65,1.53a1.246,1.246,0,0,1-1.131,0Z" transform="translate(-99.202 -682.245)" fill="#fff"/>
            <path id="Path_21574" data-name="Path 21574" d="M142.418,710.973a.344.344,0,0,1,0-.651l2.65-1.531a1.249,1.249,0,0,1,1.131,0l2.085,1.2a.345.345,0,0,1,0,.653l-2.649,1.529a1.246,1.246,0,0,1-1.131,0Z" transform="translate(-98.473 -682.666)" fill="#fff"/>
            <path id="Path_21575" data-name="Path 21575" d="M137.016,714.093a.344.344,0,0,1,0-.652l2.65-1.53a1.246,1.246,0,0,1,1.131,0l2.084,1.2a.344.344,0,0,1,0,.652l-2.649,1.53a1.251,1.251,0,0,1-1.131,0Z" transform="translate(-97.743 -683.087)" fill="#fff"/>
            <path id="Path_21576" data-name="Path 21576" d="M131.613,717.212a.344.344,0,0,1,0-.652l2.65-1.53a1.246,1.246,0,0,1,1.13,0l2.085,1.2a.345.345,0,0,1,0,.653l-2.65,1.529a1.244,1.244,0,0,1-1.13,0Z" transform="translate(-97.014 -683.508)" fill="#fff"/>
            <path id="Path_21577" data-name="Path 21577" d="M126.21,720.331a.344.344,0,0,1,0-.652l2.65-1.531a1.256,1.256,0,0,1,1.131,0l2.084,1.2a.345.345,0,0,1,0,.653l-2.65,1.529a1.244,1.244,0,0,1-1.13,0Z" transform="translate(-96.284 -683.929)" fill="#fff"/>
            <path id="Path_21578" data-name="Path 21578" d="M120.808,723.451a.344.344,0,0,1,0-.652l2.649-1.53a1.249,1.249,0,0,1,1.131,0l2.085,1.2a.344.344,0,0,1,0,.652l-2.65,1.53a1.251,1.251,0,0,1-1.131,0Z" transform="translate(-95.555 -684.35)" fill="#fff"/>
            <path id="Path_21579" data-name="Path 21579" d="M162.47,694.242a.344.344,0,0,1,0-.652l2.65-1.53a1.249,1.249,0,0,1,1.131,0l2.085,1.2a.345.345,0,0,1,0,.653l-2.65,1.53a1.249,1.249,0,0,1-1.131,0Z" transform="translate(-101.18 -680.407)" fill="#fff"/>
            <path id="Path_21580" data-name="Path 21580" d="M157.1,697.342a.345.345,0,0,1,0-.654l2.649-1.529a1.25,1.25,0,0,1,1.13,0l2.085,1.2a.345.345,0,0,1,0,.653l-2.649,1.53a1.25,1.25,0,0,1-1.131,0Z" transform="translate(-100.455 -680.825)" fill="#fff"/>
            <path id="Path_21581" data-name="Path 21581" d="M151.734,700.44a.344.344,0,0,1,0-.652l2.65-1.53a1.251,1.251,0,0,1,1.131,0l2.084,1.2a.345.345,0,0,1,0,.653l-2.65,1.53a1.251,1.251,0,0,1-1.131,0Z" transform="translate(-99.731 -681.244)" fill="#fff"/>
            <path id="Path_21582" data-name="Path 21582" d="M146.365,703.54a.344.344,0,0,1,0-.652l2.649-1.531a1.257,1.257,0,0,1,1.131,0l2.085,1.2a.345.345,0,0,1,0,.653l-2.649,1.53a1.251,1.251,0,0,1-1.131,0Z" transform="translate(-99.006 -681.662)" fill="#fff"/>
            <path id="Path_21583" data-name="Path 21583" d="M141,706.639a.344.344,0,0,1,0-.652l2.649-1.53a1.249,1.249,0,0,1,1.131,0l2.085,1.2a.345.345,0,0,1,0,.653l-2.65,1.53a1.249,1.249,0,0,1-1.131,0Z" transform="translate(-98.281 -682.081)" fill="#fff"/>
            <path id="Path_21584" data-name="Path 21584" d="M135.629,709.739a.345.345,0,0,1,0-.653l2.649-1.53a1.256,1.256,0,0,1,1.131,0l2.084,1.2a.345.345,0,0,1,0,.653l-2.649,1.53a1.249,1.249,0,0,1-1.131,0Z" transform="translate(-97.556 -682.499)" fill="#fff"/>
            <path id="Path_21585" data-name="Path 21585" d="M130.262,712.837a.344.344,0,0,1,0-.652l2.65-1.53a1.249,1.249,0,0,1,1.131,0l2.084,1.2a.345.345,0,0,1,0,.653l-2.65,1.529a1.246,1.246,0,0,1-1.131,0Z" transform="translate(-96.831 -682.917)" fill="#fff"/>
            <path id="Path_21586" data-name="Path 21586" d="M124.894,715.936a.344.344,0,0,1,0-.652l2.65-1.531a1.257,1.257,0,0,1,1.131,0l2.084,1.2a.345.345,0,0,1,0,.653l-2.65,1.53a1.253,1.253,0,0,1-1.131,0Z" transform="translate(-96.107 -683.336)" fill="#fff"/>
            <path id="Path_21587" data-name="Path 21587" d="M119.526,719.035a.344.344,0,0,1,0-.652l2.649-1.53a1.249,1.249,0,0,1,1.131,0l2.085,1.2a.344.344,0,0,1,0,.652l-2.649,1.53a1.251,1.251,0,0,1-1.131,0Z" transform="translate(-95.382 -683.754)" fill="#fff"/>
            <path id="Path_21588" data-name="Path 21588" d="M114.159,722.135a.344.344,0,0,1,0-.652l2.65-1.53a1.247,1.247,0,0,1,1.13,0l2.085,1.2a.345.345,0,0,1,0,.653l-2.65,1.529a1.251,1.251,0,0,1-1.131,0Z" transform="translate(-94.657 -684.173)" fill="#fff"/>
            <path id="Path_21589" data-name="Path 21589" d="M109.768,713.4a.344.344,0,0,1,0-.652l2.65-1.53a1.249,1.249,0,0,1,1.131,0l2.084,1.2a.344.344,0,0,1,0,.653l-2.649,1.53a1.255,1.255,0,0,1-1.132,0Z" transform="translate(-94.065 -682.994)" fill="#fff"/>
            <path id="Path_21590" data-name="Path 21590" d="M115.405,726.57a.345.345,0,0,1,0-.653l2.65-1.53a1.252,1.252,0,0,1,1.13,0l2.085,1.2a.344.344,0,0,1,0,.651l-2.65,1.53a1.251,1.251,0,0,1-1.131,0Z" transform="translate(-94.826 -684.771)" fill="#fff"/>
            <path id="Path_21591" data-name="Path 21591" d="M110,729.689a.344.344,0,0,1,0-.652l2.65-1.53a1.25,1.25,0,0,1,1.13,0l2.085,1.2a.345.345,0,0,1,0,.653l-2.65,1.529a1.244,1.244,0,0,1-1.13,0Z" transform="translate(-94.096 -685.193)" fill="#fff"/>
            <path id="Path_21592" data-name="Path 21592" d="M114.466,732.027a.345.345,0,0,1,0-.653l5.315-3.069a1.25,1.25,0,0,1,1.13,0l2.085,1.2a.344.344,0,0,1,0,.652l-5.316,3.069a1.249,1.249,0,0,1-1.131,0Z" transform="translate(-94.699 -685.3)" fill="#fff"/>
            <path id="Path_21593" data-name="Path 21593" d="M105.537,726.872a.345.345,0,0,1,0-.653l5.315-3.069a1.25,1.25,0,0,1,1.13,0l2.085,1.2a.344.344,0,0,1,0,.652l-5.315,3.069a1.249,1.249,0,0,1-1.131,0Z" transform="translate(-93.493 -684.605)" fill="#fff"/>
            <path id="Path_21594" data-name="Path 21594" d="M163.316,688.045a.344.344,0,0,1,0-.652l6.174-3.565a1.247,1.247,0,0,1,1.13,0l2.085,1.2a.345.345,0,0,1,0,.653l-6.173,3.565a1.254,1.254,0,0,1-1.131,0Z" transform="translate(-101.294 -679.295)" fill="#fff"/>
            <path id="Path_21595" data-name="Path 21595" d="M157.8,691.546a.344.344,0,0,1,0-.652l2.65-1.53a1.248,1.248,0,0,1,1.129,0l2.085,1.2a.345.345,0,0,1,0,.653l-2.649,1.53a1.25,1.25,0,0,1-1.131,0Z" transform="translate(-100.55 -680.043)" fill="#fff"/>
            <path id="Path_21596" data-name="Path 21596" d="M152.432,694.646a.345.345,0,0,1,0-.653l2.65-1.529a1.246,1.246,0,0,1,1.131,0l2.085,1.2a.345.345,0,0,1,0,.653l-2.65,1.529a1.249,1.249,0,0,1-1.131,0Z" transform="translate(-99.825 -680.461)" fill="#fff"/>
            <path id="Path_21597" data-name="Path 21597" d="M147.065,697.745a.345.345,0,0,1,0-.653l2.649-1.53a1.252,1.252,0,0,1,1.131,0l2.085,1.2a.344.344,0,0,1,0,.652l-2.65,1.53a1.249,1.249,0,0,1-1.131,0Z" transform="translate(-99.1 -680.88)" fill="#fff"/>
            <path id="Path_21598" data-name="Path 21598" d="M141.7,700.844a.344.344,0,0,1,0-.652l2.649-1.53a1.252,1.252,0,0,1,1.131,0l2.085,1.2a.345.345,0,0,1,0,.653l-2.65,1.53a1.249,1.249,0,0,1-1.131,0Z" transform="translate(-98.375 -681.298)" fill="#fff"/>
            <path id="Path_21599" data-name="Path 21599" d="M136.328,703.943a.344.344,0,0,1,0-.652l2.649-1.53a1.256,1.256,0,0,1,1.131,0l2.085,1.2a.345.345,0,0,1,0,.653l-2.65,1.53a1.249,1.249,0,0,1-1.131,0Z" transform="translate(-97.651 -681.717)" fill="#fff"/>
            <path id="Path_21600" data-name="Path 21600" d="M130.961,707.043a.345.345,0,0,1,0-.653l2.649-1.53a1.254,1.254,0,0,1,1.131,0l2.084,1.2a.344.344,0,0,1,0,.652l-2.65,1.53a1.249,1.249,0,0,1-1.131,0Z" transform="translate(-96.926 -682.135)" fill="#fff"/>
            <path id="Path_21601" data-name="Path 21601" d="M125.593,710.141a.344.344,0,0,1,0-.652l2.65-1.53a1.252,1.252,0,0,1,1.131,0l2.085,1.2a.345.345,0,0,1,0,.653l-2.65,1.531a1.252,1.252,0,0,1-1.131,0Z" transform="translate(-96.201 -682.553)" fill="#fff"/>
            <path id="Path_21602" data-name="Path 21602" d="M120.225,713.241a.345.345,0,0,1,0-.653l2.65-1.529a1.249,1.249,0,0,1,1.131,0l2.085,1.2a.345.345,0,0,1,0,.653l-2.651,1.53a1.248,1.248,0,0,1-1.131,0Z" transform="translate(-95.476 -682.972)" fill="#fff"/>
            <path id="Path_21603" data-name="Path 21603" d="M114.857,716.34a.345.345,0,0,1,0-.653l2.649-1.529a1.246,1.246,0,0,1,1.131,0l2.085,1.2a.345.345,0,0,1,0,.653l-2.649,1.53a1.254,1.254,0,0,1-1.131,0Z" transform="translate(-94.752 -683.39)" fill="#fff"/>
            <path id="Path_21604" data-name="Path 21604" d="M109.49,719.439a.344.344,0,0,1,0-.652l2.65-1.53a1.251,1.251,0,0,1,1.131,0l2.084,1.2a.345.345,0,0,1,0,.653l-2.65,1.53a1.25,1.25,0,0,1-1.131,0Z" transform="translate(-94.027 -683.809)" fill="#fff"/>
            <path id="Path_21605" data-name="Path 21605" d="M100.868,724.176a.344.344,0,0,1,0-.652l5.315-3.068a1.244,1.244,0,0,1,1.13,0l2.085,1.2a.344.344,0,0,1,0,.652l-5.316,3.069a1.249,1.249,0,0,1-1.131,0Z" transform="translate(-92.863 -684.241)" fill="#fff"/>
            <path id="Path_21606" data-name="Path 21606" d="M104.32,716.546a.314.314,0,0,1,0-.6l2.079-1.2a1.136,1.136,0,0,1,1.029,0l.8.459a.314.314,0,0,1,0,.594l-2.079,1.2a1.137,1.137,0,0,1-1.028,0Z" transform="translate(-93.332 -683.472)" fill="#fff"/>
            <path id="Path_21607" data-name="Path 21607" d="M99.934,719.078a.313.313,0,0,1,0-.594l2.079-1.2a1.136,1.136,0,0,1,1.029,0l.8.459a.314.314,0,0,1,0,.594l-2.079,1.2a1.136,1.136,0,0,1-1.029,0Z" transform="translate(-92.739 -683.814)" fill="#fff"/>
            <path id="Path_21608" data-name="Path 21608" d="M102.432,720.521a.314.314,0,0,1,0-.6l2.079-1.2a1.139,1.139,0,0,1,1.029,0l.8.46a.313.313,0,0,1,0,.593l-2.079,1.2a1.134,1.134,0,0,1-1.028,0Z" transform="translate(-93.077 -684.009)" fill="#fff"/>
            <path id="Path_21609" data-name="Path 21609" d="M95.546,721.611a.314.314,0,0,1,0-.594l2.079-1.2a1.143,1.143,0,0,1,1.03,0l.8.46a.313.313,0,0,1,0,.593l-2.079,1.2a1.137,1.137,0,0,1-1.028,0Z" transform="translate(-92.147 -684.156)" fill="#fff"/>
          </g>
          <path id="Path_21610" data-name="Path 21610" d="M101.9,708.813l9.023,7.05a4.955,4.955,0,0,0,1.856.525l9.257.741c.912-.236,4.5-1.165,4.937-2h0A3.328,3.328,0,0,0,125.5,710.6l-8.453-4.174,1.192-.637a1.246,1.246,0,0,0,.309-1.966h0a6.2,6.2,0,0,0-5.945-1.708l-2.088.517-4.709-.87Z" transform="translate(-53.512 -595.641)" fill="#ffa681"/>
          <path id="Path_21611" data-name="Path 21611" d="M51.3,632.607h0a20.153,20.153,0,0,0-5.2,16.066l4.546,37.951,2.192,3.68,43.933,10.429,2.677-8.376L65.5,678.442l-1.557-38.85Z" transform="translate(-45.959 -586.304)" fill="#ff2381"/>
          <g id="Group_6533" data-name="Group 6533" transform="translate(71.364 11.955)">
            <g id="Group_6530" data-name="Group 6530" transform="translate(25.027 101.895)">
              <path id="Path_21612" data-name="Path 21612" d="M217.419,722.521l-39.672,22.846L157.4,733.544,197.068,710.7Z" transform="translate(-157.395 -710.698)" fill="#172886"/>
              <path id="Path_21613" data-name="Path 21613" d="M220.6,728.584v-4.218l-39.672,22.846v4.217Z" transform="translate(-160.572 -712.543)" fill="#3d51a3"/>
              <path id="Path_21614" data-name="Path 21614" d="M177.747,748.932,157.4,737.11v4.217l20.351,11.823Z" transform="translate(-157.395 -714.264)" fill="#0d1b54"/>
            </g>
            <path id="Path_21615" data-name="Path 21615" d="M242.517,681.836,133.09,745.014v-86.27l109.427-63.178Z" transform="translate(-129.086 -593.258)" fill="#3d51a3"/>
            <path id="Path_21616" data-name="Path 21616" d="M137.374,661.884l102.016-58.9V680.7L137.374,739.6Z" transform="translate(-129.665 -594.26)" fill="#3d51a3"/>
            <path id="Path_21617" data-name="Path 21617" d="M132.465,754.515l-4-2.308v-86.27l4,2.308Z" transform="translate(-128.462 -602.759)" fill="#172886"/>
            <path id="Path_21618" data-name="Path 21618" d="M132.465,658.384l109.427-63.178-4-2.308L128.462,656.075Z" transform="translate(-128.462 -592.898)" fill="#172886"/>
            <g id="Group_6531" data-name="Group 6531" transform="translate(0.461 137.058)">
              <path id="Path_21619" data-name="Path 21619" d="M129.562,751.4a1.164,1.164,0,0,1,.98.161,3.419,3.419,0,0,1,1.545,2.677,1.167,1.167,0,0,1-.348.928,1.022,1.022,0,0,1-1.2-.035,3.418,3.418,0,0,1-1.547-2.678A1.019,1.019,0,0,1,129.562,751.4Z" transform="translate(-128.995 -751.349)" fill="#006c92"/>
              <path id="Path_21620" data-name="Path 21620" d="M129.562,751.387a.9.9,0,0,1,.1-.022,1.276,1.276,0,0,0-.229.785,3.418,3.418,0,0,0,1.547,2.677,1.229,1.229,0,0,0,.889.185.836.836,0,0,1-.128.142,1.022,1.022,0,0,1-1.2-.035,3.418,3.418,0,0,1-1.547-2.678A1.02,1.02,0,0,1,129.562,751.387Z" transform="translate(-128.995 -751.351)" fill="#005e79"/>
            </g>
            <g id="Group_6532" data-name="Group 6532" transform="translate(0.461 131.966)">
              <path id="Path_21621" data-name="Path 21621" d="M129.562,745.512a1.164,1.164,0,0,1,.98.161,3.42,3.42,0,0,1,1.545,2.678,1.165,1.165,0,0,1-.348.927,1.019,1.019,0,0,1-1.2-.035,3.417,3.417,0,0,1-1.547-2.677A1.021,1.021,0,0,1,129.562,745.512Z" transform="translate(-128.995 -745.462)" fill="#006c92"/>
              <path id="Path_21622" data-name="Path 21622" d="M129.562,745.5a.731.731,0,0,1,.1-.023,1.278,1.278,0,0,0-.229.784,3.418,3.418,0,0,0,1.547,2.677,1.22,1.22,0,0,0,.889.185.807.807,0,0,1-.128.142,1.02,1.02,0,0,1-1.2-.036,3.417,3.417,0,0,1-1.547-2.678A1.019,1.019,0,0,1,129.562,745.5Z" transform="translate(-128.995 -745.464)" fill="#005e79"/>
            </g>
          </g>
        </g>
      </g>
    </g>
    <circle id="Ellipse_1642" data-name="Ellipse 1642" cx="15.709" cy="15.709" r="15.709" transform="translate(243.048 559.048)" fill="#b6e000"/>
    <g id="Group_6551" data-name="Group 6551" transform="translate(88.018 481.533)">
      <g id="Group_6537" data-name="Group 6537" transform="translate(5.503 45.081)">
        <path id="Path_21623" data-name="Path 21623" d="M111.108,541.509l13.522-7.858-5.609,3.2L105.5,544.7Z" transform="translate(-105.5 -533.651)" fill="#ff1e68"/>
      </g>
      <g id="Group_6538" data-name="Group 6538" transform="translate(38.081 73.558)">
        <path id="Path_21624" data-name="Path 21624" d="M143.163,583.513l13.522-7.858.026-9.082-13.522,7.858Z" transform="translate(-143.163 -566.573)" fill="#ff1e68"/>
      </g>
      <g id="Group_6539" data-name="Group 6539" transform="translate(0.036 16.744)">
        <path id="Path_21625" data-name="Path 21625" d="M107.083,513.312l13.522-7.858-7.9-4.563L99.18,508.749Z" transform="translate(-99.18 -500.891)" fill="#ff1e68"/>
      </g>
      <path id="Path_21626" data-name="Path 21626" d="M122.71,531.591c-.028-.166-.052-.332-.075-.5-.011-.079-.026-.158-.035-.237,0-.021,0-.042-.006-.062-.046-.356-.08-.711-.1-1.063-.005-.075-.01-.151-.014-.225-.022-.362-.035-.722-.035-1.078.011-3.909,1.392-6.659,3.617-7.952l13.521-7.858c-2.226,1.293-3.605,4.044-3.617,7.953,0,.356.013.715.035,1.078,0,.074.008.149.014.223q.036.529.1,1.065c.013.1.028.2.042.3.024.166.048.333.076.5.018.112.039.225.06.337.029.162.06.324.093.486.026.129.054.258.082.387.024.109.049.217.075.326q.051.213.106.425c.028.107.055.214.084.322.023.086.049.171.074.258.1.357.209.715.327,1.071.009.026.016.053.025.079.115.345.24.69.371,1.033.032.086.066.172.1.258q.17.437.356.872c.018.043.035.087.055.131.139.319.285.637.436.953.04.083.08.165.121.247q.184.376.379.747c.04.075.079.151.118.227q.249.465.515.922c.033.058.068.114.1.172q.235.4.481.786c.048.076.1.152.144.227.2.317.413.63.628.937.032.047.067.093.1.139q.336.476.689.935c.031.041.061.082.093.122q.444.57.912,1.111l.124.144c.191.218.385.433.582.644l.033.036c.208.221.419.437.632.649.137.135.274.267.413.4.037.035.074.071.111.106q.271.253.548.495c.05.044.1.086.151.13.135.116.271.231.407.343.068.056.138.111.207.165.121.1.243.193.366.287l.221.166q.183.135.367.265l.22.155c.132.091.266.178.4.265l.189.125c.2.125.4.245.6.361.265.152.526.291.786.422.075.038.15.073.224.11q.3.144.591.27l.208.089c.184.075.367.144.548.208.045.016.091.036.136.05.226.078.448.146.669.207.131.035.259.066.387.1.06.014.121.031.181.044q.283.061.561.1l.024,0c.168.025.335.045.5.06.055.005.11.009.165.012.119.009.239.016.356.02l.158,0c.123,0,.245,0,.366-.006.042,0,.084,0,.125,0s.093-.009.139-.012q.284-.022.56-.066c.057-.009.115-.017.171-.028.211-.039.419-.085.62-.143l.028-.01c.19-.056.376-.124.558-.2q.08-.033.158-.067.235-.1.458-.223c.049-.027.1-.05.149-.079L143.623,550.7l-.067.039c-.027.015-.054.025-.081.039q-.223.122-.457.224c-.029.012-.056.029-.085.042s-.05.016-.074.026a5.824,5.824,0,0,1-.559.2l-.023.009h0a6.3,6.3,0,0,1-.619.143c-.025,0-.048.013-.073.017s-.067.006-.1.011c-.183.029-.369.051-.56.066-.03,0-.059.009-.09.01l-.049,0c-.042,0-.083,0-.125,0-.121,0-.243.007-.367.005l-.157,0c-.042,0-.081,0-.123,0-.077,0-.156-.012-.234-.017-.054,0-.109-.007-.164-.012-.165-.016-.331-.035-.5-.06l-.023,0h0q-.276-.043-.559-.1c-.06-.013-.12-.029-.181-.044-.117-.027-.234-.053-.351-.085l-.035-.01c-.221-.061-.444-.13-.67-.207-.044-.016-.09-.035-.135-.05-.182-.065-.364-.133-.548-.208-.025-.01-.048-.017-.073-.028-.045-.019-.091-.042-.135-.062-.2-.084-.393-.174-.592-.27l-.223-.109c-.26-.131-.522-.27-.786-.423-.2-.115-.4-.236-.6-.361-.064-.041-.127-.083-.191-.125-.133-.086-.266-.174-.4-.264l-.221-.155q-.184-.131-.366-.266c-.074-.055-.148-.11-.221-.166-.123-.094-.244-.189-.366-.286l-.206-.165c-.138-.112-.272-.227-.407-.344-.051-.043-.1-.085-.152-.129-.184-.162-.367-.326-.548-.5-.037-.035-.074-.071-.111-.106-.12-.114-.241-.228-.361-.346-.017-.016-.034-.035-.052-.053-.213-.212-.425-.427-.632-.649l-.03-.033q-.3-.316-.584-.647l-.056-.061c-.023-.027-.045-.056-.068-.083q-.467-.541-.912-1.11c-.008-.011-.017-.022-.026-.032-.022-.029-.043-.061-.066-.09q-.353-.459-.69-.936c-.022-.031-.047-.061-.069-.093l-.03-.045q-.322-.462-.627-.937c-.02-.03-.041-.059-.06-.09s-.056-.093-.085-.138q-.247-.39-.481-.787c-.024-.042-.051-.082-.075-.124-.01-.016-.017-.032-.027-.048-.176-.3-.348-.612-.514-.921-.013-.025-.028-.049-.042-.074-.027-.051-.051-.1-.078-.155q-.195-.37-.378-.745c-.025-.052-.054-.1-.079-.155-.015-.031-.028-.063-.043-.1-.151-.315-.3-.632-.435-.951l-.014-.029c-.015-.035-.028-.069-.042-.1-.124-.288-.241-.578-.355-.868-.018-.048-.039-.093-.057-.141s-.028-.079-.042-.118c-.131-.343-.255-.688-.37-1.033l-.008-.02-.018-.062q-.176-.533-.326-1.067c-.013-.045-.029-.09-.042-.134s-.021-.084-.033-.125c-.029-.106-.055-.213-.083-.319-.036-.143-.073-.285-.106-.427-.026-.108-.05-.216-.074-.324-.016-.076-.035-.151-.052-.227-.011-.054-.02-.108-.031-.162q-.049-.243-.093-.485C122.749,531.816,122.729,531.7,122.71,531.591Z" transform="translate(-102.284 -485.73)" fill="#ff1e68"/>
      <g id="Group_6540" data-name="Group 6540" transform="translate(53.911 69.791)">
        <path id="Path_21627" data-name="Path 21627" d="M167.036,579.728l13.522-7.858-5.572-9.652-13.522,7.858Z" transform="translate(-161.464 -562.218)" fill="#ff1e68"/>
      </g>
      <g id="Group_6541" data-name="Group 6541" transform="translate(5.627)">
        <path id="Path_21628" data-name="Path 21628" d="M113.633,489.391l13.522-7.858-7.99,4.553-13.522,7.858Z" transform="translate(-105.643 -481.533)" fill="#ff1e68"/>
      </g>
      <g id="Group_6542" data-name="Group 6542" transform="translate(13.617)">
        <path id="Path_21629" data-name="Path 21629" d="M120.453,499.045l13.522-7.858-5.572-9.654-13.522,7.858Z" transform="translate(-114.881 -481.533)" fill="#ff1e68"/>
      </g>
      <path id="Path_21630" data-name="Path 21630" d="M135.2,528.519l-.112-.048c-.1-.04-.195-.076-.292-.111l-.076-.029c-.121-.042-.24-.078-.359-.111l-.05-.012a5.435,5.435,0,0,0-.552-.118h0a4.45,4.45,0,0,0-.445-.045l-.088-.005c-.131,0-.26,0-.387,0-.022,0-.043,0-.065.006-.1.008-.2.019-.3.035l-.092.016c-.113.021-.225.046-.333.077l-.016.005c-.1.03-.2.066-.3.106l-.086.036c-.083.036-.165.077-.246.12-.026.014-.054.027-.08.042l0,0,0,0,13.522-7.858.036-.021c.014-.008.029-.014.042-.021.08-.044.163-.084.247-.121l.046-.023c.013-.005.027-.008.039-.014.1-.039.2-.075.3-.106l.012,0h0c.108-.031.22-.055.333-.077.014,0,.026-.006.039-.009l.054-.006c.1-.016.2-.028.3-.036l.048-.005h.017q.189-.01.387,0h.037l.051.005c.146.009.294.022.445.045h0a5.345,5.345,0,0,1,.551.118l.032.007.019.006c.118.032.238.069.359.111l.076.028c.1.034.194.071.292.111l.039.016c.024.009.049.022.074.033q.157.067.317.145l.121.059c.14.071.28.145.422.227.214.125.426.26.636.4.068.047.135.1.2.147.141.1.28.205.418.315.077.061.152.125.228.189.127.106.253.215.376.329.076.069.151.138.227.21.046.045.094.086.141.131s.093.1.142.151q.227.231.445.474c.046.052.1.1.142.151s.074.092.111.136c.088.1.175.21.26.317.056.07.115.136.17.207s.087.119.131.177c.062.083.124.166.185.251.042.058.086.114.128.173.069.1.134.2.2.3.043.065.087.129.131.195.017.028.036.054.054.081q.178.279.344.564l.021.037c.023.039.042.078.065.116.077.136.154.271.227.408.034.063.064.128.1.191s.068.134.1.2.06.116.088.174c.074.156.145.312.214.47.013.029.027.056.039.085l.011.024c.086.2.167.4.244.6.015.036.026.074.04.11.028.073.053.146.079.22.035.1.074.2.107.3.026.078.047.156.072.234s.057.183.084.275c.016.057.036.113.052.17.028.1.049.2.074.3s.059.227.084.341c.009.04.021.08.029.119.017.082.026.164.042.246.035.177.066.355.092.53.007.049.019.1.025.148.015.111.022.221.033.331.007.079.017.157.022.236.019.247.03.493.029.736a6.332,6.332,0,0,1-.525,2.665,3.549,3.549,0,0,1-1.419,1.611l-13.522,7.858c1.2-.7,1.938-2.174,1.944-4.276,0-.243-.011-.489-.029-.737-.006-.078-.016-.157-.023-.235-.016-.159-.035-.319-.058-.479-.025-.176-.057-.354-.091-.531-.023-.121-.044-.242-.072-.364s-.054-.227-.083-.34c-.04-.159-.08-.317-.127-.477-.027-.091-.055-.182-.084-.274q-.083-.267-.179-.534c-.026-.073-.051-.146-.079-.219-.092-.246-.189-.49-.294-.732-.013-.029-.027-.056-.039-.085-.1-.217-.2-.432-.3-.645l-.1-.2c-.1-.2-.212-.4-.325-.6-.022-.038-.042-.078-.064-.116-.134-.231-.275-.458-.42-.682-.042-.065-.086-.128-.13-.193q-.161-.241-.33-.476c-.061-.084-.122-.168-.184-.251-.1-.13-.2-.257-.3-.384-.086-.106-.171-.212-.26-.316s-.169-.192-.253-.287c-.145-.162-.293-.32-.444-.473-.094-.1-.188-.191-.285-.284-.074-.071-.149-.14-.224-.209q-.187-.17-.378-.33c-.075-.063-.151-.127-.227-.189-.138-.11-.279-.214-.42-.316-.067-.048-.133-.1-.2-.146-.21-.144-.421-.28-.637-.4-.142-.082-.282-.156-.422-.227l-.12-.06C135.41,528.613,135.3,528.564,135.2,528.519Z" transform="translate(-103.482 -486.751)" fill="#ff1e68"/>
      <path id="Path_21631" data-name="Path 21631" d="M163.41,565.792a19.779,19.779,0,0,0,1.313-3.924l13.521-7.857a17.356,17.356,0,0,1-3.259,7.1l-13.521,7.857A15.236,15.236,0,0,0,163.41,565.792Z" transform="translate(-107.553 -491.318)" fill="#ff1e68"/>
      <path id="Path_21632" data-name="Path 21632" d="M127.368,500.843c-.092-.021-.186-.047-.278-.066q-.533-.113-1.055-.193-.488-.075-.967-.123l-.084-.006c-.291-.028-.58-.048-.866-.061-.068,0-.135,0-.2,0-.234-.007-.465-.01-.695-.008-.108,0-.214.008-.32.012-.2.007-.4.015-.592.029l-.183.016c-.271.024-.539.052-.8.091l13.521-7.858c.264-.038.533-.067.8-.09l.183-.016c.056,0,.111-.01.167-.014.14-.01.283-.01.425-.016.106,0,.212-.009.319-.011.229,0,.462,0,.7.008.068,0,.135,0,.2,0h.024c.278.012.559.034.842.06l.083.006q.47.047.949.119l.018,0q.523.08,1.056.193c.092.019.185.045.277.066.265.06.53.121.8.193l.067.016q.449.122.9.265l-13.521,7.858c-.326-.1-.65-.2-.971-.281C127.9,500.964,127.632,500.9,127.368,500.843Z" transform="translate(-102.133 -483.017)" fill="#ff1e68"/>
      <path id="Path_21633" data-name="Path 21633" d="M164.343,543.091c-.059-.263-.118-.526-.182-.79-.05-.208-.1-.417-.158-.626-.066-.259-.132-.518-.2-.778-.064-.234-.131-.47-.2-.7-.058-.2-.115-.4-.175-.6-.074-.245-.151-.489-.229-.733-.062-.2-.123-.393-.188-.588-.093-.284-.191-.567-.29-.849-.049-.142-.1-.284-.147-.425q-.219-.614-.454-1.226l-.018-.05q-.26-.673-.535-1.342l13.521-7.858q.276.668.534,1.338l0,0,.019.05q.235.611.453,1.226c.051.142.1.284.148.426.078.226.159.452.234.677.019.057.036.114.055.171.065.2.126.394.189.59.078.244.155.488.228.732.061.2.118.4.176.6.045.158.094.318.138.476.022.076.039.152.06.228.071.26.138.519.2.778.054.209.107.416.157.625.064.264.123.527.183.791.035.154.073.308.106.461.01.045.017.09.027.135.107.509.208,1.02.3,1.528v0h0l-13.522,7.857c-.089-.509-.19-1.018-.3-1.529C164.434,543.489,164.388,543.29,164.343,543.091Z" transform="translate(-107.567 -487.607)" fill="#ff1e68"/>
      <g id="Group_6543" data-name="Group 6543" transform="translate(0 7.858)">
        <path id="Path_21634" data-name="Path 21634" d="M99.174,507.361l7.9,4.563a17.341,17.341,0,0,1,3.259-7.1l-5.572-9.651,7.991-4.554,5.572,9.655a17.571,17.571,0,0,1,7.813.786l.026-9.081,11.264,6.5-.026,9.081a52.314,52.314,0,0,1,7.793,8.223l5.609-3.2,7.939,13.75-5.609,3.2a52.117,52.117,0,0,1,3.208,10.836l7.9,4.564-.037,12.941-7.9-4.564a17.345,17.345,0,0,1-3.259,7.1l5.572,9.652-7.991,4.553-5.572-9.651a17.582,17.582,0,0,1-7.813-.786l-.026,9.081-11.265-6.5.026-9.081a52.382,52.382,0,0,1-7.792-8.223l-5.609,3.2-7.938-13.751,5.609-3.2a52.055,52.055,0,0,1-3.208-10.833l-7.9-4.563Zm32.478,39.5c6.847,3.954,12.419.781,12.441-7.09s-5.513-17.453-12.361-21.407-12.417-.779-12.439,7.089,5.511,17.455,12.359,21.408" transform="translate(-99.138 -490.617)" fill="#ffcab1"/>
      </g>
      <g id="Group_6544" data-name="Group 6544" transform="translate(25.889 41.285)">
        <path id="Path_21635" data-name="Path 21635" d="M135.755,530.176c-3.68-2.124-6.675-.419-6.687,3.809a14.646,14.646,0,0,0,6.644,11.509c3.682,2.125,6.676.419,6.688-3.811A14.641,14.641,0,0,0,135.755,530.176Z" transform="translate(-129.068 -529.262)" fill="#ffcab1"/>
      </g>
      <path id="Path_21636" data-name="Path 21636" d="M150.125,515.886c-.133-.164-.268-.325-.4-.488q-.287-.344-.577-.683c-.12-.139-.242-.277-.363-.415q-.48-.547-.971-1.077c-.087-.094-.173-.189-.26-.283q-.606-.645-1.229-1.263c-.1-.1-.2-.191-.295-.288q-.493-.481-.995-.945c-.119-.111-.239-.222-.36-.331-.426-.387-.856-.766-1.293-1.133l13.522-7.857c.436.366.866.746,1.292,1.132q.182.165.362.332.5.463.994.945c.068.067.14.131.208.2l.086.089q.623.618,1.229,1.263c.087.093.173.189.26.283q.492.531.972,1.077c.062.071.126.138.189.209s.115.138.174.207c.195.225.386.454.577.683.135.162.271.323.4.487.2.242.392.489.586.735.094.12.191.237.285.358l.174.225L151.171,517.2c-.151-.2-.307-.39-.461-.586C150.517,516.373,150.322,516.127,150.125,515.886Z" transform="translate(-105.111 -484.178)" fill="#ff1e68"/>
      <g id="Group_6545" data-name="Group 6545" transform="translate(57.207 49.751)">
        <path id="Path_21637" data-name="Path 21637" d="M173.177,551.471l13.522-7.858-7.9-4.563-13.522,7.858Z" transform="translate(-165.274 -539.05)" fill="#ff1e68"/>
      </g>
      <g id="Group_6546" data-name="Group 6546" transform="translate(65.073 54.314)">
        <path id="Path_21638" data-name="Path 21638" d="M174.368,565.124l13.522-7.858.037-12.941-13.522,7.858Z" transform="translate(-174.368 -544.325)" fill="#ff1e68"/>
      </g>
      <g id="Group_6547" data-name="Group 6547" transform="translate(27.029 1.359)">
        <path id="Path_21639" data-name="Path 21639" d="M141.65,497.466l13.522-7.858-11.264-6.5-13.522,7.858Z" transform="translate(-130.386 -483.104)" fill="#ff1e68"/>
      </g>
      <g id="Group_6548" data-name="Group 6548" transform="translate(38.267 7.863)">
        <path id="Path_21640" data-name="Path 21640" d="M143.378,507.563,156.9,499.7l.026-9.082L143.4,498.481Z" transform="translate(-143.378 -490.623)" fill="#ff1e68"/>
      </g>
      <g id="Group_6549" data-name="Group 6549" transform="translate(51.669 21.969)">
        <path id="Path_21641" data-name="Path 21641" d="M166.81,528.539l13.522-7.858-7.939-13.75-13.522,7.858Z" transform="translate(-158.871 -506.931)" fill="#ff1e68"/>
      </g>
      <g id="Group_6550" data-name="Group 6550" transform="translate(46.06 21.969)">
        <path id="Path_21642" data-name="Path 21642" d="M158,514.789l13.522-7.858-5.609,3.2-13.522,7.858Z" transform="translate(-152.387 -506.931)" fill="#ff1e68"/>
      </g>
    </g>
    <g id="Group_5103" data-name="Group 5103" transform="translate(249.766 567.223)">
      <path id="Path_19972" data-name="Path 19972" d="M301.39,595.274a1.722,1.722,0,0,1-.24-.017h0l-13.553-1.91a1.7,1.7,0,0,1-1.447-1.922l1.318-9.359a1.7,1.7,0,0,1,1.923-1.45l13.553,1.91a1.7,1.7,0,0,1,1.447,1.922l-1.319,9.36a1.7,1.7,0,0,1-1.682,1.466Zm-.132-.787a.918.918,0,0,0,1.043-.779l1.318-9.359a.925.925,0,0,0-.785-1.043L289.281,581.4a.918.918,0,0,0-1.043.779l-1.319,9.359a.925.925,0,0,0,.785,1.043Z" transform="translate(-286.133 -580.599)" fill="#fff"/>
    </g>
    <path id="Path_19973" data-name="Path 19973" d="M295.883,589.392a.389.389,0,0,1-.26-.1l-4.707-4.131a.389.389,0,0,1-.035-.548h0a.389.389,0,0,1,.548-.037h0l4.707,4.131a.388.388,0,0,1,.037.548h0A.387.387,0,0,1,295.883,589.392Z" transform="translate(-36.995 -13.9)" fill="#fff"/>
    <g id="Group_5108" data-name="Group 5108" transform="translate(47.903 516.627)">
      <path id="Path_19978" data-name="Path 19978" d="M93.1,550.938l1.168-3.882-3.854-2.174a16.723,16.723,0,0,0,.091-2.822l3.974-1.938-.929-3.944-4.425.044a17.19,17.19,0,0,0-1.335-2.483l2.477-3.671-2.776-2.95-3.806,2.249a16.832,16.832,0,0,0-2.4-1.48l.311-4.411-3.879-1.165-2.176,3.856a16.724,16.724,0,0,0-2.822-.087L70.786,522.1l-3.944.932.042,4.428A16.907,16.907,0,0,0,64.4,528.8l-3.668-2.476L57.781,529.1l2.249,3.806a16.7,16.7,0,0,0-1.481,2.406l-4.412-.309-1.168,3.882,3.854,2.175a16.9,16.9,0,0,0-.087,2.822l-3.974,1.938.929,3.944,4.426-.044a17.024,17.024,0,0,0,1.335,2.483l-2.477,3.671,2.776,2.95,3.806-2.249a16.862,16.862,0,0,0,2.4,1.48l-.311,4.411,3.879,1.165L71.7,559.78a16.794,16.794,0,0,0,2.822.086l1.935,3.974,3.943-.932-.042-4.428a17.062,17.062,0,0,0,2.483-1.336l3.668,2.476,2.951-2.779-2.249-3.806a16.729,16.729,0,0,0,1.481-2.4Zm-22.49,2.023a10.427,10.427,0,0,1-6.984-12.988v-.005a10.429,10.429,0,1,1,19.977,6l0,.005a10.437,10.437,0,0,1-12.995,6.993Z" transform="translate(-52.762 -522.105)" fill="#b5d333"/>
    </g>
    <path id="Path_20009" data-name="Path 20009" d="M245.4,519.015c-20.57.221-37.133,10.932-36.994,23.925.062,5.814,3.46,11.1,9.037,15.144l-6.281,12.953,17.785-7.352a55.382,55.382,0,0,0,16.954,2.384c20.57-.221,37.133-10.932,36.994-23.925S265.973,518.795,245.4,519.015Z" transform="translate(-25.873 -5.06)" fill="#b6e000"/>
    <g id="Group_5117" data-name="Group 5117" transform="translate(51.999 569.584)">
      <g id="Group_5115" data-name="Group 5115" transform="translate(9.877 24.485)">
        <path id="Path_19991" data-name="Path 19991" d="M81.851,622.773a.263.263,0,0,1-.068-.009l-5.01-1.272c-3.766-.728-6.878-3.523-7.384-6.644l-.47-2.894a.277.277,0,0,1,.23-.317h0a.277.277,0,0,1,.318.227v0l.47,2.894c.471,2.9,3.4,5.506,6.958,6.194l5.026,1.275a.276.276,0,0,1-.069.543Z" transform="translate(-68.915 -611.635)" fill="#20225a"/>
        <path id="Path_19992" data-name="Path 19992" d="M85.771,624.8a1.6,1.6,0,0,0-.588-2.19,1.618,1.618,0,0,0-2.214.545h0a1.6,1.6,0,0,0,.588,2.19,1.618,1.618,0,0,0,2.214-.545Z" transform="translate(-70.783 -613.085)" fill="#20225a"/>
      </g>
      <path id="Path_19993" data-name="Path 19993" d="M73.279,595.643a.277.277,0,0,1-.278-.277,12.087,12.087,0,0,1,12.113-12.038h1.432a12.211,12.211,0,0,1,3.373.472.277.277,0,1,1-.155.531,11.628,11.628,0,0,0-3.218-.451H85.114a11.534,11.534,0,0,0-11.557,11.485.277.277,0,0,1-.277.277Z" transform="translate(-59.59 -583.328)" fill="#20225a"/>
      <g id="Group_5116" data-name="Group 5116" transform="translate(0 9.731)">
        <ellipse id="Ellipse_1523" data-name="Ellipse 1523" cx="8.871" cy="8.115" rx="8.871" ry="8.115" transform="matrix(0.077, -0.997, 0.997, 0.077, 0, 17.689)" fill="#20225a"/>
        <path id="Path_19994" data-name="Path 19994" d="M66.228,613.239c-.187,0-.374-.006-.562-.02-4.616-.33-8.074-4.692-7.71-9.722s4.415-8.856,9.032-8.525a8,8,0,0,1,5.733,3.105,9.734,9.734,0,0,1-.932,12.881A8.05,8.05,0,0,1,66.228,613.239Zm.2-17.734c-4.092,0-7.593,3.494-7.922,8.032-.342,4.729,2.886,8.823,7.2,9.132a7.459,7.459,0,0,0,5.7-2.107,8.985,8.985,0,0,0,2.739-5.907h0a8.963,8.963,0,0,0-1.86-6.236,7.446,7.446,0,0,0-5.336-2.9q-.26-.018-.519-.018Z" transform="translate(-57.555 -594.628)" fill="#20225a"/>
      </g>
      <ellipse id="Ellipse_1524" data-name="Ellipse 1524" cx="6.294" cy="5.757" rx="6.294" ry="5.757" transform="translate(2.482 24.947) rotate(-85.598)" fill="#fff" opacity="0.27" style="isolation: isolate"/>
    </g>
    <circle id="Ellipse_1643" data-name="Ellipse 1643" cx="15.709" cy="15.709" r="15.709" transform="translate(234.834 594.896)" fill="#ff1e68"/>
    <g id="Group_5106" data-name="Group 5106" transform="translate(244.297 602.186)">
      <path id="Path_19976" data-name="Path 19976" d="M291.926,635.358l-1.87-2.318a1.054,1.054,0,0,0-.733-.346l-.315.006a2.284,2.284,0,0,0-.823.183c-.738.3-1.929.313-3.487-2.386-1.549-2.681-.96-3.713-.333-4.2a2.831,2.831,0,0,0,.673-.779l.07-.116a1.047,1.047,0,0,0,.07-.806l-1.072-2.779a.567.567,0,0,0-.606-.339l-.692.127a2.582,2.582,0,0,0-1.5.846c-1.634,1.908-1.361,5.733.833,9.531s5.383,5.959,7.855,5.485a2.558,2.558,0,0,0,1.457-.865l.466-.548A.565.565,0,0,0,291.926,635.358Z" transform="translate(-279.871 -621.079)" fill="#fff" opacity="0.3" style="isolation: isolate"/>
      <path id="Path_19977" data-name="Path 19977" d="M289.235,637.857c-2.528,0-5.449-2.2-7.491-5.744-2.249-3.892-2.567-7.905-.792-9.978a2.982,2.982,0,0,1,1.73-.976l.692-.127a.955.955,0,0,1,1.038.581l1.073,2.778a1.443,1.443,0,0,1-.1,1.147l-.07.116a3.254,3.254,0,0,1-.767.888c-.292.227-1.177.919.432,3.7s2.658,2.362,3,2.221a2.679,2.679,0,0,1,.964-.213l.315-.006a1.413,1.413,0,0,1,1.042.487l1.87,2.318a.952.952,0,0,1-.015,1.188l-.466.548a2.953,2.953,0,0,1-1.68.994A4.131,4.131,0,0,1,289.235,637.857Z" transform="translate(-279.811 -621.019)" fill="#fff"/>
    </g>
  </g>
</svg>
