<svg xmlns="http://www.w3.org/2000/svg" width="258.386" height="258.148" viewBox="0 0 258.386 258.148">
  <g id="Group_6995" data-name="Group 6995" transform="translate(-320.507 -1050.639)">
    <g id="Group_6988" data-name="Group 6988" transform="translate(-1314.527 -2498.336)">
      <g id="Cloud_based_engine" data-name="Cloud based engine" transform="translate(1635.034 3548.975)">
        <path id="Path_22295" data-name="Path 22295" d="M1891.269,3746.923c9.721-29.483-15.983-48.042-7.124-102.27,5.813-35.571,13.042-50.23,5.663-67.417-12.59-29.326-80.273-31.382-130.168-25.79-27.653,3.1-83.427,21.4-110.834,77.776-22.3,45.864-13.12,103.75,19.377,138.7C1733.719,3838.408,1875.159,3795.78,1891.269,3746.923Z" transform="translate(-1635.116 -3548.975)" fill="#caddff" opacity="0.2" style="isolation: isolate"/>
        <g id="Group_6957" data-name="Group 6957" transform="translate(84.196 57.74)">
          <g id="Group_6954" data-name="Group 6954" transform="translate(0 10.904)">
            <g id="Group_6953" data-name="Group 6953">
              <path id="Path_22296" data-name="Path 22296" d="M1731.407,3639.569a21.013,21.013,0,0,0-1.317,3.279l-5.5.572-.6,5.035,5.223,1.85a21.325,21.325,0,0,0,.5,3.492l-4.487,3.25,2,4.661,5.44-1.008a21.09,21.09,0,0,0,2.19,2.772l-2.259,5.057,4.062,3.036,4.212-3.6a21.016,21.016,0,0,0,3.279,1.318l.571,5.5,5.036.6,1.849-5.222a21.224,21.224,0,0,0,3.493-.5l3.251,4.486,4.661-2-1.008-5.44a21.078,21.078,0,0,0,2.772-2.19l5.056,2.259,3.037-4.062-3.6-4.212a20.923,20.923,0,0,0,1.317-3.279l5.5-.571.6-5.035-5.222-1.85a21.394,21.394,0,0,0-.5-3.492l4.487-3.25-2-4.661-5.44,1.008a21.109,21.109,0,0,0-2.19-2.772l2.26-5.057-4.062-3.037-4.212,3.6a20.923,20.923,0,0,0-3.279-1.316l-.571-5.5-5.036-.6-1.849,5.223a21.224,21.224,0,0,0-3.493.5l-3.251-4.486-4.661,2,1.009,5.439a20.961,20.961,0,0,0-2.772,2.191l-5.057-2.259-3.037,4.062Z" transform="translate(-1723.988 -3621.56)" fill="#fff"/>
              <path id="Path_22297" data-name="Path 22297" d="M1750.336,3675.293a.48.48,0,0,1-.064,0l-5.036-.6a.546.546,0,0,1-.479-.486l-.534-5.145a21.6,21.6,0,0,1-2.69-1.082l-3.938,3.364a.545.545,0,0,1-.682.022l-4.062-3.036a.547.547,0,0,1-.172-.662l2.113-4.728a21.765,21.765,0,0,1-1.8-2.274l-5.087.943a.545.545,0,0,1-.6-.323l-2-4.661a.545.545,0,0,1,.182-.658l4.2-3.04a21.856,21.856,0,0,1-.414-2.865l-4.885-1.729a.546.546,0,0,1-.36-.58l.6-5.035a.548.548,0,0,1,.486-.48l5.145-.534a21.656,21.656,0,0,1,1.081-2.69l-3.364-3.938a.547.547,0,0,1-.022-.682l3.036-4.062a.546.546,0,0,1,.662-.171l4.728,2.113a21.634,21.634,0,0,1,2.276-1.8l-.943-5.087a.547.547,0,0,1,.322-.6l4.661-2a.548.548,0,0,1,.659.182l3.039,4.2a22.039,22.039,0,0,1,2.865-.414l1.729-4.884a.537.537,0,0,1,.58-.361l5.036.6a.546.546,0,0,1,.479.486l.534,5.145a21.524,21.524,0,0,1,2.69,1.082l3.938-3.364a.546.546,0,0,1,.682-.023l4.062,3.037a.547.547,0,0,1,.171.661l-2.113,4.729a21.863,21.863,0,0,1,1.8,2.275l5.087-.943a.545.545,0,0,1,.6.322l2,4.662a.545.545,0,0,1-.182.657l-4.2,3.041a21.99,21.99,0,0,1,.415,2.865l4.883,1.729a.547.547,0,0,1,.361.58l-.6,5.037a.546.546,0,0,1-.487.479l-5.145.535a21.746,21.746,0,0,1-1.081,2.69l3.363,3.938a.547.547,0,0,1,.023.684l-3.036,4.061a.544.544,0,0,1-.661.171l-4.729-2.113a21.686,21.686,0,0,1-2.275,1.8l.943,5.087a.547.547,0,0,1-.322.6l-4.661,2a.55.55,0,0,1-.659-.182l-3.04-4.2a22.035,22.035,0,0,1-2.865.414l-1.728,4.884A.55.55,0,0,1,1750.336,3675.293Zm-4.537-1.637,4.167.5,1.7-4.811a.548.548,0,0,1,.483-.364,20.674,20.674,0,0,0,3.4-.491.548.548,0,0,1,.566.213l2.994,4.131,3.857-1.655-.929-5.009a.547.547,0,0,1,.237-.557,20.484,20.484,0,0,0,2.7-2.133.547.547,0,0,1,.6-.1l4.658,2.082,2.512-3.361-3.313-3.88a.547.547,0,0,1-.073-.6,20.523,20.523,0,0,0,1.283-3.194.548.548,0,0,1,.467-.384l5.068-.525.5-4.167-4.81-1.7a.547.547,0,0,1-.364-.482,20.733,20.733,0,0,0-.491-3.4.547.547,0,0,1,.212-.565l4.133-2.994-1.655-3.858-5.009.928a.54.54,0,0,1-.557-.236,20.549,20.549,0,0,0-2.133-2.7.547.547,0,0,1-.1-.6l2.081-4.657-3.362-2.513-3.879,3.313a.546.546,0,0,1-.6.073,20.617,20.617,0,0,0-3.193-1.282.547.547,0,0,1-.384-.467l-.526-5.068-4.167-.5-1.7,4.81a.547.547,0,0,1-.483.364,20.857,20.857,0,0,0-3.4.491.549.549,0,0,1-.566-.212l-2.994-4.133-3.857,1.654.928,5.01a.546.546,0,0,1-.237.556,20.615,20.615,0,0,0-2.7,2.134.544.544,0,0,1-.6.1l-4.658-2.081-2.513,3.361,3.314,3.879a.548.548,0,0,1,.073.6,20.409,20.409,0,0,0-1.282,3.192.546.546,0,0,1-.467.384l-5.068.527-.5,4.167,4.81,1.7a.548.548,0,0,1,.364.482,20.875,20.875,0,0,0,.491,3.4.547.547,0,0,1-.212.565l-4.133,2.994,1.655,3.857,5.009-.928a.545.545,0,0,1,.557.237,20.494,20.494,0,0,0,2.134,2.7.546.546,0,0,1,.1.6l-2.08,4.658,3.361,2.513,3.879-3.314a.551.551,0,0,1,.6-.073,20.55,20.55,0,0,0,3.193,1.284.546.546,0,0,1,.384.467Zm-5.337-33.078h0Z" transform="translate(-1723.99 -3621.497)"/>
            </g>
          </g>
          <g id="Group_6956" data-name="Group 6956" transform="translate(55.271)">
            <path id="Path_22298" data-name="Path 22298" d="M1788.759,3634.85a23.077,23.077,0,0,0-.621,3.829l-5.756,1.936.57,5.538,6.039.723a23.325,23.325,0,0,0,1.381,3.619l-4.023,4.562,3.263,4.51,5.583-2.389a22.994,22.994,0,0,0,3.014,2.442l-1.2,5.96,5.081,2.275,3.645-4.866a23.046,23.046,0,0,0,3.828.621l1.937,5.756,5.537-.571.723-6.038a23.285,23.285,0,0,0,3.619-1.381l4.561,4.023,4.51-3.263-2.389-5.583a23.063,23.063,0,0,0,2.442-3.013l5.96,1.2,2.274-5.081-4.866-3.644a23.053,23.053,0,0,0,.621-3.829l5.756-1.937-.57-5.537-6.039-.723a23.322,23.322,0,0,0-1.38-3.619l4.022-4.562-3.263-4.51-5.583,2.389a23.136,23.136,0,0,0-3.013-2.442l1.2-5.96-5.081-2.275-3.644,4.866a23.044,23.044,0,0,0-3.829-.621l-1.937-5.756-5.537.57-.723,6.039a23.35,23.35,0,0,0-3.62,1.38l-4.561-4.021-4.51,3.262,2.389,5.583a23,23,0,0,0-2.442,3.013l-5.96-1.2-2.275,5.081Z" transform="translate(-1782.382 -3610.058)" fill="#b5d333"/>
            <g id="Group_6955" data-name="Group 6955" transform="translate(2.091)">
              <path id="Path_22299" data-name="Path 22299" d="M1791.463,3633.819a23.066,23.066,0,0,0-.622,3.829l-5.756,1.936.571,5.538,6.038.723a23.437,23.437,0,0,0,1.381,3.619l-4.023,4.561,3.263,4.51,5.583-2.389a23.033,23.033,0,0,0,3.013,2.442l-1.2,5.959,5.081,2.275,3.645-4.867a23.042,23.042,0,0,0,3.828.622l1.936,5.756,5.537-.571.724-6.038a23.44,23.44,0,0,0,3.619-1.381l4.561,4.023,4.511-3.263-2.389-5.583a23.144,23.144,0,0,0,2.442-3.013l5.959,1.2,2.275-5.081-4.867-3.645a23.027,23.027,0,0,0,.622-3.828l5.756-1.937-.571-5.537-6.038-.724a23.455,23.455,0,0,0-1.381-3.619l4.023-4.561-3.263-4.511-5.583,2.39a23.071,23.071,0,0,0-3.013-2.442l1.2-5.96-5.081-2.275-3.645,4.866a23.033,23.033,0,0,0-3.829-.621l-1.936-5.756-5.538.57-.723,6.039a23.309,23.309,0,0,0-3.619,1.38l-4.561-4.023-4.511,3.263,2.389,5.583a23.079,23.079,0,0,0-2.442,3.013l-5.959-1.2-2.275,5.08Z" transform="translate(-1784.618 -3610.003)" fill="#fff" stroke="#000" stroke-miterlimit="10" stroke-width="1"/>
              <path id="Path_22300" data-name="Path 22300" d="M1814.172,3668.775a.468.468,0,0,1-.443-.319l-1.838-5.464a23.637,23.637,0,0,1-3.294-.535l-3.46,4.62a.466.466,0,0,1-.565.147l-5.08-2.276a.467.467,0,0,1-.268-.519l1.142-5.658a23.71,23.71,0,0,1-2.594-2.1l-5.3,2.268a.468.468,0,0,1-.562-.156l-3.263-4.51a.467.467,0,0,1,.028-.583l3.819-4.33a24,24,0,0,1-1.188-3.113l-5.733-.687a.466.466,0,0,1-.409-.417l-.571-5.537a.469.469,0,0,1,.316-.491l5.464-1.838a23.648,23.648,0,0,1,.535-3.294l-4.62-3.459a.468.468,0,0,1-.146-.566l2.275-5.08a.47.47,0,0,1,.52-.268l5.657,1.142a23.749,23.749,0,0,1,2.1-2.594l-2.268-5.3a.469.469,0,0,1,.156-.563l4.51-3.262a.467.467,0,0,1,.583.028l4.331,3.819a23.962,23.962,0,0,1,3.113-1.188l.686-5.733a.468.468,0,0,1,.417-.409l5.537-.571a.469.469,0,0,1,.491.316l1.838,5.464a23.75,23.75,0,0,1,3.294.535l3.461-4.62a.466.466,0,0,1,.565-.146l5.081,2.275a.468.468,0,0,1,.267.52l-1.142,5.657a23.791,23.791,0,0,1,2.593,2.1l5.3-2.268a.466.466,0,0,1,.562.156l3.263,4.51a.467.467,0,0,1-.028.583l-3.819,4.331a23.848,23.848,0,0,1,1.188,3.113l5.733.686a.468.468,0,0,1,.409.417l.571,5.538a.467.467,0,0,1-.316.49l-5.464,1.838a23.675,23.675,0,0,1-.535,3.294l4.62,3.46a.467.467,0,0,1,.147.565l-2.276,5.081a.467.467,0,0,1-.519.267l-5.658-1.142a23.676,23.676,0,0,1-2.1,2.593l2.268,5.3a.467.467,0,0,1-.156.562l-4.51,3.263a.467.467,0,0,1-.583-.028l-4.331-3.819a23.775,23.775,0,0,1-3.112,1.188l-.687,5.733a.469.469,0,0,1-.416.41l-5.537.57Zm-5.764-7.312a.453.453,0,0,1,.112.013,22.63,22.63,0,0,0,3.751.609.468.468,0,0,1,.408.317l1.816,5.4,4.794-.494.679-5.667a.469.469,0,0,1,.335-.394,22.926,22.926,0,0,0,3.547-1.353.467.467,0,0,1,.511.071l4.281,3.776,3.905-2.825-2.242-5.239a.466.466,0,0,1,.093-.508,22.662,22.662,0,0,0,2.392-2.952.469.469,0,0,1,.479-.195l5.594,1.128,1.97-4.4-4.568-3.422a.467.467,0,0,1-.173-.487,22.654,22.654,0,0,0,.609-3.751.467.467,0,0,1,.317-.407l5.4-1.817-.494-4.794-5.667-.679a.468.468,0,0,1-.394-.334,22.919,22.919,0,0,0-1.353-3.547.465.465,0,0,1,.071-.511l3.775-4.281-2.824-3.9-5.239,2.242a.47.47,0,0,1-.508-.093,22.642,22.642,0,0,0-2.952-2.393.468.468,0,0,1-.195-.479l1.128-5.594-4.4-1.969-3.421,4.567a.468.468,0,0,1-.486.173,22.749,22.749,0,0,0-3.751-.609.468.468,0,0,1-.408-.317l-1.816-5.4-4.794.494-.679,5.668a.469.469,0,0,1-.334.393,23.011,23.011,0,0,0-3.548,1.353.465.465,0,0,1-.511-.071l-4.281-3.775-3.9,2.825,2.241,5.239a.467.467,0,0,1-.093.509,22.74,22.74,0,0,0-2.393,2.952.468.468,0,0,1-.478.2l-5.594-1.128-1.969,4.4,4.567,3.421a.467.467,0,0,1,.173.487,22.668,22.668,0,0,0-.609,3.751.467.467,0,0,1-.317.408l-5.4,1.817.494,4.794,5.667.68a.467.467,0,0,1,.394.334,23.006,23.006,0,0,0,1.353,3.546.467.467,0,0,1-.07.511l-3.776,4.281,2.824,3.905,5.239-2.242a.468.468,0,0,1,.508.093,22.7,22.7,0,0,0,2.952,2.393.466.466,0,0,1,.195.479l-1.128,5.593,4.4,1.97,3.421-4.568A.466.466,0,0,1,1808.407,3661.463Zm-7.5-27.943h0Z" transform="translate(-1784.592 -3609.977)"/>
            </g>
          </g>
          <path id="Path_22301" data-name="Path 22301" d="M1811.778,3752.156a.463.463,0,0,1-.1-.01,34.217,34.217,0,0,1-18.441-10.6.467.467,0,1,1,.688-.632,33.293,33.293,0,0,0,17.945,10.32.467.467,0,0,1-.1.925Z" transform="translate(-1727.685 -3616.972)" fill="#fff"/>
          <path id="Path_22302" data-name="Path 22302" d="M1787.845,3731.708a.467.467,0,0,1-.4-.231,48.415,48.415,0,0,1-6.474-25.668c.283-9.125,3.237-17.058,8.319-22.336a.467.467,0,0,1,.673.648c-4.921,5.11-7.782,12.822-8.057,21.716a47.46,47.46,0,0,0,6.345,25.167.467.467,0,0,1-.4.7Z" transform="translate(-1727.034 -3613.9)" fill="#fff"/>
          <path id="Path_22303" data-name="Path 22303" d="M1873.019,3707.135a.475.475,0,0,1-.151-.024.469.469,0,0,1-.29-.595c1.665-4.847,1.326-10.7-.951-16.488a.467.467,0,1,1,.87-.343c2.36,5.992,2.7,12.078.965,17.135A.467.467,0,0,1,1873.019,3707.135Z" transform="translate(-1731.882 -3614.224)" fill="#fff"/>
          <path id="Path_22304" data-name="Path 22304" d="M1866.115,3681.211a.465.465,0,0,1-.376-.189c-5.717-7.721-13.967-12.405-22.07-12.532a.468.468,0,0,1,.007-.935h.008c8.393.132,16.918,4.958,22.806,12.91a.468.468,0,0,1-.375.746Z" transform="translate(-1730.364 -3613.057)" fill="#fff"/>
          <path id="Path_22305" data-name="Path 22305" d="M1770.861,3620.753a.459.459,0,0,1-.224-.059,19.232,19.232,0,0,0-16.258-.752.468.468,0,0,1-.358-.864,20.185,20.185,0,0,1,17.067.8.468.468,0,0,1-.226.877Z" transform="translate(-1725.579 -3610.382)" fill="#fff"/>
          <path id="Path_22306" data-name="Path 22306" d="M1780.248,3632.073a.467.467,0,0,1-.452-.354,16.855,16.855,0,0,0-5.008-8.616.468.468,0,0,1,.628-.694,17.78,17.78,0,0,1,5.287,9.083.468.468,0,0,1-.341.567A.477.477,0,0,1,1780.248,3632.073Z" transform="translate(-1726.697 -3610.635)" fill="#fff"/>
        </g>
        <g id="Group_6958" data-name="Group 6958" transform="translate(68.67 114.718)">
          <circle id="Ellipse_1688" data-name="Ellipse 1688" cx="12.103" cy="12.103" r="12.103" transform="translate(0 16.451) rotate(-42.815)" fill="#fff"/>
          <path id="Path_22307" data-name="Path 22307" d="M1731.081,3680.079c-2.493,2.417-5.6,5.975-7,9.949l-5.571-6.519c-.154-.18-.483-.03-.384.173,2.339,4.816,4.661,8.792,6.3,12.325a.5.5,0,0,0,.885-.031,99.618,99.618,0,0,1,6.347-15.593C1731.815,3680.083,1731.336,3679.832,1731.081,3680.079Z" transform="translate(-1708.147 -3670.7)" fill="#b5d333"/>
        </g>
        <g id="Group_6983" data-name="Group 6983" transform="translate(0 109.376)">
          <g id="Group_6959" data-name="Group 6959" transform="translate(0 13.844)">
            <path id="Path_22308" data-name="Path 22308" d="M1690.949,3695.744v14.488c0,14.169,11.188,25.655,24.989,25.655h0c13.8,0,24.989,11.487,24.989,25.655h0a2.285,2.285,0,0,1-2.284,2.287H1672.5c-20.69,0-37.462-17.22-37.462-38.461v-30.913a15.1,15.1,0,0,1,14.9-15.3h24.86A16.375,16.375,0,0,1,1690.949,3695.744Z" transform="translate(-1635.034 -3679.157)" fill="#ec1965"/>
            <rect id="Rectangle_1605" data-name="Rectangle 1605" width="5.994" height="69.794" transform="translate(54.28 128.356) rotate(180)" fill="#ec1965"/>
            <path id="Path_22309" data-name="Path 22309" d="M1715.73,3817.027,1689.2,3814.7h-2.433l-27.083,2.329v1.848h56.044Z" transform="translate(-1636.353 -3686.406)" fill="#ec1965"/>
          </g>
          <g id="Group_6978" data-name="Group 6978" transform="translate(11.831)">
            <g id="Group_6964" data-name="Group 6964" transform="translate(10.486 69.259)">
              <g id="Group_6960" data-name="Group 6960" transform="translate(46.565 50.88)">
                <path id="Path_22310" data-name="Path 22310" d="M1708.3,3803.632c.615-.623,4.169-11.68,4.169-11.68l7.024,5.012-7.7,10.349Z" transform="translate(-1707.835 -3791.485)" fill="#f0af86"/>
                <path id="Path_22311" data-name="Path 22311" d="M1711.769,3807.754a.468.468,0,0,1-.339-.146l-3.494-3.681a.467.467,0,0,1,0-.642c.414-.544,2.4-6.326,4.065-11.5a.468.468,0,0,1,.716-.238l7.024,5.012a.467.467,0,0,1,.1.66l-7.7,10.349a.468.468,0,0,1-.347.188Zm-2.916-4.22,2.873,3.027,7.084-9.521-6.115-4.362C1711.652,3795.906,1709.682,3801.873,1708.853,3803.535Z" transform="translate(-1707.808 -3791.458)"/>
              </g>
              <g id="Group_6961" data-name="Group 6961" transform="translate(42.115 57.69)">
                <path id="Path_22312" data-name="Path 22312" d="M1720.682,3817.971l-4.671-.028a9.2,9.2,0,0,1-7.651-4.179l-4.618-7.313a4.107,4.107,0,0,1,1.548-5.82c1.927-1.024,3.947-2.023,4.42-1.977.962.091,1.35,4.637,1.35,4.637l4.161.161s2.056,8.549,3.865,9.52a7.94,7.94,0,0,1,2.858,2.7A1.491,1.491,0,0,1,1720.682,3817.971Z" transform="translate(-1703.107 -3798.654)"/>
                <path id="Path_22313" data-name="Path 22313" d="M1720.278,3816.86a.462.462,0,0,1-.07-.006l-6.389-.962a5.3,5.3,0,0,1-3.771-2.527l-5.645-9.432a.467.467,0,1,1,.8-.48l5.646,9.431a4.368,4.368,0,0,0,3.107,2.083l6.389.962a.467.467,0,0,1-.069.929Z" transform="translate(-1703.173 -3798.898)" fill="#fff"/>
                <path id="Path_22314" data-name="Path 22314" d="M1712.82,3810.029a.467.467,0,0,1-.122-.918l3.559-.969a.468.468,0,1,1,.246.9l-3.559.969A.457.457,0,0,1,1712.82,3810.029Z" transform="translate(-1703.602 -3799.16)" fill="#fff"/>
                <path id="Path_22315" data-name="Path 22315" d="M1714.779,3811.981a.467.467,0,0,1-.111-.921l2.387-.584a.468.468,0,0,1,.222.909l-2.387.583A.464.464,0,0,1,1714.779,3811.981Z" transform="translate(-1703.706 -3799.285)" fill="#fff"/>
              </g>
              <g id="Group_6962" data-name="Group 6962" transform="translate(70.531 56.572)">
                <path id="Path_22316" data-name="Path 22316" d="M1733.623,3801.844l8.155,8.194,4.323-1.588-7.517-10.482Z" transform="translate(-1733.155 -3797.499)" fill="#f0af86"/>
                <path id="Path_22317" data-name="Path 22317" d="M1741.752,3810.478a.472.472,0,0,1-.332-.137l-8.154-8.194a.467.467,0,0,1,.044-.7l4.961-3.877a.461.461,0,0,1,.354-.094.466.466,0,0,1,.313.19l7.517,10.482a.469.469,0,0,1,.067.41.474.474,0,0,1-.286.3l-4.323,1.587A.474.474,0,0,1,1741.752,3810.478Zm-7.452-8.617,7.571,7.608,3.465-1.273-6.876-9.587Z" transform="translate(-1733.129 -3797.473)"/>
              </g>
              <g id="Group_6963" data-name="Group 6963" transform="translate(76.461 65.616)">
                <path id="Path_22318" data-name="Path 22318" d="M1739.51,3809.24a23.48,23.48,0,0,0,.275,6.566,3.586,3.586,0,0,0,3.515,2.8h20.014a1.531,1.531,0,0,0,.982-2.7c-3.559-2.981-10.1-7.534-18.153-8.871l-2.245,3.142Z" transform="translate(-1739.394 -3807.027)"/>
                <path id="Path_22319" data-name="Path 22319" d="M1762.461,3816.79H1741.72a.467.467,0,1,1,0-.935h20.741a.467.467,0,1,1,0,.935Z" transform="translate(-1739.494 -3807.499)" fill="#fff"/>
                <path id="Path_22320" data-name="Path 22320" d="M1751.406,3812.747a.456.456,0,0,1-.178-.036.466.466,0,0,1-.254-.609l1.1-2.664a.467.467,0,0,1,.864.356l-1.1,2.663A.468.468,0,0,1,1751.406,3812.747Z" transform="translate(-1740.012 -3807.141)" fill="#fff"/>
                <path id="Path_22321" data-name="Path 22321" d="M1755.22,3813.5a.467.467,0,0,1-.444-.614l.8-2.4a.467.467,0,1,1,.887.294l-.794,2.4A.469.469,0,0,1,1755.22,3813.5Z" transform="translate(-1740.216 -3807.195)" fill="#fff"/>
              </g>
              <path id="Path_22322" data-name="Path 22322" d="M1687.79,3741.434s37.269-4.339,48.351,5.254-17.495,50.847-17.495,50.847l-9.036-6.7,8.572-29.158-34.451-9.783Z" transform="translate(-1659.956 -3737.851)" fill="#b5d333"/>
              <path id="Path_22323" data-name="Path 22323" d="M1665.934,3760.274c5.414,1.718,15.1,3.939,28.64,3.755a10.1,10.1,0,0,1,9.145,5.5c4.01,7.864,12.69,22.024,26.828,31.2l6.752-3.638-17.234-38.8a14.322,14.322,0,0,0-8.155-7.629l-34.157-12.525s-10.59-2.96-15.783,6.495c-.927,1.688-2.649-1.331-3.06.032C1657.5,3749.341,1661.285,3758.8,1665.934,3760.274Z" transform="translate(-1658.613 -3737.704)" fill="#b5d333"/>
              <path id="Path_22324" data-name="Path 22324" d="M1729.914,3776.663a.469.469,0,0,1-.428-.277l-7.788-17.531a13.919,13.919,0,0,0-7.888-7.38l-16.358-6a.467.467,0,0,1,.322-.877l16.358,6a14.865,14.865,0,0,1,8.421,7.879l7.788,17.531a.467.467,0,0,1-.427.657Z" transform="translate(-1660.674 -3738.071)" fill="#fff"/>
              <path id="Path_22325" data-name="Path 22325" d="M1721.875,3794.053a.466.466,0,0,1-.337-.144c-1.569-1.632-3.115-3.386-4.593-5.212a.467.467,0,1,1,.726-.589c1.461,1.807,2.989,3.54,4.541,5.154a.468.468,0,0,1-.337.791Z" transform="translate(-1661.727 -3740.39)" fill="#fff"/>
              <path id="Path_22326" data-name="Path 22326" d="M1717.188,3788.715a.467.467,0,0,1-.363-.173c-.726-.9-1.449-1.83-2.15-2.769a.468.468,0,0,1,.751-.558c.692.929,1.407,1.85,2.125,2.738a.468.468,0,0,1-.363.762Z" transform="translate(-1661.606 -3740.234)" fill="#fff"/>
            </g>
            <g id="Group_6968" data-name="Group 6968" transform="translate(4.13 22.528)">
              <g id="Group_6965" data-name="Group 6965" transform="translate(32.435 19.575)">
                <path id="Path_22327" data-name="Path 22327" d="M1696.414,3709.676s3.278,29.764,25.29,31.712l-25.29.36s-9.364-18.975-9.744-26.363S1696.414,3709.676,1696.414,3709.676Z" transform="translate(-1686.192 -3709.039)" fill="#f0af86"/>
                <path id="Path_22328" data-name="Path 22328" d="M1696.387,3742.188a.468.468,0,0,1-.419-.261c-.383-.778-9.411-19.146-9.792-26.545a5.389,5.389,0,0,1,1.682-4.536c2.881-2.573,8.373-1.7,8.606-1.659a.468.468,0,0,1,.388.411,54.381,54.381,0,0,0,4.36,15c4.663,10.022,11.563,15.5,20.506,16.3a.468.468,0,0,1-.034.933l-25.29.36Zm-2.338-32.234c-1.745,0-4.1.279-5.57,1.59a4.5,4.5,0,0,0-1.369,3.789c.346,6.738,8.439,23.6,9.566,25.915l20.368-.289c-7.051-2.091-12.765-7.539-16.691-15.988a55.824,55.824,0,0,1-4.384-14.907A16.717,16.717,0,0,0,1694.05,3709.955Z" transform="translate(-1686.165 -3709.013)"/>
              </g>
              <g id="Group_6966" data-name="Group 6966">
                <path id="Path_22329" data-name="Path 22329" d="M1663.253,3689.652c4.271-1,6.052-1.017,21.573-.454,3.795.137,8.307,4.9,8.753,8.668-1.207,3.616-6.771,21.47,2.944,35.42a30.155,30.155,0,0,0,5.825,6.23,19.516,19.516,0,0,1-6.707,3.586c-5.008,1.487-7.527-.12-11.562,0-10.675.318-14.59,12.208-21.485,10.715-1.841-.4-4.281-1.834-6.569-6.651a74.213,74.213,0,0,1-3.093-13.987,76.712,76.712,0,0,1,3.654-33.843C1657.342,3696.966,1658.22,3690.836,1663.253,3689.652Z" transform="translate(-1651.924 -3688.358)" fill="#111c4e"/>
                <path id="Path_22330" data-name="Path 22330" d="M1663.746,3754.386a6,6,0,0,1-1.278-.139c-2.672-.578-4.991-2.9-6.892-6.908l-.023-.056a74.95,74.95,0,0,1-3.113-14.074,76.593,76.593,0,0,1,3.676-34.049c.1-.31.2-.7.324-1.153.775-2.9,2.073-7.753,6.68-8.836,4.274-1,5.9-1.04,21.7-.468,4.2.152,8.745,5.245,9.2,9.081l.012.1-.033.1c-2.093,6.275-6,22.246,2.884,35a29.866,29.866,0,0,0,5.736,6.135l.45.362-.45.364a19.942,19.942,0,0,1-6.869,3.671,16.276,16.276,0,0,1-7.8.332,22.1,22.1,0,0,0-3.88-.312c-5.415.161-9.074,3.428-12.3,6.31C1669.162,3752.176,1666.686,3754.386,1663.746,3754.386Zm-7.313-7.421c1.768,3.713,3.866,5.856,6.233,6.369,3.051.66,5.566-1.582,8.475-4.178,3.347-2.989,7.14-6.376,12.9-6.548a22.522,22.522,0,0,1,4.041.323,15.3,15.3,0,0,0,7.4-.3,18.873,18.873,0,0,0,6.1-3.147,30.648,30.648,0,0,1-5.463-5.955c-9.079-13.038-5.183-29.255-3.038-35.733-.508-3.711-4.884-8.032-8.292-8.155-15.685-.568-17.289-.536-21.449.443h0c-4.062.955-5.269,5.47-5.99,8.169-.124.463-.23.862-.339,1.2a75.654,75.654,0,0,0-3.635,33.644A73.82,73.82,0,0,0,1656.434,3746.965Z" transform="translate(-1651.897 -3688.331)"/>
              </g>
              <g id="Group_6967" data-name="Group 6967" transform="translate(35.104 1.055)">
                <path id="Path_22331" data-name="Path 22331" d="M1699.47,3711.974s-2.51-20.126-9.743-21.844a72.056,72.056,0,0,1,3.022,25.34.459.459,0,0,0,.708.407Z" transform="translate(-1689.025 -3689.483)" fill="#111c4e"/>
                <path id="Path_22332" data-name="Path 22332" d="M1693.169,3716.382a.928.928,0,0,1-.927-.968c.393-9.532-.589-17.768-3-25.177l-.257-.791.81.192c7.463,1.773,10,21.406,10.1,22.241l.036.291-6.259,4.062A.926.926,0,0,1,1693.169,3716.382Zm-2.754-25.539a72.71,72.71,0,0,1,2.761,24.609l5.752-3.745C1698.6,3709.367,1696.19,3693.576,1690.415,3690.843Z" transform="translate(-1688.985 -3689.446)" fill="#111c4e"/>
              </g>
            </g>
            <g id="Group_6970" data-name="Group 6970" transform="translate(16.003)">
              <g id="Group_6969" data-name="Group 6969" transform="translate(1.309 4.602)">
                <path id="Path_22333" data-name="Path 22333" d="M1676.35,3688.194l.427-6.046c.289-.02.488-.033.547-.033,1.687-.02,2.235-.566,2.38-1.952a10.325,10.325,0,0,0-.3-3.764.8.8,0,0,1,.035-.518l.288-.676a.589.589,0,0,0-.194-.607l-.153-.126a6.161,6.161,0,0,1-1.375-1.621c-.337-.567-.911-1.628-1.3-1.816-1.108-.529-5.606-2.882-8.12,1.229-1.96,3.2,1.243,7.618,2.407,9.063.281.349-1.9,7.2-1.9,7.2l-2.769.471s2.125,4.076,8.735,2.477c4.708-1.138,3.96-2.89,3.96-2.89Z" transform="translate(-1665.85 -3669.419)" fill="#f0af86"/>
                <path id="Path_22334" data-name="Path 22334" d="M1672.1,3692.294c-4.539,0-6.142-2.955-6.22-3.106a.466.466,0,0,1,.336-.677l2.488-.423a58.516,58.516,0,0,0,1.816-6.594c-1.452-1.827-4.386-6.193-2.362-9.5,1.76-2.877,4.654-3.37,8.6-1.464l.118.057a4.583,4.583,0,0,1,1.354,1.741l.15.257a5.691,5.691,0,0,0,1.27,1.5l.153.126a1.056,1.056,0,0,1,.349,1.09.468.468,0,0,1-.021.062l-.289.677a.333.333,0,0,0-.012.216,10.8,10.8,0,0,1,.313,3.931c-.176,1.685-.973,2.349-2.84,2.371l-.115,0-.367,5.208,2.235.33a.468.468,0,0,1,.362.279,1.482,1.482,0,0,1-.107,1.21c-.495.989-1.9,1.768-4.173,2.318A12.943,12.943,0,0,1,1672.1,3692.294Zm-5-2.984c.835.985,3.1,2.825,7.819,1.686,2.553-.617,3.311-1.384,3.535-1.786a.873.873,0,0,0,.095-.241l-2.292-.338a.468.468,0,0,1-.4-.5l.427-6.047a.467.467,0,0,1,.434-.434c.3-.021.513-.033.575-.034,1.5-.017,1.8-.417,1.92-1.533a9.871,9.871,0,0,0-.286-3.6,1.272,1.272,0,0,1,.057-.82l.27-.634a.125.125,0,0,0-.043-.1l-.153-.126a6.62,6.62,0,0,1-1.48-1.744l-.155-.265a6.207,6.207,0,0,0-.951-1.37l-.12-.058c-1.282-.62-5.187-2.505-7.4,1.109-1.75,2.863,1.076,6.916,2.372,8.526.175.218.439.546-1.818,7.636a.468.468,0,0,1-.367.319Z" transform="translate(-1665.824 -3669.392)" fill="#f0af86"/>
              </g>
              <path id="Path_22335" data-name="Path 22335" d="M1669.865,3666.75c1.219-.263,2.62-.076,3.211-.294.954-.35.981-1.493,2.3-1.814a2.333,2.333,0,0,1,2.889,1.245,2.667,2.667,0,0,1,.271.537c1,2.694-.263,4.008-.828,4.436,0,0-3.595,1.857-4.21,2.388a3.32,3.32,0,0,0-.823,3.36.508.508,0,0,1-.225.556h0a.479.479,0,0,1-.644-.147c-.468-.678-1.489-1.989-2.216-1.678-.913.39-.628,3.126,1.386,3.441a1.318,1.318,0,0,1,1.06,1.377,1.337,1.337,0,0,1-1.031,1.071,1.379,1.379,0,0,1-1.036-.266c-1.315-.839-5.021-4.4-5.481-7.587C1663.936,3669.532,1668.244,3667.1,1669.865,3666.75Z" transform="translate(-1664.441 -3664.53)"/>
              <path id="Path_22336" data-name="Path 22336" d="M1677.688,3683.135h-.016a4.811,4.811,0,0,1-2.649-.989.435.435,0,0,1,.563-.663,3.925,3.925,0,0,0,2.118.784.434.434,0,0,1-.016.868Z" transform="translate(-1664.999 -3665.432)" fill="#f0af86"/>
            </g>
            <g id="Group_6973" data-name="Group 6973" transform="translate(36.206 43.657)">
              <g id="Group_6972" data-name="Group 6972">
                <g id="Group_6971" data-name="Group 6971">
                  <path id="Path_22337" data-name="Path 22337" d="M1748.368,3711.148H1722.1a3.247,3.247,0,0,0-2.726,1.46l-9.853,29h-23.246v.435a2.481,2.481,0,0,0,2.481,2.48H1738.1a2.48,2.48,0,0,0,2.48-2.48v-.382h0l8.9-27.12c.135-.413.3-.813.457-1.219A1.63,1.63,0,0,0,1748.368,3711.148Z" transform="translate(-1685.812 -3710.681)" fill="#b5d333"/>
                  <path id="Path_22338" data-name="Path 22338" d="M1738.069,3744.968h-49.335a2.951,2.951,0,0,1-2.948-2.948v-.435a.467.467,0,0,1,.467-.468h22.912l9.745-28.686a.484.484,0,0,1,.05-.105,3.7,3.7,0,0,1,3.118-1.672h26.263a2.115,2.115,0,0,1,1.77.919,2.048,2.048,0,0,1,.237,1.892c-.044.116-.089.233-.135.349-.114.292-.221.566-.314.849l-8.881,27.05v.308A2.951,2.951,0,0,1,1738.069,3744.968Zm-51.348-2.915a2.015,2.015,0,0,0,2.012,1.98h49.335a2.015,2.015,0,0,0,2.012-2.012v-.382a.47.47,0,0,1,.024-.146l8.906-27.121c.1-.307.219-.608.331-.9.045-.114.09-.227.134-.342a1.1,1.1,0,0,0-.134-1.029,1.194,1.194,0,0,0-1-.514h-26.263a2.768,2.768,0,0,0-2.3,1.2l-9.833,28.946a.468.468,0,0,1-.443.317Z" transform="translate(-1685.786 -3710.654)"/>
                </g>
                <path id="Path_22339" data-name="Path 22339" d="M1731.457,3726.757a2.04,2.04,0,1,0,2.6-1.641A2.19,2.19,0,0,0,1731.457,3726.757Z" transform="translate(-1688.223 -3711.424)" fill="#fff"/>
                <path id="Path_22340" data-name="Path 22340" d="M1733.622,3743.83h-17.116a.468.468,0,1,1,0-.935h17.116a.468.468,0,0,1,0,.935Z" transform="translate(-1687.404 -3712.378)" fill="#fff"/>
                <path id="Path_22341" data-name="Path 22341" d="M1743.625,3743.83h-3.034a.468.468,0,1,1,0-.935h3.034a.468.468,0,0,1,0,.935Z" transform="translate(-1688.692 -3712.378)" fill="#fff"/>
              </g>
            </g>
            <g id="Group_6977" data-name="Group 6977" transform="translate(0 22.987)">
              <g id="Group_6974" data-name="Group 6974" transform="translate(0.985 20.673)">
                <path id="Path_22342" data-name="Path 22342" d="M1699.563,3739.067a7.477,7.477,0,0,0-5.781-3.459c-6.9.391-20.205-6.592-30.1-9.965-1.714-2.493-.468-7.947-1.247-14.491l-12.622,1.091c-1.259,6.239-.779,16.828.312,18.231.721,1.718,4.646,6.708,12.621,10.6,12.466,6.077,29.152,2.1,29.152,2.1s8.457,4.47,12.109-.388A11.949,11.949,0,0,1,1699.563,3739.067Z" transform="translate(-1648.601 -3710.683)" fill="#f0af86"/>
                <path id="Path_22343" data-name="Path 22343" d="M1698.915,3745.5a17.582,17.582,0,0,1-7.106-1.865c-1.809.4-17.5,3.573-29.294-2.177-8.424-4.106-12.14-9.229-12.826-10.783-1.194-1.759-1.6-12.423-.361-18.556a.47.47,0,0,1,.418-.373l12.621-1.09a.468.468,0,0,1,.5.41,57.067,57.067,0,0,1,.284,7.419c-.025,2.986-.044,5.364.8,6.738,3.119,1.071,6.628,2.516,10.022,3.914,7.446,3.066,15.149,6.246,19.749,5.975,1.786-.1,4.668,1.275,6.2,3.674a11.506,11.506,0,0,0,4.246,3.546.468.468,0,0,1,.177.705A6.45,6.45,0,0,1,1698.915,3745.5Zm-7.043-2.825a.468.468,0,0,1,.219.054c.078.042,7.609,3.947,11.158.172a11.793,11.793,0,0,1-4.1-3.614,7.012,7.012,0,0,0-5.361-3.243c-4.82.272-12.614-2.94-20.158-6.045-3.437-1.415-6.991-2.878-10.121-3.945a.465.465,0,0,1-.234-.178c-1.1-1.594-1.075-4.156-1.049-7.4a58.985,58.985,0,0,0-.226-6.851l-11.816,1.021c-1.223,6.512-.576,16.395.289,17.509a.458.458,0,0,1,.063.106c.743,1.769,4.751,6.629,12.4,10.356,12.174,5.936,28.674,2.11,28.839,2.07A.458.458,0,0,1,1691.872,3742.679Z" transform="translate(-1648.575 -3710.657)"/>
              </g>
              <g id="Group_6975" data-name="Group 6975" transform="translate(47.21 49.476)">
                <path id="Path_22344" data-name="Path 22344" d="M1705.182,3745.068c-.581,0-2.845-.211-6.1-3.167a.467.467,0,0,1,.629-.692c3.358,3.049,5.5,2.921,5.521,2.923a.468.468,0,0,1,.094.931C1705.312,3745.063,1705.264,3745.068,1705.182,3745.068Z" transform="translate(-1697.492 -3741.087)"/>
                <path id="Path_22345" data-name="Path 22345" d="M1702.9,3746.307c-.686,0-2.631-.241-5.331-2.587a.468.468,0,0,1,.613-.706c2.956,2.569,4.826,2.356,4.845,2.353a.467.467,0,0,1,.139.924A1.751,1.751,0,0,1,1702.9,3746.307Z" transform="translate(-1697.411 -3741.184)"/>
              </g>
              <g id="Group_6976" data-name="Group 6976">
                <path id="Path_22346" data-name="Path 22346" d="M1648.178,3715.6a.136.136,0,0,1-.151-.144c.088-1.43.768-12.11,1.73-16.416,2.173-9.718,15.582-9.733,15.582-9.733a61.76,61.76,0,0,0-2.484,23.972.851.851,0,0,1-.761.939Z" transform="translate(-1647.56 -3688.842)" fill="#111c4e"/>
                <path id="Path_22347" data-name="Path 22347" d="M1648.139,3716.045a.6.6,0,0,1-.421-.17.6.6,0,0,1-.183-.47c.076-1.229.766-12.13,1.741-16.489,2.229-9.968,15.9-10.1,16.037-10.1h.627l-.178.6a61.59,61.59,0,0,0-2.466,23.792,1.32,1.32,0,0,1-.293.975,1.306,1.306,0,0,1-.888.477l-13.918,1.381Zm-.031-.934h0Zm16.575-25.333c-2.636.158-12.694,1.289-14.495,9.341-.893,3.991-1.548,13.648-1.7,15.955l13.529-1.342a.373.373,0,0,0,.257-.138.39.39,0,0,0,.086-.289A62.257,62.257,0,0,1,1664.683,3689.778Z" transform="translate(-1647.534 -3688.816)"/>
              </g>
            </g>
          </g>
          <g id="Group_6982" data-name="Group 6982" transform="translate(18.88 76.492)">
            <g id="Group_6979" data-name="Group 6979" transform="translate(0 4.306)">
              <path id="Path_22348" data-name="Path 22348" d="M1688.292,3817.428l-14.594-60.563-14.594,60.563h-3.5l16.034-67.034,4.113-.006,16.036,67.04Z" transform="translate(-1655.014 -3749.92)" fill="#fff"/>
              <path id="Path_22349" data-name="Path 22349" d="M1692.35,3817.869h-4.459l-.086-.358-14.139-58.678-14.225,59.036h-4.459l16.258-67.969,4.851-.006.085.359Zm-3.723-.935h2.538l-15.812-66.1-3.375,0-15.811,66.1h2.538l14.962-62.092Z" transform="translate(-1654.981 -3749.894)"/>
            </g>
            <g id="Group_6980" data-name="Group 6980" transform="translate(82.897 4.098)">
              <path id="Path_22350" data-name="Path 22350" d="M1775.873,3817.208l-14.594-60.563-14.594,60.563h-3.5l16.034-67.034,4.113-.006,16.036,67.039Z" transform="translate(-1742.595 -3749.701)" fill="#fff"/>
              <path id="Path_22351" data-name="Path 22351" d="M1779.93,3817.649h-4.458l-.086-.358-14.139-58.677-14.226,59.035h-4.458l16.258-67.968,4.85-.007.086.36Zm-3.722-.935h2.537l-15.812-66.1-3.375,0-15.811,66.1h2.537l14.963-62.091Z" transform="translate(-1742.562 -3749.674)"/>
            </g>
            <g id="Group_6981" data-name="Group 6981" transform="translate(2.543)">
              <rect id="Rectangle_1606" data-name="Rectangle 1606" width="115.109" height="5.476" transform="translate(115.576 5.943) rotate(180)" fill="#fff"/>
              <path id="Path_22352" data-name="Path 22352" d="M1773.712,3751.756H1657.668v-6.411h116.044Zm-115.109-.935h114.173v-4.541H1658.6Z" transform="translate(-1657.668 -3745.345)"/>
            </g>
            <path id="Path_22353" data-name="Path 22353" d="M1694.958,3750.533a.468.468,0,0,1-.468-.467v-3.05a.468.468,0,0,1,.935,0v3.05A.467.467,0,0,1,1694.958,3750.533Z" transform="translate(-1657.094 -3745.409)" fill="#b5d333"/>
          </g>
        </g>
        <g id="Group_6984" data-name="Group 6984" transform="translate(165.841 19.475)">
          <path id="Path_22354" data-name="Path 22354" d="M1846.322,3611.549a.346.346,0,0,1-.394.022l-4.733-2.894a.346.346,0,0,1,.084-.628l8.245-2.385a.346.346,0,0,1,.384.524l-3.512,5.28A.373.373,0,0,1,1846.322,3611.549Zm-4.094-3.054,3.777,2.311,2.8-4.215Z" transform="translate(-1811.892 -3571.481)"/>
          <path id="Path_22355" data-name="Path 22355" d="M1832.94,3599.532a.346.346,0,0,1-.532-.409l12.533-29.362a.346.346,0,0,1,.637.272l-12.532,29.363A.347.347,0,0,1,1832.94,3599.532Z" transform="translate(-1811.43 -3569.55)"/>
          <path id="Path_22356" data-name="Path 22356" d="M1826.822,3597.743a.346.346,0,0,1-.558-.267l-.463-22.988a.347.347,0,1,1,.693-.014l.463,22.989A.348.348,0,0,1,1826.822,3597.743Z" transform="translate(-1811.078 -3569.795)"/>
          <path id="Path_22357" data-name="Path 22357" d="M1820.812,3598.522a.347.347,0,0,1-.31.06,2.852,2.852,0,0,1-2.073-1.539,1.848,1.848,0,0,1,.021-1.264,1.578,1.578,0,0,0,.081-.817c-.122-.576-.631-.837-1.221-1.139a2.9,2.9,0,0,1-1.581-1.412,2.661,2.661,0,0,1,.542-2.424,2.5,2.5,0,0,0,.566-1.915c-.208-.77-1-1.133-1.836-1.517-.9-.415-1.931-.886-2.213-1.979a3.1,3.1,0,0,1,.569-2.348c.327-.582.609-1.084.427-1.578-.263-.708-1.379-1.183-3.229-1.375a.347.347,0,0,1,.072-.69c2.19.227,3.436.823,3.806,1.824a2.513,2.513,0,0,1-.472,2.158,2.5,2.5,0,0,0-.5,1.835c.2.774.992,1.138,1.831,1.523.9.414,1.924.882,2.217,1.966a3.089,3.089,0,0,1-.643,2.454c-.392.648-.73,1.209-.49,1.81a2.309,2.309,0,0,0,1.251,1.051c.653.334,1.392.713,1.583,1.612a2.209,2.209,0,0,1-.093,1.15,1.2,1.2,0,0,0-.039.83c.184.488.728.863,1.617,1.118a.348.348,0,0,1,.117.607Z" transform="translate(-1810.246 -3570.034)"/>
        </g>
        <g id="Group_6985" data-name="Group 6985" transform="translate(144.337 215.275)">
          <path id="Path_22358" data-name="Path 22358" d="M1792.329,3803.946a.468.468,0,0,1-.027-.934,100.967,100.967,0,0,0,45.9-14.367.468.468,0,0,1,.484.8,101.935,101.935,0,0,1-46.329,14.5Z" transform="translate(-1787.758 -3777.065)"/>
          <path id="Path_22359" data-name="Path 22359" d="M1793.442,3808.9q-2.732,0-5.472-.141a.467.467,0,1,1,.048-.933,105.874,105.874,0,0,0,59-14.5.468.468,0,0,1,.475.805,106.887,106.887,0,0,1-54.048,14.765Z" transform="translate(-1787.526 -3777.315)"/>
          <path id="Path_22360" data-name="Path 22360" d="M1854.224,3793.128h-.033a.468.468,0,0,1-.433-.5,3.317,3.317,0,0,1,1.264-2.739,2.193,2.193,0,0,1,1.463-.288,1.764,1.764,0,0,0,.9-.1c.557-.248.722-.767.946-1.591a3.375,3.375,0,0,1,1.235-2.144,3.1,3.1,0,0,1,2.9.023,2.8,2.8,0,0,0,2.221.184c.783-.4,1-1.355,1.226-2.366.254-1.127.54-2.405,1.728-2.994a3.6,3.6,0,0,1,2.816.074c.711.224,1.326.415,1.807.112.706-.446.963-1.784.742-3.871a.467.467,0,1,1,.928-.1c.27,2.536-.114,4.093-1.171,4.76a2.975,2.975,0,0,1-2.586-.01,2.809,2.809,0,0,0-2.121-.131c-.788.392-1,1.349-1.232,2.361-.252,1.123-.539,2.395-1.712,2.995a3.589,3.589,0,0,1-2.954-.134c-.8-.278-1.492-.518-2.079-.129a2.594,2.594,0,0,0-.85,1.61,2.9,2.9,0,0,1-1.468,2.2,2.635,2.635,0,0,1-1.343.175,1.3,1.3,0,0,0-.9.142,2.486,2.486,0,0,0-.836,2.019A.467.467,0,0,1,1854.224,3793.128Z" transform="translate(-1791.069 -3776.414)"/>
        </g>
        <g id="Group_6986" data-name="Group 6986" transform="translate(13.578 4.877)">
          <path id="Path_22361" data-name="Path 22361" d="M1687.474,3604.7a.467.467,0,0,1-.356-.77c16.232-19.084,34.6-31.544,54.6-37.034a.467.467,0,0,1,.248.9c-19.816,5.439-38.032,17.8-54.141,36.738A.463.463,0,0,1,1687.474,3604.7Z" transform="translate(-1651.392 -3554.809)"/>
          <path id="Path_22362" data-name="Path 22362" d="M1649.847,3643.981a.482.482,0,0,1-.144-.023.467.467,0,0,1-.3-.589,122.579,122.579,0,0,1,17.982-34.751,137.569,137.569,0,0,1,27.042-27.53c20.478-15.743,44.36-25.271,67.249-26.828.765-.052,1.61-.1,2.513-.133a.468.468,0,0,1,.037.934c-.894.035-1.731.079-2.486.131-48.227,3.281-96.139,41.313-111.448,88.466A.467.467,0,0,1,1649.847,3643.981Z" transform="translate(-1649.379 -3554.127)"/>
          <path id="Path_22363" data-name="Path 22363" d="M1669.641,3630.524a.468.468,0,0,1-.042-.933c1.557-.141,2.513-.549,2.841-1.213s-.044-1.524-.4-2.358c-.4-.942-.821-1.916-.277-2.736s1.649-.8,2.615-.775c.849.022,1.652.044,2-.418.408-.542.067-1.546-.261-2.517-.372-1.1-.756-2.236-.053-2.948a2.032,2.032,0,0,1,1.964-.274,1.988,1.988,0,0,0,1.595-.091c.4-.3.431-.806.456-1.673a6.524,6.524,0,0,1,.448-2.53c.707-1.616,2.391-2.821,5-3.581a.467.467,0,1,1,.261.9c-2.334.679-3.818,1.708-4.409,3.058a5.591,5.591,0,0,0-.369,2.184,2.806,2.806,0,0,1-.825,2.389,2.769,2.769,0,0,1-2.338.265c-.579-.112-.945-.167-1.121.013-.3.3,0,1.2.273,1.991.388,1.146.827,2.444.122,3.379-.639.848-1.773.817-2.772.79-.793-.021-1.546-.042-1.811.357s.038,1.105.358,1.851c.42.981.9,2.093.38,3.141-.482.976-1.69,1.558-3.595,1.73Z" transform="translate(-1650.438 -3557.033)"/>
        </g>
        <g id="Group_6987" data-name="Group 6987" transform="translate(24.213 94.787)">
          <path id="Path_22364" data-name="Path 22364" d="M1665.333,3652.47a.468.468,0,0,1-.468-.468v-2.417a.467.467,0,1,1,.934,0V3652A.468.468,0,0,1,1665.333,3652.47Z" transform="translate(-1660.842 -3649.118)"/>
          <path id="Path_22365" data-name="Path 22365" d="M1665.333,3658.418a.468.468,0,0,1-.468-.468v-2.417a.467.467,0,1,1,.934,0v2.417A.468.468,0,0,1,1665.333,3658.418Z" transform="translate(-1660.842 -3649.436)"/>
          <path id="Path_22366" data-name="Path 22366" d="M1663.5,3654.3h-2.416a.468.468,0,1,1,0-.935h2.416a.468.468,0,1,1,0,.935Z" transform="translate(-1660.615 -3649.345)"/>
          <path id="Path_22367" data-name="Path 22367" d="M1669.447,3654.3h-2.416a.468.468,0,1,1,0-.935h2.416a.468.468,0,1,1,0,.935Z" transform="translate(-1660.933 -3649.345)"/>
        </g>
      </g>
      <path id="Path_22368" data-name="Path 22368" d="M1800.649,3697.412a29.292,29.292,0,0,0-1.647,4.634l-7.621,1.1-.55,7.038,7.368,2.278a29.689,29.689,0,0,0,.9,4.829l-6.057,4.774,3.042,6.37,7.509-1.709a29.194,29.194,0,0,0,3.2,3.733l-2.859,7.161,5.82,3.995,5.656-5.24a29.319,29.319,0,0,0,4.634,1.647l1.1,7.621,7.037.55,2.278-7.367a29.7,29.7,0,0,0,4.829-.9l4.774,6.057,6.37-3.042-1.709-7.509a29.257,29.257,0,0,0,3.733-3.2l7.161,2.858,4-5.82-5.241-5.656a29.286,29.286,0,0,0,1.647-4.634l7.621-1.1.55-7.038-7.368-2.278a29.65,29.65,0,0,0-.9-4.829l6.057-4.774-3.042-6.37-7.509,1.708a29.248,29.248,0,0,0-3.2-3.732l2.858-7.162-5.82-4-5.655,5.241a29.206,29.206,0,0,0-4.634-1.647l-1.1-7.621-7.037-.55-2.278,7.367a29.7,29.7,0,0,0-4.829.9l-4.774-6.058-6.37,3.043,1.709,7.509a29.237,29.237,0,0,0-3.733,3.2l-7.161-2.858-4,5.82Z" transform="translate(-8.333 -6.625)" fill="#fff" stroke="#000" stroke-miterlimit="10" stroke-width="1"/>
    </g>
    <g id="Group_6994" data-name="Group 6994" transform="translate(368 -91)">
      <g id="Group_6989" data-name="Group 6989" transform="translate(-1392.986 -2476.454)">
        <path id="Path_22369" data-name="Path 22369" d="M1539.715,3691.375a.685.685,0,0,0-.695.675v9.882l-.884-9.845a.69.69,0,0,0-.751-.614.681.681,0,0,0-.631.732l.883,9.835-1.76-9.723a.692.692,0,0,0-.8-.547.677.677,0,0,0-.563.782l1.761,9.726-2.625-9.539a.7.7,0,0,0-.85-.478.673.673,0,0,0-.49.827l2.624,9.538-3.468-9.279a.7.7,0,0,0-.889-.4.672.672,0,0,0-.415.866l3.467,9.276-4.284-8.946a.7.7,0,0,0-.922-.327.668.668,0,0,0-.336.9l4.285,8.948-5.07-8.55a.705.705,0,0,0-.948-.248.667.667,0,0,0-.254.923l5.073,8.554-5.819-8.091a.7.7,0,0,0-.966-.166.664.664,0,0,0-.171.941l5.818,8.09-6.52-7.566a.708.708,0,0,0-.978-.083.665.665,0,0,0-.085.952l6.516,7.561L1521.8,3699a.706.706,0,0,0-.981,0,.661.661,0,0,0,0,.955l7.171,6.982-7.769-6.347a.708.708,0,0,0-.978.084.663.663,0,0,0,.086.951l7.772,6.35-8.31-5.666a.708.708,0,0,0-.967.166.665.665,0,0,0,.171.941l8.306,5.663-8.782-4.937a.7.7,0,0,0-.948.247.667.667,0,0,0,.254.923l8.785,4.938-9.194-4.174a.7.7,0,0,0-.922.326.669.669,0,0,0,.336.9l9.186,4.171-9.524-3.375a.7.7,0,0,0-.89.4.672.672,0,0,0,.415.866l9.53,3.377-9.8-2.556a.7.7,0,0,0-.85.478.673.673,0,0,0,.491.827l9.794,2.556-9.986-1.715a.693.693,0,0,0-.8.548.678.678,0,0,0,.563.783l9.988,1.714-10.1-.86a.689.689,0,0,0-.752.614.682.682,0,0,0,.631.732l10.106.861H1513.68a.675.675,0,1,0,0,1.35h10.2a1.486,1.486,0,0,1,.752-1.96.678.678,0,0,0-.58-.722c.023,0,.046.006.069.006a.691.691,0,0,0,.683-.558.675.675,0,0,0-.526-.773.675.675,0,0,0,.812-.482.671.671,0,0,0-.442-.809.749.749,0,0,0,.187.027.694.694,0,0,0,.652-.444.668.668,0,0,0-.372-.846.722.722,0,0,0,.248.048.7.7,0,0,0,.629-.39.666.666,0,0,0-.3-.88.692.692,0,0,0,.914-.26.662.662,0,0,0-.2-.889.7.7,0,0,0,.915-.2.66.66,0,0,0-.134-.909.7.7,0,0,0,.937-.111.66.66,0,0,0-.052-.919.7.7,0,0,0,.945-.029.661.661,0,0,0,.029-.92.7.7,0,0,0,.944.052.661.661,0,0,0,.107-.92.7.7,0,0,0,.543.26.71.71,0,0,0,.4-.122.664.664,0,0,0,.187-.912.7.7,0,0,0,.58.312.714.714,0,0,0,.347-.091.664.664,0,0,0,.267-.893.7.7,0,0,0,.611.362.71.71,0,0,0,.293-.063.668.668,0,0,0,.356-.842.693.693,0,0,0,.626.391.7.7,0,0,0,.237-.041.67.67,0,0,0,.429-.814.691.691,0,0,0,.651.45.745.745,0,0,0,.18-.022.674.674,0,0,0,.5-.78.688.688,0,0,0,.669.511.723.723,0,0,0,.121-.011.675.675,0,0,0,.567-.732.687.687,0,0,0,.681.568l.062,0a.661.661,0,1,1,1.32-.056.685.685,0,0,0,.694-.675v-9.934a.685.685,0,0,0-.694-.675" fill="#ff0063"/>
        <path id="Path_22370" data-name="Path 22370" d="M1537.785,3691.375a.684.684,0,0,1,.694.675v9.882l.885-9.845a.69.69,0,0,1,.751-.614.682.682,0,0,1,.631.732l-.884,9.835,1.761-9.723a.69.69,0,0,1,.8-.547.676.676,0,0,1,.563.782l-1.761,9.726,2.625-9.539a.7.7,0,0,1,.851-.478.674.674,0,0,1,.49.827l-2.624,9.538,3.467-9.279a.7.7,0,0,1,.89-.4.672.672,0,0,1,.415.866l-3.467,9.276,4.284-8.946a.7.7,0,0,1,.922-.327.668.668,0,0,1,.336.9l-4.286,8.948,5.071-8.55a.7.7,0,0,1,.948-.248.667.667,0,0,1,.254.923l-5.073,8.554,5.819-8.091a.7.7,0,0,1,.966-.166.664.664,0,0,1,.17.941l-5.818,8.09,6.52-7.566a.708.708,0,0,1,.978-.083.664.664,0,0,1,.086.952l-6.516,7.561L1555.7,3699a.706.706,0,0,1,.981,0,.662.662,0,0,1,0,.955l-7.171,6.982,7.769-6.347a.707.707,0,0,1,.977.084.663.663,0,0,1-.085.951l-7.772,6.35,8.31-5.666a.708.708,0,0,1,.967.166.665.665,0,0,1-.171.941l-8.306,5.663,8.782-4.937a.7.7,0,0,1,.947.247.666.666,0,0,1-.253.923l-8.785,4.938,9.193-4.174a.7.7,0,0,1,.923.326.67.67,0,0,1-.336.9l-9.186,4.171,9.524-3.375a.7.7,0,0,1,.89.4.672.672,0,0,1-.415.866l-9.53,3.377,9.8-2.556a.7.7,0,0,1,.85.478.674.674,0,0,1-.491.827l-9.794,2.556,9.986-1.715a.692.692,0,0,1,.8.548.677.677,0,0,1-.563.783l-9.988,1.714,10.1-.86a.676.676,0,1,1,.121,1.346l-10.106.861h10.145a.675.675,0,1,1,0,1.35h-10.2a1.485,1.485,0,0,0-.751-1.96.678.678,0,0,1,.58-.722c-.023,0-.047.006-.069.006a.69.69,0,0,1-.683-.558.675.675,0,0,1,.526-.773.7.7,0,0,1-.142.019.692.692,0,0,1-.67-.5.67.67,0,0,1,.441-.809.742.742,0,0,1-.186.027.693.693,0,0,1-.652-.444.667.667,0,0,1,.371-.846.712.712,0,0,1-.247.048.693.693,0,0,1-.629-.39.665.665,0,0,1,.3-.88.694.694,0,0,1-.915-.26.663.663,0,0,1,.206-.889.708.708,0,0,1-.346.092.7.7,0,0,1-.569-.288.66.66,0,0,1,.134-.909.7.7,0,0,1-.938-.111.661.661,0,0,1,.053-.919.7.7,0,0,1-.945-.029.66.66,0,0,1-.029-.92.7.7,0,0,1-.944.052.659.659,0,0,1-.107-.92.7.7,0,0,1-.544.26.707.707,0,0,1-.4-.122.663.663,0,0,1-.187-.912.7.7,0,0,1-.581.312.707.707,0,0,1-.346-.091.665.665,0,0,1-.268-.893.694.694,0,0,1-.61.362.71.71,0,0,1-.293-.063.668.668,0,0,1-.356-.842.7.7,0,0,1-.626.391.709.709,0,0,1-.238-.041.67.67,0,0,1-.428-.814.692.692,0,0,1-.651.45.758.758,0,0,1-.181-.022.674.674,0,0,1-.5-.78.689.689,0,0,1-.67.511.744.744,0,0,1-.121-.011.675.675,0,0,1-.566-.732.688.688,0,0,1-.681.568l-.062,0a.661.661,0,1,0-1.32-.056.685.685,0,0,1-.694-.675v-9.934a.685.685,0,0,1,.694-.675" fill="#ff0063"/>
        <path id="Path_22371" data-name="Path 22371" d="M1574.18,3715.911a.5.5,0,1,0-.788-.617l-.972,1.24a25.294,25.294,0,0,0-28.972-29.431.5.5,0,0,0-.4.339.519.519,0,0,0-.017.236.5.5,0,0,0,.575.413,24.294,24.294,0,0,1,27.832,28.226l-.345-1.542a.5.5,0,0,0-.965-.045.487.487,0,0,0-.012.263l.925,4.134c.075.338.281.426.461.2l.324-.414.005-.006Z" fill="#b6e000"/>
      </g>
    </g>
    <g id="Group_6991" data-name="Group 6991" transform="translate(-1060.783 -2551.062)">
      <path id="Path_22381" data-name="Path 22381" d="M1564.253,3778.3a23.367,23.367,0,0,1-11.451-2.989l.816-1.407a21.7,21.7,0,0,0,10.635,2.775,21.142,21.142,0,1,0-9.706-40l-.745-1.447a22.861,22.861,0,1,1,10.451,43.067" transform="translate(1.83)" fill="#b6e000"/>
      <path id="Path_22382" data-name="Path 22382" d="M1546.087,3765.07a22.5,22.5,0,0,1-.31-22.261l1.444.773a20.9,20.9,0,0,0,.288,20.675Z" transform="translate(0 1.87)" fill="#b6e000"/>
      <path id="Path_22383" data-name="Path 22383" d="M1563.684,3767.761a13.919,13.919,0,0,1-7.828-2.386l.93-1.337a12.271,12.271,0,0,0,6.9,2.1,12.035,12.035,0,1,0,0-24.068,12.31,12.31,0,0,0-6.438,1.806l-.868-1.377a13.978,13.978,0,0,1,7.307-2.05,13.656,13.656,0,1,1,0,27.31" transform="translate(2.399 1.431)" fill="#b6e000"/>
      <path id="Path_22384" data-name="Path 22384" d="M1553.185,3760.86a13.493,13.493,0,0,1-.044-15.334l1.363.906a11.9,11.9,0,0,0,.038,13.512Z" transform="translate(1.452 2.376)" fill="#b6e000"/>
      <path id="Path_22385" data-name="Path 22385" d="M1562.626,3756.687v-1.62a2.464,2.464,0,1,0,0-4.927,2.554,2.554,0,0,0-.662.086l-.436-1.562a4.207,4.207,0,0,1,1.1-.145,4.085,4.085,0,1,1,0,8.168" transform="translate(3.457 2.935)" fill="#ff0063"/>
      <path id="Path_22386" data-name="Path 22386" d="M1546.907,3740.218l3.681,3.627,3.575-.053.055-3.522-3.682-3.628-.534,2.43a.817.817,0,0,1-.63.621Zm3.346,5.253a.832.832,0,0,1-.581-.238l-4.993-4.921a.8.8,0,0,1-.208-.8.822.822,0,0,1,.615-.565l3.421-.729.742-3.372a.818.818,0,0,1,.572-.606.836.836,0,0,1,.814.2l4.994,4.921a.812.812,0,0,1,.241.585l-.072,4.651a.816.816,0,0,1-.809.8l-4.721.071Z" transform="translate(0.271 0.267)" fill="#ff0063"/>
      <path id="Path_22387" data-name="Path 22387" d="M1546.906,3765.468l2.465.525a.817.817,0,0,1,.63.622l.535,2.428,3.681-3.628-.055-3.521-3.575-.054Zm3.145,6.01a.853.853,0,0,1-.231-.033.817.817,0,0,1-.572-.606l-.742-3.37-3.421-.731a.818.818,0,0,1-.615-.563.8.8,0,0,1,.208-.8l4.993-4.921a.83.83,0,0,1,.594-.238l4.721.071a.818.818,0,0,1,.809.8l.072,4.65a.81.81,0,0,1-.241.586l-4.994,4.921a.835.835,0,0,1-.583.237" transform="translate(0.271 5.114)" fill="#ff0063"/>
      <path id="Path_22388" data-name="Path 22388" d="M1563.15,3757.087a4.43,4.43,0,1,0-4.43-4.43,4.431,4.431,0,0,0,4.43,4.43" transform="translate(2.933 2.88)" fill="#b6e000"/>
      <path id="Path_22389" data-name="Path 22389" d="M1564.278,3754.568a.826.826,0,0,1-.583-.238l-10.829-10.671a.8.8,0,0,1,0-1.146.829.829,0,0,1,1.163,0l10.83,10.671a.8.8,0,0,1,0,1.146.825.825,0,0,1-.581.238" transform="translate(1.797 1.771)" fill="#ff0063"/>
      <path id="Path_22390" data-name="Path 22390" d="M1553.447,3763.571a.829.829,0,0,1-.583-.237.8.8,0,0,1,0-1.147l10.832-10.672a.832.832,0,0,1,1.162,0,.8.8,0,0,1,0,1.147l-10.83,10.671a.827.827,0,0,1-.581.237" transform="translate(1.797 3.449)" fill="#ff0063"/>
    </g>
    <path id="Path_22391" data-name="Path 22391" d="M1558.469,3676.583h-3.136a.569.569,0,0,1,0-1.138h3.136a.569.569,0,0,1,0,1.138" transform="translate(-1124.365 -2517.28)" fill="#ff0063"/>
    <g id="Group_6993" data-name="Group 6993" transform="translate(-1 -1)">
      <path id="Path_22392" data-name="Path 22392" d="M1557.017,3661.09a.556.556,0,0,1-.542-.569v-.977a.543.543,0,1,1,1.086,0v.977a.557.557,0,0,1-.543.569" transform="translate(-1124.539 -2515.576)" fill="#ff0063"/>
      <path id="Path_22393" data-name="Path 22393" d="M1551.712,3663.552a.528.528,0,0,1-.384-.167l-.654-.686a.589.589,0,0,1,0-.805.525.525,0,0,1,.767,0l.654.686a.588.588,0,0,1,0,.8.528.528,0,0,1-.384.167" transform="translate(-1123.923 -2515.86)" fill="#ff0063"/>
      <path id="Path_22394" data-name="Path 22394" d="M1550.049,3668.313h-.932a.569.569,0,0,1,0-1.138h.932a.569.569,0,0,1,0,1.138" transform="translate(-1123.722 -2516.424)" fill="#ff0063"/>
      <path id="Path_22395" data-name="Path 22395" d="M1562.264,3663.592a.527.527,0,0,1-.383-.167.588.588,0,0,1,0-.8l.754-.792a.523.523,0,0,1,.767,0,.587.587,0,0,1,0,.8l-.754.793a.531.531,0,0,1-.385.167" transform="translate(-1125.082 -2515.854)" fill="#ff0063"/>
      <path id="Path_22396" data-name="Path 22396" d="M1564.941,3668.313h-.932a.569.569,0,0,1,0-1.138h.932a.569.569,0,0,1,0,1.138" transform="translate(-1125.263 -2516.424)" fill="#ff0063"/>
      <path id="Path_22397" data-name="Path 22397" d="M1560.127,3667.53a3.627,3.627,0,0,1-1.168,2.583,4.641,4.641,0,0,0-.988,2.552h-.834v-1.871l.937-1.638a.582.582,0,0,0-.186-.78.529.529,0,0,0-.745.195l-.619,1.083-.62-1.083a.528.528,0,0,0-.745-.195.583.583,0,0,0-.186.78l.965,1.685v1.824h-.779a4.891,4.891,0,0,0-.846-2.533,3.976,3.976,0,0,1-1.217-2.76,3.592,3.592,0,0,1,3.791-3.67,3.655,3.655,0,0,1,3.24,3.827m-3.158-4.962a4.7,4.7,0,0,0-4.958,4.805,5.138,5.138,0,0,0,1.553,3.583,5.17,5.17,0,0,1,.548,2.278.556.556,0,0,0,.542.568h3.818a.556.556,0,0,0,.543-.568,4.384,4.384,0,0,1,.654-2.26,4.884,4.884,0,0,0-2.7-8.406" transform="translate(-1124.077 -2515.946)" fill="#ff0063"/>
      <path id="Path_22398" data-name="Path 22398" d="M1569.951,3661.945a4.162,4.162,0,0,1,.981,4.222,4.5,4.5,0,0,1-3.608,2.795,3.758,3.758,0,0,1-.25,2.056c-1.01,2.452-3.2,3.175-5.78,2.89v-1.147c2.047.27,3.973-.209,4.789-2.194a2.428,2.428,0,0,0,.029-1.9.594.594,0,0,1,.041-.55.52.52,0,0,1,.466-.254,3.469,3.469,0,0,0,3.3-2.1,3,3,0,0,0-1.225-3.42.582.582,0,0,1,.087-1.011,2.856,2.856,0,0,0,1.547-3.2c-.177-.943-1.266-2.371-2.67-2.146-.123.02-.7.41-.985.5a3.666,3.666,0,0,0-.212,1.038.5.5,0,0,1-.552.456.577.577,0,0,1-.49-.775,2.7,2.7,0,0,0-.385-2.24.587.587,0,0,1,.112-.8.526.526,0,0,1,.76.115,3.676,3.676,0,0,1,.525,1.087,2.1,2.1,0,0,0,1.165-1.286,2.236,2.236,0,0,0-.3-2,3.214,3.214,0,0,0-2.525-1.48,1.646,1.646,0,0,0-1.412.556.527.527,0,0,1-.763.1.589.589,0,0,1-.093-.8,7.591,7.591,0,0,1,1.182-.961c.3-.792-2.794-3.08-4.816-.907v8.268h-1.138v-8.509a.593.593,0,0,1,.174-.409c3.02-3,6.862-.494,6.867,1.526a4.294,4.294,0,0,1,3.423,1.979,3.435,3.435,0,0,1,.423,3.026,3.225,3.225,0,0,1-.22.5,3.579,3.579,0,0,1,3,2.942,4.117,4.117,0,0,1-1.44,4.035" transform="translate(-1124.669 -2514.29)" fill="#b5d333"/>
      <path id="Path_22399" data-name="Path 22399" d="M1542.984,3661.945a4.159,4.159,0,0,0-.981,4.222,4.5,4.5,0,0,0,3.608,2.795,3.758,3.758,0,0,0,.25,2.056c1.009,2.452,3.2,3.175,5.78,2.89v-1.147c-2.047.27-3.973-.209-4.79-2.194a2.432,2.432,0,0,1-.028-1.9.593.593,0,0,0-.041-.55.521.521,0,0,0-.466-.254,3.469,3.469,0,0,1-3.3-2.1,3,3,0,0,1,1.225-3.42.582.582,0,0,0-.087-1.011,2.856,2.856,0,0,1-1.547-3.2c.177-.943,1.266-2.371,2.67-2.146.123.02.7.41.985.5a3.7,3.7,0,0,1,.212,1.038.5.5,0,0,0,.552.456.577.577,0,0,0,.49-.775,2.7,2.7,0,0,1,.385-2.24.587.587,0,0,0-.112-.8.526.526,0,0,0-.76.115,3.67,3.67,0,0,0-.525,1.087,2.1,2.1,0,0,1-1.165-1.286,2.235,2.235,0,0,1,.3-2,3.214,3.214,0,0,1,2.526-1.48,1.645,1.645,0,0,1,1.412.556.528.528,0,0,0,.763.1.589.589,0,0,0,.093-.8,7.541,7.541,0,0,0-1.182-.961c-.295-.792,2.8-3.08,4.817-.907v8.268h1.138v-8.509a.59.59,0,0,0-.175-.409c-3.02-3-6.861-.494-6.867,1.526a4.3,4.3,0,0,0-3.424,1.979,3.434,3.434,0,0,0-.422,3.026,3.236,3.236,0,0,0,.22.5,3.579,3.579,0,0,0-3,2.942,4.114,4.114,0,0,0,1.44,4.035" transform="translate(-1122.986 -2514.29)" fill="#b5d333"/>
    </g>
  </g>
</svg>
